<svg width="93" height="34" viewBox="0 0 93 34" fill="none" xmlns="http://www.w3.org/2000/svg">
<path d="M7.159 18.7915L6.86764 33.0925H1.54002L0 0.665728H7.57522L7.49198 3.78369L21.7267 0.25V6.9848L7.45035 5.52975L7.20062 17.1286L19.8537 14.0522V20.6623L7.159 18.7915Z" fill="#DB3444"/>
<path d="M86.3821 33.0925L85.7994 17.2949L73.6457 18.9994L73.1463 33.0925H67.777L66.6116 0.665728H74.3117L73.8538 13.5117L85.7578 15.632L85.2167 0.665728H93L91.8346 33.0925H86.3821Z" fill="#DB3444"/>
<path d="M27.4709 24.0558C27.45 19.7655 29.5983 16.7639 33.9157 15.051C31.7 13.5209 30.5844 11.1394 30.5687 7.90654C30.5568 5.45926 31.4098 3.58187 33.1277 2.27435C34.8454 0.936612 36.9142 0.261884 39.3342 0.250162C41.7541 0.23844 43.8595 0.862734 45.6503 2.12304C47.4412 3.38336 48.342 5.1314 48.3529 7.36718C48.3554 7.88081 48.2818 8.30416 48.1322 8.63724C47.9824 8.9401 47.8016 9.09205 47.5899 9.09307C47.0757 9.09556 46.4838 8.69054 45.8144 7.87801C45.1448 7.03526 44.3399 6.35935 43.3997 5.85026C42.4897 5.34103 41.5659 5.08869 40.6282 5.09323C39.7207 5.09763 38.9208 5.44896 38.2284 6.14724C37.5361 6.84551 37.1934 7.91977 37.2005 9.37C37.2074 10.79 37.8032 12.0259 38.9881 13.0777C39.2299 13.0463 39.4718 13.03 39.7138 13.0288L40.4852 13.0251C41.5136 13.0201 42.4221 13.2121 43.2105 13.6011C44.0291 13.9899 44.4402 14.5619 44.4439 15.3173C44.4793 16.3746 43.4692 17.0593 41.4138 17.3714C40.8696 17.4345 40.3252 17.4673 39.7808 17.4699C39.2665 17.4724 38.5854 17.37 37.7374 17.1626C35.9276 18.2289 35.0286 19.9856 35.0405 22.4329C35.0178 23.9739 35.644 25.2399 36.9193 26.2307C38.1946 27.2216 39.7095 27.7128 41.4639 27.7043C43.2184 27.6958 45.7437 27.7043 48.0629 25.824C49.3575 24.5488 49.9836 22.6725 49.9413 20.1951C49.9377 19.4398 49.7973 18.5794 49.5204 17.6139C49.2737 16.6482 49.149 15.8784 49.1462 15.3043C49.1433 14.7 49.3834 14.3061 49.8665 14.1225C50.3798 13.9387 51.3171 13.8435 52.6783 13.8369C54.0698 13.8302 55.2794 13.7639 56.3073 13.6381C57.3654 13.5121 58.1512 13.3723 58.6647 13.2188C59.2083 13.0348 59.5706 12.882 59.7515 12.7603C59.9627 12.6384 60.1892 12.5769 60.4312 12.5757C61.0967 12.5725 61.4315 12.9939 61.4356 13.8398C61.4698 14.6554 61.0505 15.5186 60.1777 16.4292C59.335 17.3095 58.4296 17.752 57.4617 17.7567C56.5239 17.7612 55.3739 17.6459 54.0115 17.4108C54.1981 18.4674 54.2938 19.4791 54.2985 20.4459C54.2985 25.0302 53.9692 29.3279 49.9413 31.4801C47.0367 33.0322 44.6648 33.4916 41.277 33.508C35.6506 33.5353 30.5906 31.1107 28.5783 27.8574C27.8466 26.6826 27.4775 25.4154 27.4709 24.0558Z" fill="#DB3444" stroke="#DB3444" stroke-width="0.5"/>
</svg>
