<?xml version="1.0" standalone="no"?>
<!DOCTYPE svg PUBLIC "-//W3C//DTD SVG 1.1//EN" "http://www.w3.org/Graphics/SVG/1.1/DTD/svg11.dtd" >
<svg xmlns="http://www.w3.org/2000/svg" xmlns:xlink="http://www.w3.org/1999/xlink" version="1.1">
<metadata>
Created by FontForge 20201107 at Thu Jan 22 07:13:39 2026
 By 
Copyright (c) 2024 by Zamroni Hamzah. All rights reserved.
</metadata>
<defs>
<font id="SOONER-Regular" horiz-adv-x="1107" >
  <font-face 
    font-family="SOONER"
    font-weight="400"
    font-stretch="normal"
    units-per-em="2048"
    panose-1="0 0 0 0 0 0 0 0 0 0"
    ascent="1638"
    descent="-410"
    x-height="993"
    cap-height="1434"
    bbox="-211 -741 2857 1982"
    underline-thickness="0"
    underline-position="0"
    unicode-range="U+000A-F01D"
  />
<missing-glyph horiz-adv-x="1079" 
d="M102 1434h875v-1434h-875v1434zM160 1393l379 -633l381 633h-760zM565 717l371 -621v1239zM514 717l-369 614v-1231zM541 674l-379 -631h758z" />
    <glyph glyph-name="uniF001" unicode="OO" horiz-adv-x="2527" 
d="M1808 1456q191 0 346 -99.5t241.5 -268.5t86.5 -371q0 -152 -51 -288.5t-139.5 -235.5t-214.5 -157.5t-269 -58.5q-361 0 -499 316l37 22q40 -101 132.5 -165t198.5 -64q220 0 381 198q136 169 184 417q47 242 -15 429t-212 236q-48 16 -104 16q-194 0 -320 -192
q-76 -114 -164 -368q-92 -265 -112 -315q-108 -274 -241 -397q-146 -133 -355 -133q-143 0 -269 58.5t-214.5 157.5t-139.5 235.5t-51 288.5q0 202 86.5 371t241.5 268.5t346 99.5q359 0 500 -317l-37 -21q-40 101 -133 164.5t-199 63.5q-220 0 -381 -198
q-137 -169 -184 -417q-47 -242 15 -429q63 -187 214 -236q47 -15 102 -15q70 0 129.5 22t107 72t83 99t72 135t59 145.5t57.5 163.5q36 107 56 162t60.5 150.5t74 148t87 120t109.5 102.5t132.5 60t164.5 25z" />
    <glyph glyph-name="uniF002" unicode="ER" horiz-adv-x="2140" 
d="M1526 682q111 -110 285 -301t335 -381h-299l-393 705v22h2q144 0 224 115q71 101 59 235q-12 141 -109 227q-93 82 -237 82h-1043v-555h1004v-831h-248v786h-756v-739q171 0 315.5 48.5t329.5 152.5h2v-248h-895v1434h1127q112 0 342 4q158 3 268 -73.5t137.5 -188
t3.5 -224t-136 -191.5t-279 -79h-39z" />
    <glyph glyph-name="uniF003" unicode="EB" horiz-adv-x="2193" 
d="M1786 770q113 -23 197.5 -77.5t123.5 -124t50.5 -148t-23.5 -152.5t-97 -134.5t-171 -97t-244 -36.5h-516v786h-756v-739q171 0 315.5 48.5t329.5 152.5h2v-248h-895v1434h1485q126 0 223 -40t149 -102.5t69.5 -140t-3 -150.5t-82.5 -136t-157 -95zM1524 47
q91 0 165.5 29.5t120 78.5t70 111t24.5 127t-24.5 127t-70 111t-120 78.5t-165.5 29.5h-45v47q73 0 132.5 26t96 68t56.5 96t20 110t-20 110t-56.5 96t-96 68t-132.5 26h-1129v-555h1004v-784h170z" />
    <glyph glyph-name="uniF004" unicode="EF" horiz-adv-x="1886" 
d="M102 1434h1760v-248q-193 106 -329.5 153t-305.5 47h-877v-555h979v-831h-246v786h-733v-739q169 0 300 46.5t323 154.5h2v-248h-873v1434zM1407 621v24l358 107v-238z" />
    <glyph glyph-name="uniF005" unicode="EP" horiz-adv-x="2078" 
d="M1575 1434q152 0 263.5 -68.5t161.5 -171t50 -222.5t-50 -222.5t-161.5 -171t-263.5 -68.5h-109v45q80 0 144 35.5t103.5 94t61 133.5t21.5 152.5t-21.5 152.5t-61 133.5t-103.5 94t-144 35.5h-1116v-555h979v-831h-246v786h-733v-739q169 0 300 46.5t323 154.5h2v-248
h-873v1434h1473z" />
    <glyph glyph-name="uniF006" unicode="CA" horiz-adv-x="2340" 
d="M1726 1456l621 -1456h-268l-496 1163q-29 -73 -50 -174.5t-31 -194t-28 -196.5t-40 -191t-70 -168.5t-115 -137.5t-176.5 -90t-253.5 -34q-114 0 -225 31.5t-210 95t-175 152t-120 210.5t-44 261q0 111 25.5 216.5t78 198.5t127 163t179.5 110.5t229 40.5
q127 0 272.5 -17t251.5 -42l-2 -283q-363 275 -610 275q-156 0 -242.5 -113.5t-91.5 -321.5q-3 -144 28 -284t90.5 -255.5t139 -202t179.5 -131.5t206 -38q35 2 64 10t50.5 17.5t42.5 30t34 35.5t31 47t27.5 50.5t29.5 59.5l481 1163h61z" />
    <glyph glyph-name="uniF007" unicode="AO" horiz-adv-x="2361" 
d="M997 981q54 154 157 263.5t227.5 160.5t260.5 51q103 0 200 -29.5t182.5 -91t150 -147.5t102 -207.5t37.5 -263.5q0 -146 -42 -268.5t-114.5 -208.5t-169 -146t-205.5 -88.5t-224 -28.5q-225 0 -401 91.5t-249 261.5l-354 833q-42 -105 -87 -233.5t-98.5 -306t-79 -346
t-9.5 -277.5h-291l647 1456h61l449 -1048q93 -217 197.5 -299t267.5 -82q84 0 166.5 38t151 106.5t111 177t42.5 237.5q0 149 -31 271.5t-83.5 205t-124 138.5t-149 81t-161.5 25q-165 0 -308 -92.5t-200 -245.5z" />
    <glyph glyph-name="uniF008" unicode="AQ" horiz-adv-x="2361" 
d="M2314 717q0 -146 -42 -268.5t-114.5 -208.5t-169 -146t-205.5 -88.5t-224 -28.5q-225 0 -401 91.5t-249 261.5l-352 833q-42 -102 -88 -233t-99 -307t-79 -345t-10 -278h-291l647 1456h61l449 -1048q93 -217 197.5 -299t267.5 -82q84 0 167 38t151 106.5t110.5 177
t42.5 237.5q0 149 -31 271.5t-83.5 205t-124 138.5t-149 81t-161.5 25q-165 0 -308 -92.5t-200 -245.5l-29 12q54 154 157 263.5t227.5 160.5t260.5 51q103 0 200 -29.5t182.5 -91t150 -147.5t102 -207.5t37.5 -263.5zM1550 -145q157 0 276.5 29.5t282.5 101.5l91 -326
q-371 122 -650 156v39z" />
    <glyph glyph-name="uniF009" unicode="RO" horiz-adv-x="2578" 
d="M1864 1456q143 0 269 -58.5t214 -158t139 -235.5t51 -287q0 -138 -50.5 -258t-139 -207.5t-206.5 -150t-254.5 -93.5t-282.5 -31q-136 0 -268 27t-259.5 85t-234.5 142.5t-194 205.5t-138 268v22q75 0 136 28.5t98.5 74.5t57.5 105.5t20 121t-20 121t-57.5 105.5
t-98.5 74.5t-136 28.5h-160v-1386h-248v1434h516q102 0 186 -27.5t139 -73t89 -105.5t42.5 -124t-7 -129t-53.5 -120t-103.5 -97.5t-150.5 -61.5q112 -167 241 -294.5t257.5 -204t253.5 -114.5t243 -38q242 0 398.5 144t156.5 384q-3 142 -43.5 284t-109 260t-172.5 191.5
t-224 73.5q-100 0 -171.5 -54.5t-104.5 -143t-33 -199.5q0 -108 23.5 -212.5t73 -199t119 -166.5t169 -115.5t215.5 -45.5l6 -29q-99 -22 -200 -22q-147 0 -268 52t-197 138t-117.5 193.5t-42.5 222.5q0 125 39.5 239.5t114.5 208.5t198.5 150.5t278.5 56.5z" />
    <glyph glyph-name="uniF00A" unicode="KO" horiz-adv-x="2469" 
d="M1747 1456q191 0 346 -99.5t241.5 -268.5t86.5 -371q0 -156 -41 -282t-111.5 -210.5t-169.5 -141t-210.5 -81.5t-239.5 -25q-317 0 -635.5 143.5t-481.5 364.5l-92 125v23h2h-2l123 184q216 327 228 617h319q-91 -95 -248 -289.5t-254 -341.5l168 -228
q199 -271 439 -411.5t462 -140.5q111 0 205.5 36t164 104t109 173.5t39.5 236.5q-3 113 -28.5 227.5t-74 218.5t-113 185.5t-151.5 129.5t-183 48q-99 0 -170.5 -54.5t-105.5 -143t-34 -199.5q0 -108 23.5 -212.5t73 -199t119.5 -166.5t169 -115.5t215 -45.5l9 -29
q-99 -22 -203 -22q-147 0 -268 52t-197 138t-117 193.5t-41 222.5q-1 99 23 192.5t75 178t124 147.5t178 100t229 37zM350 0h-248v1434h248v-1434z" />
    <glyph glyph-name="uniF00B" unicode="RA" horiz-adv-x="2131" 
d="M2079 477q53 -121 18.5 -214.5t-137.5 -157t-244 -96t-301 -32.5q-127 0 -248 21.5t-227 63t-185 110t-114 154.5l-131 379v22q75 0 136 28.5t98.5 74.5t57.5 105.5t20 121t-20 121t-57.5 105.5t-98.5 74.5t-136 28.5h-160v-1386h-248v1434h516q101 0 184.5 -27
t138 -71.5t89 -103.5t44 -122t-5 -127.5t-51 -119.5t-100 -98.5t-145.5 -64.5l86 -237q42 -113 109.5 -199.5t148 -138t165.5 -77t171 -25.5q137 0 240.5 59t139.5 164t-28 248l-321 661q-85 -196 -143 -416t-35 -374h-291l551 1091h63z" />
    <glyph glyph-name="uniF00C" unicode="MO" horiz-adv-x="2906" 
d="M2183 1456q191 0 346 -99.5t241.5 -268.5t86.5 -371q0 -186 -48 -336t-129 -248.5t-191.5 -165t-229.5 -95t-250 -28.5q-192 0 -370 58.5t-296.5 162t-136.5 226.5l-123 833l-352 -833h-104l-381 803q-35 -272 -18.5 -530.5t98.5 -563.5h-295q46 211 93 527.5t75 568.5
l39 338h120l426 -899l379 899h127l154 -1067q13 -90 51 -168t93.5 -134t125 -96.5t146.5 -60t157 -19.5q93 0 180.5 26t166.5 81t138 134t93.5 193t34.5 250q-3 142 -43.5 284t-109 260t-172.5 191.5t-224 73.5q-100 0 -171.5 -54.5t-104.5 -143t-33 -199.5
q0 -108 23.5 -212.5t73 -199t119 -166.5t169 -115.5t215.5 -45.5l6 -29q-99 -22 -201 -22q-147 0 -268 52t-197 138t-117.5 193.5t-42.5 222.5q0 125 39.5 239.5t114.5 208.5t198.5 150.5t278.5 56.5z" />
    <glyph glyph-name="uniF00D" unicode="KA" horiz-adv-x="2066" 
d="M2011 477q52 -120 23 -213t-119.5 -156.5t-221 -97t-280.5 -33.5q-124 0 -244.5 23t-231.5 67.5t-203 118.5t-146 168l-148 256v23l123 184q216 327 228 617h319q-93 -97 -249 -290t-253 -341l207 -357q81 -142 193 -239.5t221.5 -139.5t216.5 -42q127 0 216.5 58.5
t114 163t-41.5 247.5l-320 661q-85 -196 -143 -416t-35 -374h-291l551 1091h64zM350 0h-248v1434h248v-1434z" />
    <glyph glyph-name="uniF010" unicode="NB" horiz-adv-x="2052" 
d="M1645 770q113 -23 197 -77.5t123 -124t50.5 -148t-23.5 -152.5t-97 -134.5t-171 -97t-245 -36.5h-463l-860 1073q77 -517 217 -1073h-271v1434h82l860 -1078q-79 530 -217 1078h619q125 0 222 -40t149 -102.5t70 -140t-3 -150.5t-82.5 -136t-156.5 -95zM1382 47
q91 0 165.5 29.5t120 78.5t70 111t24.5 127t-24.5 127t-70 111t-120 78.5t-165.5 29.5h-47v47q73 0 132.5 26t96 68t56.5 96t20 110t-20 110t-56.5 96t-96 68t-132.5 26h-237v-1339h284z" />
    <glyph glyph-name="uniF011" unicode="ND" horiz-adv-x="2095" 
d="M1401 1434q138 0 253.5 -49t190.5 -132t128 -190.5t65 -226.5t1.5 -238t-61.5 -226.5t-124.5 -190.5t-188.5 -132t-252 -49h-397l-860 1073q77 -517 217 -1073h-271v1434h82l860 -1078q-79 530 -217 1078h574zM1305 47q253 0 389 192q116 162 116 407q-1 237 -108 435
q-111 203 -293 273q-82 32 -174 32h-137v-1339h207z" />
    <glyph glyph-name="uniF012" unicode="NR" horiz-adv-x="2048" 
d="M1468 682h-41q112 -109 287 -300t336 -382h-299l-393 705v22q76 0 137 28.5t98.5 74.5t58 105.5t20.5 121t-20.5 121t-58 105.5t-98.5 74.5t-137 28.5h-260v-1386h-82l-860 1073q77 -517 217 -1073h-271v1434h82l860 -1078q-79 530 -217 1078h641q110 0 199.5 -32.5
t144.5 -85t84.5 -120.5t29.5 -138t-29.5 -138t-84.5 -120.5t-144.5 -85t-199.5 -32.5z" />
    <glyph glyph-name="uniF013" unicode="NP" horiz-adv-x="1992" 
d="M827 1434h664q151 0 262 -68.5t161 -171t50 -222.5t-50 -222.5t-161 -171t-262 -68.5h-111v45q80 0 144 35.5t103.5 94t61 133.5t21.5 152.5t-21.5 152.5t-61 133.5t-103.5 94t-144 35.5h-282v-1386h-82l-860 1073q77 -517 217 -1073h-271v1434h82l860 -1078
q-79 530 -217 1078z" />
    <glyph glyph-name="uniF014" unicode="NK" horiz-adv-x="1994" 
d="M1415 803l592 -803h-309l-451 610v23h17h-17l121 184q213 319 229 617h320q-89 -91 -245.5 -285.5t-256.5 -345.5zM1044 356q-78 522 -217 1078h271v-1434h-82l-860 1073q77 -517 217 -1073h-271v1434h82z" />
    <glyph glyph-name="uniF015" unicode="NN" horiz-adv-x="2148" 
d="M1776 1434h270v-1434h-80l-868 1081v-1081h-82l-860 1073q77 -517 217 -1073h-271v1434h82l867 -1086v1086h82l862 -1078q-80 533 -219 1078z" />
    <glyph glyph-name="uniF016" unicode="HB" horiz-adv-x="2076" 
d="M1667 770q113 -23 197.5 -77.5t124 -124t50.5 -148t-23.5 -152.5t-96.5 -134.5t-171 -97t-245 -36.5h-583v727h-570v-727h-248v1434h248v-660h570v660h548q126 0 223 -40t149 -102.5t69.5 -140t-3 -150.5t-82.5 -136t-157 -95zM1407 47q91 0 165.5 29.5t120 78.5t70 111
t24.5 127t-24.5 127t-70 111t-120 78.5t-165.5 29.5h-47v47q73 0 132.5 26t96 68t56.5 96t20 110t-20 110t-56.5 96t-96 68t-132.5 26h-193v-1339h240z" />
    <glyph glyph-name="uniF017" unicode="HD" horiz-adv-x="2082" 
d="M1391 1434q137 0 252.5 -49t190.5 -132t128 -190.5t65 -226.5t1.5 -238t-61.5 -226.5t-124.5 -190.5t-188.5 -132t-253 -49h-481v727h-570v-727h-248v1434h248v-660h570v660h471zM1292 47q253 0 390 192q116 162 116 407q0 237 -108 435q-111 203 -293 273
q-82 32 -174 32h-56v-1339h125z" />
    <glyph glyph-name="uniF018" unicode="HR" horiz-adv-x="2062" 
d="M1442 682q111 -110 285 -301t335 -381h-299l-391 705v22q75 0 136 28.5t98.5 74.5t57.5 105.5t20 121t-20 121t-57.5 105.5t-98.5 74.5t-136 28.5h-205v-1386h-247v727h-570v-727h-248v1434h248v-660h570v660h561q110 0 199.5 -32.5t144.5 -85t84.5 -120.5t29.5 -138
t-29.5 -138t-84.5 -120.5t-144.5 -85t-199.5 -32.5h-39z" />
    <glyph glyph-name="uniF019" unicode="HK" horiz-adv-x="2041" 
d="M1462 803l592 -803h-309l-451 610v23l123 184q216 327 228 617h319q-91 -95 -248 -289.5t-254 -341.5zM920 774v660h247v-1434h-247v727h-570v-727h-248v1434h248v-660h570z" />
    <glyph glyph-name="uniF01A" unicode="HP" horiz-adv-x="2041" 
d="M1538 1434q152 0 263.5 -68.5t161.5 -171t50 -222.5t-50 -222.5t-161.5 -171t-263.5 -68.5h-108v45q79 0 143 35.5t103.5 94t61 133.5t21.5 152.5t-21.5 152.5t-61 133.5t-103.5 94t-143 35.5h-263v-1386h-247v727h-570v-727h-248v1434h248v-660h570v660h618z" />
    <glyph glyph-name="uniF01B" unicode="LM" horiz-adv-x="2021" 
d="M350 47q300 0 607 56t511 145v-248h-1366v1434h248v-1387zM1780 1434l207 -1434h-250l-164 1124l-352 -831v-2h-107l-379 803q-17 -152 -22.5 -229.5t5.5 -179t29.5 -178t67.5 -259.5h-295q15 73 61 273.5t69.5 325.5t37.5 249l39 338h121l426 -899l379 899h51l-2 -2l2 2
h76z" />
    <glyph glyph-name="uniF01C" unicode="LA" horiz-adv-x="1708" 
d="M1092 1456l620 -1456h-270l-492 1159q-33 -84 -62 -183t-55 -227.5t-31.5 -247.5t9.5 -243h-291l510 1198h62zM350 47q257 0 428 47t344 154h2v-248h-1022v1434h248v-1387z" />
    <glyph glyph-name="uniF01D" unicode="TT" horiz-adv-x="1476" 
d="M0 1186v248h645v-1434h-248v1386q-77 0 -188 -60.5t-209 -139.5zM831 1434h644v-248q-93 78 -206 139t-192 61v-1386h-246v1434z" />
    <glyph glyph-name=".notdef" horiz-adv-x="1079" 
d="M102 1434h875v-1434h-875v1434zM160 1393l379 -633l381 633h-760zM565 717l371 -621v1239zM514 717l-369 614v-1231zM541 674l-379 -631h758z" />
    <glyph glyph-name="uni0000" horiz-adv-x="0" 
 />
    <glyph glyph-name="uni0000" horiz-adv-x="0" 
 />
    <glyph glyph-name="uni000D" unicode="&#xd;" horiz-adv-x="0" 
 />
    <glyph glyph-name="uni000A" unicode="&#xa;" horiz-adv-x="0" 
 />
    <glyph glyph-name="space" unicode=" " horiz-adv-x="430" 
 />
    <glyph glyph-name="exclam" unicode="!" horiz-adv-x="460" 
d="M254 381h-47l-117 1053h279zM229 260q63 0 103.5 -40.5t40.5 -100.5t-40.5 -101t-103.5 -41t-102 41t-39 101t39 100.5t102 40.5z" />
    <glyph glyph-name="quotedbl" unicode="&#x22;" horiz-adv-x="768" 
d="M205 1599q63 0 103 -40.5t40 -100.5q0 -232 -237 -420l-17 23q42 37 54 79t0 82.5t-31 78t-36.5 81t-17.5 76.5q0 60 39.5 100.5t102.5 40.5zM563 1599q62 0 102 -41t40 -100q0 -231 -236 -420l-18 23q42 37 54 79t0 82.5t-31 78t-36.5 81t-17.5 76.5q0 60 40 100.5
t103 40.5z" />
    <glyph glyph-name="numbersign" unicode="#" horiz-adv-x="1257" 
d="M1190 926h-184l-86 -426h184v-45h-193l-92 -455h-233l90 455h-193l-90 -455h-235l92 455h-184v45h192l86 426h-174v47h184l92 461h234l-92 -461h192l92 461h236l-92 -461h174v-47zM686 500l86 426h-192l-86 -426h192z" />
    <glyph glyph-name="dollar" unicode="$" horiz-adv-x="1222" 
d="M635 887q51 -14 82 -23.5t79 -25t78.5 -28.5t70.5 -33t65 -39.5t52 -46.5t42 -55.5t25 -65t10 -76.5q0 -126 -40 -222.5t-111.5 -155.5t-159 -91.5t-193.5 -42.5v-236h-45v231q-127 -4 -259.5 21.5t-244.5 71.5l2 272q108 -72 240.5 -125t261.5 -78v506q-59 18 -101 32.5
t-94.5 37t-89.5 45.5t-74.5 56t-60 69.5t-37 85t-14.5 104.5q0 84 25.5 149.5t69 108t105 70.5t128 40t143.5 13v230h45v-232q227 -9 422 -90v-244q-90 61 -202 115.5t-220 87.5v-436zM590 901v436q-95 25 -172 25q-98 0 -154.5 -46t-56.5 -145q0 -45 21.5 -83t53.5 -63.5
t87 -50t102 -39t119 -34.5zM635 131q72 -10 125 -10q133 0 212 51t79 154q0 51 -25.5 94t-53.5 69.5t-96.5 56.5t-104.5 42t-127 40l-9 3v-500z" />
    <glyph glyph-name="percent" unicode="%" horiz-adv-x="1646" 
d="M784 1028q0 -180 -102 -305t-254 -125q-101 0 -183 57.5t-127.5 156t-45.5 216.5q0 179 101.5 303.5t254.5 124.5q152 0 254 -124.5t102 -303.5zM1190 1434h53l-788 -1434h-54zM389 1401q-122 0 -153 -187t38 -374t191 -187q123 0 154.5 187t-38 374t-192.5 187z
M1217 834q152 0 253 -124t101 -304t-101 -304.5t-253 -124.5q-153 0 -255 125t-102 304t102 303.5t255 124.5zM1253 31q123 0 154.5 187t-37.5 374.5t-192 187.5t-154.5 -187t38 -374.5t191.5 -187.5z" />
    <glyph glyph-name="ampersand" unicode="&#x26;" horiz-adv-x="1685" 
d="M1321 264q274 -230 313 -264h-350q-41 41 -123 119q-207 -142 -483 -142q-127 0 -234 34.5t-180 92t-121 133.5t-63.5 158.5t0 167.5t61 159.5t128.5 136t194 95.5q-8 39 -8 88q0 118 30 200.5t87.5 128.5t129.5 65.5t168 19.5q116 0 336 -37l-2 -282q-297 249 -473 249
q-79 0 -118.5 -50.5t-39.5 -133.5q0 -64 20 -130.5t50.5 -125t87 -128.5t107 -124.5t135 -131t147 -129.5t164.5 -138q100 121 100 299q0 164 -137 354h303q-23 -434 -229 -684zM307 594q-1 -119 44.5 -215t122 -155.5t171 -90.5t197.5 -31q143 0 272 60q-41 38 -123 111
t-123 111t-106 101t-102 107t-79 100.5t-67.5 110t-40.5 108.5q-78 -37 -122 -124.5t-44 -192.5z" />
    <glyph glyph-name="quotesingle" unicode="'" horiz-adv-x="411" 
d="M205 1599q63 0 103 -40.5t40 -100.5q0 -232 -235 -420l-19 23q42 37 54 79t0 82.5t-31 78t-36.5 81t-17.5 76.5q0 60 39.5 100.5t102.5 40.5z" />
    <glyph glyph-name="parenleft" unicode="(" horiz-adv-x="581" 
d="M664 1628q-103 -88 -176 -255t-107 -364.5t-34 -418.5t34 -418.5t107 -364.5t176 -256l-21 -38q-134 61 -241 174.5t-174 255.5t-102.5 310.5t-35.5 337.5t35.5 337.5t102.5 310.5t174 255.5t241 174.5z" />
    <glyph glyph-name="parenright" unicode=")" horiz-adv-x="581" 
d="M-61 1669q134 -61 241 -174.5t174 -255.5t102.5 -310.5t35.5 -337.5t-35.5 -337.5t-102.5 -310.5t-174 -255.5t-241 -174.5l-21 38q103 89 176.5 256t107.5 364.5t34 418.5t-34 418.5t-107.5 364.5t-176.5 255z" />
    <glyph glyph-name="asterisk" unicode="*" horiz-adv-x="856" 
d="M784 1020l-104 -180l-213 196l65 -282h-206l63 282l-213 -196l-104 180l276 86l-276 86l104 178l213 -196l-65 282h206l-63 -282l213 196l104 -178l-278 -86z" />
    <glyph glyph-name="plus" unicode="+" horiz-adv-x="858" 
d="M453 739h350v-47h-350v-350h-47v350h-351v47h351v351h47v-351z" />
    <glyph glyph-name="comma" unicode="," horiz-adv-x="413" 
d="M205 260q63 0 103 -40.5t40 -100.5q0 -232 -237 -420l-17 25q42 37 54 78.5t0 81.5t-31 77.5t-36.5 81t-17.5 76.5q0 60 39.5 100.5t102.5 40.5z" />
    <glyph glyph-name="hyphen" unicode="-" horiz-adv-x="548" 
d="M506 692h-465v47h465v-47z" />
    <glyph glyph-name="period" unicode="." horiz-adv-x="411" 
d="M205 260q63 0 103 -40.5t40 -100.5t-40 -101t-103 -41t-102.5 41t-39.5 101t39.5 100.5t102.5 40.5z" />
    <glyph glyph-name="slash" unicode="/" horiz-adv-x="512" 
d="M463 1686h47l-461 -1940h-47z" />
    <glyph glyph-name="zero" unicode="0" horiz-adv-x="1396" 
d="M698 1456q173 0 315 -99.5t221 -268.5t79 -371q0 -152 -46.5 -288.5t-127.5 -235.5t-196 -157.5t-245 -58.5q-174 0 -315 99t-220 268.5t-79 372.5q0 202 79 371t220.5 268.5t314.5 99.5zM770 35q163 0 245 186q79 178 59 452q-19 271 -124 474q-108 208 -262 245
q-30 7 -61 7q-163 0 -245 -186q-79 -178 -59 -452q20 -271 125 -474q107 -208 261 -245q30 -7 61 -7z" />
    <glyph glyph-name="one" unicode="1" horiz-adv-x="546" 
d="M440 1446h4v-1446h-247v1053q0 114 -19.5 142t-103.5 28v6z" />
    <glyph glyph-name="two" unicode="2" horiz-adv-x="1079" 
d="M291 225h702v-225h-917v123q234 161 373 312t209.5 335.5t70.5 419.5q0 116 -33.5 165.5t-99.5 49.5q-45 0 -103 -25t-133.5 -78.5t-128 -95t-141.5 -116.5l-2 284q295 82 477 82q197 0 304.5 -96.5t107.5 -315.5q0 -95 -37.5 -188.5t-97.5 -172t-153.5 -162.5t-185 -151
t-212.5 -145z" />
    <glyph glyph-name="three" unicode="3" horiz-adv-x="1165" 
d="M561 819q251 -13 387.5 -130t136.5 -294q0 -86 -33.5 -160.5t-99 -132t-170 -91t-237.5 -34.5q-184 -2 -467 60l2 317q152 -188 263 -265t218 -77q135 0 209 128q68 117 55 277q-14 167 -108 269q-87 94 -219 94v41l364 387h-747v226h905v-123z" />
    <glyph glyph-name="four" unicode="4" horiz-adv-x="1198" 
d="M981 424h143v-213h-143v-211h-248v211h-670v106l451 1117h266l-624 -1010h577v580l248 83v-663z" />
    <glyph glyph-name="five" unicode="5" horiz-adv-x="1214" 
d="M590 963q251 -1 403 -153q122 -122 138 -296q16 -176 -86 -317q-121 -168 -360 -209q-68 -11 -142 -11q-182 0 -455 60l2 317q69 -85 112.5 -135t89.5 -95t83.5 -66.5t79 -33.5t90.5 -12q125 0 212.5 89t107.5 216.5t-2 254t-119 215t-242 87.5q-85 0 -170 -30t-146 -80
h-49l66 670h811v-226h-785l-36 -383q185 138 397 138z" />
    <glyph glyph-name="six" unicode="6" horiz-adv-x="1286" 
d="M647 1036q119 0 223.5 -44.5t176 -119t112.5 -172t41 -202.5q0 -123 -44.5 -223.5t-118.5 -164.5t-167.5 -98.5t-195.5 -34.5q-88 0 -171.5 25t-159 78t-132 129.5t-90 187t-33.5 242.5q0 185 28 323.5t80 232.5t133.5 152t181.5 83.5t230 25.5q122 0 334 -31l-2 -284
q-170 138 -274.5 196t-210.5 58q-123 0 -184 -130.5t-66 -402.5q53 88 134.5 131t174.5 43zM715 27q147 0 212 146q60 135 28 331t-135 325q-105 129 -242 129q-147 0 -211 -146q-60 -135 -28 -331t136 -325t240 -129z" />
    <glyph glyph-name="seven" unicode="7" horiz-adv-x="1097" 
d="M102 1434h893v-123q-97 -150 -160 -260t-120 -245t-80 -253.5t-21 -260.5t39 -292h-262q-12 63 -13 129t9 131t25.5 127.5t42.5 128.5t54 124t65.5 123t71 117.5t77 115.5t77.5 108t77 104h-775v226z" />
    <glyph glyph-name="eight" unicode="8" horiz-adv-x="1191" 
d="M756 788q79 -42 131.5 -78t107 -89.5t82 -121.5t27.5 -151q0 -87 -47.5 -159.5t-122 -117.5t-162 -69.5t-172.5 -24.5q-97 0 -181 20.5t-143.5 56t-104 81.5t-64 99.5t-23.5 108.5t18.5 109t61.5 100t104.5 83t149.5 57q-62 37 -107.5 74t-86.5 86t-62 111t-21 135
q0 87 40.5 157t106.5 112.5t146.5 65.5t165.5 23q129 0 234.5 -38t168 -111t62.5 -168q0 -125 -79 -205t-230 -146zM354 1194q0 -46 12.5 -86.5t38.5 -74.5t54.5 -61.5t72 -56t79 -48.5t87.5 -48q13 -7 19 -10q68 78 94.5 183t10.5 196.5t-83.5 155t-173.5 63.5
q-91 0 -151 -56t-60 -157zM639 27q105 0 179.5 65t74.5 156q0 40 -11 76t-27 64.5t-45 57.5t-54.5 49t-67 45.5t-70.5 41.5t-77 42t-76 42q-48 -25 -84 -82.5t-52.5 -128.5t-7.5 -147t42 -138t104.5 -102.5t171.5 -40.5z" />
    <glyph glyph-name="nine" unicode="9" horiz-adv-x="1286" 
d="M84 934q0 123 44.5 224t118.5 165t167.5 98.5t195.5 34.5q88 0 171.5 -25t159 -78.5t132 -129.5t90 -186.5t33.5 -241.5q0 -185 -28 -324t-80 -233t-132.5 -152.5t-180 -83.5t-228.5 -25q-145 0 -336 31l2 283q168 -138 272.5 -196t210.5 -58q123 0 184.5 131t67.5 403
q-53 -89 -135 -132.5t-174 -43.5q-120 0 -224.5 45t-176.5 119.5t-113 172.5t-41 202zM707 473q147 0 211 146q60 135 28 331t-135 325q-105 130 -242 130q-147 0 -211 -146q-60 -135 -28 -331t135 -325q105 -130 242 -130z" />
    <glyph glyph-name="colon" unicode=":" horiz-adv-x="440" 
d="M219 733q-63 0 -102 40.5t-39 100.5t39 101t102 41t103 -41t40 -101t-40 -100.5t-103 -40.5zM219 260q63 0 103 -40.5t40 -100.5t-40 -101t-103 -41t-102 41t-39 101t39 100.5t102 40.5z" />
    <glyph glyph-name="semicolon" unicode=";" horiz-adv-x="440" 
d="M219 733q-63 0 -102 40.5t-39 100.5t39 101t102 41t103 -41t40 -101t-40 -100.5t-103 -40.5zM219 260q63 0 103 -40.5t40 -100.5q0 -232 -237 -420l-16 25q42 37 54 78.5t0 81.5t-31 77.5t-36.5 81t-17.5 76.5q0 60 39 100.5t102 40.5z" />
    <glyph glyph-name="less" unicode="&#x3c;" horiz-adv-x="581" 
d="M512 1145l-231 -428l231 -428h-66l-387 428l387 428h66z" />
    <glyph glyph-name="equal" unicode="=" horiz-adv-x="849" 
d="M799 831h-748v46h748v-46zM799 555h-748v45h748v-45z" />
    <glyph glyph-name="greater" unicode="&#x3e;" horiz-adv-x="581" 
d="M133 1145l387 -428l-387 -428h-65l233 428l-233 428h65z" />
    <glyph glyph-name="question" unicode="?" horiz-adv-x="1038" 
d="M68 1350q233 104 477 104q90 0 164.5 -17.5t134.5 -54t93.5 -99.5t33.5 -148q0 -83 -30 -146.5t-77 -103.5t-103.5 -75t-112 -71t-99.5 -80.5t-68 -115t-16 -162.5h-47q-7 99 6 181t39.5 139t60.5 107.5t69 96.5t64.5 93.5t48.5 111.5t19 139q0 80 -33.5 122t-109.5 42
q-94 0 -219.5 -106t-292.5 -299zM442 260q62 0 102 -41t40 -100q0 -60 -40 -101t-102 -41q-63 0 -103 41t-40 101t40 100.5t103 40.5z" />
    <glyph glyph-name="at" unicode="@" horiz-adv-x="1642" 
d="M821 1456q165 0 304.5 -58t234.5 -158t148 -235.5t53 -287.5q0 -130 -27.5 -229.5t-73.5 -156t-100 -84.5t-113 -28q-91 0 -160.5 58.5t-78.5 150.5q-57 -105 -150.5 -159t-193.5 -54q-111 0 -189 64t-78 174q0 111 56.5 185.5t188 132.5t366.5 112v194q0 52 -26.5 80.5
t-76.5 28.5q-74 0 -182 -69t-231 -206l-3 252q265 56 396 56q80 0 141 -17t109.5 -56t74 -109t25.5 -169v-360q0 -80 29 -125t71 -45q64 0 116 99t52 280q0 198 -87.5 356t-243.5 247t-351 89t-351 -89t-243.5 -247t-87.5 -356t87.5 -356.5t243.5 -248t351 -89.5
q211 0 387 102l23 -37q-182 -111 -410 -111q-164 0 -303 58t-234 158t-148.5 235.5t-53.5 288.5q0 152 53.5 287.5t148.5 235.5t234 158t303 58zM1008 504v344q-202 -57 -296 -149.5t-94 -190.5q0 -76 50.5 -121t122.5 -45q66 0 125.5 41t91.5 121z" />
    <glyph glyph-name="A" unicode="A" horiz-adv-x="1310" 
d="M698 1456l623 -1456h-270l-494 1163q-42 -102 -88 -233t-99 -307t-79 -345t-10 -278h-291l647 1456h61z" />
    <glyph glyph-name="B" unicode="B" horiz-adv-x="1214" 
d="M807 770q113 -23 197 -77.5t123 -124t50.5 -148t-23.5 -152.5t-97 -134.5t-171 -97t-245 -36.5h-539v1434h506q125 0 222 -40t149 -102.5t70 -140t-3 -150.5t-82.5 -136t-156.5 -95zM545 47q91 0 165.5 29.5t120 78.5t70 111t24.5 127t-24.5 127t-70 111t-120 78.5
t-165.5 29.5h-47v47q73 0 132.5 26t96 68t56.5 96t20 110t-20 110t-56.5 96t-96 68t-132.5 26h-148v-1339h195z" />
    <glyph glyph-name="C" unicode="C" horiz-adv-x="1284" 
d="M1251 246l13 -10q-68 -110 -218 -184.5t-311 -74.5q-302 0 -490 206q-154 168 -190 421q-34 247 56 464q93 221 283 321q129 67 288 67q127 0 272.5 -17t251.5 -42l-2 -283q-360 272 -616 272q-164 0 -257.5 -114.5t-97.5 -323.5q-4 -178 51 -333.5t148.5 -261t216 -166
t254.5 -60.5q187 0 348 119z" />
    <glyph glyph-name="D" unicode="D" horiz-adv-x="1236" 
d="M551 1434q154 0 278.5 -61.5t201.5 -162.5t118.5 -230t41.5 -263t-41.5 -263t-118.5 -230t-201.5 -162.5t-278.5 -61.5h-449v1434h449zM440 47q254 0 391 193q116 163 115 407q0 237 -108 435q-111 202 -292 272q-82 32 -173 32h-23v-1339h90z" />
    <glyph glyph-name="E" unicode="E" horiz-adv-x="1034" 
d="M995 248h2v-248h-895v1434h883v-248q-190 105 -328 152.5t-307 47.5v-1339q171 0 315.5 48.5t329.5 152.5zM784 598l-358 107v22l358 107v-236z" />
    <glyph glyph-name="F" unicode="F" horiz-adv-x="995" 
d="M102 1434h883v-248q-190 105 -328 152.5t-307 47.5v-1386h-248v1434zM426 621v24l358 107v-238z" />
    <glyph glyph-name="G" unicode="G" horiz-adv-x="1310" 
d="M920 807h311v-608q-68 -102 -202.5 -162t-289.5 -60q-103 0 -200.5 26.5t-187.5 85.5t-157 146t-106.5 217t-38.5 289q1 109 27 212.5t78.5 195t126 159.5t177.5 108t226 40q127 0 272.5 -17t251.5 -42l-2 -283q-360 272 -620 272q-166 0 -258 -114.5t-92 -323.5
q0 -187 55 -346.5t146.5 -265.5t208.5 -165.5t243 -59.5q155 0 289 86q-119 335 -258 610z" />
    <glyph glyph-name="H" unicode="H" horiz-adv-x="1269" 
d="M920 1434h247v-1434h-247v727h-570v-727h-248v1434h248v-660h570v660z" />
    <glyph glyph-name="I" unicode="I" horiz-adv-x="452" 
d="M350 0h-248v1434h248v-1434z" />
    <glyph glyph-name="J" unicode="J" horiz-adv-x="450" 
d="M102 1434h246v-1237q0 -99 -15.5 -166t-57 -125t-116 -99t-192.5 -75l-12 39q50 39 79.5 72.5t44.5 73.5t19 76.5t4 98.5v1342z" />
    <glyph glyph-name="K" unicode="K" horiz-adv-x="1187" 
d="M350 0h-248v1434h248v-1434zM608 803l592 -803h-309l-451 610v23l123 184q216 327 228 617h319q-91 -95 -248 -289.5t-254 -341.5z" />
    <glyph glyph-name="L" unicode="L" horiz-adv-x="997" 
d="M995 248h2v-248h-895v1434h248v-1387q171 0 315.5 48.5t329.5 152.5z" />
    <glyph glyph-name="M" unicode="M" horiz-adv-x="1531" 
d="M1288 1434l207 -1434h-250l-164 1124l-352 -833h-104l-381 803q-35 -272 -18.5 -530.5t98.5 -563.5h-295q46 211 93 527.5t75 568.5l39 338h120l426 -899l379 899h127z" />
    <glyph glyph-name="N" unicode="N" horiz-adv-x="1200" 
d="M827 1434h271v-1434h-82l-860 1073q77 -517 217 -1073h-271v1434h82l860 -1078q-79 530 -217 1078z" />
    <glyph glyph-name="O" unicode="O" horiz-adv-x="1437" 
d="M719 1452q191 0 346 -99t241.5 -268t86.5 -372q0 -202 -86.5 -371.5t-242 -269t-345.5 -99.5t-345.5 99.5t-242 269t-86.5 371.5q0 203 86.5 372t241.5 268t346 99zM821 47q190 0 282 181q84 167 58 422q-25 253 -142 451q-123 210 -299 262q-51 15 -104 15
q-190 0 -282 -181q-84 -167 -58 -422q25 -253 142 -451q123 -210 299 -262q51 -15 104 -15z" />
    <glyph glyph-name="P" unicode="P" horiz-adv-x="1122" 
d="M618 1434q152 0 263.5 -68.5t161.5 -171t50 -222.5t-50 -222.5t-161.5 -171t-263.5 -68.5h-108v45q80 0 144 35.5t103.5 94t61 133.5t21.5 152.5t-21.5 152.5t-61 133.5t-103.5 94t-144 35.5h-160v-1386h-248v1434h516z" />
    <glyph glyph-name="Q" unicode="Q" horiz-adv-x="1437" 
d="M1393 713q0 -202 -86.5 -371.5t-242 -269t-345.5 -99.5t-345.5 99.5t-242 269t-86.5 371.5q0 203 86.5 372t241.5 268t346 99t346 -99t241.5 -268t86.5 -372zM616 1378q-190 0 -282 -181q-84 -167 -58 -422q25 -253 142 -451q123 -210 299 -262q51 -15 104 -15
q190 0 282 181q84 167 58 422q-25 253 -142 451q-123 210 -299 262q-51 15 -104 15zM709 -147q155 0 274.5 29.5t282.5 101.5l90 -326q-362 118 -647 154v41z" />
    <glyph glyph-name="R" unicode="R" horiz-adv-x="1200" 
d="M580 682q108 -105 281 -294.5t341 -387.5h-301l-391 705v22q75 0 136 28.5t98.5 74.5t57.5 105.5t20 121t-20 121t-57.5 105.5t-98.5 74.5t-136 28.5h-160v-1386h-248v1434h516q111 0 200.5 -32.5t144.5 -85t85 -120.5t30 -138t-30 -138t-85 -120.5t-144.5 -85
t-200.5 -32.5h-38z" />
    <glyph glyph-name="S" unicode="S" horiz-adv-x="1148" 
d="M170 1174q0 -63 40 -111.5t105.5 -77.5t149.5 -57t171 -49.5t171 -55t149.5 -73.5t105.5 -105.5t40 -150.5q0 -112 -32.5 -201t-87.5 -147.5t-132 -97t-161 -55t-179 -16.5q-243 0 -461 95l2 270q151 -98 335.5 -158.5t336.5 -60.5q133 0 212 51t79 154q0 62 -32 110
t-86 80t-123.5 57.5t-147 48t-155 47.5t-147 59.5t-123.5 79t-86 112t-32 153.5q0 105 38.5 181.5t107 118.5t150 61.5t179.5 19.5q237 0 463 -90v-246q-145 99 -326 171.5t-313 72.5q-211 0 -211 -190z" />
    <glyph glyph-name="T" unicode="T" horiz-adv-x="1042" 
d="M0 1434h1040v-248q-93 78 -205 139t-190 61v-1386h-248v1386q-77 0 -188 -60.5t-209 -139.5v248z" />
    <glyph glyph-name="U" unicode="U" horiz-adv-x="1157" 
d="M815 1434h256v-910q-1 -134 -41 -241t-107 -172.5t-150 -99.5t-175 -34q-97 0 -188 38t-164 108t-117.5 182t-44.5 248v881h248v-881q0 -104 31 -188.5t82 -137.5t114.5 -81.5t130.5 -28.5q65 0 124 26t106.5 75.5t75.5 130t28 181.5q0 121 -12 225.5t-43 218t-56.5 189
t-79.5 222.5q-12 32 -18 49z" />
    <glyph glyph-name="V" unicode="V" horiz-adv-x="1310" 
d="M1030 1434h291l-647 -1457h-64l-620 1457h270l494 -1164q42 100 88.5 232t99 307t78.5 345.5t10 279.5z" />
    <glyph glyph-name="W" unicode="W" horiz-adv-x="1939" 
d="M1655 1434h291l-590 -1457h-62l-303 713l-317 -713h-64l-620 1457h270l494 -1166l211 482l-291 684h270l486 -1145q38 101 78.5 234.5t82.5 300.5t61 332.5t3 277.5z" />
    <glyph glyph-name="X" unicode="X" horiz-adv-x="1228" 
d="M758 827l-25 33q118 179 152.5 308t15.5 266h318q-86 -93 -216 -263t-245 -344zM305 1434l920 -1434h-293l-920 1434h293zM469 618l31 -26q-120 -181 -160.5 -320t-22.5 -272h-317q86 91 220 266t249 352z" />
    <glyph glyph-name="Y" unicode="Y" horiz-adv-x="1157" 
d="M870 1434h308q-177 -220 -469 -680v-754h-248v686l-479 748h292l408 -635q133 201 171 339.5t17 295.5z" />
    <glyph glyph-name="Z" unicode="Z" horiz-adv-x="1003" 
d="M977 248v-248h-950v47l661 1339h-2q-171 0 -315.5 -48.5t-331.5 -151.5v248h926v-48l-662 -1339h27q171 0 315.5 48.5t331.5 152.5z" />
    <glyph glyph-name="bracketleft" unicode="[" horiz-adv-x="442" 
d="M555 1622l-217 -88v-1888l217 -88v-45h-453v2156h453v-47z" />
    <glyph glyph-name="backslash" unicode="\" horiz-adv-x="512" 
d="M47 1686l461 -1940h-47l-461 1940h47z" />
    <glyph glyph-name="bracketright" unicode="]" horiz-adv-x="442" 
d="M-115 1669h453v-2156h-453v45l217 88v1888l-217 88v47z" />
    <glyph glyph-name="underscore" unicode="_" horiz-adv-x="1067" 
d="M965 -47h-863v47h863v-47z" />
    <glyph glyph-name="a" unicode="a" horiz-adv-x="999" 
d="M141 961q281 57 410 57q83 0 145.5 -17.5t113 -57.5t77 -113t26.5 -177v-665h-4l-221 223q-58 -117 -158.5 -177.5t-207.5 -60.5q-116 0 -196.5 67t-80.5 181q0 116 59 193.5t194.5 137.5t379.5 116v204q0 52 -27.5 81.5t-77.5 29.5q-77 0 -189.5 -71t-240.5 -214z
M678 276v357q-209 -60 -306.5 -156.5t-97.5 -197.5q0 -79 52.5 -126t126.5 -47q69 0 131 43.5t94 126.5z" />
    <glyph glyph-name="b" unicode="b" horiz-adv-x="1130" 
d="M328 721q49 143 149 220t215 77q74 0 141.5 -33t122 -95t87 -163.5t32.5 -228.5q0 -129 -35.5 -231.5t-94.5 -164t-130.5 -93.5t-148.5 -32q-100 0 -185 51t-127 142l-258 -182h-4v1562l232 49h4v-878zM328 432q0 -172 71 -270.5t170 -98.5q106 0 184 113.5t78 321.5
q0 191 -74 297t-177 106q-102 0 -177 -106t-75 -297v-66z" />
    <glyph glyph-name="c" unicode="c" horiz-adv-x="974" 
d="M930 213l10 -8q-74 -112 -179 -168.5t-218 -56.5q-94 0 -181.5 38t-156.5 108t-110.5 180t-41.5 243q0 467 465 467q161 0 369 -55v-279q-137 140 -262 212.5t-219 72.5q-89 0 -140 -63.5t-51 -184.5q0 -143 68 -281t182 -226.5t237 -88.5q122 0 228 90z" />
    <glyph glyph-name="d" unicode="d" horiz-adv-x="1132" 
d="M651 1599q0 -96 24 -190t62 -172.5t84 -155.5t92 -151.5t84 -148t62 -158t24 -168.5q0 -117 -42 -210t-113.5 -150.5t-160 -87.5t-185.5 -30q-80 0 -157 20t-145.5 61.5t-120 99.5t-82 140.5t-30.5 178.5q0 140 63 255t192 190.5t306 87.5q-93 160 -144.5 298.5
t-51.5 290.5h239zM289 496q0 -117 31.5 -211t84 -150t114.5 -85.5t128 -29.5q112 0 191.5 78.5t79.5 214.5q0 57 -14 118.5t-31 108.5t-53 115.5t-58.5 106.5t-71.5 116t-69 111q-165 -57 -248.5 -187.5t-83.5 -305.5z" />
    <glyph glyph-name="e" unicode="e" horiz-adv-x="972" 
d="M926 213l10 -8q-74 -112 -179 -168.5t-218 -56.5q-94 0 -181.5 38t-156.5 108t-110.5 180t-41.5 243q0 87 29.5 163.5t79 131t113.5 94t135 59t143 19.5q153 0 256.5 -87t103.5 -251l-561 -352q70 -94 161.5 -148.5t188.5 -54.5q122 0 228 90zM211 719q0 -184 111 -354
l399 249q-48 150 -144 235t-192 85q-76 0 -125 -56t-49 -159z" />
    <glyph glyph-name="f" unicode="f" horiz-adv-x="718" 
d="M793 1243q-242 230 -334 230q-64 0 -64 -105v-375h322v-45h-322v-948h-237v948h-144v45h144v23q0 512 417 512q93 0 220 -29z" />
    <glyph glyph-name="g" unicode="g" horiz-adv-x="1048" 
d="M494 -16q165 12 292.5 -22t202 -114.5t74.5 -197.5q0 -94 -46.5 -170t-124.5 -123.5t-174.5 -72.5t-201.5 -25q-104 0 -200.5 25t-174.5 72.5t-125 123.5t-47 170q0 53 12.5 101t33 85.5t53.5 73t65.5 62t78 55t83.5 49t88 46.5q7 3 10 5q-348 143 -348 453
q0 114 47.5 204t124.5 142t171 75t192 13q42 -4 78 3.5t62 21.5t48.5 39.5t36.5 48.5t27.5 58.5t21 59.5t16.5 60l222 -68q-29 -143 -123 -200.5t-254 -55.5q129 -47 207.5 -153.5t78.5 -262.5q0 -74 -17.5 -139t-52 -115.5t-74 -92t-94.5 -78.5t-103 -64.5t-108 -60.5
q-39 -21 -58 -31zM270 651q0 -160 44 -270t159 -211q54 30 94 56.5t82 63t68 74.5t42.5 89t16.5 108q0 186 -85.5 301t-203.5 115q-95 0 -156 -90t-61 -236zM207 -346q0 -102 55.5 -185t137.5 -126t169 -43q109 0 181.5 75.5t72.5 227.5q0 158 -116.5 253t-305.5 72
q-94 -59 -144 -123t-50 -151z" />
    <glyph glyph-name="h" unicode="h" horiz-adv-x="1110" 
d="M328 778q62 118 155 178t195 60q143 0 247.5 -105.5t104.5 -275.5v-635h-235v590q0 155 -60.5 239t-150.5 84q-70 0 -140 -55t-116 -156v-702h-236v1550l232 49h4v-821z" />
    <glyph glyph-name="i" unicode="i" horiz-adv-x="419" 
d="M209 1188q-66 0 -104.5 40.5t-38.5 102.5q0 61 38.5 101.5t104.5 40.5q65 0 103 -40.5t38 -101.5q0 -62 -37.5 -102.5t-103.5 -40.5zM90 958l232 50h4v-1008h-236v958z" />
    <glyph glyph-name="j" unicode="j" horiz-adv-x="419" 
d="M209 1188q-66 0 -103.5 40.5t-37.5 102.5q0 61 38 101.5t103 40.5q66 0 104.5 -40.5t38.5 -101.5q0 -62 -38.5 -102.5t-104.5 -40.5zM92 958l230 50h6v-1020q0 -90 -19.5 -156t-56 -113.5t-104 -85t-148 -64t-203.5 -56.5l-8 26q122 46 185 93.5t90.5 116t27.5 181.5
v1028z" />
    <glyph glyph-name="k" unicode="k" horiz-adv-x="1054" 
d="M92 1550l232 49h4v-1599h-236v1550zM569 618l484 -618h-301l-342 440v13l92 133h2q97 138 128.5 228t31.5 179h319q-65 -44 -97.5 -66.5t-83 -61.5t-83 -70.5t-72.5 -77.5t-78 -99z" />
    <glyph glyph-name="l" unicode="l" horiz-adv-x="421" 
d="M324 1599h4v-1599h-236v1550z" />
    <glyph glyph-name="m" unicode="m" horiz-adv-x="1740" 
d="M979 750q60 132 154 199t196 67q136 0 234 -105t98 -276v-635h-236v590q0 156 -54.5 239.5t-137.5 83.5q-67 0 -133.5 -57t-110.5 -162q4 -36 4 -59v-635h-235v590q0 155 -55 239t-138 84q-65 0 -129 -54.5t-110 -156.5v-702h-236v958l232 50h4v-230q62 119 151 178.5
t185 59.5q110 0 198.5 -71.5t118.5 -194.5z" />
    <glyph glyph-name="n" unicode="n" 
d="M326 778q62 118 155 178t195 60q143 0 247.5 -105.5t104.5 -275.5v-635h-235v590q0 155 -60.5 239t-150.5 84q-70 0 -140 -55t-116 -156v-702h-236v958l232 50h4v-230z" />
    <glyph glyph-name="o" unicode="o" 
d="M553 1016q148 0 264 -69.5t178 -188t62 -262.5q0 -143 -62 -261t-178 -188t-264 -70t-264 70t-178 188t-62 261q0 144 62 262.5t178 188t264 69.5zM639 25q127 0 175 144q48 141 6 347t-145 335q-95 118 -208 118q-127 0 -175 -144q-48 -141 -6 -347t145 -335
q95 -118 208 -118z" />
    <glyph glyph-name="p" unicode="p" horiz-adv-x="1130" 
d="M354 823q42 91 127 142t185 51q77 0 148 -31.5t130.5 -92.5t95 -163t35.5 -231t-35.5 -231t-95 -163t-130.5 -92.5t-148 -31.5q-121 0 -216 71t-122 197v-854h-236v1614h4zM328 432q0 -172 71 -270.5t170 -98.5q50 0 96 27.5t83.5 79.5t60 137t22.5 191t-22.5 191
t-60 136.5t-83.5 79t-96 27.5q-99 0 -170 -98.5t-71 -270.5v-131z" />
    <glyph glyph-name="q" unicode="q" horiz-adv-x="1130" 
d="M1034 1008h4v-1614h-235v880q-49 -142 -149.5 -219.5t-215.5 -77.5q-74 0 -141.5 33t-122 95.5t-87 164t-32.5 228.5q0 129 35.5 231t95 163t131 92.5t148.5 31.5q100 0 184.5 -51t126.5 -142zM803 489v82q-1 168 -73 264.5t-169 96.5q-50 0 -96 -27.5t-83.5 -79
t-60 -136.5t-22.5 -191q0 -191 74.5 -297.5t177.5 -106.5q48 0 92 25t80 72.5t57.5 125t22.5 172.5z" />
    <glyph glyph-name="r" unicode="r" horiz-adv-x="739" 
d="M326 676q43 140 151 236t244 96v-217q-189 11 -292 -57t-103 -218v-516h-236v958l232 50h4v-332z" />
    <glyph glyph-name="s" unicode="s" horiz-adv-x="872" 
d="M145 834q0 -46 37 -78.5t96 -52.5t130 -38t142 -44t130 -61t96 -96.5t37 -144.5q0 -344 -401 -344q-141 0 -349 48l3 260q360 -166 538 -166q148 0 148 119q0 36 -23 63t-62 44t-90 31t-107 28.5t-112 32t-107 44.5t-90 63.5t-62 92.5t-23 127q0 254 362 254
q146 0 328 -37v-254q-325 215 -494 215q-65 0 -96 -30t-31 -76z" />
    <glyph glyph-name="t" unicode="t" horiz-adv-x="651" 
d="M614 178l19 -12q-56 -95 -132.5 -142t-156.5 -47q-106 0 -182 72.5t-76 186.5v956l231 184h5v-383h272v-45h-272v-665q0 -95 38.5 -151t96.5 -56q83 0 157 102z" />
    <glyph glyph-name="u" unicode="u" horiz-adv-x="1110" 
d="M1014 1008h4v-1020h-4l-232 231q-62 -121 -155.5 -181.5t-196.5 -60.5q-142 0 -246 105.5t-104 275.5v600l231 50h4v-605q0 -155 60.5 -239t150.5 -84q70 0 140 55t116 156v667z" />
    <glyph glyph-name="v" unicode="v" horiz-adv-x="1159" 
d="M840 993h319q-228 -298 -467 -831l-84 -185h-90l-514 1016h262l406 -794v2q203 447 168 792z" />
    <glyph glyph-name="w" unicode="w" horiz-adv-x="1701" 
d="M1382 993h320q-30 -39 -58 -80t-57.5 -90.5t-51 -86t-52.5 -97t-46.5 -90.5t-48 -100.5t-43 -93t-46 -100.5t-42.5 -93l-81 -185h-91l-256 517l-231 -517h-90l-504 1016h262l396 -792l149 329l-229 463h262l393 -792q185 394 145 792z" />
    <glyph glyph-name="x" unicode="x" horiz-adv-x="995" 
d="M637 561l-19 27q50 73 70.5 142.5t17 127.5t-23.5 135h297q-82 -95 -123 -144t-100.5 -125.5t-118.5 -162.5zM27 993h282l670 -993h-283zM362 451l19 -27q-59 -86 -82.5 -160t-20 -129t24.5 -135h-297q205 234 356 451z" />
    <glyph glyph-name="y" unicode="y" horiz-adv-x="1159" 
d="M840 993h319q-228 -298 -467 -831l-121 -268q-8 -19 -28 -65t-30.5 -69.5t-32.5 -67.5t-37.5 -68.5t-42.5 -61t-51 -57.5t-58 -45.5t-69.5 -37.5t-80.5 -21t-94 -7v227q202 -5 305.5 48.5t171.5 203.5q11 23 12 42t-3 29.5t-15 32.5l-514 1016h262l406 -794v2
q203 447 168 792z" />
    <glyph glyph-name="z" unicode="z" horiz-adv-x="903" 
d="M860 248h2v-248h-823v47l536 901q-67 -1 -133 -16.5t-137.5 -48.5t-122 -61t-131.5 -77v248h799v-45l-537 -901q221 0 547 201z" />
    <glyph glyph-name="braceleft" unicode="{" horiz-adv-x="546" 
d="M444 874q0 -58 -8.5 -100t-30.5 -80.5t-65 -64.5t-109 -39q66 -13 109 -38t65 -64t30.5 -81.5t8.5 -101.5v-530q0 -123 46 -170t137 -47h24v-45h-108q-193 0 -263.5 67t-70.5 258v518q0 119 -25 165t-112 46v47q87 0 112 46t25 165v518q0 191 70.5 258.5t263.5 67.5h108
v-47h-24q-91 0 -137 -46t-46 -169v-533z" />
    <glyph glyph-name="bar" unicode="|" horiz-adv-x="251" 
d="M150 -434h-48v2148h48v-2148z" />
    <glyph glyph-name="braceright" unicode="}" horiz-adv-x="546" 
d="M338 825q0 -119 25 -165t112 -46v-47q-87 0 -112 -46t-25 -165v-518q0 -191 -70.5 -258t-265.5 -67h-106v45h22q92 0 137 47t45 170v530q0 59 8.5 101.5t31 81.5t66 64t109.5 38q-66 13 -109.5 39t-66 64.5t-31 80.5t-8.5 100v533q0 123 -45 169t-137 46h-22v47h106
q195 0 265.5 -67.5t70.5 -258.5v-518z" />
    <glyph glyph-name="uni00A0" unicode="&#xa0;" horiz-adv-x="430" 
 />
    <glyph glyph-name="exclamdown" unicode="&#xa1;" horiz-adv-x="444" 
d="M221 766q-63 0 -102 41t-39 102q0 60 39 101t102 41t103.5 -41t40.5 -101q0 -61 -40 -102t-104 -41zM199 645h47l114 -1051h-278z" />
    <glyph glyph-name="cent" unicode="&#xa2;" horiz-adv-x="1042" 
d="M958 211l11 -8q-76 -115 -183.5 -172t-224.5 -54v-231h-47v234q-86 11 -163 53.5t-137.5 112.5t-96 174t-35.5 227q0 102 23 181t61.5 131t95 86t118 49t134.5 18v231h47v-229q156 -3 354 -58v-278q-191 197 -354 258v-772q82 -45 168 -45q121 0 229 92zM514 193v759
q-47 13 -80 13q-89 0 -139.5 -64t-50.5 -186q0 -150 75.5 -294.5t194.5 -227.5z" />
    <glyph glyph-name="sterling" unicode="&#xa3;" horiz-adv-x="1165" 
d="M291 225h792v-225h-972v123q8 6 28 18q55 39 92 80t54 86.5t23.5 87t-1.5 96t-18.5 97.5t-30.5 106h-180v45h166q-55 164 -76 277q-21 112 5 198.5t87 138t142.5 77.5t177.5 26q182 0 477 -82l-2 -284q-84 71 -140 115.5t-129.5 96.5t-131.5 77.5t-103 25.5
q-40 0 -67.5 -8.5t-49 -31.5t-30.5 -61.5t-7 -99t17 -143.5q36 -197 41 -322h434v-45h-432q0 -298 -166 -469z" />
    <glyph glyph-name="yen" unicode="&#xa5;" horiz-adv-x="1298" 
d="M778 754v-219h359v-48h-359v-184h359v-45h-359v-258h-248v258h-356v45h356v184h-356v48h356v151l-479 748h293l408 -635q133 201 171 339t17 296h307q-177 -220 -469 -680z" />
    <glyph glyph-name="section" unicode="&#xa7;" horiz-adv-x="1060" 
d="M975 760q0 -225 -172 -303q33 -61 33 -138q0 -342 -400 -342q-156 0 -350 48l2 258q360 -166 539 -166q147 0 147 119q0 36 -23 63t-62 44t-90 31t-107 28.5t-112 32t-107 44.5t-90 63.5t-62 92.5t-23 127q0 190 207 239q-65 78 -65 201q0 254 362 254q146 0 328 -37
l-2 -256q-321 215 -492 215q-66 0 -97.5 -30t-31.5 -76q0 -45 37 -77.5t96 -52t130 -38t142 -44t130 -60.5t96 -96.5t37 -143.5zM702 561q213 -31 213 113q0 54 -53.5 89.5t-123.5 51t-169.5 44t-162.5 63.5q-65 18 -109 18q-66 0 -97.5 -30.5t-31.5 -75.5q0 -46 35.5 -78
t97 -53t128 -38t144 -44t129.5 -60z" />
    <glyph glyph-name="dieresis" unicode="&#xa8;" horiz-adv-x="698" 
d="M182 1456q54 0 88.5 -35t34.5 -86q0 -52 -34.5 -87.5t-88.5 -35.5t-87.5 35.5t-33.5 87.5q0 51 33.5 86t87.5 35zM514 1456q54 0 87.5 -35t33.5 -86q0 -52 -33.5 -87.5t-87.5 -35.5t-87.5 35.5t-33.5 87.5q0 51 33.5 86t87.5 35z" />
    <glyph glyph-name="copyright" unicode="&#xa9;" horiz-adv-x="1642" 
d="M821 1456q165 0 304.5 -58t234.5 -158t148 -235.5t53 -287.5q0 -153 -53 -288.5t-148 -235.5t-234.5 -158t-304.5 -58q-164 0 -303 58t-234 158t-148.5 235.5t-53.5 288.5q0 152 53.5 287.5t148.5 235.5t234 158t303 58zM821 23q195 0 351 89.5t243.5 248t87.5 356.5
t-87.5 356t-243.5 247t-351 89t-351 -89t-243.5 -247t-87.5 -356t87.5 -356.5t243.5 -248t351 -89.5zM449 889q-3 -134 38 -250.5t110.5 -195.5t161 -124t189.5 -45q137 0 262 91l11 -9q-53 -84 -164.5 -139t-233.5 -55q-240 0 -383 173q-118 143 -131 349q-12 203 81 362
q101 173 288 213q51 11 106 11q207 0 394 -43l-2 -213q-271 205 -461 205q-124 0 -193.5 -86.5t-72.5 -243.5z" />
    <glyph glyph-name="ordfeminine" unicode="&#xaa;" horiz-adv-x="702" 
d="M133 1587q179 35 260 35q111 0 171.5 -51t60.5 -178v-426h-2l-144 143q-36 -73 -100 -111t-131 -38q-74 0 -125 41.5t-51 113.5q0 109 87 171t316 114v129q0 34 -17.5 53t-49.5 19q-49 0 -121 -46t-154 -137v168zM475 1151v227q-134 -38 -196 -99.5t-62 -125.5
q0 -50 33.5 -79.5t81.5 -29.5q43 0 82.5 27.5t60.5 79.5z" />
    <glyph glyph-name="guillemotleft" unicode="&#xab;" horiz-adv-x="755" 
d="M430 948l-217 -450l217 -451h-49l-318 451l318 450h49zM686 948l-217 -450l217 -451h-49l-318 451l318 450h49z" />
    <glyph glyph-name="uni00AD" unicode="&#xad;" horiz-adv-x="0" 
 />
    <glyph glyph-name="registered" unicode="&#xae;" horiz-adv-x="1642" 
d="M821 1456q165 0 304.5 -58t234.5 -158t148 -235.5t53 -287.5q0 -153 -53 -288.5t-148 -235.5t-234.5 -158t-304.5 -58q-164 0 -303 58t-234 158t-148.5 235.5t-53.5 288.5q0 152 53.5 287.5t148.5 235.5t234 158t303 58zM821 23q195 0 351 89.5t243.5 248t87.5 356.5
t-87.5 356t-243.5 247t-351 89t-351 -89t-243.5 -247t-87.5 -356t87.5 -356.5t243.5 -248t351 -89.5zM809 692q178 -171 438 -481h-211l-276 498v16q53 0 96 20t69 52.5t40.5 74t14.5 85t-14.5 85t-40.5 74t-69 52.5t-96 20h-113v-977h-174v1010h365q78 0 141 -22.5
t101.5 -60t59.5 -85t21 -97t-21 -97t-59.5 -85t-101.5 -60t-141 -22.5h-29z" />
    <glyph glyph-name="degree" unicode="&#xb0;" horiz-adv-x="626" 
d="M313 1456q103 0 171.5 -70.5t68.5 -171.5t-68.5 -170t-171.5 -69q-105 0 -173 69t-68 170t68.5 171.5t172.5 70.5zM313 1051q66 0 111 47t45 116q0 70 -45 117t-111 47q-67 0 -111 -46.5t-44 -117.5q0 -69 44 -116t111 -47z" />
    <glyph glyph-name="twosuperior" unicode="&#xb2;" horiz-adv-x="692" 
d="M193 887h419v-133h-546v71q140 96 222.5 186t124.5 200.5t42 252.5q0 70 -19.5 99.5t-60.5 29.5q-26 0 -60 -14.5t-80 -47.5t-75.5 -56.5t-85.5 -69.5l-2 168q168 49 286 49q246 0 246 -246q0 -70 -31.5 -137t-93.5 -129t-128 -113t-158 -110z" />
    <glyph glyph-name="threesuperior" unicode="&#xb3;" horiz-adv-x="745" 
d="M358 1233q150 -7 232 -77t82 -175q0 -108 -83.5 -179.5t-240.5 -72.5q-111 0 -278 37l2 188q90 -111 156 -156.5t130 -45.5q90 0 134 92q41 87 18 193q-24 110 -104 153q-38 20 -84 20v25l217 231h-447v133h541v-73z" />
    <glyph glyph-name="periodcentered" unicode="&#xb7;" horiz-adv-x="415" 
d="M207 858q63 0 103 -40.5t40 -100.5q0 -61 -40 -102.5t-103 -41.5t-102 41.5t-39 102.5q0 60 39 100.5t102 40.5z" />
    <glyph glyph-name="cedilla" unicode="&#xb8;" horiz-adv-x="565" 
d="M145 -129q44 47 129 47q76 0 131.5 -45.5t55.5 -134.5q0 -61 -34 -101t-80 -54.5t-103 -14.5q-81 0 -142 26v160q39 -76 75 -118t75 -42q45 0 69.5 39.5t24.5 102.5q0 69 -35 104t-84 35q-55 0 -94 -39h-14l16 164h25z" />
    <glyph glyph-name="onesuperior" unicode="&#xb9;" horiz-adv-x="319" 
d="M231 1616h2v-862h-147v628q0 67 -12 84t-62 17v4z" />
    <glyph glyph-name="ordmasculine" unicode="&#xba;" horiz-adv-x="786" 
d="M393 1622q142 0 232 -95.5t90 -236.5q0 -139 -90 -234t-232 -95t-231.5 95t-89.5 234q0 141 89.5 236.5t231.5 95.5zM449 991q108 0 125 150t-55.5 300t-180.5 150q-109 0 -126 -150t55.5 -300t181.5 -150z" />
    <glyph glyph-name="guillemotright" unicode="&#xbb;" horiz-adv-x="755" 
d="M375 948l317 -450l-317 -451h-49l215 451l-215 450h49zM119 948l317 -450l-317 -451h-49l215 451l-215 450h49z" />
    <glyph glyph-name="questiondown" unicode="&#xbf;" 
d="M633 766q-64 0 -104 41t-40 102q0 60 40.5 101t103.5 41t102 -41t39 -101q0 -61 -39 -102t-102 -41zM1004 20l2 -344q-233 -104 -478 -104q-90 0 -164.5 17.5t-134.5 54t-93.5 99.5t-33.5 148q0 83 30 147t77 104t103.5 75t112 71.5t99.5 80.5t68 114t16 162h47
q7 -98 -6 -180t-39.5 -139t-60 -107t-68.5 -96t-64.5 -93.5t-48 -111.5t-18.5 -139q0 -81 33 -123.5t111 -42.5q49 0 108 30.5t127 90.5t131.5 126.5t143.5 159.5z" />
    <glyph glyph-name="Agrave" unicode="&#xc0;" horiz-adv-x="1310" 
d="M809 1649l-25 -27l-385 188l127 172zM698 1456l623 -1456h-270l-494 1163q-42 -102 -88 -233t-99 -307t-79 -345t-10 -278h-291l647 1456h61z" />
    <glyph glyph-name="Aacute" unicode="&#xc1;" horiz-adv-x="1310" 
d="M924 1810l-385 -188l-25 27l283 333zM698 1456l623 -1456h-270l-494 1163q-42 -102 -88 -233t-99 -307t-79 -345t-10 -278h-291l647 1456h61z" />
    <glyph glyph-name="Acircumflex" unicode="&#xc2;" horiz-adv-x="1310" 
d="M655 1694l-254 -95l-12 35l266 205l267 -205l-13 -35zM698 1456l623 -1456h-270l-494 1163q-42 -102 -88 -233t-99 -307t-79 -345t-10 -278h-291l647 1456h61z" />
    <glyph glyph-name="Atilde" unicode="&#xc3;" horiz-adv-x="1310" 
d="M502 1647h-35q-17 23 -21 53t4.5 57t36 45.5t68.5 18.5q55 0 130.5 -32t119.5 -32q25 0 34 15t1 38h41q26 -35 31 -74.5t-19.5 -69.5t-79.5 -30q-56 0 -146 29t-128 29q-17 0 -27 -12.5t-10 -34.5zM698 1456l623 -1456h-270l-494 1163q-42 -102 -88 -233t-99 -307
t-79 -345t-10 -278h-291l647 1456h61z" />
    <glyph glyph-name="Adieresis" unicode="&#xc4;" horiz-adv-x="1310" 
d="M489 1608q-54 0 -87 34.5t-33 86.5t33 86t87 34q55 0 88 -34t33 -86t-33.5 -86.5t-87.5 -34.5zM821 1608q-54 0 -87.5 34.5t-33.5 86.5t33 86t88 34t88 -34t33 -86t-33.5 -86.5t-87.5 -34.5zM698 1456l623 -1456h-270l-494 1163q-42 -102 -88 -233t-99 -307t-79 -345
t-10 -278h-291l647 1456h61z" />
    <glyph glyph-name="Aring" unicode="&#xc5;" horiz-adv-x="1310" 
d="M655 1585q-73 0 -121.5 49t-48.5 119q0 71 48.5 120.5t121.5 49.5t120.5 -49.5t47.5 -120.5q0 -70 -48 -119t-120 -49zM655 1880q-52 0 -86 -35.5t-34 -91.5q0 -54 34 -90.5t86 -36.5t86.5 36.5t34.5 90.5q0 55 -34 91t-87 36zM698 1456l623 -1456h-270l-494 1163
q-42 -102 -88 -233t-99 -307t-79 -345t-10 -278h-291l647 1456h61z" />
    <glyph glyph-name="AE" unicode="&#xc6;" horiz-adv-x="1630" 
d="M1591 248v-248h-895v1341l-90 -186q-46 -95 -98.5 -221t-116 -302.5t-96.5 -348.5t-16 -283h-291l708 1434h885v-248h-2q-190 105 -328 152.5t-307 47.5v-1339q171 0 316.5 48.5t330.5 152.5zM1378 598l-356 107v22l356 107v-236z" />
    <glyph glyph-name="Ccedilla" unicode="&#xc7;" horiz-adv-x="1284" 
d="M735 -23q-35 0 -69 3l-13 -119q44 47 129 47q76 0 131.5 -45.5t55.5 -134.5q0 -61 -34 -101t-80 -54.5t-103 -14.5q-81 0 -142 26l2 160q78 -160 148 -160q45 0 69.5 39.5t24.5 102.5q0 69 -35 103t-84 34q-55 0 -94 -39h-14l16 158q-119 14 -219 65t-169.5 126
t-118 170.5t-70 199.5t-19 212.5t29 210t79.5 191t126.5 156t176.5 105t223 38.5q127 0 272.5 -17t251.5 -42l-2 -283q-360 272 -616 272q-164 0 -257.5 -114.5t-97.5 -323.5q-4 -178 51 -333.5t148.5 -261t216 -166t254.5 -60.5q187 0 348 119l13 -10q-68 -110 -218 -184.5
t-311 -74.5z" />
    <glyph glyph-name="Egrave" unicode="&#xc8;" horiz-adv-x="1036" 
d="M719 1649l-25 -27l-385 188l127 172zM995 248h2v-248h-895v1434h883v-248q-190 105 -328 152.5t-307 47.5v-1339q171 0 315.5 48.5t329.5 152.5zM784 598l-358 107v22l358 107v-236z" />
    <glyph glyph-name="Eacute" unicode="&#xc9;" horiz-adv-x="1036" 
d="M801 1810l-385 -188l-25 27l283 333zM995 248h2v-248h-895v1434h883v-248q-190 105 -328 152.5t-307 47.5v-1339q171 0 315.5 48.5t329.5 152.5zM784 598l-358 107v22l358 107v-236z" />
    <glyph glyph-name="Ecircumflex" unicode="&#xca;" horiz-adv-x="1036" 
d="M567 1694l-254 -95l-12 35l266 205l269 -205l-15 -35zM995 248h2v-248h-895v1434h883v-248q-190 105 -328 152.5t-307 47.5v-1339q171 0 315.5 48.5t329.5 152.5zM784 598l-358 107v22l358 107v-236z" />
    <glyph glyph-name="Edieresis" unicode="&#xcb;" horiz-adv-x="1036" 
d="M403 1608q-54 0 -87 34.5t-33 86.5t33 86t87 34q55 0 88 -34t33 -86t-33.5 -86.5t-87.5 -34.5zM733 1608q-53 0 -87 34.5t-34 86.5t34 86t87 34q55 0 89 -34t34 -86t-34 -86.5t-89 -34.5zM995 248h2v-248h-895v1434h883v-248q-190 105 -328 152.5t-307 47.5v-1339
q171 0 315.5 48.5t329.5 152.5zM784 598l-358 107v22l358 107v-236z" />
    <glyph glyph-name="Igrave" unicode="&#xcc;" horiz-adv-x="452" 
d="M371 1649l-25 -27l-385 188l127 172zM350 0h-248v1434h248v-1434z" />
    <glyph glyph-name="Iacute" unicode="&#xcd;" horiz-adv-x="454" 
d="M358 1982l127 -172l-385 -188l-24 27zM350 0h-248v1434h248v-1434z" />
    <glyph glyph-name="Icircumflex" unicode="&#xce;" horiz-adv-x="452" 
d="M225 1839l269 -205l-15 -35l-254 95l-254 -95l-12 35zM350 0h-248v1434h248v-1434z" />
    <glyph glyph-name="Idieresis" unicode="&#xcf;" horiz-adv-x="452" 
d="M182 1729q0 -52 -34 -86.5t-89 -34.5q-54 0 -87 34.5t-33 86.5t33 86t87 34q55 0 89 -34t34 -86zM391 1849q55 0 88 -34t33 -86t-33.5 -86.5t-87.5 -34.5t-87.5 34.5t-33.5 86.5t33 86t88 34zM350 0h-248v1434h248v-1434z" />
    <glyph glyph-name="Ntilde" unicode="&#xd1;" horiz-adv-x="1200" 
d="M424 1647h-35q-17 23 -21 53t4.5 57t36 45.5t68.5 18.5q55 0 131 -32t119 -32q25 0 34 15t1 38h41q26 -35 31 -74.5t-19.5 -69.5t-79.5 -30q-56 0 -146 29t-128 29q-17 0 -27 -12.5t-10 -34.5zM827 1434h271v-1434h-82l-860 1073q77 -517 217 -1073h-271v1434h82
l860 -1078q-79 530 -217 1078z" />
    <glyph glyph-name="Ograve" unicode="&#xd2;" horiz-adv-x="1437" 
d="M760 1649l-25 -27l-385 188l127 172zM719 1452q191 0 346 -99t241.5 -268t86.5 -372q0 -202 -86.5 -371.5t-242 -269t-345.5 -99.5t-345.5 99.5t-242 269t-86.5 371.5q0 203 86.5 372t241.5 268t346 99zM821 47q190 0 282 181q84 167 58 422q-25 253 -142 451
q-123 210 -299 262q-51 15 -104 15q-190 0 -282 -181q-84 -167 -58 -422q25 -253 142 -451q123 -210 299 -262q51 -15 104 -15z" />
    <glyph glyph-name="Oacute" unicode="&#xd3;" horiz-adv-x="1437" 
d="M924 1810l-385 -188l-25 27l283 333zM719 1452q191 0 346 -99t241.5 -268t86.5 -372q0 -202 -86.5 -371.5t-242 -269t-345.5 -99.5t-345.5 99.5t-242 269t-86.5 371.5q0 203 86.5 372t241.5 268t346 99zM821 47q190 0 282 181q84 167 58 422q-25 253 -142 451
q-123 210 -299 262q-51 15 -104 15q-190 0 -282 -181q-84 -167 -58 -422q25 -253 142 -451q123 -210 299 -262q51 -15 104 -15z" />
    <glyph glyph-name="Ocircumflex" unicode="&#xd4;" horiz-adv-x="1437" 
d="M719 1694l-254 -95l-12 35l266 205l266 -205l-12 -35zM719 1452q191 0 346 -99t241.5 -268t86.5 -372q0 -202 -86.5 -371.5t-242 -269t-345.5 -99.5t-345.5 99.5t-242 269t-86.5 371.5q0 203 86.5 372t241.5 268t346 99zM821 47q190 0 282 181q84 167 58 422
q-25 253 -142 451q-123 210 -299 262q-51 15 -104 15q-190 0 -282 -181q-84 -167 -58 -422q25 -253 142 -451q123 -210 299 -262q51 -15 104 -15z" />
    <glyph glyph-name="Otilde" unicode="&#xd5;" horiz-adv-x="1437" 
d="M543 1647h-35q-17 23 -21 53t4.5 57t36 45.5t68.5 18.5q55 0 131 -32t119 -32q25 0 34 15t1 38h41q26 -35 31 -74.5t-19.5 -69.5t-79.5 -30q-56 0 -146 29t-128 29q-17 0 -27 -12.5t-10 -34.5zM719 1452q191 0 346 -99t241.5 -268t86.5 -372q0 -202 -86.5 -371.5
t-242 -269t-345.5 -99.5t-345.5 99.5t-242 269t-86.5 371.5q0 203 86.5 372t241.5 268t346 99zM821 47q190 0 282 181q84 167 58 422q-25 253 -142 451q-123 210 -299 262q-51 15 -104 15q-190 0 -282 -181q-84 -167 -58 -422q25 -253 142 -451q123 -210 299 -262
q51 -15 104 -15z" />
    <glyph glyph-name="Odieresis" unicode="&#xd6;" horiz-adv-x="1437" 
d="M553 1608q-54 0 -87.5 34.5t-33.5 86.5t33 86t88 34t88 -34t33 -86t-33.5 -86.5t-87.5 -34.5zM885 1608q-54 0 -87.5 34.5t-33.5 86.5t33 86t88 34t88 -34t33 -86t-33.5 -86.5t-87.5 -34.5zM719 1452q191 0 346 -99t241.5 -268t86.5 -372q0 -202 -86.5 -371.5t-242 -269
t-345.5 -99.5t-345.5 99.5t-242 269t-86.5 371.5q0 203 86.5 372t241.5 268t346 99zM821 47q190 0 282 181q84 167 58 422q-25 253 -142 451q-123 210 -299 262q-51 15 -104 15q-190 0 -282 -181q-84 -167 -58 -422q25 -253 142 -451q123 -210 299 -262q51 -15 104 -15z" />
    <glyph glyph-name="multiply" unicode="&#xd7;" horiz-adv-x="692" 
d="M627 963l-248 -246l248 -248l-33 -33l-248 248l-248 -248l-32 33l247 248l-247 246l32 32l248 -247l248 247z" />
    <glyph glyph-name="Oslash" unicode="&#xd8;" horiz-adv-x="1441" 
d="M1161 1282q110 -103 172 -250t62 -315q0 -152 -51 -288.5t-139.5 -235.5t-214.5 -157.5t-269 -58.5q-228 0 -406 144l-188 -258h-57l211 287q-110 104 -172 251.5t-62 315.5q0 202 86.5 371t241.5 268.5t346 99.5q229 0 405 -143l189 258h55zM618 1382q-99 0 -172 -50.5
t-111.5 -133.5t-53.5 -192t-3 -224.5t47.5 -232t90.5 -213.5l583 803q-158 243 -381 243zM823 51q99 0 172 50.5t112 133.5t54 192t3 224.5t-47.5 232.5t-90.5 214l-584 -805q74 -113 170.5 -177.5t210.5 -64.5z" />
    <glyph glyph-name="Ugrave" unicode="&#xd9;" horiz-adv-x="1157" 
d="M731 1649l-24 -27l-385 188l127 172zM815 1434h256v-910q-1 -134 -41 -241t-107 -172.5t-150 -99.5t-175 -34q-97 0 -188 38t-164 108t-117.5 182t-44.5 248v881h248v-881q0 -104 31 -188.5t82 -137.5t114.5 -81.5t130.5 -28.5q65 0 124 26t106.5 75.5t75.5 130t28 181.5
q0 121 -12 225.5t-43 218t-56.5 189t-79.5 222.5q-12 32 -18 49z" />
    <glyph glyph-name="Uacute" unicode="&#xda;" horiz-adv-x="1157" 
d="M854 1810l-385 -188l-25 27l283 333zM815 1434h256v-910q-1 -134 -41 -241t-107 -172.5t-150 -99.5t-175 -34q-97 0 -188 38t-164 108t-117.5 182t-44.5 248v881h248v-881q0 -104 31 -188.5t82 -137.5t114.5 -81.5t130.5 -28.5q65 0 124 26t106.5 75.5t75.5 130t28 181.5
q0 121 -12 225.5t-43 218t-56.5 189t-79.5 222.5q-12 32 -18 49z" />
    <glyph glyph-name="Ucircumflex" unicode="&#xdb;" horiz-adv-x="1157" 
d="M578 1694l-254 -95l-13 35l267 205l266 -205l-13 -35zM815 1434h256v-910q-1 -134 -41 -241t-107 -172.5t-150 -99.5t-175 -34q-97 0 -188 38t-164 108t-117.5 182t-44.5 248v881h248v-881q0 -104 31 -188.5t82 -137.5t114.5 -81.5t130.5 -28.5q65 0 124 26t106.5 75.5
t75.5 130t28 181.5q0 121 -12 225.5t-43 218t-56.5 189t-79.5 222.5q-12 32 -18 49z" />
    <glyph glyph-name="Udieresis" unicode="&#xdc;" horiz-adv-x="1157" 
d="M457 1608q-55 0 -89 34.5t-34 86.5t34 86t89 34q53 0 87 -34t34 -86t-34 -86.5t-87 -34.5zM786 1608q-54 0 -87 34.5t-33 86.5t33 86t87 34q55 0 89 -34t34 -86t-34 -86.5t-89 -34.5zM815 1434h256v-910q-1 -134 -41 -241t-107 -172.5t-150 -99.5t-175 -34q-97 0 -188 38
t-164 108t-117.5 182t-44.5 248v881h248v-881q0 -104 31 -188.5t82 -137.5t114.5 -81.5t130.5 -28.5q65 0 124 26t106.5 75.5t75.5 130t28 181.5q0 121 -12 225.5t-43 218t-56.5 189t-79.5 222.5q-12 32 -18 49z" />
    <glyph glyph-name="Yacute" unicode="&#xdd;" horiz-adv-x="1159" 
d="M836 1810l-385 -188l-25 27l283 333zM870 1434h308q-177 -220 -469 -680v-754h-248v686l-479 748h292l408 -635q133 201 171 339.5t17 295.5z" />
    <glyph glyph-name="germandbls" unicode="&#xdf;" horiz-adv-x="1234" 
d="M575 756q0 -38 27 -66t71 -43.5t100.5 -32.5t115 -31t115 -40.5t100.5 -60.5t71 -91.5t27 -132.5q0 -135 -92 -208t-270 -73q-110 0 -224 20.5t-186 55.5l2 275q86 -152 177 -224.5t171 -72.5q78 0 128 60t50 153q0 85 -24 145t-62 91.5t-84 53t-92 37.5t-84 35.5
t-62 56.5t-24 93q0 65 31 103.5t75 58t87.5 41t74.5 69.5t31 127q0 119 -72.5 188.5t-170.5 69.5q-99 0 -170.5 -73.5t-71.5 -209.5v-1130h-248v1100q0 88 40.5 157.5t109.5 111.5t153.5 63.5t177.5 21.5q130 0 243.5 -37.5t189 -115.5t75.5 -181q0 -73 -28 -120t-72.5 -67
t-98.5 -30t-108 -15.5t-98.5 -16t-72.5 -38.5t-28 -77z" />
    <glyph glyph-name="agrave" unicode="&#xe0;" horiz-adv-x="999" 
d="M633 1196l-25 -27l-385 189l127 172zM141 961q281 57 410 57q83 0 145.5 -17.5t113 -57.5t77 -113t26.5 -177v-665h-4l-221 223q-58 -117 -158.5 -177.5t-207.5 -60.5q-116 0 -196.5 67t-80.5 181q0 116 59 193.5t194.5 137.5t379.5 116v204q0 52 -27.5 81.5t-77.5 29.5
q-77 0 -189.5 -71t-240.5 -214zM678 276v357q-209 -60 -306.5 -156.5t-97.5 -197.5q0 -79 52.5 -126t126.5 -47q69 0 131 43.5t94 126.5z" />
    <glyph glyph-name="aacute" unicode="&#xe1;" horiz-adv-x="999" 
d="M748 1358l-386 -189l-24 27l283 334zM141 961q281 57 410 57q83 0 145.5 -17.5t113 -57.5t77 -113t26.5 -177v-665h-4l-221 223q-58 -117 -158.5 -177.5t-207.5 -60.5q-116 0 -196.5 67t-80.5 181q0 116 59 193.5t194.5 137.5t379.5 116v204q0 52 -27.5 81.5t-77.5 29.5
q-77 0 -189.5 -71t-240.5 -214zM678 276v357q-209 -60 -306.5 -156.5t-97.5 -197.5q0 -79 52.5 -126t126.5 -47q69 0 131 43.5t94 126.5z" />
    <glyph glyph-name="acircumflex" unicode="&#xe2;" horiz-adv-x="999" 
d="M498 1241l-254 -94l-13 35l267 204l266 -204l-12 -35zM141 961q281 57 410 57q83 0 145.5 -17.5t113 -57.5t77 -113t26.5 -177v-665h-4l-221 223q-58 -117 -158.5 -177.5t-207.5 -60.5q-116 0 -196.5 67t-80.5 181q0 116 59 193.5t194.5 137.5t379.5 116v204
q0 52 -27.5 81.5t-77.5 29.5q-77 0 -189.5 -71t-240.5 -214zM678 276v357q-209 -60 -306.5 -156.5t-97.5 -197.5q0 -79 52.5 -126t126.5 -47q69 0 131 43.5t94 126.5z" />
    <glyph glyph-name="atilde" unicode="&#xe3;" horiz-adv-x="999" 
d="M328 1184h-37q-17 23 -21 53t5.5 57t37 45.5t68.5 18.5q54 0 129.5 -33t120.5 -33q24 0 33.5 16.5t1.5 39.5h39q26 -35 31.5 -75t-19 -71t-80.5 -31q-55 0 -145 30t-130 30q-17 0 -26.5 -13t-7.5 -34zM141 961q281 57 410 57q83 0 145.5 -17.5t113 -57.5t77 -113
t26.5 -177v-665h-4l-221 223q-58 -117 -158.5 -177.5t-207.5 -60.5q-116 0 -196.5 67t-80.5 181q0 116 59 193.5t194.5 137.5t379.5 116v204q0 52 -27.5 81.5t-77.5 29.5q-77 0 -189.5 -71t-240.5 -214zM678 276v357q-209 -60 -306.5 -156.5t-97.5 -197.5q0 -79 52.5 -126
t126.5 -47q69 0 131 43.5t94 126.5z" />
    <glyph glyph-name="adieresis" unicode="&#xe4;" horiz-adv-x="999" 
d="M338 1155q-54 0 -87.5 34.5t-33.5 86.5t33.5 86.5t87.5 34.5t87.5 -34.5t33.5 -86.5t-33.5 -86.5t-87.5 -34.5zM670 1155q-54 0 -87.5 34.5t-33.5 86.5t33.5 86.5t87.5 34.5t87.5 -34.5t33.5 -86.5t-33.5 -86.5t-87.5 -34.5zM141 961q281 57 410 57q83 0 145.5 -17.5
t113 -57.5t77 -113t26.5 -177v-665h-4l-221 223q-58 -117 -158.5 -177.5t-207.5 -60.5q-116 0 -196.5 67t-80.5 181q0 116 59 193.5t194.5 137.5t379.5 116v204q0 52 -27.5 81.5t-77.5 29.5q-77 0 -189.5 -71t-240.5 -214zM678 276v357q-209 -60 -306.5 -156.5t-97.5 -197.5
q0 -79 52.5 -126t126.5 -47q69 0 131 43.5t94 126.5z" />
    <glyph glyph-name="aring" unicode="&#xe5;" horiz-adv-x="999" 
d="M479 1133q-73 0 -120.5 48.5t-47.5 118.5q0 71 47.5 120.5t120.5 49.5t121.5 -49.5t48.5 -120.5q0 -70 -48.5 -118.5t-121.5 -48.5zM479 1427q-51 0 -86 -36t-35 -91q0 -54 35 -90t86 -36q52 0 86.5 36t34.5 90q0 55 -34 91t-87 36zM141 961q281 57 410 57
q83 0 145.5 -17.5t113 -57.5t77 -113t26.5 -177v-665h-4l-221 223q-58 -117 -158.5 -177.5t-207.5 -60.5q-116 0 -196.5 67t-80.5 181q0 116 59 193.5t194.5 137.5t379.5 116v204q0 52 -27.5 81.5t-77.5 29.5q-77 0 -189.5 -71t-240.5 -214zM678 276v357
q-209 -60 -306.5 -156.5t-97.5 -197.5q0 -79 52.5 -126t126.5 -47q69 0 131 43.5t94 126.5z" />
    <glyph glyph-name="ae" unicode="&#xe6;" horiz-adv-x="1660" 
d="M1614 211l10 -8q-74 -112 -179 -169t-220 -57q-106 0 -201.5 46.5t-168.5 142t-101 225.5l-45 -135q-48 -141 -154 -214t-225 -73t-202 68t-83 182q0 116 59 193.5t194.5 137.5t379.5 116v202q0 54 -28 83.5t-79 29.5q-76 0 -188.5 -71.5t-239.5 -213.5l-2 262
q276 56 410 56q242 0 319 -148q72 71 170.5 109.5t198.5 38.5q153 0 256.5 -87t103.5 -251l-561 -352q69 -93 160.5 -148t187.5 -55q122 0 228 90zM901 717q0 -189 111 -357l397 250q-33 102 -90 176.5t-120 109t-124 34.5q-76 0 -125 -55t-49 -158zM678 340v291
q-209 -60 -306.5 -157t-97.5 -198q0 -80 52 -126t125 -46q96 0 161.5 70t65.5 166z" />
    <glyph glyph-name="ccedilla" unicode="&#xe7;" horiz-adv-x="974" 
d="M940 205q-74 -111 -178.5 -168t-218.5 -57q-55 0 -117 16l-12 -113q44 47 129 47q76 0 131 -46t55 -136q0 -61 -34 -100.5t-80 -53.5t-103 -14q-77 0 -141 27v160q39 -76 74.5 -118t74.5 -42q45 0 69.5 39t24.5 102q0 69 -34.5 103t-83.5 34q-56 0 -95 -39h-14l16 156
q-153 48 -251.5 191t-98.5 356q0 467 465 467q161 0 369 -55v-279q-137 140 -262 212.5t-219 72.5q-89 0 -140 -63.5t-51 -184.5q0 -143 68 -281t182 -226.5t237 -88.5q122 0 228 90z" />
    <glyph glyph-name="egrave" unicode="&#xe8;" horiz-adv-x="972" 
d="M621 1196l-25 -27l-385 189l127 172zM926 213l10 -8q-74 -112 -179 -168.5t-218 -56.5q-94 0 -181.5 38t-156.5 108t-110.5 180t-41.5 243q0 87 29.5 163.5t79 131t113.5 94t135 59t143 19.5q153 0 256.5 -87t103.5 -251l-561 -352q70 -94 161.5 -148.5t188.5 -54.5
q122 0 228 90zM211 719q0 -184 111 -354l399 249q-48 150 -144 235t-192 85q-76 0 -125 -56t-49 -159z" />
    <glyph glyph-name="eacute" unicode="&#xe9;" horiz-adv-x="972" 
d="M754 1358l-385 -189l-27 27l285 334zM926 213l10 -8q-74 -112 -179 -168.5t-218 -56.5q-94 0 -181.5 38t-156.5 108t-110.5 180t-41.5 243q0 87 29.5 163.5t79 131t113.5 94t135 59t143 19.5q153 0 256.5 -87t103.5 -251l-561 -352q70 -94 161.5 -148.5t188.5 -54.5
q122 0 228 90zM211 719q0 -184 111 -354l399 249q-48 150 -144 235t-192 85q-76 0 -125 -56t-49 -159z" />
    <glyph glyph-name="ecircumflex" unicode="&#xea;" horiz-adv-x="972" 
d="M485 1241l-254 -94l-12 35l266 204l267 -204l-13 -35zM926 213l10 -8q-74 -112 -179 -168.5t-218 -56.5q-94 0 -181.5 38t-156.5 108t-110.5 180t-41.5 243q0 87 29.5 163.5t79 131t113.5 94t135 59t143 19.5q153 0 256.5 -87t103.5 -251l-561 -352q70 -94 161.5 -148.5
t188.5 -54.5q122 0 228 90zM211 719q0 -184 111 -354l399 249q-48 150 -144 235t-192 85q-76 0 -125 -56t-49 -159z" />
    <glyph glyph-name="edieresis" unicode="&#xeb;" horiz-adv-x="972" 
d="M328 1155q-55 0 -89 34.5t-34 86.5t34 86.5t89 34.5q53 0 87 -34.5t34 -86.5t-34 -86.5t-87 -34.5zM657 1155q-54 0 -87 34.5t-33 86.5t33 86.5t87 34.5t87.5 -34.5t33.5 -86.5t-33.5 -86.5t-87.5 -34.5zM926 213l10 -8q-74 -112 -179 -168.5t-218 -56.5q-94 0 -181.5 38
t-156.5 108t-110.5 180t-41.5 243q0 87 29.5 163.5t79 131t113.5 94t135 59t143 19.5q153 0 256.5 -87t103.5 -251l-561 -352q70 -94 161.5 -148.5t188.5 -54.5q122 0 228 90zM211 719q0 -184 111 -354l399 249q-48 150 -144 235t-192 85q-76 0 -125 -56t-49 -159z" />
    <glyph glyph-name="igrave" unicode="&#xec;" horiz-adv-x="419" 
d="M82 1530l283 -334l-25 -27l-385 189zM92 958l232 50h4v-1008h-236v958z" />
    <glyph glyph-name="iacute" unicode="&#xed;" horiz-adv-x="419" 
d="M322 1530l127 -172l-386 -189l-24 27zM92 958l230 50h6v-1008h-236v958z" />
    <glyph glyph-name="icircumflex" unicode="&#xee;" horiz-adv-x="419" 
d="M209 1386l268 -204l-14 -35l-254 94l-254 -94l-12 35zM92 958l232 50h4v-1008h-236v958z" />
    <glyph glyph-name="idieresis" unicode="&#xef;" horiz-adv-x="419" 
d="M166 1276q0 -52 -34 -86.5t-89 -34.5q-54 0 -87.5 34.5t-33.5 86.5t33.5 86.5t87.5 34.5q55 0 89 -34.5t34 -86.5zM375 1397q54 0 87.5 -34.5t33.5 -86.5t-33.5 -86.5t-87.5 -34.5t-87.5 34.5t-33.5 86.5t33.5 86.5t87.5 34.5zM92 958l230 50h6v-1008h-236v958z" />
    <glyph glyph-name="ntilde" unicode="&#xf1;" 
d="M428 1184h-35q-17 23 -21 53t5 57t36.5 45.5t69.5 18.5q54 0 129.5 -33t118.5 -33q25 0 34 16.5t1 39.5h41q26 -35 31.5 -75t-19 -71t-80.5 -31t-146 30t-128 30q-17 0 -27 -13t-10 -34zM326 778q62 118 155 178t195 60q143 0 247.5 -105.5t104.5 -275.5v-635h-235v590
q0 155 -60.5 239t-150.5 84q-70 0 -140 -55t-116 -156v-702h-236v958l232 50h4v-230z" />
    <glyph glyph-name="ograve" unicode="&#xf2;" 
d="M690 1196l-26 -27l-385 189l127 172zM553 1016q148 0 264 -69.5t178 -188t62 -262.5q0 -143 -62 -261t-178 -188t-264 -70t-264 70t-178 188t-62 261q0 144 62 262.5t178 188t264 69.5zM639 25q127 0 175 144q48 141 6 347t-145 335q-95 118 -208 118q-127 0 -175 -144
q-48 -141 -6 -347t145 -335q95 -118 208 -118z" />
    <glyph glyph-name="oacute" unicode="&#xf3;" 
d="M827 1358l-385 -189l-24 27l282 334zM553 1016q148 0 264 -69.5t178 -188t62 -262.5q0 -143 -62 -261t-178 -188t-264 -70t-264 70t-178 188t-62 261q0 144 62 262.5t178 188t264 69.5zM639 25q127 0 175 144q48 141 6 347t-145 335q-95 118 -208 118q-127 0 -175 -144
q-48 -141 -6 -347t145 -335q95 -118 208 -118z" />
    <glyph glyph-name="ocircumflex" unicode="&#xf4;" 
d="M553 1241l-254 -94l-12 35l266 204l266 -204l-12 -35zM553 1016q148 0 264 -69.5t178 -188t62 -262.5q0 -143 -62 -261t-178 -188t-264 -70t-264 70t-178 188t-62 261q0 144 62 262.5t178 188t264 69.5zM639 25q127 0 175 144q48 141 6 347t-145 335q-95 118 -208 118
q-127 0 -175 -144q-48 -141 -6 -347t145 -335q95 -118 208 -118z" />
    <glyph glyph-name="otilde" unicode="&#xf5;" 
d="M377 1184h-35q-17 23 -21 53t4.5 57t36 45.5t68.5 18.5q55 0 131 -33t119 -33q25 0 34 16.5t1 39.5h41q26 -34 31 -74.5t-19.5 -71.5t-79.5 -31q-56 0 -146 30t-128 30q-17 0 -27 -13t-10 -34zM553 1016q148 0 264 -69.5t178 -188t62 -262.5q0 -143 -62 -261t-178 -188
t-264 -70t-264 70t-178 188t-62 261q0 144 62 262.5t178 188t264 69.5zM639 25q127 0 175 144q48 141 6 347t-145 335q-95 118 -208 118q-127 0 -175 -144q-48 -141 -6 -347t145 -335q95 -118 208 -118z" />
    <glyph glyph-name="odieresis" unicode="&#xf6;" 
d="M387 1155q-54 0 -87.5 34.5t-33.5 86.5t33.5 86.5t87.5 34.5t87.5 -34.5t33.5 -86.5t-33.5 -86.5t-87.5 -34.5zM719 1155q-54 0 -87.5 34.5t-33.5 86.5t33.5 86.5t87.5 34.5t87.5 -34.5t33.5 -86.5t-33.5 -86.5t-87.5 -34.5zM553 1016q148 0 264 -69.5t178 -188
t62 -262.5q0 -143 -62 -261t-178 -188t-264 -70t-264 70t-178 188t-62 261q0 144 62 262.5t178 188t264 69.5zM639 25q127 0 175 144q48 141 6 347t-145 335q-95 118 -208 118q-127 0 -175 -144q-48 -141 -6 -347t145 -335q95 -118 208 -118z" />
    <glyph glyph-name="oslash" unicode="&#xf8;" 
d="M870 909q88 -73 137.5 -180t49.5 -231q0 -144 -62 -262.5t-178 -188.5t-264 -70q-159 0 -281 80l-137 -194h-57l158 223q-88 71 -137.5 179t-49.5 233q0 143 62 261t178 187.5t264 69.5q159 0 281 -80l137 197h57zM467 969q-87 0 -138.5 -71.5t-59.5 -178.5t15 -231
t74 -228l365 518q-49 88 -115.5 139.5t-140.5 51.5zM639 25q88 0 139.5 71.5t59.5 178t-15.5 230t-74.5 228.5l-365 -518q49 -87 115.5 -138.5t140.5 -51.5z" />
    <glyph glyph-name="ugrave" unicode="&#xf9;" horiz-adv-x="1110" 
d="M702 1196l-26 -27l-385 189l127 172zM1014 1008h4v-1020h-4l-232 231q-62 -121 -155.5 -181.5t-196.5 -60.5q-142 0 -246 105.5t-104 275.5v600l231 50h4v-605q0 -155 60.5 -239t150.5 -84q70 0 140 55t116 156v667z" />
    <glyph glyph-name="uacute" unicode="&#xfa;" horiz-adv-x="1110" 
d="M877 1358l-385 -189l-27 27l285 334zM1014 1008h4v-1020h-4l-232 231q-62 -121 -155.5 -181.5t-196.5 -60.5q-142 0 -246 105.5t-104 275.5v600l231 50h4v-605q0 -155 60.5 -239t150.5 -84q70 0 140 55t116 156v667z" />
    <glyph glyph-name="ucircumflex" unicode="&#xfb;" horiz-adv-x="1110" 
d="M565 1241l-254 -94l-12 35l266 204l266 -204l-12 -35zM1014 1008h4v-1020h-4l-232 231q-62 -121 -155.5 -181.5t-196.5 -60.5q-142 0 -246 105.5t-104 275.5v600l231 50h4v-605q0 -155 60.5 -239t150.5 -84q70 0 140 55t116 156v667z" />
    <glyph glyph-name="udieresis" unicode="&#xfc;" horiz-adv-x="1110" 
d="M408 1155q-54 0 -87.5 34.5t-33.5 86.5t33.5 86.5t87.5 34.5t87 -34.5t33 -86.5t-33 -86.5t-87 -34.5zM739 1155q-54 0 -87.5 34.5t-33.5 86.5t33.5 86.5t87.5 34.5t87.5 -34.5t33.5 -86.5t-33.5 -86.5t-87.5 -34.5zM1014 1008h4v-1020h-4l-232 231
q-62 -121 -155.5 -181.5t-196.5 -60.5q-142 0 -246 105.5t-104 275.5v600l231 50h4v-605q0 -155 60.5 -239t150.5 -84q70 0 140 55t116 156v667z" />
    <glyph glyph-name="yacute" unicode="&#xfd;" horiz-adv-x="1159" 
d="M838 1358l-385 -189l-27 27l283 334zM840 993h319q-228 -298 -467 -831l-121 -268q-8 -19 -28 -65t-30.5 -69.5t-32.5 -67.5t-37.5 -68.5t-42.5 -61t-51 -57.5t-58 -45.5t-69.5 -37.5t-80.5 -21t-94 -7v227q202 -5 305.5 48.5t171.5 203.5q11 23 12 42t-3 29.5t-15 32.5
l-514 1016h262l406 -794v2q203 447 168 792z" />
    <glyph glyph-name="ydieresis" unicode="&#xff;" horiz-adv-x="1159" 
d="M430 1155q-55 0 -89 34.5t-34 86.5t34 86.5t89 34.5q53 0 87 -34.5t34 -86.5t-34 -86.5t-87 -34.5zM760 1155q-54 0 -87.5 34.5t-33.5 86.5t33.5 86.5t87.5 34.5q55 0 89 -34.5t34 -86.5t-34 -86.5t-89 -34.5zM840 993h319q-228 -298 -467 -831l-121 -268q-8 -19 -28 -65
t-30.5 -69.5t-32.5 -67.5t-37.5 -68.5t-42.5 -61t-51 -57.5t-58 -45.5t-69.5 -37.5t-80.5 -21t-94 -7v227q202 -5 305.5 48.5t171.5 203.5q11 23 12 42t-3 29.5t-15 32.5l-514 1016h262l406 -794v2q203 447 168 792z" />
    <glyph glyph-name="dotlessi" unicode="&#x131;" horiz-adv-x="421" 
d="M324 1008h4v-1008h-236v958z" />
    <glyph glyph-name="OE" unicode="&#x152;" horiz-adv-x="1798" 
d="M1759 248v-248h-1073q-154 0 -278.5 61.5t-201.5 162.5t-118.5 230t-41.5 263t41.5 263t118.5 230t201.5 162.5t278.5 61.5h1063v-248h-2q-190 105 -328 152.5t-307 47.5v-1339q171 0 316.5 48.5t330.5 152.5zM866 47v1339q-228 0 -387 -187q-136 -162 -175 -401
q-40 -241 37 -438q81 -205 263 -278q87 -35 193 -35h69zM1548 598l-358 107v22l358 107v-236z" />
    <glyph glyph-name="oe" unicode="&#x153;" horiz-adv-x="1755" 
d="M1708 213l10 -8q-74 -112 -179 -168.5t-220 -56.5q-104 0 -202 48.5t-167 137.5q-68 -89 -170 -139t-227 -50q-147 0 -263 70t-178.5 188.5t-62.5 262.5q0 143 62.5 261t178.5 187.5t263 69.5q120 0 218.5 -46t166.5 -128q71 84 177 129t216 45q153 0 257 -87t104 -251
l-562 -352q71 -94 162.5 -148.5t188.5 -54.5q121 0 227 90zM639 25q127 0 175 144q48 141 6 347t-145 335q-95 118 -208 118q-127 0 -175 -144q-48 -141 -6 -347t145 -335q95 -118 208 -118zM993 719q0 -184 111 -354l399 249q-48 150 -144 235t-192 85q-76 0 -125 -55.5
t-49 -159.5z" />
    <glyph glyph-name="Scaron" unicode="&#x160;" horiz-adv-x="1148" 
d="M842 1804l-267 -205l-266 205l13 35l253 -92l254 92zM170 1174q0 -63 40 -111.5t105.5 -77.5t149.5 -57t171 -49.5t171 -55t149.5 -73.5t105.5 -105.5t40 -150.5q0 -112 -32.5 -201t-87.5 -147.5t-132 -97t-161 -55t-179 -16.5q-243 0 -461 95l2 270
q151 -98 335.5 -158.5t336.5 -60.5q133 0 212 51t79 154q0 62 -32 110t-86 80t-123.5 57.5t-147 48t-155 47.5t-147 59.5t-123.5 79t-86 112t-32 153.5q0 105 38.5 181.5t107 118.5t150 61.5t179.5 19.5q237 0 463 -90v-246q-145 99 -326 171.5t-313 72.5q-211 0 -211 -190z
" />
    <glyph glyph-name="scaron" unicode="&#x161;" horiz-adv-x="872" 
d="M705 1352l-267 -205l-266 205l12 34l254 -92l254 92zM145 834q0 -46 37 -78.5t96 -52.5t130 -38t142 -44t130 -61t96 -96.5t37 -144.5q0 -344 -401 -344q-141 0 -349 48l3 260q360 -166 538 -166q148 0 148 119q0 36 -23 63t-62 44t-90 31t-107 28.5t-112 32t-107 44.5
t-90 63.5t-62 92.5t-23 127q0 254 362 254q146 0 328 -37v-254q-325 215 -494 215q-65 0 -96 -30t-31 -76z" />
    <glyph glyph-name="Ydieresis" unicode="&#x178;" horiz-adv-x="1159" 
d="M414 1608q-54 0 -87.5 34.5t-33.5 86.5t33 86t88 34t89 -34t34 -86t-34 -86.5t-89 -34.5zM745 1608q-54 0 -87 34.5t-33 86.5t33 86t87 34q55 0 88 -34t33 -86t-33.5 -86.5t-87.5 -34.5zM870 1434h308q-177 -220 -469 -680v-754h-248v686l-479 748h292l408 -635
q133 201 171 339.5t17 295.5z" />
    <glyph glyph-name="zcaron" unicode="&#x17e;" horiz-adv-x="903" 
d="M717 1352l-266 -205l-267 205l13 34l254 -92l254 92zM860 248h2v-248h-823v47l536 901q-67 -1 -133 -16.5t-137.5 -48.5t-122 -61t-131.5 -77v248h799v-45l-537 -901q221 0 547 201z" />
    <glyph glyph-name="circumflex" unicode="&#x2c6;" horiz-adv-x="641" 
d="M319 1456l269 -205l-15 -37l-254 95l-253 -95l-13 37z" />
    <glyph glyph-name="gravecomb" unicode="&#x300;" horiz-adv-x="509" 
d="M172 1599l283 -333l-25 -25l-385 189z" />
    <glyph glyph-name="acutecomb" unicode="&#x301;" horiz-adv-x="509" 
d="M336 1599l127 -169l-385 -189l-25 25z" />
    <glyph glyph-name="tildecomb" unicode="&#x303;" horiz-adv-x="585" 
d="M496 1444q26 -33 31.5 -72.5t-19 -70.5t-80.5 -31t-146 29.5t-128 29.5q-17 0 -27 -13t-10 -34h-35q-17 23 -21 53t5 57t36.5 45.5t69.5 18.5q54 0 129.5 -32.5t118.5 -32.5q25 0 34 15.5t1 39.5z" />
    <glyph glyph-name="uni030A" unicode="&#x30a;" horiz-adv-x="475" 
d="M238 1456q73 0 120.5 -49.5t47.5 -120.5q0 -70 -48 -119t-120 -49q-74 0 -122 49t-48 119q0 72 48 121t122 49zM238 1159q51 0 85.5 36.5t34.5 90.5q0 55 -34.5 91t-85.5 36q-53 0 -88 -36t-35 -91q0 -54 35.5 -90.5t87.5 -36.5z" />
    <glyph glyph-name="uni030C" unicode="&#x30c;" horiz-adv-x="636" 
d="M571 1456l15 -35l-269 -207l-266 207l12 35l254 -94z" />
    <glyph glyph-name="endash" unicode="&#x2013;" horiz-adv-x="944" 
d="M903 692h-862v47h862v-47z" />
    <glyph glyph-name="emdash" unicode="&#x2014;" horiz-adv-x="1374" 
d="M1333 692h-1292v47h1292v-47z" />
    <glyph glyph-name="quoteleft" unicode="&#x2018;" horiz-adv-x="423" 
d="M324 1575q-42 -37 -54.5 -78.5t0 -81.5t31 -77.5t36 -81t17.5 -76.5q0 -60 -40 -101t-103 -41t-102 41t-39 101q0 231 235 419z" />
    <glyph glyph-name="quoteright" unicode="&#x2019;" horiz-adv-x="411" 
d="M205 1599q63 0 103 -40.5t40 -100.5q0 -232 -235 -420l-19 23q42 37 54 79t0 82.5t-31 78t-36.5 81t-17.5 76.5q0 60 39.5 100.5t102.5 40.5z" />
    <glyph glyph-name="quotesinglbase" unicode="&#x201a;" horiz-adv-x="413" 
d="M205 260q63 0 103 -40.5t40 -100.5q0 -232 -237 -420l-17 25q42 37 54 78.5t0 81.5t-31 77.5t-36.5 81t-17.5 76.5q0 60 39.5 100.5t102.5 40.5z" />
    <glyph glyph-name="quotedblleft" unicode="&#x201c;" horiz-adv-x="780" 
d="M680 1575q-42 -37 -54 -78.5t0 -81.5t31 -77.5t36.5 -81t17.5 -76.5q0 -60 -39.5 -101t-102.5 -41t-103 41t-40 101q0 230 236 419zM324 1575q-42 -37 -54.5 -78.5t0 -81.5t31 -77.5t36 -81t17.5 -76.5q0 -60 -40 -101t-103 -41t-102 41t-39 101q0 231 235 419z" />
    <glyph glyph-name="quotedblright" unicode="&#x201d;" horiz-adv-x="768" 
d="M205 1599q63 0 103 -40.5t40 -100.5q0 -232 -237 -420l-17 23q42 37 54 79t0 82.5t-31 78t-36.5 81t-17.5 76.5q0 60 39.5 100.5t102.5 40.5zM563 1599q62 0 102 -41t40 -100q0 -231 -236 -420l-18 23q42 37 54 79t0 82.5t-31 78t-36.5 81t-17.5 76.5q0 60 40 100.5
t103 40.5z" />
    <glyph glyph-name="quotedblbase" unicode="&#x201e;" horiz-adv-x="770" 
d="M205 260q63 0 103 -40.5t40 -100.5q0 -232 -237 -420l-17 25q42 37 54 78.5t0 81.5t-31 77.5t-36.5 81t-17.5 76.5q0 60 39.5 100.5t102.5 40.5zM563 260q62 0 102 -41t40 -100q0 -231 -236 -420l-18 25q42 37 54 78.5t0 81.5t-31 77.5t-36.5 81t-17.5 76.5
q0 60 40 100.5t103 40.5z" />
    <glyph glyph-name="dagger" unicode="&#x2020;" horiz-adv-x="1069" 
d="M1008 1034v-278l-430 106l20 -69q73 -248 37 -486l-80 -561h-45l-80 561q-37 245 37 486l20 69l-426 -106v278l441 -108l-109 508h279l-111 -510z" />
    <glyph glyph-name="bullet" unicode="&#x2022;" horiz-adv-x="536" 
d="M268 913q88 0 143.5 -56.5t55.5 -139.5q0 -85 -55.5 -142t-143.5 -57q-89 0 -143.5 57t-54.5 142q0 84 54.5 140t143.5 56z" />
    <glyph glyph-name="ellipsis" unicode="&#x2026;" horiz-adv-x="1255" 
d="M205 260q63 0 103 -40.5t40 -100.5t-40 -101t-103 -41t-102.5 41t-39.5 101t39.5 100.5t102.5 40.5zM627 260q63 0 103 -40.5t40 -100.5t-40 -101t-103 -41t-102.5 41t-39.5 101t39.5 100.5t102.5 40.5zM1049 260q63 0 103 -40.5t40 -100.5t-40 -101t-103 -41t-102.5 41
t-39.5 101t39.5 100.5t102.5 40.5z" />
    <glyph glyph-name="perthousand" unicode="&#x2030;" horiz-adv-x="2422" 
d="M784 1028q0 -180 -102 -305t-254 -125q-101 0 -183 57.5t-127.5 156t-45.5 216.5q0 179 101.5 303.5t254.5 124.5q152 0 254 -124.5t102 -303.5zM1190 1434h53l-788 -1434h-54zM389 1401q-122 0 -153 -187t38 -374t191 -187q123 0 154.5 187t-38 374t-192.5 187z
M1217 834q152 0 253 -124t101 -304t-101 -304.5t-253 -124.5q-153 0 -255 125t-102 304t102 303.5t255 124.5zM1993 834q153 0 254.5 -124t101.5 -304t-102 -304.5t-254 -124.5q-153 0 -255 125t-102 304t102 303.5t255 124.5zM1253 31q123 0 154.5 187t-37.5 374.5
t-192 187.5t-154.5 -187t38 -374.5t191.5 -187.5zM2030 31q123 0 154.5 187t-38 374.5t-192.5 187.5q-122 0 -153 -187t38 -374.5t191 -187.5z" />
    <glyph glyph-name="guilsinglleft" unicode="&#x2039;" horiz-adv-x="501" 
d="M432 948l-217 -450l217 -451h-49l-317 451l317 450h49z" />
    <glyph glyph-name="guilsinglright" unicode="&#x203a;" horiz-adv-x="501" 
d="M119 948l317 -450l-317 -451h-49l215 451l-215 450h49z" />
    <glyph glyph-name="Euro" unicode="&#x20ac;" horiz-adv-x="1587" 
d="M1507 246l13 -10q-68 -110 -218 -184.5t-311 -74.5q-144 0 -264.5 49t-202.5 133.5t-135 190.5t-74 228h-260v47h254q-10 102 -2 184h-252v45h256q16 122 64 229t124.5 191.5t189.5 133t249 48.5q127 0 272.5 -17t251.5 -42l-2 -283q-360 272 -616 272
q-164 0 -257.5 -114.5t-97.5 -323.5q0 -48 3 -94h622v-45h-618q11 -88 41 -184h577v-47h-561q84 -208 249 -330.5t355 -122.5q186 0 350 121z" />
    <glyph glyph-name="trademark" unicode="&#x2122;" horiz-adv-x="1341" 
d="M59 1315v119h494v-119q-45 38 -97.5 67t-90.5 29v-657h-117v657q-37 0 -91 -29.5t-98 -66.5zM1130 1434h37l99 -680h-119l-78 532l-166 -393v-2h-51l-180 381q-17 -127 -9 -251t48 -267h-142q47 208 80 520l19 160h57l203 -428l180 428h22v-2v2z" />
    <glyph glyph-name="uniF000" unicode="&#xf000;" horiz-adv-x="1130" 
d="M1034 1599h4v-1613h-4l-258 184q-42 -91 -126.5 -142t-184.5 -51q-61 0 -119 19t-111 61t-93 101.5t-63.5 146.5t-23.5 191q0 127 32.5 228.5t87 163.5t122 95t141.5 33q116 0 216 -76.5t149 -218.5v829zM299 496q0 -106 22.5 -190.5t60 -136.5t83.5 -79t96 -27
q46 0 88.5 23.5t77 67.5t55 114.5t21.5 157.5v76q-1 96 -22.5 174t-57.5 126t-80 73.5t-92 25.5q-103 0 -177.5 -107t-74.5 -298z" />
    </font>
</defs>
</svg>
