<svg width="26" height="26" viewBox="0 0 26 26" fill="none" xmlns="http://www.w3.org/2000/svg">
<g clip-path="url(#clip0_3200_4237)">
<path d="M25.9739 7.64407C25.9129 6.26255 25.6895 5.31286 25.3694 4.48984C25.0393 3.61628 24.5314 2.8342 23.866 2.18402C23.2158 1.52374 22.4285 1.01064 21.5651 0.685681C20.7374 0.365696 19.7926 0.142215 18.4111 0.0813675C17.0193 0.0152373 16.5774 0 13.0475 0C9.51747 0 9.07564 0.0152373 7.68899 0.0761868C6.30752 0.137136 5.35778 0.360719 4.53501 0.6805C3.6612 1.01064 2.87912 1.51855 2.22894 2.18402C1.56866 2.83415 1.05582 3.62141 0.730603 4.48486C0.410618 5.31286 0.187188 6.25747 0.126289 7.63889C0.06021 9.03072 0.0449219 9.47255 0.0449219 13.0025C0.0449219 16.5325 0.06021 16.9744 0.121109 18.361C0.182058 19.7425 0.405641 20.6922 0.725676 21.5152C1.05582 22.3888 1.56866 23.1709 2.22894 23.8211C2.87912 24.4813 3.66638 24.9944 4.52983 25.3194C5.35773 25.6394 6.30234 25.8629 7.68407 25.9237C9.07046 25.9849 9.51255 25.9999 13.0425 25.9999C16.5725 25.9999 17.0144 25.9849 18.401 25.9237C19.7825 25.8628 20.7322 25.6394 21.555 25.3194C22.4191 24.9853 23.2039 24.4743 23.8591 23.8192C24.5142 23.1641 25.0252 22.3794 25.3594 21.5152C25.6792 20.6873 25.9028 19.7425 25.9637 18.361C26.0247 16.9744 26.0399 16.5325 26.0399 13.0025C26.0399 9.47255 26.0347 9.03067 25.9739 7.64407ZM23.6325 18.2594C23.5765 19.5292 23.3632 20.2149 23.1855 20.672C22.7486 21.8046 21.8496 22.7037 20.7169 23.1406C20.2598 23.3183 19.5692 23.5316 18.3043 23.5873C16.933 23.6485 16.5217 23.6635 13.0526 23.6635C9.58355 23.6635 9.16712 23.6485 7.80068 23.5873C6.5309 23.5316 5.84522 23.3183 5.3881 23.1406C4.82447 22.9322 4.31143 22.6021 3.89494 22.1703C3.46322 21.7488 3.13308 21.2409 2.92473 20.6772C2.74696 20.2201 2.53369 19.5292 2.47797 18.2646C2.41682 16.8932 2.40178 16.4817 2.40178 13.0126C2.40178 9.54356 2.41682 9.12712 2.47797 7.76094C2.53369 6.49116 2.74696 5.80548 2.92473 5.34836C3.13308 4.78448 3.46322 4.27154 3.90012 3.85495C4.32149 3.42322 4.8294 3.09308 5.39328 2.88499C5.8504 2.70722 6.54126 2.4939 7.80586 2.43798C9.17722 2.37703 9.58873 2.36179 13.0576 2.36179C16.5318 2.36179 16.9431 2.37703 18.3095 2.43798C19.5793 2.49395 20.265 2.70717 20.7221 2.88494C21.2857 3.09308 21.7988 3.42322 22.2153 3.85495C22.647 4.27657 22.9771 4.78448 23.1855 5.34836C23.3632 5.80548 23.5765 6.49609 23.6324 7.76094C23.6934 9.1323 23.7086 9.54356 23.7086 13.0126C23.7086 16.4817 23.6934 16.8881 23.6325 18.2594Z" fill="#DB3444"/>
<path d="M13.0482 6.3233C9.36084 6.3233 6.36914 9.3148 6.36914 13.0023C6.36914 16.6899 9.36084 19.6814 13.0482 19.6814C16.7356 19.6814 19.7272 16.6899 19.7272 13.0023C19.7272 9.3148 16.7356 6.3233 13.0482 6.3233ZM13.0482 17.3348C10.656 17.3348 8.71559 15.3947 8.71559 13.0023C8.71559 10.61 10.656 8.66985 13.0481 8.66985C15.4405 8.66985 17.3807 10.61 17.3807 13.0023C17.3807 15.3947 15.4404 17.3348 13.0482 17.3348ZM21.5507 6.05919C21.5507 6.9203 20.8525 7.61848 19.9912 7.61848C19.1302 7.61848 18.432 6.9203 18.432 6.05919C18.432 5.19797 19.1302 4.5 19.9913 4.5C20.8525 4.5 21.5507 5.19792 21.5507 6.05919Z" fill="#DB3444"/>
</g>
<defs>
<clipPath id="clip0_3200_4237">
<rect width="26" height="26" fill="white"/>
</clipPath>
</defs>
</svg>
