<svg width="23" height="26" viewBox="0 0 23 26" fill="none" xmlns="http://www.w3.org/2000/svg">
<path d="M11.6067 26H11.5992C7.71997 25.9737 4.73779 24.6948 2.73406 22.1976C0.950371 19.9756 0.030875 16.8839 0 13.0094V12.9906C0.0309258 9.11518 0.950371 6.02433 2.73406 3.80245C4.73682 1.30523 7.71997 0.0262031 11.5982 0H11.6132C14.587 0.0196523 17.0748 0.784621 19.0083 2.27155C20.8257 3.6695 22.1048 5.66201 22.8107 8.19477L20.601 8.8109C19.4054 4.52156 16.3792 2.32868 11.6057 2.29404C8.45406 2.31649 6.0711 3.30713 4.52151 5.23788C3.07018 7.04595 2.3202 9.65737 2.29303 12.9991C2.32111 16.3418 3.0711 18.9532 4.52151 20.7603C6.07115 22.691 8.45406 23.6816 11.6057 23.7041C14.4465 23.6835 16.3267 23.0216 17.8904 21.4897C19.675 19.7415 19.6423 17.5974 19.0711 16.2931C18.735 15.5243 18.1244 14.8839 17.3014 14.3989C17.0945 15.8615 16.6291 17.0487 15.91 17.9429C14.9512 19.1367 13.5917 19.7894 11.8707 19.882C10.5682 19.9522 9.31359 19.6443 8.3398 19.0141C7.18809 18.2688 6.51396 17.1283 6.44186 15.8025C6.37162 14.5132 6.88289 13.3277 7.881 12.4644C8.83512 11.6395 10.1769 11.1555 11.7621 11.0665C12.9306 11.0009 14.0232 11.0525 15.0336 11.221C14.8997 10.4167 14.6282 9.77905 14.2237 9.31836C13.6675 8.68446 12.807 8.36052 11.6675 8.35301H11.6357C10.7209 8.35301 9.47837 8.60392 8.68623 9.78184L6.7827 8.5019C7.84261 6.92605 9.56455 6.05902 11.6347 6.05902H11.6816C15.1432 6.08055 17.2041 8.19757 17.4091 11.8951C17.527 11.9448 17.6423 11.9962 17.7565 12.0496C19.3717 12.809 20.5523 13.9589 21.1722 15.3746C22.0355 17.3483 22.1151 20.5647 19.4943 23.1301C17.4924 25.0908 15.0617 25.9756 11.6132 25.9991H11.6057L11.6067 26ZM12.6928 13.3342C12.4306 13.3342 12.1647 13.3417 11.8931 13.3577C9.90346 13.47 8.66374 14.3811 8.73397 15.6788C8.80796 17.0384 10.3079 17.6704 11.749 17.5927C13.0757 17.5215 14.8024 17.0056 15.0916 13.573C14.3594 13.4167 13.5542 13.3342 12.6928 13.3342H12.6928Z" fill="#DB3444"/>
</svg>
