<svg width="26" height="26" viewBox="0 0 26 26" fill="none" xmlns="http://www.w3.org/2000/svg">
<g clip-path="url(#clip0_3200_4169)">
<path d="M13.2014 26H13.1939C9.31469 25.9737 6.33252 24.6948 4.32879 22.1976C2.5451 19.9756 1.6256 16.8839 1.59473 13.0094V12.9906C1.62565 9.11518 2.5451 6.02433 4.32879 3.80245C6.33155 1.30523 9.3147 0.0262031 13.193 0H13.2079C16.1817 0.0196523 18.6695 0.784621 20.603 2.27155C22.4204 3.6695 23.6995 5.66201 24.4055 8.19477L22.1958 8.8109C21.0001 4.52156 17.9739 2.32868 13.2005 2.29404C10.0488 2.31649 7.66583 3.30713 6.11624 5.23788C4.66491 7.04595 3.91492 9.65737 3.88775 12.9991C3.91584 16.3418 4.66582 18.9532 6.11624 20.7603C7.66588 22.691 10.0488 23.6816 13.2005 23.7041C16.0412 23.6835 17.9215 23.0216 19.4852 21.4897C21.2698 19.7415 21.237 17.5974 20.6658 16.2931C20.3297 15.5243 19.7191 14.8839 18.8961 14.3989C18.6893 15.8615 18.2238 17.0487 17.5047 17.9429C16.5459 19.1367 15.1864 19.7894 13.4654 19.882C12.163 19.9522 10.9083 19.6443 9.93453 19.0141C8.78281 18.2688 8.10869 17.1283 8.03658 15.8025C7.96635 14.5132 8.47762 13.3277 9.47572 12.4644C10.4299 11.6395 11.7716 11.1555 13.3568 11.0665C14.5253 11.0009 15.618 11.0525 16.6283 11.221C16.4944 10.4167 16.2229 9.77905 15.8184 9.31836C15.2622 8.68446 14.4017 8.36052 13.2622 8.35301H13.2304C12.3156 8.35301 11.0731 8.60392 10.281 9.78184L8.37743 8.5019C9.43733 6.92605 11.1593 6.05902 13.2295 6.05902H13.2763C16.7379 6.08055 18.7988 8.19757 19.0039 11.8951C19.1217 11.9448 19.237 11.9962 19.3512 12.0496C20.9664 12.809 22.1471 13.9589 22.7669 15.3746C23.6302 17.3483 23.7098 20.5647 21.089 23.1301C19.0871 25.0908 16.6564 25.9756 13.2079 25.9991H13.2005L13.2014 26ZM14.2876 13.3342C14.0254 13.3342 13.7594 13.3417 13.4878 13.3577C11.4982 13.47 10.2585 14.3811 10.3287 15.6788C10.4027 17.0384 11.9027 17.6704 13.3437 17.5927C14.6704 17.5215 16.3971 17.0056 16.6864 13.573C15.9541 13.4167 15.149 13.3342 14.2875 13.3342H14.2876Z" fill="white"/>
</g>
<defs>
<clipPath id="clip0_3200_4169">
<rect width="26" height="26" fill="white"/>
</clipPath>
</defs>
</svg>
