<?xml version="1.0" standalone="no"?>
<!DOCTYPE svg PUBLIC "-//W3C//DTD SVG 1.1//EN" "http://www.w3.org/Graphics/SVG/1.1/DTD/svg11.dtd" >
<svg xmlns="http://www.w3.org/2000/svg" xmlns:xlink="http://www.w3.org/1999/xlink" version="1.1">
<metadata>
Created by FontForge 20201107 at Tue Dec 31 14:56:04 2019
 By 
IMPRO STD.
</metadata>
<defs>
<font id="AgattaRegular" horiz-adv-x="915" >
  <font-face 
    font-family="Agatta"
    font-weight="400"
    font-stretch="normal"
    units-per-em="1000"
    panose-1="0 0 0 0 0 0 0 0 0 0"
    ascent="800"
    descent="-200"
    x-height="335"
    cap-height="1037"
    bbox="-938 -860 3216 1372"
    underline-thickness="50"
    underline-position="-150"
    unicode-range="U+000A-FB06"
  />
<missing-glyph horiz-adv-x="527" 
d="M50 700h427v-700h-427v700zM78 680l185 -309l186 309h-371zM251 350l-180 300v-601zM264 329l-185 -308h370zM276 350l181 -303v605z" />
    <glyph glyph-name="ts.liga" unicode="ts" horiz-adv-x="1051" 
d="M1035 247q13 12 29 6t20 -20t-7 -28q-83 -77 -238 -138q-174 -68 -271 -15l-1 0.5l-1 0.5l-3 2q-2 1 -4 3q-1 0 -2 0.5t-1 1.5q-4 2 -6 4q-12 10 -8.5 25.5t16.5 21.5t27 -1q15 -10 34 -16q19 -3 36 3.5t23 20.5q2 6 2 14t-1.5 15t-4.5 16.5t-5.5 15.5t-6.5 14.5t-5 12.5
q-16 40 -18 63q-53 -43 -107 -83q-190 -142 -322 -198q-26 -12 -52.5 -20t-59 -12.5t-59 -0.5t-49.5 21.5t-34 48.5q-7 18 -9 38.5t1 43t6.5 41t12 43.5t14.5 40.5t16.5 41t14.5 35.5q47 121 105 231q14 26 30 55q-76 -21 -123 -33q-8 -2 -23 -6.5t-25 -7t-23 -5.5t-25.5 -5
t-24.5 -2q-18 -1 -25 13.5t0.5 29.5t24.5 15q5 1 14 2q12 3 26 6q28 6 78 19q48 13 166 46q23 42 43 74q5 9 18 32t20.5 35.5t20 30t25.5 29.5q11 12 27.5 8t21.5 -21q3 -12 -2 -34q-10 -45 -49 -120q66 18 115 30q7 1 25 6t28 7t25.5 5.5t28.5 4.5t26 1q18 0 25 -14.5
t0 -29.5t-25 -14q-15 0 -33.5 -3t-30 -6t-35.5 -9t-31 -8q-62 -15 -155 -41q-77 -146 -233 -405q-13 -32 -20 -54t-15 -57t-1.5 -59t27.5 -35q32 -17 99 2q59 17 141 63q127 71 287 196q48 38 97 79q4 3 10 8.5t10.5 10t10.5 9t11 7.5q18 11 35.5 -5.5t4.5 -34.5
q-3 -3 -7 -9l-1 -1q-28 -34 -32 -53q-5 -22 9 -56q0 -1 4 -10.5t4.5 -11t4.5 -11.5t4 -11.5t3.5 -11.5t3.5 -11.5t2.5 -11.5t1.5 -11.5t1 -11.5t0 -12q-1 -14 -6 -26q45 9 104 33q131 54 200 119zM306 842v2v-2zM305 842q0 -3 0 -2.5v1t1 0.5h-1v1z" />
    <glyph glyph-name="tt.liga" unicode="tt" horiz-adv-x="1062" 
d="M1104 245q0 -9 -34 -39.5t-89 -68t-116.5 -73.5t-125 -60.5t-106.5 -24.5q-54 0 -89.5 33.5t-35.5 102.5q0 32 6 62.5t42 122t105 230.5q-1 -1 -4 -5q-20 -26 -40 -51.5t-70.5 -87t-95 -112.5t-105.5 -113.5t-111.5 -105.5t-102 -72.5t-87.5 -29.5q-17 0 -32.5 6
t-31 19.5t-25 41t-9.5 65.5q0 157 214 552q-72 -22 -133.5 -44t-85 -30t-40.5 -8q-9 0 -15 4t-9 10.5t-3 13.5q0 12 7.5 21t21.5 9q15 4 106.5 36t189.5 59q51 89 79 132t36 49.5t18 6.5q5 0 11 -2t13 -11.5t7 -25.5q0 -7 -1.5 -15t-2.5 -14.5t-5 -16t-6 -14.5t-7 -16
t-7 -14.5t-8 -15t-7 -12.5q239 55 477 67q27 37 48 68q3 5 9 16q38 65 53 85.5t31 20.5q11 0 20 -9.5t9 -21.5q0 -7 -5 -18t-14 -26t-16.5 -26t-20 -28.5t-16.5 -22.5q-10 -18 -20 -35q31 1 61 1q115 0 142 -5t27 -30q0 -11 -7 -19.5t-19 -8.5h-3.5t-7.5 0.5t-11.5 1
t-15 0.5t-18 0.5t-20.5 1t-23 0.5h-26h-28q-41 0 -84 -1v-1q-23 -41 -52.5 -97t-88.5 -172.5t-97 -216.5t-38 -147q0 -43 15.5 -60.5t47.5 -17.5q46 0 107 24.5t116.5 59.5t104.5 70.5t82.5 60t38.5 24.5t10 -2.5t8.5 -7t5.5 -10.5t2 -12zM42 11q32 0 84.5 35t106.5 85.5
t123 126.5t120.5 137.5t114.5 141t89.5 114.5t59.5 79q3 4 5 6.5l4 5t3 4.5q-234 -15 -465 -74q-41 -80 -103 -188t-102 -174t-42 -69q-34 -97 -34 -160q0 -70 36 -70z" />
    <glyph glyph-name="tr.liga" unicode="tr" horiz-adv-x="1464" 
d="M1450 264q11 14 26.5 9t20 -20t-5.5 -30q-13 -17 -35.5 -35t-36.5 -26.5t-43 -25.5q-78 -46 -177 -90q-101 -45 -173 -66q-2 -1 -11 -4t-12.5 -3.5t-12 -3t-13 -3.5t-12.5 -2.5t-13.5 -1.5h-12.5t-13 1t-11 3q-14 5 -21.5 15t-9.5 19.5t0 25t4.5 24t6.5 24.5q1 0 4.5 11
t4 15t2 12.5t-0.5 14t-6 10.5q-6 6 -15.5 10t-26.5 7.5t-18 3.5q-16 5 -41.5 10.5t-44 10t-41.5 11t-41 14.5q-52 22 -61 85q-106 -98 -222 -180q-56 -40 -94 -63.5t-95.5 -48.5t-108.5 -29q-66 -6 -104 30q-61 58 -20 201q51 174 181 413q-76 -21 -123 -34q-7 -2 -28 -7.5
t-32.5 -8.5t-28.5 -6t-32 -4q-24 -1 -28 23q-3 24 16 33q5 3 12 3q5 0 14 2q12 2 26 5q28 7 78 20q49 13 166 45q31 56 58 101q4 6 15 25t17 28.5t16.5 23.5t20.5 24q11 12 27.5 7.5t21.5 -20.5q3 -13 -2 -34q-10 -45 -49 -120q66 17 115 29q7 2 25 6.5l28 7t25.5 5.5
t28.5 4.5t26 1.5q18 0 25 -15t0 -29.5t-25 -14.5q-15 0 -33.5 -2.5t-30 -5.5t-35.5 -9t-31 -8q-62 -16 -155 -41q-77 -146 -233 -405q-1 -3 -3 -5q-14 -42 -23 -81q-28 -117 39 -129q41 -7 112 21q119 48 286 183q69 56 132 116q16 15 36 34q6 16 14 31t18.5 30t21.5 22.5
t24 9t25 -10.5q6 -5 9.5 -11.5t3 -14t-2 -13.5t-7 -14.5t-9 -14t-12 -14t-12.5 -12t-12.5 -12t-10.5 -9.5q-2 -7 -3 -14q-9 -48 13 -69q5 -4 13 -8t14.5 -5.5t17 -4t14.5 -3.5q13 -3 26.5 -6.5t30.5 -8t27 -6.5q7 -2 22 -5.5t25 -6t22.5 -6.5t23 -9.5t19.5 -12.5
q41 -36 21 -109q-1 -4 -3.5 -15.5t-5 -20.5t-5.5 -15q63 12 73 15q113 35 253 106q2 2 29.5 15.5t35.5 18t30.5 17.5t33.5 21.5t26 21.5t26 26zM306 860v2v-2zM305 859v-2v0.5t1 1.5h-1zM674 435zM940 13q1 1 0 2q1 -2 0 -2z" />
    <glyph glyph-name="ll.liga" unicode="ll" horiz-adv-x="1419" 
d="M1423 263q11 0 19 -9.5t8 -21.5q0 -13 -57 -55t-135.5 -88t-172.5 -82t-158 -36q-10 0 -22 1t-33 6t-39.5 13.5t-39 25t-35 39.5t-24 58.5t-9.5 79.5q0 40 8 85q-78 -78 -151.5 -140t-127 -101t-104 -67.5t-82 -42t-62 -21.5t-43 -9t-26.5 -1q-32 0 -58.5 11t-43.5 27.5
t-30 40.5t-19.5 45.5t-10 47.5t-4.5 42t-1 33q0 37 5 79q-3 6 -3 13q0 9 6 16q14 98 55.5 203.5t97 196.5t122.5 173.5t132 141t124.5 92.5t101.5 34q17 0 31 -6t22 -17t13 -22t7 -24.5t3 -21t1 -14.5q0 -57 -32.5 -131t-85.5 -149t-122 -152t-141.5 -142.5t-144.5 -118
t-130 -81.5q-3 -30 -3 -59q0 -41 5 -74.5t12.5 -54t18.5 -35t20.5 -21.5t21.5 -11t17.5 -4.5t13.5 0.5h2q48 0 116 32t133.5 78.5t140.5 109.5t129 114t105 103q37 107 106 229t147.5 226t157 191t141.5 137.5t93 50.5q8 0 16.5 -3t17.5 -13.5t9 -27.5q0 -51 -114 -208
t-257 -322t-267 -292q-30 -94 -30 -173q0 -16 1.5 -31.5t10 -39.5t22.5 -41.5t41.5 -30.5t65.5 -13q59 0 129 23.5t130 58t111.5 68.5t86.5 58t41 24zM1394 1179v0v0zM1394 1179l-1 1zM1383 1153q-100 -65 -254.5 -257.5t-251.5 -384.5q209 225 340 397t166 245zM608 1036
q-30 0 -87.5 -38.5t-129.5 -110.5t-141 -162t-126 -207t-81 -231q127 75 264.5 207.5t229.5 270t92 220.5q0 51 -21 51z" />
    <glyph glyph-name="th.liga" unicode="th" horiz-adv-x="1604" 
d="M1638 234q0 -15 -13 -24q-40 -31 -73 -52t-80 -38.5t-88 -17.5q-38 0 -69.5 13t-52.5 34t-39 48t-29.5 55t-24 55t-22.5 48t-23.5 34t-28.5 13q-27 0 -100.5 -46t-166.5 -126t-158 -161q-8 -10 -18 -10q-12 0 -21.5 11t-9.5 24q0 10 8 55t40.5 160t83.5 241
q-27 -33 -49 -59t-78 -88.5t-103.5 -110.5t-113.5 -109t-120.5 -101t-112.5 -68t-102 -28q-24 0 -43.5 6.5t-31.5 18t-20 24.5t-12.5 28t-6 26.5t-1.5 22.5q0 47 37.5 145t74.5 174t78 152q-148 -40 -187 -49.5t-60 -9.5q-13 0 -20 8t-7 20t7.5 21t20.5 9q25 1 285 73
q55 98 86.5 147t40.5 56t18 7q5 0 11 -2t13 -11.5t7 -25.5q0 -15 -6 -35.5t-12 -33.5t-19 -37.5t-16 -30.5q95 25 147.5 37.5t67.5 14.5t32 2q16 0 23 -9.5t7 -19.5q0 -12 -7.5 -20.5t-20.5 -8.5h-0.5h-1.5q-16 0 -33.5 -3t-77 -18t-172.5 -46q-39 -75 -98 -177.5t-97 -165
t-40 -65.5q-21 -61 -21 -97q0 -13 1 -22t6 -21.5t18 -19t33 -6.5q93 0 300 189t475 535q38 75 72.5 128.5t54.5 77.5t40 36.5t25 13t15 0.5q11 0 20 -9.5t9 -20.5q0 -5 -2 -9.5t-48 -67.5t-141 -186q-8 -16 -20.5 -42.5t-38.5 -87t-49.5 -121.5t-49 -141t-41.5 -150
q16 16 46.5 44.5t79 69t95.5 75t95.5 59t79.5 24.5t55 -16.5t39.5 -43t29 -59t27.5 -64.5t31.5 -58.5t45 -43t63.5 -16.5t76 16.5t68 36.5t52 36.5t30 16.5q11 0 19 -9.5t8 -22.5z" />
    <glyph glyph-name="Aff.liga" unicode="Aff" horiz-adv-x="2219" 
d="M2224 273q12 0 20.5 -10t8.5 -22q0 -17 -53.5 -49t-137 -59.5t-153.5 -27.5q-25 0 -49 4q2 -30 2 -60q0 -75 -14 -145.5t-34.5 -117t-44.5 -74.5t-44 -28q-46 0 -46 109q0 143 63 354t157 420q-84 -77 -158.5 -134t-142.5 -95.5t-114.5 -59.5t-113.5 -47q4 -18 4 -45
q0 -99 -21.5 -216.5t-56.5 -201.5t-68 -84q-20 0 -34 22.5t-14 67.5q0 123 60.5 335.5t216.5 585.5q-166 -133 -433 -232q-80 -226 -127.5 -341t-58 -129.5t-19.5 -13.5l-2 1q-13 0 -22 7.5t-9 19.5q0 10 12 38t55.5 135t98.5 257q-215 -73 -556 -146q-35 -61 -59.5 -113.5
t-33 -80t-15 -48.5t-13 -27.5t-19.5 -6.5q-12 0 -21 7.5t-9 19.5q0 8 9.5 38.5t32.5 85.5t51 108q-141 -30 -220 -47q-17 -4 -19 -4h-1q-8 0 -15 4.5t-10.5 12t-3.5 15.5q0 17 20.5 24t143.5 32q26 6 42.5 9.5t45 9.5t55.5 11q97 160 235 322.5t268.5 268.5t200.5 106
q40 0 58.5 -29.5t18.5 -77.5q0 -44 -20.5 -148.5t-68.5 -247.5q307 125 466 297q51 117 86.5 195.5t55 119t31.5 60t16 22t9 1.5h3q12 0 21.5 -7.5t9.5 -19t-3 -33.5t-14 -67.5t-29.5 -92t-55 -106t-83.5 -111.5q-126 -284 -201 -502q90 31 178 79.5t166.5 109.5t141 118
t129.5 126q27 49 49 86t48 72.5t50.5 54.5t45.5 19q11 0 21.5 -7t10.5 -22q0 -28 -51 -95t-127 -144q-130 -249 -216 -522q8 8 19 8q3 0 14 -2.5t30 -5t40 -2.5q55 0 113 17t96.5 37.5t69 37.5t35.5 17zM977 508q101 289 101 433q0 6 -0.5 11t-1 9t-1.5 6.5t-2 4.5t-2.5 3.5
t-2.5 2t-3 1t-3 0.5h-3.5h-3.5q-32 0 -101 -49.5t-154 -130t-183 -198.5t-179 -242q333 73 539 149zM1240 -212q3 6 7.5 17.5t16 46.5t21 73.5t18 97.5t9.5 120q-71 -236 -72 -355zM1738 -232q2 4 4.5 7.5t9.5 18.5t13 30t14 40t13 51t9 60.5t4 69.5q0 44 -7 92
q-60 -198 -60 -352v-17z" />
    <glyph glyph-name="aa.liga" unicode="aa" horiz-adv-x="1656" 
d="M1642 255q12 0 20 -10t8 -22q0 -13 -24.5 -31.5t-62.5 -35t-90 -28.5t-100 -12q-53 0 -112.5 16t-106.5 37t-88.5 45t-61.5 37.5t-23 16.5q-8 -2 -16 -5q-23 -10 -51.5 -32t-50 -41.5t-49 -34.5t-51.5 -15q-20 0 -36.5 9.5t-26.5 26t-10 36.5q0 13 5 28
q-165 -64 -280 -64q-36 0 -65 7.5t-46.5 18.5t-31 26t-20 28.5t-10 28.5t-4 22t-0.5 13v15q-3 -3 -10 -11q-36 -40 -58 -63t-57 -55.5t-63.5 -48.5t-51.5 -16q-9 0 -17 2.5t-15 7.5t-11.5 13t-4.5 18q0 15 12.5 44.5t37 64t55.5 66t71.5 52.5t81.5 21q17 0 33 -3q5 5 12 13
t10 12t8 9t8.5 7t8 3.5t8.5 1.5q12 0 21.5 -8.5t9.5 -20.5q0 -5 -16.5 -47.5t-16.5 -70.5q0 -13 4 -26t15 -29.5t38.5 -26.5t67.5 -10q52 0 135 23t139.5 45t92.5 39q85 53 180 53q47 0 73.5 -18.5t26.5 -43.5q0 -22 -15 -39q178 -119 322 -119q51 0 98 12.5t74.5 27.5
t49 28t27.5 13zM40 209q18 12 28 19t49 44.5t93 97.5q-44 -9 -92.5 -56t-77.5 -105zM1021 322l3 6q-15 7 -34 7q-41 0 -92.5 -17.5t-90 -46.5t-38.5 -57q0 -15 12 -15q13 0 41.5 19.5t56 43.5t62 43.5t59.5 19.5q11 0 21 -3z" />
    <glyph glyph-name="ab.liga" unicode="ab" horiz-adv-x="1629" 
d="M1618 260q8 0 14.5 -5t10.5 -12t4 -15q0 -15 -14 -24q-173 -111 -320 -111q-121 0 -228 65q-4 -23 -14.5 -55.5t-28 -69t-37.5 -67t-45.5 -51t-49.5 -20.5q-7 0 -14 1t-19.5 8t-21.5 18t-16 35t-7 56q0 129 78 305q-216 -154 -376 -154q-48 0 -96 15.5t-75.5 31.5
t-62.5 41t-41 28q-2 0 -15.5 -6t-17.5 -8q-22 -14 -50.5 -36t-47.5 -37.5t-42.5 -27.5t-44.5 -12q-25 0 -48 18t-23 51q0 46 42.5 90t106 69.5t124.5 25.5q47 0 75 -18t28 -44q0 -25 -17 -41q11 -9 24 -17.5t42 -25.5t65 -27.5t71 -10.5q180 0 436 213q63 120 167 268.5
t194.5 251.5t120.5 103q13 0 20 -13t7 -30q0 -50 -60 -153t-169.5 -232t-233.5 -232q-64 -124 -94 -224t-30 -155q0 -18 4 -34.5t8 -24.5t6 -8q10 0 30 24t40.5 59t36 80t16.5 82q-51 44 -51 87q0 20 8.5 34.5t24.5 14.5q21 0 44 -25t30 -81q26 -19 56.5 -35.5t76.5 -29.5
t92 -13q53 0 110.5 17t95 37.5t67 38t34.5 17.5zM1384 929q-134 -150 -264 -350q183 192 264 350zM281 335q1 2 4 6q-15 7 -33 7q-47 0 -91 -14.5t-72 -34.5t-44.5 -40t-16.5 -34t17 -14q11 0 38.5 20t55.5 44t62.5 44t58.5 20q11 0 21 -4z" />
    <glyph glyph-name="ah.liga" unicode="ah" horiz-adv-x="1859" 
d="M1867 268q11 0 18.5 -9.5t7.5 -21.5q0 -16 -12 -25q-64 -48 -123.5 -78t-118.5 -30q-38 0 -69 13t-52 34t-39.5 48t-30 55t-23.5 55t-22 48.5t-23.5 34t-29.5 12.5q-26 0 -99.5 -45.5t-167 -126t-157.5 -160.5q-8 -11 -19 -11t-20.5 11t-9.5 24q0 16 10 67t43 160.5
t81 231.5q-106 -117 -199.5 -200.5t-149 -121t-103.5 -56.5t-63 -20t-27 0h-2q-24 0 -48.5 6.5t-44 17t-37 22.5t-31.5 25.5t-23 23.5t-16 18.5l-7 8.5q-26 -9 -56.5 -31.5t-53 -43t-51.5 -36t-55 -15.5q-28 0 -51 21.5t-23 49.5q0 25 22.5 56.5t59 60t89 47.5t106.5 19
q50 0 76.5 -19t26.5 -43q0 -13 -7.5 -27.5t-18.5 -19.5q15 -16 25 -25.5t30 -25t43.5 -23.5t49.5 -8q49 0 124 45.5t144 106.5t146.5 141t121.5 130t80 93q37 80 71 144.5t58.5 104.5t47.5 69t36.5 42.5t27.5 21.5t19.5 9t12.5 1q10 0 19 -9t9 -19q0 -88 -252 -396
q-135 -298 -183 -509q21 23 65 62t105.5 89t124.5 85.5t100 35.5q28 0 50 -13t36 -34t27.5 -48t24 -55.5t25 -55.5t30.5 -48t41.5 -34t57.5 -13q35 0 75.5 16.5t68.5 36.5t51.5 36.5t30.5 16.5zM284 334q0 1 0.5 2t1.5 2t2 3q-15 7 -32 7q-53 0 -106.5 -20t-85 -48.5
t-31.5 -53.5q0 -14 15 -14q12 0 39 20t55 43.5t62 43t58 19.5q12 0 22 -4z" />
    <glyph glyph-name="am.liga" unicode="am" horiz-adv-x="1714" 
d="M1721 267q11 0 19 -10t8 -22q0 -16 -38.5 -42.5t-97.5 -47.5t-107 -21q-40 0 -77.5 12.5t-65 31.5t-54 43.5t-44 46t-35.5 41.5t-28 28q-12 -6 -30 -25.5t-38 -46.5t-36 -51t-33 -50t-22 -33q-10 -13 -26 -13q-11 0 -20 7.5t-9 20.5q0 5 25 89q3 10 7.5 32.5t7.5 33.5
q-32 -33 -58 -70.5t-38.5 -60.5t-25.5 -38.5t-25 -15.5t-21.5 8.5t-9.5 20.5q0 7 4 14q10 17 18.5 40.5t44.5 130.5q-50 -27 -121 -52t-158 -43.5t-157 -18.5q-41 0 -79 7.5t-61 16.5t-43.5 21.5t-26 17.5t-10.5 9q-33 -12 -65.5 -34.5t-52.5 -41.5t-47 -33.5t-53 -14.5
q-33 0 -52.5 19t-19.5 50q0 43 41.5 85.5t106 69.5t128.5 27q38 0 70 -16t32 -44q0 -12 -6.5 -25t-13.5 -19q63 -37 162 -37q49 0 101 8.5t97 22t88 29.5t76.5 32t59 29.5t40 22t15.5 8.5q12 0 21 -9.5t9 -20.5q0 -9 -17 -59q37 38 66 38q6 0 12.5 -2.5t14 -8t12 -19.5
t4.5 -34v-6q33 44 60 66.5t53 22.5q13 0 26 -7t25 -18.5t25 -26.5t27 -32t29 -33.5t33.5 -32t38.5 -27t45.5 -18.5t53.5 -7q37 0 76.5 13.5t65 29t47 29t27.5 13.5zM282 333q0 1 0.5 2l1 2l1.5 3q-15 7 -35 7q-46 0 -88.5 -14t-70.5 -34t-45 -40.5t-17 -34.5q0 -13 17 -13
q11 0 38 19.5t55 43.5t62.5 44t59.5 20q10 0 21 -5z" />
    <glyph glyph-name="an.liga" unicode="an" horiz-adv-x="1687" 
d="M1692 265q11 0 19 -9.5t8 -21.5q0 -17 -34.5 -39.5t-91 -39t-111.5 -16.5q-58 0 -107.5 14t-81 35t-59.5 45t-45.5 45t-35.5 35t-34 14q-27 0 -69 -41t-78 -89.5t-72.5 -89t-54.5 -40.5q-12 0 -20 8t-8 20q0 7 9 29.5t29 71t37 95.5q-89 -31 -204.5 -61t-195.5 -30
q-74 0 -122.5 22t-110.5 75q-5 0 -9 -1q-31 -16 -63 -39.5t-51.5 -41t-44.5 -30t-49 -12.5q-6 0 -12 1t-14.5 3t-16 7t-14.5 12.5t-11 19t-4 26.5q0 44 42 87t106.5 69t126.5 26q38 0 70.5 -16t32.5 -44q0 -8 -3.5 -17.5t-8.5 -17t-10 -10.5q66 -61 158 -61q36 0 80.5 6.5
t87 16.5t85.5 22.5t79.5 24.5t65.5 22t46.5 16.5t18.5 6.5q12 0 19.5 -10t7.5 -22t-34 -90q25 31 40 47t40.5 40.5t50 35.5t49.5 11q21 0 41 -10t38 -27t37 -37t43 -40t51.5 -36.5t66.5 -27t84 -10.5q44 0 83.5 10.5t62 23.5t40.5 23.5t25 10.5zM281 353q1 1 2 2.5t2 3.5
q-15 7 -36 7q-52 0 -104.5 -21t-84 -50t-31.5 -53q0 -13 16 -13q11 0 38.5 20t55.5 44t62.5 44t58.5 20q11 0 21 -4z" />
    <glyph glyph-name="ant.liga" unicode="ant" horiz-adv-x="2190" 
d="M2229 705q-143 0 -279 -7q-109 -193 -179 -352t-70 -229q0 -39 16.5 -56.5t48.5 -17.5q54 0 132.5 37.5t142 82.5t115.5 82.5t57 37.5q11 0 18.5 -9.5t7.5 -22.5q0 -11 -52 -53.5t-123.5 -89.5t-156 -84.5t-139.5 -37.5q-32 0 -56 10t-36.5 24t-20.5 33.5t-10 34.5t-2 31
q0 94 108 325q-25 -29 -32.5 -38t-40.5 -44t-52.5 -52t-55 -46t-63 -43.5t-62.5 -26.5t-66 -12q-33 0 -63.5 12t-51 29.5t-41 38.5t-35.5 38.5t-32 29t-32 11.5q-20 0 -46.5 -19t-51.5 -47.5t-52.5 -62t-50 -62t-44 -47.5t-34.5 -19q-12 0 -20 8t-8 20q0 5 3.5 15t10.5 28
t16 38.5t21.5 52t23.5 62.5q-35 -12 -79 -26t-102.5 -29.5t-117 -25.5t-101.5 -10q-39 0 -70 5.5t-59 19t-50.5 30t-53.5 42.5q-14 1 -41 -18t-54 -42.5t-61.5 -43.5t-60.5 -20q-7 0 -14.5 1t-18.5 5.5t-19 11.5t-14 20.5t-6 30.5q0 44 42 87t106.5 69t126.5 26
q38 0 70.5 -16t32.5 -44q0 -8 -3.5 -17.5t-8.5 -17t-10 -10.5q66 -61 158 -61q49 0 114 12t123 29t109 33.5t83.5 28.5t33.5 12q12 0 19.5 -10t7.5 -22q0 -6 -36 -95q58 70 103 104.5t85 34.5q18 0 35.5 -7t31.5 -18.5t28.5 -26t27.5 -30t28 -30t30 -26t34 -18.5t39 -7
q38 0 89 28.5t113 84.5t136 143t154 198q-162 -11 -307 -32t-217.5 -36t-73.5 -15q-12 0 -20.5 9.5t-8.5 21.5q0 22 93 43.5t222 36t221.5 23t133.5 11.5q53 91 73 119t37 28q12 0 21.5 -10t9.5 -22t-67 -111q118 5 240 5q14 0 21.5 -8.5t7.5 -20.5q0 -8 -3 -14.5t-10 -11
t-16 -4.5zM281 370l2 3l2 3q-15 7 -36 7q-52 0 -104.5 -21t-84 -50t-31.5 -53q0 -13 16 -13q11 0 38.5 20t55.5 44t62.5 44t58.5 20q11 0 21 -4z" />
    <glyph glyph-name="at.liga" unicode="at" horiz-adv-x="1411" 
d="M1452 762zM1479 791q0 -12 -7.5 -20.5t-20.5 -8.5h1q-18 -1 -303 -76q-243 -463 -235 -561v-2q0 -22 5.5 -38.5t12 -24t17.5 -11.5t16 -4.5t14 -0.5q54 0 133.5 37.5t142.5 82.5t114.5 82.5t56.5 37.5q7 0 13.5 -4.5t10 -12t3.5 -15.5q0 -11 -52.5 -53.5t-124 -90
t-155.5 -84.5t-138 -37q-59 0 -93 33.5t-34 100.5q0 27 5 55t36 111t90 206q-25 -29 -50 -55t-62 -62.5t-76.5 -65.5t-83 -55.5t-91 -41t-92.5 -14.5q-39 0 -84 15t-86 39t-60 37t-36 25l-2 2q-15 0 -43 -20t-54.5 -44t-61 -44t-61.5 -20q-28 0 -51 21.5t-23 49.5
q0 25 22.5 56.5t59 60t89 47.5t106.5 19q50 0 76.5 -19t26.5 -43q0 -22 -15 -39q5 -4 15 -10q40 -26 61 -38t56 -24t69 -12q212 0 505 399q-73 -19 -116 -29.5t-70 -16.5t-39 -8t-23 -2q-13 0 -20 8.5t-7 20.5q0 7 3 14t9.5 11.5t15.5 4.5q31 1 299 72q39 57 80 122
q47 86 88 153q2 5 3 5v-1l-1 -1q10 16 27 16q12 0 21 -7.5t9 -18.5q0 -20 -98 -179q-17 -31 -35 -65q48 13 92.5 25t65.5 18t40.5 11.5t28.5 7t17 2.5t18 1q14 0 21 -8t8 -13t1 -9zM284 370q1 2 2 3.5t2 3.5q-15 7 -33 7q-48 0 -100 -18t-87.5 -47.5t-35.5 -58.5
q0 -11 11 -11q14 0 42.5 19.5t56 43t61.5 43t59 19.5q11 0 22 -4z" />
    <glyph glyph-name="att.liga" unicode="att" horiz-adv-x="1881" 
d="M1921 293q11 0 18.5 -9.5t7.5 -22.5q0 -12 -52.5 -54.5t-124.5 -90t-157 -84.5t-139 -37q-29 0 -52 10t-38.5 27.5t-23.5 41.5t-8 53q0 84 55 213q-61 -89 -115 -158t-114.5 -135t-116.5 -102t-101 -36q-20 0 -39 7t-36.5 22.5t-28.5 44t-11 67.5q0 88 34 192t108 260
q-31 -35 -61 -67t-80 -76.5t-97 -75.5t-105 -53t-112 -22q-19 0 -40.5 4t-42 11t-40.5 15.5t-38 18.5t-34.5 19.5t-29.5 18.5t-22.5 16t-15 11l-5.5 4q-15 0 -43 -20t-54.5 -44t-61 -44t-61.5 -20q-28 0 -51 21.5t-23 49.5q0 25 22.5 56.5t59 60t89 47.5t106.5 19
q50 0 76.5 -19t26.5 -43q0 -22 -15 -39q5 -4 15 -10q40 -26 61.5 -38t56 -24t68.5 -12q29 0 61 7.5t85 36t109 75.5t133.5 134.5t158.5 205.5q-82 -12 -153 -23.5t-117 -19t-84 -14t-59.5 -10.5t-38 -6.5t-26 -4t-17.5 -1.5q-6 0 -11 2.5t-8.5 6.5t-5 8.5t-1.5 10.5
q0 12 7.5 21t20.5 10h-3l41.5 7t107.5 17.5t138 22t142 22.5t112 17q21 32 45 72q48 86 88 152q2 4 3 4l-1 -1q10 16 27 16q12 0 21 -7.5t9 -18.5q0 -20 -98 -179q-9 -15 -15 -27q245 34 448 48q61 115 91 166.5t39 59.5t21 8t21.5 -7.5t9.5 -19.5q0 -11 -15 -38t-93 -164
q121 7 192 7q9 0 15.5 -4.5t9.5 -11t3 -13.5q0 -22 -15 -26.5t-82 -6.5q-20 0 -32 -0.5t-34 -1.5t-45 -2t-48 -3q-5 -8 -18 -30q-77 -149 -131 -263t-79.5 -174.5t-39 -107.5t-14.5 -59.5t-1 -32.5q0 -43 16.5 -58t46.5 -15q37 0 85.5 17.5t94.5 44.5t93.5 58t83 57.5t61 44
t30.5 17.5zM284 379q1 2 2 3.5t2 3.5q-15 7 -33 7q-48 0 -100 -18t-87.5 -47.5t-35.5 -58.5q0 -11 11 -11q14 0 42.5 19.5t56 43t61.5 43t59 19.5q11 0 22 -4zM958 -33h1q8 -1 16.5 1t37 17.5t61.5 43.5t88.5 89t118.5 145t152.5 220.5t188.5 305.5q-200 -16 -450 -51
q-154 -291 -211 -437t-57 -247q0 -87 54 -87z" />
    <glyph glyph-name="bb.liga" unicode="bb" horiz-adv-x="1421" 
d="M1410 259q8 0 14.5 -5t10 -12t3.5 -15q0 -17 -51.5 -49t-133.5 -59.5t-151 -27.5q-117 0 -225 66q-8 -53 -37 -114t-68.5 -104.5t-73.5 -43.5q-31 0 -52 31t-21 89q0 89 28 202t83 233l-1 -1q-18 -17 -43 -39.5t-92 -77t-126 -95t-129.5 -73.5t-118.5 -33q-23 0 -43 7
q-13 -41 -36.5 -83.5t-56.5 -75t-63 -32.5q-28 0 -47.5 28.5t-19.5 79.5q0 77 24 164.5t63.5 169t89 161t103 144.5t103 115.5t90.5 78.5t64 28q15 0 23.5 -10t8.5 -27q0 -44 -159.5 -255t-226.5 -284q22 -10 37.5 -42.5t15.5 -76.5q0 -12 -1 -25q11 -5 28 -5q166 0 604 429
q59 97 120 175t107 123t86.5 75t64 40.5t34.5 10.5q12 0 20 -9.5t8 -22.5q0 -19 -144 -171.5t-256 -264.5q-29 -49 -54 -99t-42.5 -92.5t-32 -85t-24 -76t-16 -65.5t-10 -54t-5.5 -41t-2 -26.5v-10.5q0 -56 18 -73q20 5 48.5 46.5t51 98.5t22.5 99q-51 45 -51 88q0 9 2 17.5
t6 15.5t10.5 11t15.5 4q28 0 48.5 -32t25.5 -74q26 -19 56.5 -35.5t76.5 -29.5t91 -13q54 0 111 17t94.5 37.5t67.5 38t35 17.5zM434 819q-6 -5 -23.5 -22.5t-56 -59.5t-77 -89.5t-84 -116t-79.5 -135.5q61 68 162.5 203t157.5 220zM31 5q7 2 23.5 19t39.5 58t36 91
q-37 44 -40 113q-28 -27 -34 -30q-38 -114 -38 -190q0 -54 13 -61z" />
    <glyph glyph-name="bl.liga" unicode="bl" horiz-adv-x="1408" 
d="M1415 266q11 0 19 -9.5t8 -22.5t-57 -55t-135.5 -87.5t-174.5 -81.5t-163 -36q-41 0 -74 12.5t-53 29.5t-34.5 43.5t-20.5 45t-9.5 43.5t-3.5 30.5v14.5q0 177 145 400q-125 -82 -301 -176.5t-362 -165.5q18 -27 18 -67q0 -48 -28 -116.5t-72 -121t-82 -52.5
q-32 0 -53.5 30.5t-21.5 86.5q0 84 26.5 181t70.5 187t99 178.5t114 161.5t113.5 129t100 87t71.5 31q16 0 24 -10.5t8 -26.5q0 -28 -73.5 -136.5t-165.5 -226.5t-177.5 -217t-108.5 -111q-43 -128 -43 -216q0 -62 17 -70q21 6 50 49.5t50.5 99t21.5 92.5q0 16 -7.5 25
t-16 12.5t-15.5 11t-7 18.5t21 23.5t62.5 30.5t96.5 40.5t131 58t157 78t183.5 107t202.5 138.5q108 136 237 256.5t162 120.5q8 0 15 -3.5t11.5 -10t4.5 -15.5q0 -13 -28 -51t-76.5 -90t-124.5 -119.5t-161 -130.5q-231 -294 -231 -502q0 -17 2 -33.5t10.5 -40.5
t22.5 -41.5t41.5 -30t64.5 -12.5q58 0 128.5 24t130.5 58t112 68.5t86.5 58.5t41.5 24zM529 930l-1 -1v0zM492 868q-18 -15 -52 -48.5t-91 -96.5t-120 -155t-110 -189q118 133 222.5 274.5t150.5 214.5z" />
    <glyph glyph-name="cc.liga" unicode="cc" horiz-adv-x="1247" 
d="M1285 298q5 0 10.5 -2.5t9 -7t5.5 -10.5t2 -12q0 -7 -14 -21t-40.5 -32t-61.5 -37t-81 -37.5t-94.5 -33t-105.5 -23.5t-112 -9q-18 0 -35 1t-45 4.5t-51.5 10t-49 19t-43 30t-29 44t-11.5 59.5q0 12 1 26q-249 -179 -410 -179q-47 0 -81 14.5t-50 38t-22.5 46.5t-6.5 48
q0 72 45.5 128t111.5 56q38 0 60.5 -21t22.5 -45q0 -17 -11.5 -28t-22.5 -11t-19 9.5t-8 21.5q0 4 1 7l-2.5 1.5l-5 3t-7.5 3t-10 1.5q-40 0 -68 -40t-28 -85t28 -68t75 -23q155 0 448 225q5 8 13 17t27 27.5t47.5 30t60.5 11.5q24 0 43 -8t29 -18t15.5 -22.5t7 -20
t1.5 -12.5q0 -13 -8 -24t-22 -11q-12 0 -21.5 9t-9.5 21q0 4 2 8q-1 0 -3.5 5.5t-10 10t-21.5 4.5q-40 0 -71.5 -28t-46 -63t-14.5 -65q0 -28 15.5 -50t44 -35t65.5 -20t82 -7q56 0 111.5 9.5t99.5 24t85 32.5t72 36t54.5 32.5t38.5 24t19 9.5z" />
    <glyph glyph-name="ch.liga" unicode="ch" horiz-adv-x="1655" 
d="M1662 272q11 0 19 -9.5t8 -22.5q0 -15 -13 -24q-64 -48 -123 -78t-118 -30q-38 0 -69.5 13t-52.5 34t-39 48t-29.5 55t-24 55t-22.5 48.5t-23 34t-29 12.5q-27 0 -100.5 -45.5t-166.5 -126t-157 -160.5q-8 -11 -19 -11q-12 0 -21.5 11t-9.5 24q0 8 6.5 45t32 131.5
t65.5 200.5q-190 -226 -343.5 -330.5t-264.5 -104.5q-34 0 -63 7.5t-50.5 21t-38 31t-26.5 37t-15 39t-5 37.5q0 79 56.5 147t131.5 68q26 0 46 -8t29.5 -18.5t16 -22.5t8 -19t1.5 -9q0 -17 -12 -29t-23.5 -12t-19.5 10t-8 22q0 6 3 12q-7 15 -41 15q-53 0 -91 -51t-38 -104
q0 -48 37 -82.5t95 -34.5q56 0 122.5 29t125.5 71t124 103.5t111 111.5t96.5 111.5t69.5 87t39 52.5q3 4 4 5q34 80 71.5 157.5t82 156.5t86.5 127.5t71 48.5q32 0 32 -29q0 -46 -103.5 -212.5t-190.5 -282.5q-108 -254 -152 -440q21 22 65 61t105.5 89t124 85.5t100.5 35.5
q28 0 50 -13t36 -34t27.5 -48t23.5 -55.5t24.5 -55.5t31 -48t42 -34t56.5 -13q29 0 61 11t58 26.5t48 31t38 26.5t21 11z" />
    <glyph glyph-name="ck.liga" unicode="ck" horiz-adv-x="1535" 
d="M1542 272q10 0 18 -9.5t8 -21.5q0 -14 -31.5 -39t-79.5 -50.5t-113.5 -44.5t-125.5 -19q-43 0 -83.5 9t-77 24t-70.5 31.5t-79.5 36.5t-89.5 33q-10 -35 -18.5 -67.5t-13 -55t-9 -42.5t-6.5 -32.5t-4.5 -23t-4 -16t-4.5 -9.5t-7 -5t-10 -1q-13 0 -23 8.5t-10 22.5
q0 6 6 39.5t20.5 92.5t31.5 116q-3 7 -3 13q0 16 14 23q32 102 77 214q-79 -92 -158.5 -165t-140.5 -117.5t-123.5 -76.5t-100 -46t-79 -22t-51 -8h-24.5q-94 0 -150.5 50t-56.5 115q0 32 14.5 67.5t38.5 65.5t59.5 49t73.5 19q45 0 72.5 -24.5t27.5 -52.5
q0 -16 -11.5 -28.5t-23.5 -12.5q-11 0 -19 10t-8 22q0 6 2 12q-3 2 -8.5 5.5t-8 5t-9 3t-15.5 1.5q-29 0 -55 -17.5t-41.5 -42t-24 -48t-8.5 -38.5q0 -2 1 -4q4 -26 22.5 -48t53 -37t77.5 -15q17 0 35 2.5t44 8t54.5 17t62.5 27.5t72.5 40.5t81 55t90 73t97.5 92.5
t106.5 115t114.5 140q18 39 45 92.5t71.5 136.5t85 138t62.5 55q5 0 11 -2t13 -10.5t7 -23.5q0 -19 -16 -55.5t-42 -80t-54 -87t-57.5 -85t-46 -64.5t-24.5 -34q-89 -187 -146 -358q133 54 198 79t71 26.5t13 1.5q8 0 14 -3t10 -8t5.5 -10t1.5 -10q0 -13 -9.5 -22t-21.5 -9
q-2 0 -3 1q-46 -15 -247 -96q50 -18 117 -51t116.5 -50t105.5 -17q60 0 121.5 20t99.5 43.5t68 43t35 19.5zM1134 363q-1 0 -2 -1q3 0 3 1h-1z" />
    <glyph glyph-name="ct.liga" unicode="ct" horiz-adv-x="1295" 
d="M1332 765q9 0 15.5 -3t9.5 -8t4.5 -9.5t1.5 -8.5q0 -12 -7.5 -20.5t-20.5 -8.5h-1h-1q-15 0 -26.5 -1.5t-84 -19.5t-208.5 -56q-18 -25 -38 -51q-53 -98 -91.5 -180.5t-57 -130.5t-29.5 -87t-12.5 -52.5t-1.5 -26.5q0 -39 16.5 -56.5t48.5 -17.5q54 0 132.5 37.5
t142 82.5t115.5 82.5t57 37.5t10 -2.5t8.5 -7t5.5 -10.5t2 -12q0 -11 -52 -53.5t-123.5 -89.5t-156 -84.5t-139.5 -37.5q-32 0 -56 10t-37 24t-20.5 33.5t-9.5 34.5t-2 31q0 88 96 299q-142 -142 -324.5 -247.5t-306.5 -105.5q-94 0 -157 51.5t-63 129.5q0 33 12.5 69.5
t35 69t59.5 54t80 21.5q27 0 47.5 -7.5t31.5 -20t16 -25t5 -23.5q0 -17 -11.5 -29t-23.5 -12q-11 0 -19 10t-8 22q0 6 3 12q-3 5 -13.5 10t-26.5 5q-31 0 -57.5 -17.5t-41 -42.5t-22.5 -50t-8 -44q0 -58 48 -91.5t108 -33.5q13 0 38 5t70 19t96.5 36t117 61.5t131 89
t140.5 124t144 162.5q-147 -40 -186.5 -49.5t-59.5 -9.5q-13 0 -20 8t-7 20q0 8 3 14.5t9.5 11t15.5 4.5q24 1 285 73q28 52 50 89.5t36.5 60t24 35.5t16.5 18t9.5 6t8.5 1q12 0 21 -9.5t9 -24.5q0 -30 -74 -148q103 28 160 42t74 16t34 2zM200 368q-1 0 -1 -1q1 0 1 1z" />
    <glyph glyph-name="ctt.liga" unicode="ctt" horiz-adv-x="1773" 
d="M1785 273q11 0 19 -9.5t8 -22.5q0 -12 -53 -54.5t-125 -90t-157 -84.5t-139 -37q-57 0 -89.5 37t-32.5 95q0 25 4.5 54t10.5 51.5t19 56t21 51.5t25 57t24 55q-2 -3 -8 -11q-18 -26 -31 -45t-43.5 -61t-57.5 -74t-63.5 -74.5t-71 -73t-71 -58.5t-72.5 -43t-67 -15
q-34 0 -58 14.5t-38 45t-14 74.5q0 40 14 89t29.5 86.5t54.5 122.5q-142 -142 -325 -248t-307 -106q-94 0 -157 51.5t-63 129.5q0 33 12.5 69.5t35 69t59.5 54t80 21.5q27 0 47.5 -7.5t31.5 -20t16 -25t5 -23.5q0 -17 -11.5 -29t-23.5 -12q-11 0 -19 10t-8 22q0 6 3 12
q-1 2 -4 4.5t-7.5 5t-12 4t-16.5 1.5q-31 0 -57.5 -17.5t-41 -42.5t-22.5 -50t-8 -44q0 -58 48 -91.5t108 -33.5q13 0 38 5t70.5 19t96.5 36.5t117 61.5t132 89t141 125t143 163q-43 -7 -89 -15.5t-67.5 -12t-42.5 -6.5t-37 -3q-12 0 -19 8.5t-7 19.5q0 12 7 21t21 10
q20 0 40 3t41 7t74 13.5t115 19.5q56 101 88 150.5t41 57t19 7.5q7 0 14 -4t11.5 -12t4.5 -18q0 -34 -86 -166q240 37 398 50q32 53 84 142q47 94 70 133.5t32.5 49t21.5 9.5t21.5 -7.5t9.5 -19.5q0 -9 -16.5 -40t-88.5 -156q-23 -44 -53 -106q60 3 116 3h46q9 -1 15.5 -5.5
t9.5 -11t3 -13.5q0 -12 -7 -20.5t-20 -8.5h-6.5h-17.5h-23q-70 0 -145 -4q-100 -206 -151 -326.5t-64 -167t-13 -86.5q0 -73 65 -73q51 0 129 37.5t142.5 82t117 82t57.5 37.5zM836 34q47 0 114 52t144 144t155.5 203.5t162.5 246.5q-157 -14 -405 -54q-15 -21 -31 -42
q-75 -140 -134 -277t-59 -207q0 -66 53 -66z" />
    <glyph glyph-name="cb.liga" unicode="cb" horiz-adv-x="1461" 
d="M1450 259q11 0 19.5 -10t8.5 -22q0 -17 -51.5 -49t-133.5 -59.5t-152 -27.5q-116 0 -224 66q-8 -54 -37 -115t-69 -104t-75 -43q-9 0 -19.5 4.5t-23 16t-21 36.5t-8.5 60q0 156 86 347q-3 -2 -10 -8q-367 -312 -570 -312q-90 0 -145 52t-55 121q0 32 13 68.5t36 69t60 54
t80 21.5q46 0 72.5 -23.5t26.5 -52.5q0 -12 -5.5 -21.5t-13.5 -15t-16 -5.5q-11 0 -19 10t-8 22q0 6 2 11l-0.5 1t-1.5 2.5t-3 3.5t-4.5 3.5t-6 3t-9 2.5t-12.5 1q-32 0 -59 -18t-42.5 -44t-23.5 -51t-8 -44q0 -53 43.5 -83t103.5 -30q43 0 99.5 20.5t109 49t116.5 73.5
t107.5 78.5t98 80t73 63t45.5 41.5q59 99 141 205t165 182.5t128 76.5q9 0 16 -4t10 -8t4.5 -10.5t1.5 -8.5v-4q0 -20 -39.5 -72t-94 -110t-119 -122.5t-106.5 -105t-65 -61.5q-69 -121 -107 -241.5t-38 -193.5q0 -16 2 -28.5t4 -20.5t4.5 -13.5t4.5 -7.5l3 -3q17 4 45.5 43
t52.5 96.5t24 104.5q-51 45 -51 86q0 20 9 35t25 15q20 0 43 -24.5t31 -81.5q30 -22 63.5 -38.5t58.5 -24t50.5 -11.5t34.5 -4h17q54 0 111 17t94.5 37.5t67.5 38t35 17.5zM740 -47h1h-2h1z" />
    <glyph glyph-name="dd.liga" unicode="dd" horiz-adv-x="2117" 
d="M2115 265q11 0 19 -9.5t8 -22.5q0 -15 -13 -24q-114 -83 -227 -133.5t-207 -50.5q-58 0 -113 22.5t-94 57.5t-66.5 70t-42.5 68q-61 -58 -121 -100t-97.5 -60t-77 -27.5t-47 -10t-19.5 -0.5q-27 0 -47 6.5t-28.5 14t-13.5 18t-5 14v6.5q0 26 22 52q-129 -27 -235 -27
q-219 0 -296 128q-70 -64 -138.5 -109.5t-122.5 -66t-91 -28.5t-68 -8q-93 0 -93 63q0 25 13 54t42.5 58.5t71.5 53.5t106 39t140 15q41 0 55.5 -7t14.5 -23q0 -12 -8 -22t-22 -10q-1 0 -12.5 2t-29.5 2q-76 0 -139 -17.5t-99 -43t-55 -51t-19 -45.5v-1v-1v-2q15 -8 32 -8
q16 0 34 3t42.5 9.5t50.5 17t58 27.5t65 38.5t71 52t76 66.5q-13 48 -13 107q0 102 31.5 213t81.5 199t116 145t130 57q23 0 39 -10.5t23 -28t9.5 -32.5t2.5 -30q0 -47 -18.5 -112t-57 -147.5t-110 -182t-165.5 -194.5q56 -112 250 -112q165 0 407 76q44 19 109 41.5
t73 22.5q6 0 11.5 -3t9 -7.5t6 -10.5t2.5 -12q0 -8 -5 -14t-7 -7t-10 -4v0q-74 -31 -154 -58q-40 -17 -68 -31t-44.5 -25.5t-24.5 -17.5t-16.5 -16t-11.5 -13q5 -2 6 -2q4 0 9 -0.5l10 -1t9 -0.5q36 0 80.5 17.5t80.5 40t76 54.5t60.5 50.5t40.5 38.5q-15 56 -15 118
q0 70 19.5 149t52 152.5t74.5 145t87.5 130t90 103.5t84 70t66.5 25q9 0 18 -3.5t19 -12t16 -26.5t6 -43q0 -61 -27.5 -150t-80 -197t-142 -234.5t-201.5 -243.5q13 -33 36.5 -66t57 -65t81.5 -51.5t100.5 -19.5t112.5 18.5t109.5 44.5t91.5 52.5t69.5 45t32.5 18.5z
M438 364q10 10 20 20.5t44 50.5t62 77.5t64 94.5t60.5 109.5t42 114.5t17.5 117q0 21 -6 29q-5 1 -9 1q-32 0 -72.5 -29.5t-80 -83.5t-72.5 -122t-53.5 -153t-20.5 -168q0 -31 4 -58zM1814 1138zM1400 421q0 -36 6 -67q103 110 195.5 247.5t152.5 276t60 230.5q0 7 -2 30
q-37 -13 -90 -62t-108.5 -124.5t-103.5 -162.5t-79 -185.5t-31 -182.5z" />
    <glyph glyph-name="dk.liga" unicode="dk" horiz-adv-x="1886" 
d="M1892 278q11 0 19 -9.5t8 -22.5q0 -10 -20 -28.5t-55.5 -39.5t-78 -40t-95.5 -31.5t-101 -12.5q-53 0 -105 14.5t-89.5 33.5t-95.5 44.5t-110 41.5q-29 -100 -47 -197q-7 -38 -11.5 -46.5t-19.5 -8.5q-8 0 -15 3.5t-12 11t-5 16.5q0 4 4.5 31t19 88.5t33.5 128.5
q-2 7 -2 13q0 16 13 23q56 180 140 391q-14 -21 -24 -34.5t-47 -63t-68 -88t-81 -96.5t-94 -103t-99.5 -94t-103.5 -81t-100 -53t-95 -21q-143 0 -172 196q-219 -187 -393 -187q-26 0 -44.5 6.5t-27 14t-13 18t-4.5 15.5v10v1q0 21 10 45t29 48.5t50 47t70.5 40t94 28
t115.5 10.5q43 0 58.5 -7t15.5 -23q0 -12 -8 -22t-21 -10q-2 0 -14 2t-30 2q-55 0 -102 -8.5t-77.5 -21t-55.5 -30t-38 -32t-22.5 -31.5t-12 -24t-3.5 -13l-1 -1q1 0 4 -1.5t9 -2.5t15 -1h1q11 -1 25 0t54.5 10.5t82 28t103.5 60t123 99.5q-1 26 -1 53q0 127 33 253.5
t84 219t116.5 150.5t128.5 58q70 0 70 -100q0 -79 -36.5 -175.5t-93.5 -185t-119 -164.5t-121 -132q15 -187 119 -187q74 0 186 83t229.5 215.5t233.5 293.5t207 322q62 134 92.5 199t51.5 103.5t28.5 44.5t18 6t20.5 -8.5t10 -20.5q0 -18 -55.5 -135t-117.5 -225
q-172 -378 -264 -663q133 54 199 79t72 26.5t13 1.5q13 0 20.5 -8t9 -14t1.5 -9q0 -13 -9.5 -22t-21.5 -9q-2 0 -4 1q-45 -14 -246 -96q50 -18 117 -51t116 -50t106 -17q49 0 98.5 13t86 31.5t66.5 37t49 31.5t23 13zM730 991q-30 0 -69 -30t-78.5 -87t-73 -131t-54.5 -172
t-21 -200q65 69 118 138.5t85 122.5t55.5 107t34 87t16 68t6 44.5t0.5 20.5q0 22 -8 31q-1 0 -4 0.5t-7 0.5z" />
    <glyph glyph-name="dh.liga" unicode="dh" horiz-adv-x="2021" 
d="M2028 271q11 0 19 -9.5t8 -21.5q0 -16 -13 -25q-64 -48 -123 -78t-118 -30q-38 0 -69.5 13t-52.5 34t-39 48t-29.5 55t-24 55t-22.5 48.5t-23 34t-29 12.5q-27 0 -100.5 -45.5t-166.5 -126t-157 -160.5q-9 -11 -19 -11q-12 0 -21.5 11t-9.5 24q0 9 8 53.5t37 157
t72 241.5q-20 -29 -26 -37t-41 -53.5t-57.5 -71t-66 -74.5t-77.5 -79.5t-81.5 -69t-88 -61t-87.5 -38t-88 -15.5q-146 0 -167 179q-212 -180 -379 -180q-95 0 -95 63q0 61 54 112.5t136.5 80t170.5 28.5q47 0 64.5 -7t17.5 -24q0 -12 -8.5 -22t-21.5 -10q-2 0 -11 1.5
t-24 1.5q-79 0 -140.5 -15.5t-94 -36.5t-53 -45.5t-26.5 -39.5t-6 -21v-1q1 0 2.5 -1t4 -2t11 -2t20.5 -1q50 0 106.5 20.5t109 54t89 61.5t70.5 57v1q0 108 13.5 205t36.5 170t53.5 134.5t64.5 103t69 70.5t66.5 42.5t58.5 13.5q75 0 75 -97q0 -78 -42 -186.5
t-130.5 -238.5t-205.5 -241q3 -88 28 -129.5t81 -41.5h1q10 -1 22 0t49 13.5t76 35t100.5 72t126 118t149.5 180t174 249.5q206 528 294 528q32 0 32 -29q0 -40 -94 -215t-181 -313q-49 -134 -81 -227.5t-55.5 -174t-38.5 -153.5q21 22 65 61.5t106 90t125 86t101 35.5
q28 0 50 -13t36 -34t27.5 -48t23.5 -55.5t24.5 -55.5t31 -48t42 -34t56.5 -13q36 0 76 16.5t68 36.5t52 36.5t30 16.5zM736 984q-11 0 -30 -7t-46.5 -26t-56 -48.5t-58 -79t-53 -112t-40.5 -153.5t-21 -198q143 145 231 313.5t88 267.5q0 7 -1 14.5t-2.5 12.5t-2.5 9t-2 5.5
t-2 1.5h1l-1 -1v1h-4z" />
    <glyph glyph-name="dt.liga" unicode="dt" horiz-adv-x="1650" 
d="M1686 764q17 0 24 -9.5t7 -20.5q0 -12 -7.5 -20.5t-20.5 -8.5h-0.5h-1.5q-15 0 -25.5 -1.5t-80 -18.5t-198.5 -52q-23 -33 -46 -63q-114 -206 -156 -305t-42 -166q0 -24 6.5 -40t17 -22t19.5 -8t20 -2q52 0 131 37.5t143 82t116.5 82t57.5 37.5q11 0 19 -9.5t8 -21.5
q0 -13 -53 -55.5t-125 -90t-156.5 -84.5t-137.5 -37q-27 0 -48 8t-33.5 18t-21.5 26.5t-13 28t-6 27.5t-2 19v9q0 96 79 256q-74 -78 -149.5 -137t-131.5 -89.5t-111 -49t-85.5 -23t-56.5 -4.5h-3q-9 0 -16.5 0.5t-24 2.5t-31 7.5t-33.5 14.5t-35.5 24.5t-33.5 36t-31 51.5
t-23 68q-225 -195 -400 -195q-94 0 -94 63q0 39 26.5 78t73 70.5t117.5 51t152 19.5q29 0 45.5 -3t22.5 -9.5t6 -17.5q0 -12 -8.5 -22t-21.5 -10q-2 0 -13.5 2t-29.5 2q-134 0 -223.5 -52.5t-89.5 -106.5q0 -4 11 -5q13 -2 27 -2q77 0 178 51.5t208 153.5q-6 47 -6 102
q0 100 23 197.5t61.5 173t85 134.5t96 90.5t92.5 31.5q21 0 36.5 -10.5t22.5 -22.5t11 -29.5t4.5 -24.5t0.5 -15q0 -48 -21.5 -119t-63.5 -157t-115 -185t-165 -188q8 -41 21.5 -74t26 -52.5t32 -34t31 -20.5t30.5 -9t21.5 -3h13.5q34 0 73.5 8t107 38t138 80t164.5 145
t187 221q-157 -43 -197.5 -53t-61.5 -10q-13 0 -20 8.5t-7 19.5q0 12 7.5 21t20.5 10q24 1 299 76q70 123 122.5 210t79.5 128.5t45 63t22.5 24t9.5 1.5h1q12 0 21.5 -8t9.5 -20q0 -16 -67 -138.5t-140 -231.5q74 20 121 32t72.5 16.5t35.5 6t22 1.5zM435 432q0 -23 1 -48
q90 93 155.5 188t97.5 168.5t45.5 125t13.5 84.5q0 40 -8 49h-5q-27 0 -64.5 -23.5t-78.5 -72.5t-76.5 -114.5t-58 -159.5t-22.5 -197z" />
    <glyph glyph-name="dy.liga" unicode="dy" horiz-adv-x="1839" 
d="M1843 264q13 0 22 -10t9 -22q0 -14 -9 -19.5t-38 -11.5t-69.5 -14.5t-119.5 -35.5t-173 -68q-28 -93 -90.5 -191t-141 -179.5t-170 -155t-178 -124t-163.5 -80t-128 -29.5q-80 0 -80 71q0 51 39 114t106.5 128.5t156.5 134t190 132t205.5 120.5t204.5 101q22 78 22 136
q0 39 -12 75q-30 -15 -78.5 -54t-89 -74t-85.5 -63.5t-74 -28.5q-16 0 -27 8t-17 21.5t-6 29.5q0 17 7 39.5t17 46t20 50.5t18 64t9 76q-26 -16 -76.5 -63.5t-105.5 -100t-116.5 -104.5t-126.5 -86t-119 -34q-63 0 -109.5 49.5t-71.5 150.5q-108 -97 -214 -147.5t-183 -50.5
q-96 0 -96 68q0 34 23.5 71t68 70t118 54t162.5 21q41 0 55.5 -7t14.5 -23q0 -8 -3.5 -15t-10.5 -12t-16 -5q-1 0 -12.5 2t-28.5 2q-56 0 -104 -8.5t-79 -21t-56 -30t-37.5 -32t-22 -31.5t-11.5 -24t-4 -13v-1q7 -5 37 -5q69 0 170 48t217 157q-7 50 -7 103q0 99 23 196.5
t61.5 173t85 134t95.5 90t92 31.5q73 0 73 -98q0 -90 -47.5 -204.5t-129 -230t-184.5 -216.5q11 -58 28 -98t36.5 -58t35.5 -24.5t33 -6.5q41 0 94.5 29t104.5 72.5t106 94.5t100 95t85.5 73t63.5 29q21 0 35 -18t14 -52q0 -41 -16 -96.5t-34.5 -104.5t-20.5 -65
q24 10 59.5 36t70.5 55.5t70 58t67 47t52 18.5q32 0 49.5 -32.5t17.5 -85.5q0 -47 -13 -122q57 24 113.5 44t97 31.5t74.5 20t52 11.5t23 3zM434 431q0 -24 2 -48q136 142 223.5 300.5t87.5 270.5q0 11 -2 28t-5 17v0q-3 1 -8 1q-27 0 -64.5 -26t-78 -77t-75.5 -118
t-57.5 -159t-22.5 -189zM598 -620q32 0 92.5 23.5t135.5 64.5t158.5 103t160 133.5t143 162.5t103.5 183q-156 -73 -293 -156t-231 -155.5t-162.5 -140.5t-100.5 -117.5t-32 -79.5q0 -21 26 -21z" />
    <glyph glyph-name="dz.liga" unicode="dz" horiz-adv-x="2042" 
d="M2037 270q11 0 19 -9.5t8 -21.5q0 -11 -19.5 -28.5t-55.5 -37.5t-80.5 -37.5t-100 -29t-108.5 -11.5q-76 0 -217 34.5t-215 34.5q-13 0 -25 -0.5t-18.5 -1t-7.5 -0.5q-11 0 -19 9.5t-8 20.5q0 6 6.5 16.5t21 26t28 29.5t36.5 37l38 38q-118 -35 -124 -35h-2v1
q-24 -20 -52 -42t-75.5 -57t-97 -65t-103.5 -58t-108 -44.5t-98 -16.5q-46 0 -84.5 11.5t-64 27.5t-47 41t-33 45t-21 47t-12.5 39.5t-6 28.5q-99 -87 -204 -139.5t-192 -52.5q-45 0 -70 16t-25 47q0 36 24.5 74.5t70 71t118.5 53.5t160 21q41 0 56 -7t15 -23
q0 -12 -8.5 -22t-21.5 -10q-2 0 -13.5 2t-28.5 2q-77 0 -140 -17.5t-98.5 -43t-54.5 -51t-19 -45.5v-0.5v-1.5t-1 -2q15 -7 32 -7q22 0 48.5 5t65 19t79.5 36t92.5 59.5t104.5 86.5q-5 49 -5 96q0 99 22.5 196.5t59.5 174.5t83 136.5t96 92t96 32.5q74 0 74 -104
q0 -119 -98 -300.5t-267 -346.5q9 -62 30 -107t43.5 -67.5t52.5 -36t49.5 -16t41.5 -2.5q57 0 124.5 26.5t127.5 66.5t115 80.5t103 73t75 39.5q41 11 93.5 27t85.5 26t37 10q8 0 14.5 -4t10 -11t3.5 -15v-1q0 -8 -6.5 -16.5t-46.5 -48.5q-12 -13 -20 -21t-22.5 -23
t-30.5 -32t-34 -35q72 -3 210.5 -37t212.5 -34q62 0 123.5 18.5t99.5 40.5t67.5 40.5t34.5 18.5zM436 426q0 -20 1 -39q58 60 111.5 130t99.5 147t73.5 157t27.5 147q0 15 -7 35h-1h-2t-2.5 0.5t-3.5 0.5q-26 0 -63.5 -25t-78 -76t-75.5 -118t-57.5 -162t-22.5 -197z" />
    <glyph glyph-name="ee.liga" unicode="ee" horiz-adv-x="1569" 
d="M1593 281q13 0 23 -9t10 -21q0 -9 -27 -32t-77 -52t-111.5 -55.5t-141.5 -44.5t-156 -18q-81 0 -147.5 16t-106 41.5t-61.5 51t-27 47.5q-288 -124 -543 -124q-38 0 -71 3t-68 12.5t-60.5 24.5t-41.5 40.5t-16 59.5q0 24 9.5 54t27.5 60t49.5 50.5t69.5 20.5
q39 0 58.5 -18t19.5 -41q0 -18 -13 -38t-34.5 -35t-51 -25t-59.5 -10q-8 0 -16 1q-1 -9 -1 -16v-3.5v-3.5v-3l1 -5t4 -11.5t10 -14.5t21.5 -15.5t34.5 -14t54 -10.5t76 -4q255 0 544 132q17 52 57 93t89 41q34 0 58 -17.5t24 -38t-33 -44t-143 -74.5v-2q0 -26 27.5 -49.5
t70.5 -39t94 -24.5t99 -9q65 0 128.5 13t111 32t91 41.5t71.5 42t48 32.5t25 13zM920 346q-29 -1 -54 -31q40 21 54 31zM121 347q-32 0 -66 -50q18 3 32 7t22.5 9.5t14 10t11 10.5t7.5 8q-1 1 -9 3t-12 2z" />
    <glyph glyph-name="ek.liga" unicode="ek" horiz-adv-x="1640" 
d="M1647 272q11 0 18.5 -9.5t7.5 -21.5q0 -11 -19.5 -29.5t-55 -39.5t-78.5 -40t-95.5 -31.5t-100.5 -12.5q-54 0 -106 14.5t-89.5 33.5t-95.5 45t-110 42q-28 -99 -46 -197q-6 -28 -8.5 -37t-7.5 -14t-15 -5q-13 0 -23 9t-10 22q0 4 5 31.5t19 90t33 129.5q-2 5 -2 10
q0 15 12 22q35 119 85 251q-85 -103 -177.5 -187.5t-173 -139t-157.5 -92.5t-136 -54t-103 -16q-57 0 -112.5 19.5t-95.5 60.5t-40 92q0 36 19.5 76.5t55.5 70.5t76 30q34 0 57.5 -16.5t23.5 -43.5q0 -38 -47.5 -72.5t-107.5 -34.5q-9 0 -18 1q-1 -7 -1 -11q0 -39 54.5 -76
t130.5 -37t180 46t217 127t231.5 206t212.5 270q72 165 118.5 258.5t66.5 120.5t33 27q9 0 19 -7.5t10 -20.5t-22 -71t-70 -154t-104 -182q-96 -222 -155 -412q133 54 199 79.5t72 27t14 1.5q14 0 22.5 -10t8.5 -21q0 -12 -10 -21t-22 -9h-3q-47 -15 -247 -96
q50 -18 117 -51t116.5 -50t105.5 -17q60 0 121.5 20t100 43.5t68 43t34.5 19.5zM114 336q-9 0 -19.5 -6t-22 -17t-20.5 -26q11 1 24 4t34.5 13.5t29.5 26.5q-3 0 -12 2.5t-14 2.5z" />
    <glyph glyph-name="em.liga" unicode="em" horiz-adv-x="1652" 
d="M1658 278q11 0 19 -9.5t8 -22.5q0 -16 -38.5 -42.5t-97 -47.5t-106.5 -21t-91 17t-75.5 44t-57.5 53.5t-47 53t-34 35.5q-15 -8 -40 -37.5t-44.5 -58t-45 -66.5t-29.5 -43q-9 -14 -25 -14q-12 0 -20.5 7.5t-8.5 20.5q0 5 24 89q2 6 3.5 13t3 13.5t3 13.5t3 13.5t3.5 12.5
q-32 -33 -58.5 -70.5t-38.5 -60.5t-25 -38.5t-25 -15.5t-21.5 8.5t-9.5 20.5q0 7 4 14q10 18 17.5 39.5t44.5 128.5q-33 -20 -68 -40.5t-97 -54.5t-123.5 -62t-128.5 -55t-132.5 -42.5t-117.5 -15.5q-55 0 -98 16t-67.5 41.5t-37 53t-12.5 54.5q0 65 46 121.5t106 56.5
q10 0 21.5 -2.5t25.5 -8t23 -18t9 -29.5q0 -46 -51 -77.5t-105 -31.5q-8 0 -16 1q-1 -5 -1 -10q0 -42 45 -76.5t111 -34.5q50 0 115.5 17t131.5 45t134.5 61t127.5 66.5t106 61t75 45t30 17.5q12 0 21 -9t9 -21q0 -6 -17 -59q37 38 65 38q7 0 13 -2.5t14 -8t12.5 -19.5
t4.5 -34v-5q33 43 60 65.5t53 22.5q16 0 33 -11t32.5 -29t32.5 -39.5t38 -43t44.5 -39t55 -29t66.5 -11.5q38 0 77 13.5t64.5 29t47 29t27.5 13.5zM121 342q-36 0 -68 -50q27 3 53.5 16t36.5 31q-8 3 -22 3z" />
    <glyph glyph-name="en.liga" unicode="en" horiz-adv-x="1638" 
d="M1643 268q11 0 19.5 -10t8.5 -22q0 -13 -21.5 -29.5t-54 -31t-76.5 -24.5t-85 -10q-58 0 -107.5 14t-81 35t-59.5 45t-45.5 45t-36 35t-33.5 14q-27 0 -69 -40.5t-78.5 -89.5t-73 -89.5t-53.5 -40.5q-12 0 -20.5 8t-8.5 21q0 6 10 30.5t28 67.5t29 74
q-97 -58 -194.5 -100.5t-162 -61.5t-126.5 -29t-83 -11t-37 -1h-1q-59 0 -106 13t-75 31.5t-47 42t-26 43t-7 36.5q0 37 20.5 78t58 71t78.5 30q30 0 53.5 -16.5t23.5 -41.5q0 -43 -49 -76.5t-108 -33.5q-8 0 -16 1q-1 -5 -1 -10q0 -17 11 -34.5t33.5 -35t64.5 -28t97 -10.5
q88 0 186.5 25.5t178 62t146 73t107 62t43.5 25.5q12 0 20.5 -10t8.5 -22q0 -2 -0.5 -3.5t-0.5 -3.5t-1.5 -5t-3 -6.5t-4 -10.5t-5.5 -14.5t-8.5 -20t-10.5 -25.5q25 30 39.5 46.5t40.5 40.5t50.5 35t48.5 11q22 0 42 -10t37.5 -26.5t37 -37t43 -40.5t51 -36.5t66.5 -27
t85 -10.5q44 0 83.5 11t62 23.5t40.5 23.5t24 11zM118 352q-32 0 -63 -50q9 1 22 4t34.5 14.5t31.5 27.5q-9 4 -25 4z" />
    <glyph glyph-name="et.liga" unicode="et" horiz-adv-x="1375" 
d="M1412 768q17 0 24 -9.5t7 -20.5q0 -12 -7.5 -20.5t-20.5 -8.5h-0.5h-1.5h-13.5t-23.5 -3.5t-51.5 -11.5t-92.5 -24t-150 -41q-218 -397 -218 -524q0 -40 16.5 -57.5t49.5 -17.5q53 0 131.5 37.5t142.5 82.5t115.5 82.5t56.5 37.5q11 0 19 -9.5t8 -21.5t-52.5 -54.5
t-123.5 -89.5t-156 -84.5t-139 -37.5q-33 0 -57 10t-36.5 24t-20.5 34t-10 34.5t-2 30.5q0 101 122 353q-110 -119 -219.5 -207t-229.5 -143.5t-226 -55.5q-71 0 -135.5 23.5t-105.5 66t-41 93.5q0 35 18.5 74.5t54.5 69.5t79 30q34 0 58 -14t24 -40q0 -38 -47 -74t-109 -36
q-9 0 -18 1q-1 -6 -1 -11q0 -42 63 -83t151 -41q20 0 36 1t60 10t85.5 26t106 53t128.5 86t146.5 130.5t165.5 180.5q-10 -3 -30 -8q-101 -28 -132.5 -35.5t-52.5 -7.5q-13 0 -20 8.5t-7 19.5q0 12 7.5 21t20.5 10q25 1 277 70q13 18 27 37q24 42 41.5 71.5t30 48.5
t20.5 30.5t14.5 17t10.5 6.5t9 1q12 0 21.5 -9.5t9.5 -23.5q0 -16 -15.5 -42t-77.5 -112q111 31 172.5 46t79 17.5t34.5 2.5zM120 354q-35 0 -66 -49q17 2 31.5 6t23.5 9t16.5 10.5t11 9.5t6 8l2.5 4q-4 0 -12 1t-13 1z" />
    <glyph glyph-name="eth.liga" unicode="eth" horiz-adv-x="2407" 
d="M2415 275q11 0 19 -9.5t8 -21.5q0 -16 -13 -25q-64 -48 -123 -78t-119 -30q-42 0 -77 16.5t-57 43t-39.5 58.5t-30.5 64t-25 58.5t-27 43.5t-32 17q-27 0 -100.5 -46t-166.5 -126.5t-158 -160.5q-8 -10 -18 -10q-12 0 -21.5 10.5t-9.5 23.5q0 9 6.5 48t34 137t69.5 206
q-105 -135 -192 -235.5t-153.5 -167t-122 -107t-96.5 -57.5t-77 -17q-53 0 -81 35.5t-28 93.5q0 25 5.5 54t17 62t23 61.5t31 68t32.5 65t35.5 69t33.5 65.5q-83 -95 -169 -173t-177.5 -140.5t-185 -97.5t-178.5 -35q-71 0 -135.5 23.5t-105.5 66t-41 93.5q0 35 18.5 74.5
t54.5 69.5t79 30q34 0 58 -14t24 -40q0 -38 -47 -74t-109 -36q-9 0 -18 1q-1 -6 -1 -11q0 -42 63 -83t151 -41q20 0 36 1t60 10t85 25.5t105.5 52.5t128 85.5t145.5 129t165 179.5q-179 -47 -212 -47q-13 0 -20 8.5t-7 19.5q0 12 7.5 21t20.5 10q31 1 272 65q39 50 71 95
q2 4 6.5 14t8.5 18.5t10 20t11.5 20.5t12.5 18.5t13 16t12.5 10.5t12.5 4q8 0 15 -4t11.5 -12t4.5 -17q0 -5 -1 -9t-2.5 -9t-3.5 -8.5l-6 -10.5t-7 -11.5t-9.5 -14.5t-11 -16.5l-13.5 -19.5t-16 -22q-10 -20 -18 -37q262 70 283 70q14 0 21.5 -9t7.5 -21t-7.5 -20.5
t-20.5 -8.5h-1q-11 0 -44 -8.5t-275 -72.5q-23 -44 -57.5 -111t-54 -105.5t-46 -90.5t-41 -85.5t-28.5 -70.5t-20 -64.5t-6 -50.5q0 -6 0.5 -12t2 -14t5.5 -15t9 -13t14 -9t21 -3q36 0 89 32t108.5 82t122 121.5t123 138t118 144.5t100 129t75.5 101q78 170 151.5 277.5
t118.5 107.5q9 0 16.5 -3.5t11.5 -10.5t4 -17q0 -14 -12.5 -39t-69 -107.5t-169.5 -237.5q-54 -115 -104 -248t-75 -240q22 22 65.5 61t105.5 89.5t124.5 85.5t100.5 35q31 0 55 -16.5t39.5 -43t28.5 -58.5t27.5 -64.5t32 -59t45 -43t63.5 -16.5q21 0 44 6t42.5 15.5
t39 20.5t35.5 22.5t29 21t22.5 15t13.5 5.5zM120 339q-35 0 -66 -49q17 2 31.5 6t23.5 9t16.5 10.5t11 9.5t6 8l2.5 4q-4 0 -12 1t-13 1z" />
    <glyph glyph-name="ett.liga" unicode="ett" horiz-adv-x="1935" 
d="M1955 290q10 0 18 -9.5t8 -21.5q0 -7 -17.5 -24.5t-48.5 -41.5t-69.5 -51t-84 -53.5t-89 -48t-87 -34.5t-75.5 -13t-56 10t-37 24t-20.5 34t-10 34.5t-2.5 30.5q0 39 14 87.5t45 124.5q-55 -69 -107 -126.5t-95.5 -97t-84 -70t-72.5 -48t-62 -29t-51.5 -15t-41.5 -3.5
q-127 0 -127 154q0 49 15.5 106.5t40 115t71.5 155.5q-110 -119 -219.5 -207.5t-230 -144t-226.5 -55.5q-71 0 -135.5 23.5t-105.5 66t-41 93.5q0 35 18.5 74.5t54.5 69.5t79 30q34 0 58 -14t24 -40q0 -18 -12.5 -37.5t-32.5 -35.5t-50 -26.5t-61 -10.5q-9 0 -18 1
q-1 -6 -1 -11q0 -42 63 -83t151 -41q20 0 37 1t61.5 10.5t86.5 27t107.5 54.5t130.5 88.5t148.5 134t168.5 185.5q-101 -12 -182.5 -25t-116 -19t-47.5 -6t-20 8.5t-7 19.5q0 30 35 31q5 1 58.5 10t139.5 21.5t190 23.5q14 18 29 37q47 84 73.5 124t34 45.5t17.5 5.5
q4 0 7.5 -1t7 -3t6.5 -5t5 -7t3.5 -8.5t1.5 -8.5q0 -10 -2.5 -17.5t-27 -46t-75.5 -107.5q193 19 533 40q43 76 66.5 111.5t33 44t20.5 8.5q12 0 21.5 -9.5t9.5 -22.5q0 -10 -5 -21t-11.5 -21t-23 -35.5t-31.5 -49.5q42 3 76 5t51.5 3t30 2t16 1h4.5q12 0 19 -8t7 -19
q0 -23 -20.5 -28.5t-121.5 -11.5q-61 -3 -100 -6q-23 -35 -44 -67q-45 -84 -83.5 -161t-78.5 -181t-40 -154q0 -40 16.5 -57.5t48.5 -17.5q53 0 132 37.5t142.5 82.5t115 82.5t57.5 37.5zM646 642h1h-1zM120 374q-36 0 -66 -49q17 2 31.5 6t23.5 9t16.5 10.5t11 9.5t6 8
l2.5 4q-4 0 -12 1t-13 1zM932 7q47 0 110 33t145 104t187.5 201t220.5 306q9 16 18 33q-355 -22 -534 -41q-65 -117 -110.5 -214t-66 -150.5t-31.5 -95.5t-11.5 -53.5t0.5 -20.5v-2q0 -24 2 -39.5t9 -30.5t22 -22.5t39 -7.5z" />
    <glyph glyph-name="fo.liga" unicode="fo" horiz-adv-x="1277" 
d="M1282 276q11 0 20 -9.5t9 -21.5q0 -17 -47 -43t-126 -47.5t-153 -21.5q-52 0 -100 10.5t-77 23t-57 31.5t-36 26.5t-17 16.5q-32 -67 -80.5 -107t-96.5 -40q-13 0 -26 4t-26.5 13t-21.5 27.5t-8 44.5q0 24 7 49l-107 -40.5t-222 -84t-119 -45.5v-1.5v-2.5q92 -98 92 -249
q0 -39 -10.5 -88.5t-26 -92.5t-37.5 -72.5t-43 -29.5q-7 0 -12 1t-14.5 11t-15.5 28.5t-11 57t-5 92.5q0 47 6.5 146t14.5 174q-4 4 -10.5 9.5t-9 8t-4.5 6.5t-2 9q0 10 6.5 18.5t15.5 12.5q2 1 6.5 2.5t6.5 2.5q18 134 55 268t81.5 237.5t95.5 168.5t95 65q10 0 20 -2.5
t22.5 -9.5t20.5 -23.5t8 -40.5q0 -38 -22 -94t-55 -112t-72 -113t-74.5 -102t-60.5 -74t-32 -34q-11 -54 -19 -111q61 24 226.5 86.5t255.5 96.5q52 62 108 62q20 0 37 -7q6 23 38 23q46 0 46 -60q0 -10 -2 -22q28 -37 70.5 -63.5t93 -39t107.5 -12.5t113 13t90 29t60 29
t31 13zM272 786q-14 0 -40 -31.5t-55.5 -85t-61.5 -134t-56 -167.5q225 283 225 397q0 21 -12 21zM34 -196q0 91 -45 167q-14 -148 -14 -246q0 -59 6 -107q7 12 16.5 31t23 65.5t13.5 89.5zM520 152q37 0 70.5 35.5t55.5 80.5q-12 5 -15 19q-6 28 -33 28q-32 0 -67 -47.5
t-35 -88.5q0 -27 24 -27z" />
    <glyph glyph-name="gg.liga" unicode="gg" horiz-adv-x="1602" 
d="M1606 269q13 0 21 -9.5t8 -21.5q0 -7 -1 -11t-5.5 -7.5t-11 -5.5t-19 -5.5t-27 -7t-38.5 -9.5t-50.5 -13t-65 -19t-80.5 -26q-29 -106 -99 -221.5t-163.5 -220t-208 -200t-230.5 -164.5t-233.5 -110t-213.5 -41q-30 0 -57.5 7.5t-48 28.5t-20.5 52q0 25 25.5 71t79 110.5
t127.5 137.5t179 154.5t224 158t273 151t317 131.5q10 49 10 87q0 93 -55 93q-37 0 -108 -38t-138 -83.5t-134 -83t-96 -37.5q-15 0 -27.5 4t-21.5 11.5t-14 18.5t-5 24q0 20 14 44.5t34 44.5t43 38q-94 -20 -196 -68q-17 -65 -102.5 -168t-199 -205t-230 -194t-206 -149
t-115.5 -57q-17 0 -27 10.5t-10 25.5q0 24 45 90t127 156.5t183.5 186t230.5 189t251 154.5v3q0 25 -5 42.5t-11 25.5t-15 12t-12.5 4.5t-8.5 0.5q-34 0 -86.5 -25t-107.5 -61t-108.5 -72t-102 -61.5t-74.5 -25.5q-33 0 -51 17t-18 40q0 46 58 100t139 90t143 36
q46 0 76 -21q80 41 131 41q21 0 38.5 -6.5t28.5 -15.5t20 -24t13 -24.5t7 -24t3 -16.5t1 -8q163 72 303 72h16q68 27 120 27q46 0 77 -22q83 41 133 41q32 0 55.5 -15t34.5 -39.5t15.5 -47.5t4.5 -46q0 -32 -6 -70q40 14 86 27t80.5 22t59 14.5t28.5 5.5zM15 175q13 0 56 26
t111 71t106 68h-7q-44 0 -95.5 -20t-90.5 -46.5t-65.5 -52.5t-26.5 -38q0 -8 12 -8zM-212 -457q88 50 231.5 162.5t288.5 252t204 234.5q-121 -68 -245 -164t-217 -188.5t-160 -169t-102 -127.5zM771 175q15 0 58 26t111 71t106 68h-8q-37 0 -87.5 -19t-93.5 -44.5t-73 -53
t-30 -44.5q0 -4 17 -4zM195 -765q84 0 189 37t211.5 100t214 150t197 182.5t159.5 202t103 204.5q-138 -50 -264.5 -110.5t-225.5 -120t-187.5 -123.5t-153.5 -122t-119.5 -113.5t-90 -100t-60.5 -79.5t-36 -54.5t-11 -22.5v-1q0 -3 0.5 -5.5t4 -7t10.5 -8t22.5 -6
t36.5 -2.5z" />
    <glyph glyph-name="gh.liga" unicode="gh" horiz-adv-x="1796" 
d="M1803 276q11 0 18.5 -9.5t7.5 -21.5q0 -16 -12 -25q-64 -48 -123.5 -78t-118.5 -30q-38 0 -69.5 13t-52.5 34t-39 48t-29.5 55t-23.5 55t-22 48.5t-23.5 34.5t-29.5 13q-26 0 -99.5 -46t-167 -126.5t-157.5 -160.5q-8 -10 -19 -10t-21 10.5t-10 23.5q0 18 11.5 74
t46 169.5t81.5 231.5q-133 -146 -343 -359q-13 -101 -55.5 -205t-101.5 -191.5t-130.5 -168.5t-144 -142.5t-140 -108t-120.5 -70.5t-84 -24q-12 0 -23 4.5t-19.5 15.5t-8.5 27q0 21 14 51.5t46.5 75t64.5 85t90 103.5t99 107.5t115 120.5t115.5 118t121.5 123
q70 71 104 105q3 21 3 38q0 82 -58 82q-36 0 -107 -38.5t-138 -84t-133.5 -84t-93.5 -38.5q-14 0 -26.5 4t-23 11t-16.5 18.5t-6 25.5q0 29 33.5 68.5t83 73.5t110.5 57.5t110 23.5q46 0 79 -21q83 40 137 40q94 0 105 -116q267 271 423 452q46 93 84.5 153.5t72 91.5
t60.5 31q9 0 15 -4t9.5 -11t3.5 -15q0 -17 -58.5 -101.5t-140.5 -180.5q-44 -90 -101.5 -237t-88.5 -286q22 23 65.5 62t105.5 89t124.5 85.5t100.5 35.5q32 0 56 -16.5t39 -43t28.5 -58.5t28 -64.5t31.5 -59t45 -43t64 -16.5q35 0 75.5 16.5t68 36.5t51.5 36.5t31 16.5z
M27 180q13 0 61 29.5t115 74t96 61.5h-7q-40 0 -91.5 -19.5t-92.5 -46t-69.5 -53.5t-28.5 -40q0 -6 17 -6zM-151 -627q18 5 54.5 23.5t91 55t114.5 83t124.5 112t120.5 138t103.5 166t72.5 190.5q-277 -280 -405 -415t-187.5 -211t-88.5 -142z" />
    <glyph glyph-name="gk.liga" unicode="gk" horiz-adv-x="1669" 
d="M1675 276q11 0 18.5 -9.5t7.5 -21.5q0 -11 -19.5 -29.5t-55 -39.5t-78.5 -40t-95.5 -31.5t-100.5 -12.5q-54 0 -106 14.5t-89.5 33.5t-95.5 45t-110 42q-28 -99 -46 -197q-4 -22 -6 -30t-5.5 -15.5t-7.5 -9t-12 -1.5q-13 0 -23 9t-10 22q0 4 5 32t19 90t33 128
q-1 6 -1 11q0 15 11 22q54 181 139 383q-173 -212 -437 -472q-31 -94 -143.5 -241.5t-239 -276.5t-243 -223t-158.5 -94q-13 0 -23 5.5t-15.5 15.5t-5.5 23q0 32 36 84t115.5 133.5t161 159.5t220 209.5t244.5 236.5q7 26 7 50.5t-5 42t-11 25.5t-15.5 12t-13 4.5t-9.5 0.5
q-39 0 -110.5 -38.5t-137.5 -84.5t-134.5 -84.5t-101.5 -38.5t-48.5 22t-15.5 40q0 42 58.5 95t139 89.5t141.5 36.5q47 0 77 -20q80 40 135 40q53 0 79.5 -36.5t29.5 -91.5q372 374 538 633q79 163 99 196t40 33q6 0 12 -2.5t11 -10t5 -17.5q0 -18 -38 -93t-82 -144
q-144 -300 -231 -572q133 54 199 79t72 26.5t14 1.5q14 0 22.5 -10t8.5 -21q0 -12 -10 -21t-22 -9h-3q-46 -14 -246 -96q49 -18 116.5 -51t116.5 -50t105 -17q61 0 122 20t99.5 43.5t68 43t34.5 19.5zM40 180q14 0 55 25t111.5 72t106.5 68q-4 1 -8 1q-39 0 -90 -20.5
t-91 -47t-67.5 -52.5t-27.5 -38q0 -8 11 -8zM-148 -565q83 47 211 167t239.5 247t169.5 214q-95 -91 -210.5 -200.5t-167.5 -159t-109.5 -107t-85.5 -93t-47 -68.5z" />
    <glyph glyph-name="gl.liga" unicode="gl" horiz-adv-x="1588" 
d="M1595 267q12 0 19.5 -9.5t7.5 -22.5q0 -12 -56.5 -54t-134.5 -88t-173 -82t-161 -36q-91 0 -145.5 59.5t-54.5 167.5q0 115 70 265q-142 -113 -363 -283q-21 -82 -88 -183.5t-159 -199.5t-201 -196t-218.5 -180.5t-206 -147t-169 -101t-102.5 -36.5q-26 0 -38.5 14.5
t-12.5 32.5q0 23 17 56t54.5 76t78 85.5t105.5 100.5t118 104.5t135.5 113.5t137.5 111t144.5 113t135.5 104.5t130 99.5q58 45 85 66q7 31 7 59q0 80 -52 80q-35 0 -88.5 -25t-108 -61t-107.5 -71.5t-100.5 -60.5t-74.5 -25q-29 0 -49.5 16.5t-20.5 41.5q0 47 60 100.5
t140.5 88.5t139.5 35q46 0 76 -21q82 40 135 40q45 0 76 -34t32 -114q270 208 424 334q71 118 177 242t195.5 200.5t125.5 76.5q17 0 25 -10.5t8 -27.5q0 -14 -7.5 -33.5t-37.5 -62t-80 -96.5t-144 -140t-219 -189q-15 -26 -29.5 -53t-40 -82t-41 -116t-15.5 -115
q0 -9 0.5 -17t1 -12l0.5 -4q2 -14 4 -23.5t11.5 -31t23 -35.5t40 -25.5t60.5 -11.5q54 0 123 24t130.5 58.5t115 68.5t89 58t40.5 24zM1479 1021q-15 -11 -39 -31.5t-91.5 -90t-131.5 -148.5q191 168 262 270zM33 171q3 0 12 4.5t30 18t47 30t76 47.5t105 65h-7
q-35 0 -85.5 -19t-93 -45t-72.5 -52.5t-30 -39.5q0 -9 18 -9zM-524 -796q54 14 161 79t237 165t257 212.5t233 236t152 220.5q-95 -72 -138.5 -106t-133.5 -103t-136.5 -106.5t-125 -100t-123 -101t-106 -91.5t-98.5 -90.5t-76.5 -79t-64 -74.5t-38.5 -61z" />
    <glyph glyph-name="gm.liga" unicode="gm" horiz-adv-x="1710" 
d="M1716 267q12 0 20 -9.5t8 -22.5q0 -16 -38.5 -42.5t-97.5 -47.5t-107 -21q-30 0 -59 7t-52.5 19t-45.5 28t-39.5 33t-34 35t-29 33t-24.5 28.5t-20 19.5q-13 -6 -31 -25.5t-37.5 -46t-36 -51t-33 -50t-21.5 -32.5q-10 -14 -26 -14q-12 0 -20.5 7.5t-8.5 20.5q0 5 24 89
q3 11 8 33t8 33q-32 -33 -58 -70.5t-38.5 -60.5t-25.5 -38.5t-25 -15.5t-21.5 8.5t-9.5 20.5q0 7 4 14q16 29 71 197q-12 -3 -38 -11t-105.5 -39.5t-166.5 -74.5q-8 -100 -67 -220t-150 -235t-211 -223.5t-244.5 -190t-255.5 -131t-240 -49.5q-31 0 -57.5 7.5t-47 28
t-20.5 53.5q0 40 52.5 115t160 179t251 218t346.5 242.5t426 242.5v13q0 86 -53 86q-33 0 -86 -25.5t-108.5 -61.5t-110 -71.5t-101 -61t-70.5 -25.5q-29 0 -50.5 16t-21.5 42q0 42 57 96t138.5 91.5t144.5 37.5q45 0 75 -21q81 39 135 39q51 0 76.5 -32t31.5 -95
q73 35 139 62t108.5 40.5t68.5 20t35 6.5q13 0 23 -8t10 -20q0 -6 -18 -60q37 38 65 38q7 0 13.5 -2.5t14 -8t12 -19.5t4.5 -34v-5q22 28 39.5 46.5t36.5 30t37 11.5q16 0 33 -11t32.5 -29t33 -39.5t38 -43t44 -39t55 -29t67.5 -11.5q37 0 76.5 13.5t65 29t46.5 29t27 13.5z
M27 171q13 0 65.5 32t119.5 77t86 56h-6q-41 0 -93 -20t-92.5 -47t-68.5 -53.5t-28 -39.5q0 -5 17 -5zM-624 -741l-1 1zM-560 -771q90 0 204 41.5t228.5 111.5t227.5 166t204 200.5t156 220t84 219.5q-166 -87 -318 -180t-266.5 -175.5t-213 -163t-165.5 -146t-114.5 -120
t-69.5 -90t-22 -50.5v-1v-2q2 -5 4 -8t8 -9.5t19.5 -10t33.5 -3.5z" />
    <glyph glyph-name="gt.liga" unicode="gt" horiz-adv-x="1451" 
d="M1495 712h-2h-13.5t-23.5 -3.5t-51.5 -11t-92 -24t-150.5 -40.5q-218 -398 -218 -525q0 -40 16.5 -57t49.5 -17q53 0 132 37.5t142.5 82.5t115 82.5t56.5 37.5q11 0 19 -10t8 -22q0 -7 -24.5 -29.5t-63 -52t-89.5 -62t-102 -59.5t-103 -45t-89 -18q-32 0 -56.5 10
t-37 24.5t-20.5 34t-10 34.5t-2 30q0 114 150 410q-169 -169 -505 -439q-49 -102 -119.5 -203t-145.5 -185t-156 -160.5t-156 -133.5t-140.5 -99.5t-113.5 -64.5t-72 -22q-18 0 -29.5 6t-16 16t-5.5 15.5t-1 10.5q0 19 14 46.5t43.5 63.5t62 71.5t84 83.5t93.5 87t107 93.5
t108 91t112 92t104.5 84t98.5 79.5q57 45 81 65q15 29 30 66.5t28.5 78.5t13.5 61q0 25 -14.5 42.5t-41.5 17.5q-33 0 -86 -25.5t-109 -61t-110 -71.5t-100.5 -61t-70.5 -25q-29 0 -50.5 15.5t-21.5 42.5q0 41 57 95t138 92t145 38q44 0 74 -21q82 41 138 41
q55 0 82.5 -36.5t27.5 -81.5q0 -40 -33 -129q289 237 447 401q-15 -4 -37 -10t-32.5 -9t-26 -7.5t-23 -6t-18.5 -4.5t-17 -4t-13.5 -2t-13 -1.5t-10.5 -0.5q-13 0 -20 8.5t-7 20.5q0 5 1.5 10.5t5 9.5t9 7t12.5 3q25 1 264 67q32 36 56 68q54 92 73.5 120t36.5 28
q13 0 22 -10t9 -22q0 -15 -16.5 -43.5t-74.5 -104.5q-1 -2 -3 -5l-2 -3q85 23 139 37t83.5 20t41.5 7.5t26 1.5q16 0 23 -9.5t7 -20.5q0 -12 -7.5 -20.5t-20.5 -8.5zM26 197q14 0 61 29t114 74.5t95 62.5h-4q-40 0 -90.5 -20t-91 -46.5t-68.5 -52.5t-28 -38q0 -9 12 -9z
M-360 -727q52 14 146 76t203.5 154t225.5 221.5t196 258.5q-1 -1 -9 -7q-34 -26 -65 -50.5t-106 -85.5t-137 -113t-141.5 -122.5t-138 -127t-107.5 -112.5t-67 -92zM1239 864v-1q1 2 1 3v1q-1 0 -1 -3z" />
    <glyph glyph-name="gz.liga" unicode="gz" horiz-adv-x="1763" 
d="M1796 246q0 -10 -19.5 -27.5t-55.5 -37.5t-80.5 -38t-100 -29.5t-108.5 -11.5q-76 0 -217 35t-215 35q-14 0 -25.5 -1t-18 -1.5t-7.5 -0.5q-7 0 -13.5 4.5t-10 11.5t-3.5 15q0 6 6.5 16t21 26t28 30t36.5 36.5t38 38.5q-12 -4 -58 -17t-60 -17.5t-56.5 -18.5t-75 -26.5
t-85.5 -34t-115 -48.5q-28 -116 -100.5 -238t-169 -229t-213.5 -203.5t-234 -165t-231 -108.5t-204 -40q-36 0 -62.5 9t-40 23t-19.5 28.5t-6 28.5q0 20 14 53.5t52 88.5t95.5 117.5t155.5 143.5t221 163.5t301.5 179.5t388.5 190q8 43 8 76q0 84 -54 84q-33 0 -86 -25
t-108.5 -60.5t-109.5 -71.5t-101 -61t-72 -25q-26 0 -48.5 14.5t-22.5 43.5q0 47 60 101t140.5 89t139.5 35q46 0 77 -22q80 39 132 39q33 0 56 -14t34 -38t16 -48.5t5 -51.5q0 -18 -2 -38q87 38 174.5 70.5t150 52.5t113.5 35t75.5 21t25.5 6q8 0 14.5 -4.5t10 -11.5
t3.5 -15v-1q0 -8 -7 -16.5t-46 -48.5q-57 -59 -107 -111q72 -2 210.5 -36.5t212.5 -34.5q42 0 85 8.5t75.5 22t62 29t49 28.5t34 21.5t19.5 8.5q11 0 19 -9.5t8 -21.5zM20 197q15 0 64.5 29.5t120 76.5t99.5 63q-4 1 -8 1q-44 0 -97 -21.5t-92 -50t-66 -55.5t-27 -38
q0 -5 6 -5zM-550 -741q80 0 184 36.5t212 99.5t217.5 150.5t201.5 185t163.5 208t103.5 215.5q-214 -97 -392 -196t-292.5 -177.5t-205 -157t-136 -130.5t-77.5 -102.5t-38.5 -67.5t-10.5 -31l-1 -1q13 -32 71 -32z" />
    <glyph glyph-name="hh.liga" unicode="hh" horiz-adv-x="1914" 
d="M1922 268q11 0 19 -10t8 -22q0 -15 -13 -25q-64 -48 -123 -78t-119 -30q-37 0 -68.5 13t-52.5 34t-39 48t-30 55.5t-24 55.5t-22 48t-23.5 34t-28.5 13q-27 0 -100.5 -46t-166.5 -126t-158 -161q-8 -10 -19 -10t-20.5 10t-9.5 23q0 6 12 59.5t44.5 164.5t74.5 220
q-150 -184 -253 -281.5t-170 -97.5q-33 0 -57.5 25t-39 61t-28 72t-31.5 61t-41 25q-27 0 -100 -45.5t-165.5 -125.5t-157.5 -161q-8 -10 -18 -10q-12 0 -21.5 11t-9.5 24q0 47 30 156.5t79.5 239.5t106 251t117.5 202.5t106 81.5q4 0 9 -1t17.5 -6t22 -14.5t17 -29
t7.5 -46.5q0 -37 -22.5 -82t-62.5 -94.5t-82 -95.5t-95 -104.5t-87 -102.5q-6 -7 -14 -9q-46 -128 -73 -252q91 95 216 183.5t181 88.5q30 0 55.5 -18t41.5 -45t30.5 -59t24.5 -59t21 -45.5t23 -18.5q20 0 50.5 18t68 53t73.5 72t80.5 89t75.5 89t71 88.5t54 70t38 49.5
q7 15 12.5 27t30 59t46.5 84.5t54.5 87.5t60.5 83.5t59.5 58t56.5 24.5q12 0 20.5 -9.5t8.5 -21.5q0 -11 -111 -166t-187 -256q-119 -257 -186 -519q21 22 64 59.5t104 87t122.5 84t98.5 34.5q27 0 49 -13t36.5 -34.5t28 -48.5t23.5 -55t24.5 -55t30.5 -48.5t41.5 -34.5
t57.5 -13q35 0 75.5 17t68.5 36.5t51.5 36.5t30.5 17zM408 966q-4 0 -9 -2t-24 -22t-42 -54.5t-62.5 -109.5t-85.5 -177q9 10 25 28q45 50 65.5 73t51.5 58t44 53.5t28 42t20 40t5 31.5q0 39 -16 39z" />
    <glyph glyph-name="hk.liga" unicode="hk" horiz-adv-x="1765" 
d="M1799 236q0 -13 -31.5 -38t-79.5 -51t-113.5 -45t-125.5 -19q-53 0 -106 15t-91 34.5t-96.5 45.5t-111.5 41q-23 -94 -41 -191q-7 -43 -12 -53t-19 -10q-13 0 -23 9t-10 23q0 1 2 14t6.5 38t11 56t16 73t19.5 84q1 3 2 5q15 60 34 123q-66 -91 -115 -149.5t-83.5 -87.5
t-57.5 -38.5t-47 -9.5q-39 0 -71.5 16.5t-54 42.5t-39.5 58t-31.5 64t-26 58.5t-28 43t-32.5 16.5q-14 0 -59 -24.5t-104.5 -65t-131.5 -106.5t-129 -137q-8 -10 -18 -10q-12 0 -21.5 11t-9.5 24q0 46 30 156t79.5 240t106 251.5t117.5 202.5t107 81q3 0 8 -1t17.5 -6
t22 -14.5t17 -29t7.5 -46.5q0 -46 -37.5 -108t-84.5 -114t-117.5 -129.5t-109.5 -127.5q-6 -7 -14 -9q-46 -128 -73 -252q58 61 133.5 122.5t150.5 104.5t116 43q35 0 61.5 -22t42 -55t33.5 -71.5t34.5 -72t46 -55.5t67.5 -22q19 0 52 27t72.5 74.5t75 93t74.5 101t55 78.5
t31 45q1 2 1 3q41 112 85.5 209t84.5 164t77.5 118.5t68 81t52.5 44.5t36 15q11 0 20 -8t9 -20q0 -25 -141.5 -255.5t-237.5 -374.5q-46 -126 -81 -253q273 111 294 111q8 0 14.5 -3t9.5 -7t4.5 -9t2 -7.5t0.5 -4.5q0 -12 -9.5 -21t-21.5 -9h-3q-47 -14 -247 -96
q44 -15 94.5 -39t82 -39.5t75 -27t87.5 -11.5q60 0 121.5 19.5t99.5 43t68 43.5t34 20q11 0 19 -10t8 -22zM409 965q-28 0 -92.5 -107.5t-131.5 -256.5q9 10 25 28q45 50 65.5 73t51.5 58t44 53.5t28 42t20 40t5 31.5q0 38 -15 38z" />
    <glyph glyph-name="ht.liga" unicode="ht" horiz-adv-x="1561" 
d="M1601 708h-3q-15 0 -26 -1.5t-83 -19t-207 -54.5q-28 -44 -61 -91q-7 -14 -16 -31.5t-31.5 -62.5t-41.5 -88.5t-39 -92.5t-31.5 -92t-11.5 -71q0 -27 8 -43.5t22 -23.5t35 -7q53 0 132 37.5t142.5 82.5t115 82.5t57 37.5t10.5 -3t8.5 -7.5t5.5 -10t2 -11.5
q0 -7 -24 -29.5t-62.5 -52t-89.5 -62t-102 -59.5t-103 -45t-90 -18q-32 0 -56 10t-37 24.5t-20.5 34t-9.5 34.5t-2 30q0 38 14 89t51 140q-30 -33 -61.5 -62t-78.5 -66t-99 -59t-99 -22q-36 0 -65.5 13t-49 34t-36.5 48t-28 55.5t-22.5 55.5t-21 48t-23 34t-28.5 13
q-27 0 -101.5 -46.5t-167 -127t-156.5 -159.5q-8 -10 -18 -10q-12 0 -21.5 11t-9.5 24q0 46 30 156t79.5 240t106 251.5t117.5 202.5t107 81q3 0 8 -1t17.5 -6t22 -14.5t17 -29t7.5 -46.5q0 -46 -37.5 -108t-84.5 -114t-117.5 -129.5t-109.5 -127.5q-6 -7 -14 -9
q-47 -129 -73 -253q44 46 113.5 105t155 114t130.5 55q36 0 63 -22.5t41.5 -56t30.5 -72t31 -72t43.5 -55.5t66.5 -22q86 0 204.5 103.5t243.5 282.5q11 21 19 36q-148 -41 -186.5 -50.5t-60.5 -9.5q-12 0 -19.5 8.5t-7.5 20.5q0 7 3 13.5t10 11.5t16 5q24 1 284 73
q35 62 60 103.5t38.5 62.5t24 31t13.5 11.5t10 1.5q12 0 21 -10t9 -25q0 -16 -11.5 -38.5t-64.5 -109.5q80 22 130.5 35t77.5 18t38 6.5t24 1.5q17 0 23.5 -9.5t6.5 -20.5q0 -12 -7 -20.5t-20 -8.5zM409 987q-28 0 -92.5 -107t-131.5 -257q9 10 25 28q45 50 65.5 73t51.5 58
t44 53.5t28 42t20 40t5 31.5q0 38 -15 38z" />
    <glyph glyph-name="hz.liga" unicode="hz" horiz-adv-x="1911" 
d="M1933 235q0 -10 -19.5 -27.5t-55.5 -37.5t-80.5 -38t-100.5 -29.5t-108 -11.5q-77 0 -217.5 35t-214.5 35q-14 0 -25.5 -1t-18 -1.5t-7.5 -0.5q-11 0 -19 9.5t-8 21.5q0 5 5 13.5t13.5 18.5t22 24.5t26 27l31 31l31.5 31.5q-110 -33 -115 -32l-10 -3q-188 -177 -328 -177
q-43 0 -77.5 16.5t-56.5 43t-40 58.5t-31 64t-25.5 58t-27.5 43t-33 17q-15 0 -58 -23t-102 -63t-131.5 -106.5t-132.5 -140.5q-8 -10 -18 -10q-12 0 -21.5 11t-9.5 24q0 46 30 156t79.5 240t106 251t117.5 202.5t107 81.5q3 0 8 -1t17.5 -6t22 -14.5t17 -29t7.5 -46.5
q0 -46 -37.5 -108t-84.5 -114t-117.5 -129.5t-109.5 -127.5q-6 -7 -14 -9q-47 -129 -73 -253q94 98 217.5 185.5t182.5 87.5q34 0 60 -22t41.5 -55.5t33.5 -72.5t35 -72t47.5 -55.5t70.5 -22.5q42 0 93.5 24t84.5 48.5t73 59t41 35.5q4 3 132.5 41t130.5 38q8 0 14 -4.5
t10 -11.5t4 -15v-1q0 -8 -7 -16t-46 -49q-58 -59 -107 -111q72 -2 210.5 -36.5t211.5 -34.5q43 0 86 8.5t75 22t62 29t49.5 28.5t34 21.5t19.5 8.5q11 0 19 -9.5t8 -21.5zM409 984q-28 0 -92.5 -107t-131.5 -257q9 10 25 28q45 49 65.5 72.5t51.5 58.5t44 53.5t28 42t20 40
t5 31.5q0 38 -15 38z" />
    <glyph glyph-name="ih.liga" unicode="ih" horiz-adv-x="1653" 
d="M57 418q-12 0 -20.5 9t-8.5 22q0 10 8 19t21 9h2q12 0 20.5 -9t8.5 -21q0 -11 -8 -20t-21 -9h-2zM1434 171q36 0 76 17t67.5 36.5t51.5 36.5t31 17t13 -4.5t9.5 -12t3.5 -15.5q0 -15 -12 -25q-64 -48 -123.5 -78t-118.5 -30q-38 0 -69.5 13t-52.5 34t-39 48t-29.5 55.5
t-23.5 55.5t-22 48t-23.5 34t-29 13t-54.5 -21q-67 -35 -129.5 -81t-104.5 -86.5t-75 -76.5t-53 -57t-27 -21q-11 0 -20.5 11t-9.5 24q0 19 13.5 84.5t54.5 195t98 260.5q-531 -594 -727 -594q-10 0 -24.5 4t-35 15t-37.5 28t-29 46t-12 66q0 71 41 155q7 15 22 15
q12 0 22 -9.5t10 -22.5q0 -5 -9 -25t-18.5 -50t-9.5 -59q0 -40 23 -71.5t69 -31.5q18 0 47.5 12t96.5 58t152.5 121t223 218t298.5 331q30 53 56.5 90.5t43 55t33 27t22.5 10.5t14 1t14.5 -4.5t9.5 -11t3 -13.5v-2q0 -10 -19.5 -34t-130.5 -156q-60 -105 -132 -282
t-107 -333q16 17 46.5 45.5t79.5 69t96 75t95.5 58.5t78.5 24q32 0 56 -16.5t39.5 -43t28.5 -58.5t27.5 -64t31.5 -58.5t45 -43.5t64 -17z" />
    <glyph glyph-name="ik.liga" unicode="ik" horiz-adv-x="1465" 
d="M1498 245q0 -13 -32 -38t-79.5 -51t-113.5 -45t-125 -19q-53 0 -105.5 14.5t-90 33.5t-95.5 45t-110 42q-10 -35 -18 -67.5t-13 -55t-9 -43t-6 -33t-4.5 -23t-4.5 -16t-5 -9t-7 -5t-10 -1.5q-12 0 -22.5 9t-10.5 22q0 7 6.5 40.5t20.5 93.5t31 116q-2 6 -2 12q0 15 12 22
q47 153 117 317q-196 -258 -378 -408.5t-318 -150.5q-39 0 -68.5 12.5t-45.5 30.5t-26 42t-13 42t-3 34q0 73 41 157q7 15 22 15q12 0 22 -9.5t10 -22.5q0 -4 -9 -24.5t-18 -52.5t-9 -64q0 -102 103 -102q100 0 248 115.5t304.5 305t301.5 422.5q24 44 39 65.5t21 24.5t14 3
q12 0 20.5 -8t8.5 -21q0 -11 -32 -62q-4 -7 -19 -34.5t-25 -47t-28.5 -54.5t-33.5 -65.5t-34.5 -71t-37 -81.5t-36 -86t-36 -94t-33.5 -98q133 54 199 79t72.5 26.5t13.5 1.5q13 0 20.5 -8t9 -13.5t1.5 -9.5q0 -12 -10 -21t-22 -9h-3q-46 -14 -246 -96q49 -18 116.5 -51
t116.5 -49.5t106 -16.5q60 0 121 19.5t99.5 43t68 43.5t34.5 20q11 0 19 -10t8 -22zM56 417q-12 0 -20.5 9t-8.5 22q0 10 8 19t21 9h2q12 0 20.5 -9t8.5 -21q0 -11 -8 -20t-21 -9h-2z" />
    <glyph glyph-name="il.liga" unicode="il" horiz-adv-x="1310" 
d="M56 411q-12 0 -20.5 9t-8.5 22q0 10 8 19t21 9h2q5 0 9.5 -1.5t8 -4.5t6 -7t4 -8.5t1.5 -8.5q0 -11 -8.5 -20t-20.5 -9h-2zM818 38q54 0 123 24t130.5 58t115 68t89 58t40.5 24q11 0 19 -9.5t8 -21.5q0 -10 -35 -39t-94.5 -66t-127.5 -71.5t-143 -58t-132 -23.5
q-38 0 -68.5 10t-50.5 25.5t-34.5 38t-22 42.5t-12 43t-5.5 37t-1 27q0 8 1 16q-287 -179 -490 -179q-19 0 -38.5 4t-41.5 15.5t-39 29t-28 47.5t-11 68q0 70 41 154q7 15 22 15q12 0 21.5 -9.5t9.5 -22.5q0 -5 -8.5 -24.5t-17.5 -50t-9 -62.5q0 -107 109 -107q17 0 53 7
t100 25t154 61t181 104q21 109 78.5 231.5t130.5 225.5t150.5 188.5t144.5 134t106 48.5q23 0 37.5 -15t18 -30.5t3.5 -34.5q0 -104 -85 -246t-225 -283.5t-303 -251.5q-5 -36 -5 -64q0 -18 2 -34q19 -126 139 -126zM1232 1065q-26 -3 -79 -44.5t-119.5 -114.5t-132 -160
t-121.5 -195t-82 -206q141 103 262 227.5t197.5 250.5t76.5 215q0 1 -2 27z" />
    <glyph glyph-name="im.liga" unicode="im" horiz-adv-x="1536" 
d="M56 412q-12 0 -20.5 9t-8.5 22q0 10 8 19t21 9h2q12 0 20.5 -9t8.5 -21q0 -11 -8 -20t-21 -9h-2zM1327 187q38 0 77 13t64.5 29t46.5 29t28 13q11 0 19 -9.5t8 -21.5t-24 -31.5t-59 -37t-79 -30.5t-81 -13q-47 0 -90.5 17t-76 44t-57 54t-47 53.5t-33.5 34.5q-5 -2 -6 -4
q-34 -33 -62 -68.5t-43.5 -60t-28 -45t-23 -31t-22 -10.5t-20.5 8t-9 20q0 5 25 90q2 7 4 16t3.5 16.5t3.5 17t4 16.5q-31 -33 -58 -70.5t-39.5 -61t-25 -39t-24.5 -15.5t-21.5 8.5t-9.5 20.5v2q0 3 2 6q1 4 2.5 7t5 11t8 20t11 28.5t15 42t19.5 55.5q-371 -267 -590 -267
q-35 0 -64 8t-47 20t-31 30t-19 32t-9 32t-3.5 25t-0.5 15q0 70 41 154q7 15 22 15q12 0 22 -9.5t10 -22.5q0 -5 -9.5 -25.5t-18.5 -51.5t-9 -61t11.5 -52t24.5 -32t33 -15.5t26.5 -5.5h16.5q55 0 128.5 23.5t142 59t137.5 76.5t120 76.5t85 59t37 23.5q12 0 21 -7t9 -19
q0 -6 -18 -61q37 38 66 38q6 0 12.5 -2t14 -8t12 -19.5t4.5 -33.5v-6q33 43 60 66t53 23q19 0 38.5 -15t37 -37.5t41.5 -49t48.5 -48.5t60.5 -37t77 -15z" />
    <glyph glyph-name="in.liga" unicode="in" horiz-adv-x="1515" 
d="M56 432q-12 0 -20.5 9t-8.5 22q0 10 8.5 19t20.5 9h2q8 0 15 -4.5t10.5 -11t3.5 -14.5q0 -11 -8 -20t-21 -9h-2zM1547 240q0 -18 -34.5 -40t-91 -38.5t-111.5 -16.5q-68 0 -124.5 19t-90.5 46.5t-60.5 55.5t-48 47t-38.5 19q-27 0 -69.5 -40.5t-78.5 -89t-72.5 -89.5
t-53.5 -41q-13 0 -21 8.5t-8 20.5q0 3 0.5 5t1 5.5t3 9t6 12.5t9 20.5t12.5 29t17.5 40l22.5 52.5q-49 -29 -81 -48t-100 -53.5t-123 -55.5t-126 -38t-132 -17q-9 0 -17 0.5t-28 4t-36.5 9t-36.5 17.5t-34 29t-23.5 44t-9.5 60q0 68 41 153q7 15 22 15q12 0 22 -9.5
t10 -22.5q0 -5 -9.5 -25.5t-18.5 -51t-9 -60.5q0 -22 6.5 -40t15.5 -29t23.5 -18.5t24 -11t25 -5.5t18.5 -2h11q68 0 156.5 27t167.5 65t147 76t111 65t44 27q12 0 21.5 -9t9.5 -20q0 -7 -32 -84q26 31 45 51t41 38t43 26.5t42 8.5t41.5 -10.5t38 -27t37 -36.5t43 -40
t51 -37t66.5 -27t84 -10q36 0 68.5 7t55 17t40 20t29.5 17t17.5 7t11 -2.5t9 -7t5.5 -10.5t2 -11z" />
    <glyph glyph-name="itt.liga" unicode="itt" horiz-adv-x="1807" 
d="M1875 274q0 -11 -52 -53.5t-123.5 -90t-156 -85t-139.5 -37.5q-32 0 -56 10t-37 24.5t-21 34t-10 34t-2 30.5q0 93 106 321q-455 -604 -585 -604q-6 0 -12 0.5t-23.5 8.5t-29.5 21.5t-22.5 44.5t-10.5 74q0 64 15.5 136.5t44 146.5t45.5 112t44 94q-340 -398 -704 -398
q-38 0 -68 8t-48 22.5t-30.5 31t-18.5 36t-8 34t-2 28.5q0 72 41 156q7 15 22 15q12 0 21.5 -9.5t9.5 -22.5q0 -5 -8.5 -24.5t-17 -50.5t-8.5 -62q0 -22 5.5 -39.5t13 -28.5t21 -19t23 -11t24.5 -5t20 -2h16q35 0 72 5t78 16t84.5 30t89 45t94 62.5t98 81t101.5 102
t103 124.5q-36 -7 -75 -15.5t-56.5 -12.5t-35.5 -7t-31 -3q-6 0 -11 2.5t-8.5 6.5t-5 9t-1.5 10q0 8 3 15t10 11.5t17 4.5q22 4 53.5 10t85.5 17.5t108 21.5q13 19 30.5 43t35.5 48.5t31 42.5q16 29 30 49.5t22 29.5t16.5 14t11 5.5t6.5 0.5q10 0 16.5 -5t9 -11.5t2.5 -13.5
q0 -6 -1 -10.5t-5.5 -11.5t-9 -12.5t-15 -19.5t-19.5 -27q-27 -45 -60 -103q276 50 520 74q22 31 42 60q18 30 27 43.5t21 25.5t22 12q12 0 21 -9t9 -21q0 -10 -9 -24.5t-43 -60.5q-5 -9 -11 -19q151 12 209 12q12 0 19.5 -8.5t7.5 -19.5q0 -22 -16 -27t-87 -8
q-94 -5 -170 -12q-69 -121 -125 -233.5t-92 -209.5t-36 -145q0 -27 7.5 -43.5t22 -23.5t35.5 -7q53 0 132 37.5t142.5 82.5t115 82.5t56.5 37.5q11 0 19 -10t8 -22zM800 -82q36 0 125.5 87.5t199.5 223t204 258.5t173 233q-250 -25 -511 -76q-125 -231 -177.5 -379
t-52.5 -258q0 -35 9 -62t30 -27zM57 466q-12 0 -20.5 9t-8.5 22q0 10 8 19t21 9h2q8 0 14.5 -4.5t10.5 -11t4 -14.5q0 -11 -8.5 -20t-20.5 -9h-2z" />
    <glyph glyph-name="iz.liga" unicode="iz" horiz-adv-x="1612" 
d="M56 426q-8 0 -14.5 4.5t-10.5 11.5t-4 15q0 10 8.5 19t20.5 9h2q12 0 20.5 -9t8.5 -21q0 -11 -8 -20t-21 -9h-2zM1636 234q0 -13 -31.5 -37t-80.5 -48t-118 -41.5t-134 -17.5q-77 0 -217.5 35t-214.5 35q-14 0 -25.5 -1t-18 -1.5t-7.5 -0.5q-6 0 -11 2.5t-8.5 7t-6 10
t-2.5 11.5t7 16t21 25.5t28 29.5t36.5 37t37.5 38q-38 -11 -63.5 -18t-33 -8.5t-14.5 -3t-15 -4.5h1q0 -2 -37 -27t-101.5 -61t-139.5 -71t-165.5 -59.5t-165.5 -24.5h-15t-28 2.5t-37 8t-37.5 17.5t-35 28.5t-24.5 44t-10 62.5q0 69 41 154q7 15 22 15q12 0 22 -9.5
t10 -22.5q0 -4 -9 -24.5t-18 -51.5t-9 -61q0 -105 128 -105q77 0 159 22.5t151 57t129 69.5t113 65t83 38q52 14 101.5 29t72 22.5t27.5 7.5q7 0 13.5 -4.5t10 -11.5t3.5 -15q0 -9 -6.5 -17t-45.5 -49q-17 -17 -28 -28.5t-33.5 -35t-45.5 -47.5q71 -2 210 -36.5t212 -34.5
q43 0 86 8.5t75 22t62 29t49.5 28.5t34 21.5t19.5 8.5q3 0 7 -1t6.5 -3t5 -5t4.5 -6.5t3 -7.5t1 -8z" />
    <glyph glyph-name="jl.liga" unicode="jl" horiz-adv-x="1055" 
d="M11 319q-2 -1 -8 -5t-10 -6t-10 -2q-5 0 -10.5 2.5t-9.5 6t-7 9t-3 11.5q0 17 15 26q3 2 8 5.5t8 5.5t8.5 3.5t11.5 1.5q14 0 22 -9t8 -20q0 -9 -5.5 -16t-10 -9.5t-7.5 -3.5zM562 35q55 0 125 24t131 58.5t114.5 68.5t88.5 58t40 24q12 0 20 -9.5t8 -21.5
q0 -13 -57.5 -55t-136 -88.5t-173 -82.5t-158.5 -36q-18 0 -37.5 3t-50.5 16t-54 35t-40.5 65t-17.5 101q0 72 27 160q-174 -145 -393 -300q-37 -92 -101 -185.5t-139 -172.5t-160.5 -148.5t-166.5 -118t-156 -77t-129 -28.5q-36 0 -60 18.5t-24 54.5t33.5 80t86 88
t142 106.5t176.5 118.5t216.5 142t235.5 161q29 75 29 138q0 2 -0.5 4l-0.5 2q0 13 9 20.5t20 7.5h3.5t5.5 -1t7.5 -3t6.5 -5.5t5 -10t2 -14.5q0 -39 -10 -83q228 165 406 322q49 105 139.5 225.5t178 210.5t160 150t95.5 60q6 0 12.5 -2t13.5 -9.5t7 -19.5
q0 -28 -73.5 -129t-206.5 -247t-274 -272q-65 -134 -65 -243q0 -29 6.5 -54.5t20.5 -50.5t43 -40t70 -15zM-879 -599v0v0zM-852 -618q14 0 47 9t84 31t109.5 54t127 82t133.5 109.5t131.5 142.5t119.5 176q-73 -49 -165 -110t-160 -106t-142.5 -95t-126 -87.5t-95.5 -73.5
t-66.5 -64t-23.5 -49v-2.5t0.5 -3t1 -3t1.5 -3.5t3 -2.5t4.5 -2.5t7 -1.5t9.5 -0.5zM900 969q-19 -17 -40 -37.5t-69 -70t-101.5 -114.5t-98.5 -131q175 172 309 353z" />
    <glyph glyph-name="jm.liga" unicode="jm" horiz-adv-x="1314" 
d="M13 321q-1 -1 -7 -5t-10 -6t-10 -2q-11 0 -20.5 8.5t-9.5 20.5q0 17 15 26q3 2 8 5.5t8 5.5t8.5 3.5t11.5 1.5q13 0 21 -9t8 -20q0 -9 -5 -16t-9.5 -9.5t-8.5 -3.5zM1105 186q38 0 77 13t64.5 29t46.5 29t28 13q11 0 19 -9.5t8 -21.5t-24 -31.5t-58.5 -37t-79 -30.5
t-81.5 -13q-47 0 -90.5 17t-76 44t-57 54t-47 53.5t-33.5 34.5q-5 -2 -6 -4q-41 -40 -74 -84t-47 -70t-28.5 -43.5t-28.5 -17.5q-12 0 -21 8t-9 20q0 5 25 90q3 10 7.5 32.5t8.5 33.5q-32 -33 -58.5 -70.5t-39.5 -61t-25.5 -39t-24.5 -15.5t-21.5 8.5t-9.5 20.5v2q0 3 2 7
q20 39 71 192q-239 -97 -499 -226q-28 -91 -87.5 -189t-135.5 -183t-165.5 -162.5t-176.5 -133t-169 -88t-143 -32.5q-9 0 -20 2.5t-26.5 8.5t-26 22.5t-10.5 39.5q0 46 28 101.5t95 128t169 152t260.5 176.5t357.5 199q10 42 10 79v4v2q0 13 8.5 20.5t20.5 7.5q30 0 30 -34
q0 -23 -3 -46q125 62 255 119t200 85t75 28q11 0 20 -9.5t9 -21.5q0 -6 -18 -59q37 38 66 38q7 0 13 -2t13.5 -8t12 -19.5t4.5 -33.5v-6q33 43 60.5 66t53.5 23q15 0 32 -11.5t32.5 -29t33 -39t38.5 -43t44.5 -39.5t55 -29t66.5 -11zM-852 -614q32 0 88.5 20t129 57
t154.5 97t159 133t148.5 172.5t118.5 207.5q-180 -93 -324.5 -183t-235.5 -162.5t-152 -137.5t-85.5 -111t-24.5 -81q0 -12 24 -12z" />
    <glyph glyph-name="jn.liga" unicode="jn" horiz-adv-x="1281" 
d="M12 349q-2 -1 -8 -5t-10 -6t-10 -2q-7 0 -13.5 3.5t-11.5 10.5t-5 15q0 17 15 26q3 2 8 5.5t8 5.5t8.5 3.5t11.5 1.5q14 0 22 -9t8 -20q0 -7 -3 -13t-7.5 -9t-7.5 -4.5zM1079 210q44 0 83.5 10.5t61.5 23.5t40.5 23.5t24.5 10.5q11 0 19 -9.5t8 -21.5q0 -18 -34 -40
t-91 -38.5t-111 -16.5q-69 0 -125.5 19t-90.5 46.5t-60 55.5t-47.5 47t-39.5 19t-44 -19t-51 -48t-52.5 -62.5t-50.5 -62.5t-43.5 -48.5t-32.5 -19.5t-20.5 8.5t-8.5 20.5q0 7 6 21t25 59.5t41 106.5q-253 -125 -510 -264q-59 -120 -148.5 -230t-184.5 -188.5t-191.5 -138
t-177 -88.5t-134.5 -29q-25 0 -42 7.5t-23.5 20.5t-9 22.5t-2.5 20.5v3.5v4.5q0 12 3.5 24.5t22.5 40.5t51.5 60t98 83.5t154 110.5t227.5 142t311 176q51 104 51 189v4v2q0 13 8.5 20.5t19.5 7.5h1q3 0 6.5 -1t9.5 -3.5t9.5 -10t3.5 -19.5v-1v-1q0 -62 -28 -143
q19 10 86 45t170.5 89t184 93.5t89.5 39.5q13 0 21.5 -8.5t8.5 -20.5q0 -6 -34 -91q54 66 95 100t84 34q29 0 56.5 -19.5t53.5 -47t58 -55.5t82 -47t112 -19zM-853 -588q7 0 31.5 6t71 23.5t101 43.5t122.5 71t134.5 101t138 139.5t132.5 180.5q-148 -82 -269 -155
t-201 -127t-138 -99t-89 -76.5t-45 -52.5t-14 -35q0 -20 25 -20z" />
    <glyph glyph-name="jr.liga" unicode="jr" horiz-adv-x="1435" 
d="M18 335q-2 -1 -8 -5t-10 -6t-10 -2q-11 0 -20.5 8.5t-9.5 20.5q0 17 15 26q3 2 8 5.5t8 5.5t8.5 3.5t11.5 1.5q14 0 22 -9t8 -20q0 -9 -5.5 -16t-10 -9.5t-7.5 -3.5zM959 23q56 17 125.5 48t128.5 63.5t109.5 62t81 48.5l30.5 19q11 0 19 -9.5t8 -21.5q0 -23 -115 -92
t-251.5 -129t-188.5 -60q-21 0 -35 6.5t-19 17.5t-6 17.5t-1 12.5q0 17 12 53t12 48q0 19 -22 30t-55.5 15t-72.5 13t-72 21.5t-55.5 44t-22.5 78.5q0 23 5 49q-172 -125 -605 -366q-60 -112 -139.5 -210.5t-160 -167t-162 -123t-152 -86t-122.5 -48t-82 -16.5
q-35 0 -58.5 20t-23.5 53q0 27 20 59t54 65.5t94 78t123 86t160 99.5t186 109t218 124q64 124 64 214q0 2 -0.5 3.5l-0.5 1.5q0 13 8.5 20.5t20.5 7.5h3.5t5.5 -1t7 -3t6.5 -5.5t5.5 -10t2 -14.5q0 -71 -34 -163q211 119 342 199.5t174 111t75 60.5q2 4 6 14q7 20 11 30
t11.5 23.5t16 20t19.5 6.5q18 0 27 -13.5t9 -30.5q0 -36 -48 -82q-26 -81 -26 -119q0 -32 22 -51.5t55.5 -26.5t72 -14.5t71.5 -15.5t55 -30.5t22 -57.5q0 -18 -8 -49t-15 -49h2q3 0 4 1q6 2 15 4t18.5 3.5t15.5 3.5zM-845 -602q14 0 51 11.5t94 35t127.5 66.5t143.5 98.5
t151.5 140.5t142.5 184q-621 -348 -722 -483q-14 -19 -16 -35l1 -3.5t1 -4.5t2 -3.5t4.5 -3.5t7.5 -2t12 -1z" />
    <glyph glyph-name="js.liga" unicode="js" horiz-adv-x="980" 
d="M12 349q-2 -1 -8 -5t-10 -6t-10 -2q-11 0 -20.5 8.5t-9.5 20.5q0 17 15 26q3 2 8 5.5t8 5.5t8.5 3.5t11.5 1.5q14 0 22 -9t8 -20q0 -9 -5.5 -16t-9.5 -9.5t-8 -3.5zM660 115q45 9 93 29t85.5 41.5t69 42.5t51.5 34t25 13q12 0 22 -9t10 -20q0 -12 -41.5 -43.5t-101 -65.5
t-136.5 -60.5t-138 -26.5q-36 0 -66.5 9t-46.5 21.5t-16 23.5q0 12 9.5 22t21.5 10q6 0 24.5 -10.5t31.5 -10.5q4 0 10 1t16.5 4t17 12t6.5 22q0 19 -19 69t-19 76q0 12 2 25q-319 -155 -602 -308q-50 -97 -121.5 -188.5t-147.5 -162t-156.5 -130t-154 -98.5t-136 -60
t-104.5 -21q-36 0 -61 18.5t-25 52.5q0 90 212 243.5t650 388.5q57 112 57 203v4v2q0 13 8.5 20.5t19.5 7.5h4t7.5 -2t9 -5t6.5 -10t3 -17q0 -70 -32 -158q179 95 400.5 205.5t234.5 110.5q12 0 21 -9.5t9 -21.5q0 -8 -11.5 -21.5t-23 -31.5t-11.5 -37q0 -17 20 -67t20 -81
q0 -20 -7 -36zM-853 -586q27 0 80 16.5t133 58.5t163.5 102t177 157.5t167.5 213.5q-148 -82 -268.5 -154t-199.5 -125t-136 -96.5t-86.5 -74t-42.5 -50t-13 -32.5q0 -4 1 -6.5t2.5 -4.5t3.5 -3t4 -1.5t4.5 -1t4 -0.5t3.5 0.5z" />
    <glyph glyph-name="jt.liga" unicode="jt" horiz-adv-x="982" 
d="M1023 703h-1.5h-1.5q-15 0 -27 -1.5t-96 -22.5t-245 -66q-76 -148 -124.5 -290.5t-48.5 -207.5q0 -52 16.5 -72t46.5 -20q53 0 131 37.5t140 83t113.5 83.5t57.5 38q11 0 18.5 -10t7.5 -22q0 -9 -33.5 -39t-88 -68.5t-115 -74.5t-123 -61t-104.5 -25q-30 0 -53.5 10
t-36.5 24.5t-21.5 35.5t-11 39.5t-2.5 38.5q0 79 45 210t95 238q-232 -235 -541 -436q-34 -108 -101 -214t-149 -190t-174 -156.5t-177.5 -121t-158 -75.5t-117.5 -27q-24 0 -41.5 8.5t-25 22t-10.5 25t-3 22.5q0 41 30.5 91t78.5 99t118 105.5t139.5 105t153 103t148 93.5
t135 82t103.5 65q12 45 12 85v4v2q0 9 4 15.5t10.5 9.5t14.5 3q29 0 29 -34q0 -20 -2 -41q252 169 448 361q-5 -1 -15.5 -4.5t-19.5 -6t-21.5 -5.5t-23 -5t-21.5 -3.5t-20 -1.5q-12 0 -19.5 8.5t-7.5 20.5q0 11 7.5 20t21.5 10q22 1 200 50q56 59 107 120q14 24 32 53.5
t45 71.5t50.5 75t45 56.5t31.5 23.5q12 0 21 -8.5t9 -20.5q0 -18 -34.5 -73t-75.5 -111.5t-75 -98.5q-16 -27 -31 -54q185 51 243 64t86 13q12 0 19 -5.5t9 -11.5t2 -13q0 -12 -7 -20.5t-20 -8.5zM-858 -603q28 0 81 19t124 54.5t153 94t160 129.5t152 170.5t124 208.5
q-8 -5 -62.5 -38t-107.5 -65t-131 -82.5t-145 -96.5t-137.5 -101t-120 -101.5t-81 -92.5t-31.5 -80q0 -19 22 -19zM11 335q-2 -1 -7.5 -5t-10 -6t-10.5 -2q-5 0 -10 2.5t-9.5 6t-7 9t-2.5 11.5q0 17 14 26q3 2 8 5.5t8 5.5t8.5 3.5t12.5 1.5q13 0 21 -9t8 -20q0 -9 -5 -16
t-9.5 -9.5t-8.5 -3.5z" />
    <glyph glyph-name="jz.liga" unicode="jz" horiz-adv-x="1341" 
d="M12 334q-2 -1 -8 -5t-10 -6t-10 -2q-7 0 -14 3.5t-11.5 10.5t-4.5 15q0 17 15 26q3 2 8 5.5t8 5.5t8.5 3.5t11.5 1.5q14 0 22 -9t8 -20q0 -9 -5.5 -16t-10 -9.5t-7.5 -3.5zM1012 145q51 0 101 12t86.5 29.5t65.5 35t48 30t24 12.5q12 0 20 -10t8 -22q0 -13 -32 -37
t-80.5 -48t-118 -41.5t-134.5 -17.5q-76 0 -217 35t-215 35q-13 0 -25 -1t-18.5 -1.5t-7.5 -0.5q-11 0 -19 9.5t-8 21.5q0 6 6 15t19.5 24t26.5 28.5t37.5 38t42.5 43.5q-3 -1 -29.5 -8t-41.5 -11.5t-51.5 -16.5t-77 -27.5t-99.5 -39t-138 -57.5t-174 -76
q-32 -88 -85.5 -175.5t-118.5 -161t-138.5 -140.5t-147.5 -118t-144 -88.5t-130 -57t-103 -19.5q-35 0 -58 19.5t-23 55.5q0 70 78 166.5t205.5 195t288.5 194.5t329 171q17 57 17 107v3.5v1.5q0 13 8.5 20.5t20.5 7.5q30 0 30 -34q0 -37 -8 -75q20 8 112.5 47t204.5 85
t131 51q44 11 84.5 22.5t66 19.5t46 14.5t31 9.5t13.5 3q12 0 20 -9.5t8 -21.5v-1q0 -8 -6.5 -16t-45.5 -49q-58 -59 -107 -111q71 -2 210 -36.5t212 -34.5zM-857 -601q21 0 60.5 11t96.5 36.5t120.5 62t134.5 91.5t137 120.5t129.5 154.5t110.5 187q-176 -83 -332 -181.5
t-258 -185t-161 -160.5t-59 -117q0 -19 21 -19z" />
    <glyph glyph-name="kk.liga" unicode="kk" horiz-adv-x="1564" 
d="M1572 277q11 0 18.5 -10t7.5 -22q0 -10 -19.5 -29t-55 -40t-78.5 -40t-95.5 -31.5t-100.5 -12.5q-54 0 -106 14.5t-90 34t-96.5 45.5t-110.5 41q-26 -96 -44 -193q-7 -41 -11.5 -50.5t-19.5 -9.5q-13 0 -23 9t-10 22q0 4 5.5 34t19 93t31.5 129q-1 2 -1 5q0 12 8 19
q48 171 122 353q-79 -107 -156.5 -193.5t-137 -140t-118.5 -92.5t-96.5 -57t-76.5 -28t-53.5 -11t-31.5 -1q-121 0 -218 89q-21 -83 -37 -171q-8 -41 -12 -50t-19 -9q-13 0 -23 9t-10 22q0 52 31 174.5t81 267t106 278.5t112.5 224t93.5 90q14 0 23.5 -11t13 -28t4.5 -26.5
t1 -16.5v-1q1 -12 -0.5 -27t-18 -66.5t-47 -114t-99 -172.5t-163.5 -239q-5 -15 -7 -22q270 110 291 110q8 0 14 -3t9 -7t5 -9t2 -8v-4q0 -12 -9.5 -21t-21.5 -9h-3q-52 -16 -284 -111q82 -80 179 -80q22 0 43.5 2.5t68 19.5t94.5 47t119 91t145 144t169.5 214.5
t195.5 294.5q41 83 73 141t48.5 85t30 41t17 15t8.5 1q13 0 21.5 -9.5t8.5 -21.5q0 -21 -149 -270q-175 -337 -269 -652q132 54 198 79.5t74.5 27.5t16.5 2q6 0 10.5 -1.5t8 -4t5.5 -6t3.5 -6.5t2 -6t1 -4.5t0.5 -2.5q0 -12 -10 -21t-22 -9h-3q-46 -14 -247 -96
q50 -18 117 -51t116.5 -49.5t105.5 -16.5q61 0 122 19.5t99.5 43t68 43.5t34.5 20zM340 954q-94 -135 -199 -414q1 1 4 6q196 294 196 401q0 3 -1 7z" />
    <glyph glyph-name="kb.liga" unicode="kb" horiz-adv-x="1532" 
d="M1523 254q12 0 20 -10t8 -22q0 -17 -51.5 -49t-134 -59.5t-153.5 -27.5q-116 0 -223 66q-9 -53 -36.5 -113.5t-67 -105t-73.5 -44.5q-74 0 -74 119q0 153 118 381q-370 -305 -605 -305q-131 0 -218 97q-19 -78 -35 -161q-8 -42 -12.5 -51t-18.5 -9q-13 0 -23 8.5
t-10 22.5q0 54 31.5 177t81.5 267t106 278t112.5 222.5t92.5 88.5q14 0 23.5 -11t13 -27.5t4.5 -26t1 -16.5v-1q1 -12 -0.5 -26.5t-17.5 -66t-47 -114.5t-99.5 -173t-163.5 -240q-5 -16 -7 -21q270 110 291 110q12 0 20 -8t9 -14t1 -9q0 -8 -4.5 -15t-11.5 -11t-15 -4h-3
q-53 -17 -289 -113q71 -94 193 -94q65 0 144 29t151 71.5t150.5 101t137 109t113.5 103.5q70 110 171 242.5t179 220.5t93 88t23.5 -12t8.5 -27q0 -40 -71.5 -143t-172.5 -217t-196 -204q-31 -51 -60 -104.5t-61 -123t-51 -140t-19 -126.5q0 -20 3 -34.5t6.5 -21t6.5 -7.5
q20 6 49 48.5t51 99t22 95.5v1v1q-54 49 -54 92q0 14 7 24t16 14.5t17 4.5q20 0 42.5 -30t28.5 -76q42 -31 100.5 -54.5t123.5 -23.5q54 0 111 17t94.5 37.5t67.5 38t35 17.5zM340 940q-94 -135 -199 -414q1 1 4 6q195 294 195 401v7zM813 -52v0v0z" />
    <glyph glyph-name="kh.liga" unicode="kh" horiz-adv-x="1802" 
d="M1810 276q11 0 19 -9.5t8 -21.5q0 -16 -12 -25q-65 -48 -124 -78t-118 -30q-38 0 -69.5 13t-52.5 34t-39 48t-29.5 55.5t-23.5 55.5t-22 48t-23.5 34t-29.5 13q-26 0 -99.5 -46t-167 -126.5t-157.5 -160.5q-8 -10 -19 -10q-8 0 -15 5t-11.5 13t-4.5 16q0 11 8 57
t40.5 159t81.5 234q-100 -109 -190 -193.5t-181.5 -152t-178 -103.5t-161.5 -36q-129 0 -209 115q-17 -71 -32 -149q-4 -24 -6 -33t-5.5 -17t-7.5 -9.5t-12 -1.5q-13 0 -23 9t-10 22q0 64 48 234t114 347.5t141 315t121 137.5q14 0 23.5 -11t13 -28t4.5 -26.5t1 -16.5v-1
q1 -12 -0.5 -26.5t-17.5 -66t-47 -114t-99.5 -173t-163.5 -239.5q-5 -17 -7 -22q270 110 291 110q12 0 20 -8t9 -13.5t1 -9.5q0 -12 -9.5 -21t-21.5 -9h-3q-54 -17 -293 -115q66 -122 182 -122q75 0 172 49t201.5 135.5t207.5 192.5t206 230q20 42 43.5 86.5t56 96.5
t66.5 85t61 33q31 0 31 -31q0 -26 -68.5 -120.5t-139.5 -180.5q-24 -51 -52.5 -117.5t-68 -179t-60.5 -207.5q10 11 29 29t48.5 44t61.5 52.5t68.5 53t69.5 47.5t65 33.5t54 12.5q31 0 55.5 -16.5t39.5 -43t28.5 -58.5t27.5 -64t31.5 -59t45 -43.5t64.5 -16.5q35 0 75 16.5
t68 36.5t52 36.5t30 16.5zM340 954q-94 -134 -199 -414q1 1 4 6q196 294 196 401q0 3 -1 7z" />
    <glyph glyph-name="kt.liga" unicode="kt" horiz-adv-x="1332" 
d="M1369 759q17 0 24 -9.5t7 -20.5q0 -12 -7.5 -20.5t-20.5 -8.5h-1h-1h-13.5t-23.5 -3.5t-51.5 -11.5t-92.5 -24t-150 -40q-218 -398 -218 -525q0 -40 16.5 -57.5t48.5 -17.5q54 0 132.5 37.5t142 82.5t115.5 82.5t57 37.5q7 0 13 -4.5t9.5 -11.5t3.5 -15q0 -11 -52 -53.5
t-123.5 -90t-156 -85t-139.5 -37.5q-23 0 -42 5.5t-32 13.5t-22.5 20t-15 23.5t-8.5 25.5t-4 24t-1 21q0 101 121 351q-147 -160 -301.5 -259t-289.5 -99q-145 0 -259 117q-20 -82 -36 -168q-5 -30 -8 -40t-8 -15t-15 -5q-13 0 -23 9t-10 22q0 55 31.5 179t82 267.5
t106.5 277t112 222t92 88.5q14 0 23.5 -11t13 -28t4.5 -26.5t1 -16.5v-1q1 -12 -0.5 -27t-17.5 -66t-47 -114t-99.5 -173t-163.5 -239q-5 -15 -7 -22q270 110 291 110q8 0 14 -3t9 -7t5 -9t2 -8v-4q0 -12 -9.5 -21t-21.5 -9h-3q-52 -16 -285 -111q101 -109 229 -109
q72 0 155 35.5t165 98.5t158.5 139t152.5 168q-9 -3 -25 -7q-104 -29 -136 -36.5t-52 -7.5q-13 0 -20 8.5t-7 19.5q0 8 3 14.5t9.5 11t15.5 5.5q25 1 275 70q18 23 34 45q44 78 68.5 115t33.5 44.5t19 7.5q8 0 15 -4t11 -12t4 -17q0 -7 -2 -13.5t-24.5 -42.5t-67.5 -98
q85 23 139.5 37t83.5 20t40.5 7.5t24.5 1.5zM340 959q-94 -134 -199 -414q1 1 4 6q196 294 196 401q0 4 -1 7z" />
    <glyph glyph-name="kz.liga" unicode="kz" horiz-adv-x="1708" 
d="M1704 265q12 0 20 -9.5t8 -21.5q0 -13 -32 -37t-80.5 -48t-118 -41.5t-134.5 -17.5q-76 0 -217 35t-214 35q-14 0 -26 -1t-18.5 -1.5t-7.5 -0.5q-11 0 -19 9.5t-8 20.5q0 7 7 17t21 25.5t27.5 29.5t36.5 37l38 38q-112 -33 -123 -33h-3q-1 -1 -7 -5q-26 -20 -51 -37.5
t-88 -55.5t-121 -64t-135.5 -47.5t-145.5 -21.5q-173 0 -281 132q-19 -76 -34 -159q-7 -41 -12 -50.5t-19 -9.5q-13 0 -23 9t-10 22q0 64 48 233.5t113.5 347t141 315.5t121.5 138q14 0 23.5 -11t13 -28t4.5 -26.5t1 -16.5v-1q1 -12 -0.5 -27t-17.5 -66t-47 -114t-99.5 -173
t-163.5 -239q-5 -15 -7 -22q270 110 291 110q8 0 14 -3t9 -7t5 -9t2 -8v-4q0 -6 -2.5 -11.5t-7 -9.5t-10 -6.5t-11.5 -2.5h-3q-51 -16 -290 -113q94 -131 251 -131q69 0 147 22.5t138.5 52.5t115 64t81 54t31.5 25q3 3 131.5 41t130.5 38q8 0 14.5 -4.5t10 -11.5t3.5 -15v-1
q0 -8 -6.5 -16.5t-45.5 -48.5q-58 -59 -107 -111q71 -3 209.5 -37t212.5 -34q62 0 124 18.5t99.5 40.5t67 40.5t34.5 18.5zM340 963q-94 -134 -199 -414q1 1 4 6q196 294 196 401q0 4 -1 7z" />
    <glyph glyph-name="lh.liga" unicode="lh" horiz-adv-x="1777" 
d="M1786 272q7 0 13 -4.5t9.5 -11.5t3.5 -15q0 -16 -12 -25q-64 -48 -123 -78t-119 -30q-37 0 -68.5 13t-52.5 34t-39 48t-30 55.5t-24 55.5t-22 48t-23.5 34t-28.5 13q-27 0 -100.5 -46t-166.5 -126.5t-158 -160.5q-8 -10 -19 -10q-7 0 -14.5 5t-11.5 13t-4 16
q0 17 11 72.5t45 169t82 231.5q-67 -76 -134 -147.5t-167 -168t-186.5 -166t-176.5 -119t-152 -49.5q-22 0 -40.5 5t-39 20t-34.5 39t-23.5 66t-9.5 97q0 40 5 81q-4 7 -4 14q0 10 8 17q15 99 57.5 205t99 197t123.5 173.5t131.5 140.5t122.5 92.5t98 34.5q26 0 43.5 -16
t25 -39.5t7.5 -52.5q0 -59 -33.5 -134.5t-88 -150.5t-124.5 -152.5t-142.5 -142t-142 -115.5t-124.5 -78q-4 -42 -4 -76q0 -167 89 -167q51 0 133 46t194 139t260.5 248t318.5 357q31 63 64 117t72.5 98t68.5 44q14 0 23.5 -8t9.5 -22l1 -1q1 -7 -4.5 -18.5t-52 -74.5
t-135.5 -173q-144 -281 -199 -538q21 22 65 61.5t106 89.5t125 85.5t101 35.5q31 0 55 -16.5t39.5 -43t28.5 -58.5t27.5 -64t31.5 -59t45 -43.5t64 -16.5q35 0 75.5 16.5t68.5 36.5t51.5 36.5t30.5 16.5zM608 1045q-22 0 -65.5 -27t-99 -74t-117 -117.5t-116.5 -150.5
t-100 -180t-65 -199q87 52 189 141.5t190 188.5t146.5 201t58.5 172q0 45 -21 45z" />
    <glyph glyph-name="lk.liga" unicode="lk" horiz-adv-x="1615" 
d="M1622 272q11 0 19 -10t8 -22q0 -10 -20 -29t-55.5 -40t-78 -40t-95.5 -31.5t-101 -12.5q-55 0 -108.5 15.5t-93 35.5t-99.5 46.5t-116 41.5q-19 -71 -27.5 -117t-8.5 -88q0 -9 0.5 -17l0.5 -8q0 -6 -2.5 -11.5t-6.5 -8.5t-8.5 -4.5t-10.5 -1.5q-5 0 -10 1t-8 3.5t-5.5 5
t-4 7t-2.5 7t-1.5 7.5t-0.5 6.5v6v4.5q0 88 42 244q-26 -20 -52.5 -39.5t-81.5 -57.5t-110.5 -68.5t-120 -61.5t-130 -49t-121.5 -18q-60 0 -105 21.5t-70.5 52t-41 72.5t-20.5 77t-5 71q0 100 37.5 207t96.5 197t132 172.5t144 140t133 91.5t98 34q23 0 39.5 -12t24 -26
t11.5 -33.5t4.5 -26t0.5 -12.5q0 -81 -70 -199.5t-171 -229.5t-216.5 -206.5t-204.5 -138.5q9 -101 56.5 -146.5t128.5 -45.5q114 0 281 85.5t362 247.5q4 11 19.5 54t48.5 126t71 171.5t86.5 184t94.5 169.5t96 122t90 48q26 0 45.5 -19.5t28 -49t8.5 -63.5
q0 -67 -27.5 -143.5t-74.5 -150t-101.5 -143.5t-118.5 -136t-114 -113.5t-97 -87.5q-4 -12 -8 -26q281 116 305 116q13 0 20.5 -8t9 -13.5t1.5 -9.5q0 -12 -9.5 -21t-21.5 -9h-4q-46 -15 -246 -96q50 -18 117 -51t116 -49.5t106 -16.5q60 0 121 19.5t99.5 43t68.5 43.5
t34 20zM1362 1179q-14 0 -40.5 -25t-68 -83.5t-87.5 -140t-103.5 -210t-111.5 -278.5q190 174 313 356t123 302q0 31 -8.5 55t-16.5 24zM609 1044q-26 0 -77 -29.5t-113.5 -80t-129 -124.5t-122.5 -155t-94 -179t-44 -190q69 38 151.5 103.5t161.5 145.5t144 163t105 164.5
t40 140.5q0 18 -4 28t-8 11.5t-10 1.5zM1362 1179z" />
    <glyph glyph-name="lt.liga" unicode="lt" horiz-adv-x="1320" 
d="M1357 760q9 0 15.5 -3.5t9.5 -8t4.5 -9.5t1.5 -9q0 -12 -7.5 -20.5t-20.5 -8.5h-1h-1q-16 0 -27.5 -1.5t-86.5 -20t-217 -57.5q-218 -398 -218 -525q0 -27 8 -43.5t22 -23.5t35 -7q54 0 132.5 37.5t142 82t115.5 82t57 37.5q7 0 13 -4.5t9.5 -11.5t3.5 -15
q0 -11 -52 -53.5t-123.5 -90t-156 -85t-139.5 -37.5q-23 0 -42 5.5t-32 13.5t-22.5 20t-15 23.5t-8.5 25.5t-4 24t-1 21q0 97 113 335q-79 -90 -155 -162t-135 -117.5t-116.5 -78.5t-96.5 -49.5t-78 -25.5t-57 -10.5t-38 -1.5q-30 0 -58.5 6t-58 22.5t-51.5 41.5t-36 67
t-14 95q0 94 35 202.5t91 205t126.5 187t141.5 156t136.5 104.5t110.5 39q39 0 57 -32t18 -77q0 -67 -45.5 -158.5t-118.5 -182.5t-159.5 -177t-174.5 -153t-158 -101v-20q0 -47 13.5 -80.5t37 -51.5t51 -25.5t60.5 -7.5q150 0 339.5 146.5t389.5 397.5
q-129 -35 -163.5 -43.5t-56.5 -8.5q-8 0 -14.5 4t-9.5 10.5t-3 13.5q0 12 7.5 21t21.5 10q25 1 277 71q14 18 27 36q46 81 71.5 120t34.5 47t20 8q12 0 21 -9.5t9 -23.5q0 -31 -91 -153q111 30 172 45t78.5 17.5t34.5 2.5zM603 1056q-20 0 -64.5 -27.5t-102 -75t-121 -118.5
t-119.5 -151t-99.5 -180.5t-58.5 -199.5q86 50 189 139t192.5 189t149.5 204.5t60 178.5q0 41 -26 41z" />
    <glyph glyph-name="lz.liga" unicode="lz" horiz-adv-x="1608" 
d="M1604 270q12 0 20 -9.5t8 -21.5q0 -9 -14.5 -22.5t-39 -30t-60 -32.5t-74.5 -29.5t-85.5 -21.5t-91.5 -8q-76 0 -217 35t-215 35q-13 0 -25 -1t-18.5 -1.5t-7.5 -0.5q-11 0 -19 9.5t-8 20.5q0 6 5.5 14.5t13.5 18.5t22 24.5t26.5 26.5t30.5 30.5t32 32.5
q-112 -34 -126 -34q-116 -83 -209 -143t-149.5 -90.5t-104 -47.5t-69.5 -20t-47 -3q-21 0 -43 3.5t-54 17t-56 36.5t-41.5 67.5t-17.5 103.5q0 97 35.5 206.5t92.5 206t128 186.5t141.5 154t134.5 102.5t105 38.5q13 0 24.5 -4t19.5 -11t14.5 -16t10.5 -19t6.5 -21t3.5 -20
t1 -18q0 -80 -69 -198t-169 -228.5t-215.5 -206.5t-206.5 -140v-17q0 -43 13.5 -75t31 -48.5t42 -26t40.5 -12t32 -2.5q57 0 152.5 45t173.5 98t148 103t72 51q1 0 128.5 37l127.5 37q12 0 20 -9.5t8 -21.5v-1q0 -8 -6.5 -16.5t-45.5 -48.5l-13 -13l-14.5 -14.5t-17 -18
t-18 -19t-22 -22.5t-22.5 -24q71 -3 209.5 -37t212.5 -34q62 0 124 18.5t99.5 40.5t67 40.5t34.5 18.5zM606 1064q-31 0 -91 -39t-133.5 -112t-143.5 -163.5t-126 -207.5t-76 -231q56 31 131 91t155 139t148.5 162t112 168.5t43.5 149.5q0 44 -20 43z" />
    <glyph glyph-name="mm.liga" unicode="mm" horiz-adv-x="1627" 
d="M1635 280q11 0 19 -9.5t8 -22t-24 -31.5t-58.5 -36.5t-79 -30.5t-81.5 -13q-34 0 -66.5 9t-58.5 24.5t-49 34t-42.5 39.5t-34.5 39t-29.5 34t-23.5 23q-12 -6 -30 -25.5t-37.5 -46t-36 -51t-33.5 -50t-22 -32.5q-9 -14 -25 -14q-12 0 -21 8t-9 20q0 5 25 90q3 10 7.5 32
t8.5 33q-32 -33 -58.5 -70.5t-39 -60.5t-25 -38.5t-25.5 -15.5q-12 0 -21.5 8.5t-9.5 20.5q0 7 5 15l7.5 15t8.5 21t8.5 24t13.5 39.5t18 52.5q-89 -72 -150 -117.5t-110.5 -75t-84.5 -41.5t-66 -12q-37 0 -62.5 15t-38.5 43t-18.5 59.5t-5.5 72.5q0 10 0.5 28.5t0.5 26.5
v14q-44 -45 -76.5 -89t-44.5 -67t-24.5 -37t-26.5 -14q-7 0 -14 3.5t-11 10t-4 14.5q0 5 24 90q3 10 8 32t8 33q-32 -33 -58.5 -70.5t-38.5 -60.5t-25 -38.5t-25 -15.5t-21.5 8.5t-9.5 20.5q0 7 4 15q12 21 42.5 110.5t44.5 133.5q6 21 27 21q12 0 21.5 -7.5t9.5 -19.5
q0 -7 -18 -61q37 38 65 38q7 0 13.5 -2t14 -8t12 -19.5t4.5 -33.5v-8q32 43 59 68t52 25q49 0 49 -79q0 -12 -1.5 -33.5t-1.5 -28.5q0 -42 4.5 -69t14 -40t19.5 -17.5t24 -4.5q38 0 97.5 31t118.5 75t113.5 88t94.5 74.5t49 30.5q12 0 21 -7t9 -19q0 -7 -18 -61q37 38 66 38
q7 0 13 -2t13.5 -8t12 -20t4.5 -33v-6q16 21 29.5 36t28 27.5t28.5 18.5t28 6q18 0 38 -15t37.5 -37t41 -48.5t48 -49t60.5 -37.5t77 -15q22 0 45 5t42 12.5t37 16.5t32.5 18t26.5 16.5t20.5 12t12.5 4.5z" />
    <glyph glyph-name="mh.liga" unicode="mh" horiz-adv-x="1864" 
d="M1872 276q11 0 19 -9.5t8 -21.5q0 -16 -13 -25q-64 -48 -123 -78t-118 -30q-38 0 -69.5 13t-52.5 34t-39 48t-30 55.5t-24 55.5t-22 48t-23.5 34t-28.5 13q-27 0 -100.5 -46t-166.5 -126.5t-158 -160.5q-8 -10 -18 -10q-8 0 -15 5t-11.5 13t-4.5 16q0 6 4.5 32.5
t15.5 77.5t26 102q-3 -3 -9 -10q-32 -35 -50 -54.5t-54 -52t-64.5 -50.5t-67 -32t-75.5 -14q-45 0 -86.5 18t-74.5 48t-57.5 58.5t-50 62t-37.5 46.5v-1v1q-30 -21 -60.5 -60.5t-50.5 -73t-40 -59.5t-34 -26q-7 0 -14 3.5t-11 10t-4 14.5q0 5 24 90q3 8 5.5 20.5t5.5 24
t5 20.5q-32 -33 -58 -70.5t-38.5 -60.5t-25.5 -38.5t-25 -15.5q-6 0 -11.5 2t-10 6t-7 9.5t-2.5 11.5q0 7 4 15q12 21 43 111.5t44 132.5q6 21 27 21q12 0 21.5 -7.5t9.5 -19.5q0 -7 -18 -61q37 38 65 38q7 0 13.5 -2t14 -8t12 -20t4.5 -34v-6q1 1 2 3q62 88 109 88
q17 0 35 -13t34.5 -33.5t34.5 -45.5t39.5 -49.5t45 -45.5t54 -33.5t64.5 -12.5q21 0 38.5 3.5t49 20t67 47t91 88t122.5 139.5q5 14 13.5 37t33 82.5t49 113.5t58.5 119t64.5 112t64.5 79t62 32q29 0 29 -36q0 -64 -96 -233.5t-230 -336.5q-42 -118 -66 -230
q22 22 65.5 61.5t105.5 89.5t125 85.5t101 35.5q31 0 55 -16.5t39.5 -43t29 -58.5t27.5 -64t31.5 -59t45 -43.5t63.5 -16.5t76 16.5t68 36.5t52 36.5t30 16.5zM1272 932q-60 -72 -161 -291q28 43 55 87.5t44 76.5t32 62t21 43.5t9 21.5z" />
    <glyph glyph-name="mt.liga" unicode="mt" horiz-adv-x="1415" 
d="M1452 763q17 0 24 -9.5t7 -20.5q0 -8 -3 -14t-9.5 -10.5t-15.5 -4.5h-1h-1q-16 0 -27 -1.5t-84.5 -19.5t-212.5 -56q-14 -22 -29 -42q-54 -101 -93.5 -185t-58.5 -133t-30 -88t-12.5 -53t-1.5 -26q0 -40 16.5 -57t48.5 -17q53 0 132 37.5t143 82t115.5 82t56.5 37.5
q11 0 18.5 -9.5t7.5 -21.5q0 -9 -33 -38.5t-87.5 -67.5t-115.5 -74.5t-125.5 -61t-109.5 -24.5q-32 0 -56 10t-37 24.5t-20.5 34t-9.5 34t-2 30.5q0 38 14 89t52 140q-5 -6 -14 -18q-25 -32 -38.5 -49t-38 -45.5t-44 -44t-45 -32.5t-52.5 -24.5t-55 -7.5q-46 0 -89.5 19
t-78 50t-62 62t-53.5 62.5t-40 42.5q-22 -13 -45.5 -41t-42.5 -57.5t-37 -57t-33.5 -45.5t-26.5 -18q-12 0 -20.5 8t-8.5 20q0 5 24 90q3 10 8 32t8 33q-32 -33 -58.5 -70.5t-38.5 -60.5t-25 -38.5t-25 -15.5q-8 0 -15 3.5t-11.5 10.5t-4.5 15q0 7 4 15q12 21 43 111.5
t44 132.5q6 21 27 21q12 0 21.5 -7.5t9.5 -19.5q0 -7 -18 -61q37 38 65 38q7 0 13.5 -2t14 -8t12 -19.5t4.5 -33.5v-8q17 23 25.5 33.5t25 27.5t31.5 24.5t30 7.5q21 0 47.5 -24.5t55 -59.5t60.5 -70t74 -59.5t85 -24.5q26 0 45 6.5t51.5 30t72.5 69.5t102 127.5t146 201.5
q-146 -40 -185 -49.5t-59 -9.5q-13 0 -20 8.5t-7 19.5q0 12 7 21t21 10q25 1 285 73q34 61 59 103t38.5 63t24 31t14 11t9.5 1q10 0 20 -8.5t10 -25.5q0 -18 -12.5 -41t-67.5 -108q106 29 165 43t75.5 16.5t33.5 2.5z" />
    <glyph glyph-name="mz.liga" unicode="mz" horiz-adv-x="1715" 
d="M1712 261q11 0 19 -9.5t8 -21.5q0 -13 -31.5 -37t-80 -48t-118 -41.5t-134.5 -17.5q-76 0 -217 35t-215 35q-13 0 -25 -1t-18.5 -1.5t-7.5 -0.5q-11 0 -19 9.5t-8 20.5q0 7 6.5 17t21 25.5t28 29.5t36.5 37l38 38q-89 -26 -126 -36q-6 -6 -20 -18.5t-49.5 -38t-72.5 -46
t-87 -36.5t-95 -16t-85.5 16.5t-66 36t-49.5 51t-33 47.5t-21 38l-3 6q-42 -47 -74 -92.5t-45 -68.5t-25 -37t-26 -14q-12 0 -20.5 8t-8.5 20q0 5 24 90q3 10 8 32t8 33q-32 -33 -58 -70.5t-38.5 -60.5t-25.5 -38.5t-25 -15.5q-8 0 -15 3.5t-11.5 10.5t-4.5 15q0 7 4 15
q12 21 43 111t44 133q6 21 27 21q12 0 21.5 -7.5t9.5 -19.5q0 -7 -18 -61q37 38 65 38q7 0 13.5 -2t14 -8t12 -19.5t4.5 -33.5v-5q65 96 104 96q14 0 27.5 -15.5t24 -39t28 -50.5t38 -50t55.5 -38.5t79 -15.5q29 0 61 8t59.5 21t54 29t47.5 32t37 29t25.5 22t10 9t128 37
l127.5 37q12 0 20 -9.5t8 -21.5v-1q0 -8 -6.5 -16.5t-46.5 -48.5q-57 -59 -107 -111q72 -3 210.5 -37t212.5 -34q62 0 124 18.5t99.5 40.5t67 40.5t34.5 18.5z" />
    <glyph glyph-name="nh.liga" unicode="nh" horiz-adv-x="1929" 
d="M1938 272q7 0 13 -4.5t9.5 -11.5t3.5 -15q0 -16 -12 -25q-64 -48 -123.5 -78t-118.5 -30q-38 0 -69 13t-52 34t-39 48t-30 55.5t-24 55.5t-22 48t-23.5 34t-29.5 13q-26 0 -99.5 -46t-167 -126.5t-157.5 -160.5q-8 -10 -19 -10q-7 0 -14.5 5t-11.5 13t-4 16t5.5 43
t28 122t55.5 180q-67 -71 -131 -127.5t-111 -90.5t-92 -59t-71 -36t-52.5 -17t-32.5 -6.5t-13 -0.5q-46 0 -87 21t-69.5 51.5t-52 60.5t-42 51t-31.5 21q-21 0 -52.5 -27t-62.5 -65t-61 -76t-56.5 -65t-40.5 -27q-8 0 -14.5 4t-10.5 10.5t-4 14.5q0 9 100 257q9 21 31 21
q13 0 20.5 -9.5t7.5 -21.5q0 -1 -36 -92q110 134 180 134q27 0 53 -21t48.5 -51t47 -60t59 -51t72.5 -21q90 0 253 127.5t313 309.5q9 22 24.5 57t51 105.5t68 125.5t71.5 98t67 43q5 0 12 -2.5t15 -11.5t8 -24q0 -39 -91.5 -180.5t-176.5 -243.5q-85 -207 -124 -376
q22 23 66 62t105.5 89.5t124.5 85.5t100 35q32 0 56 -16.5t39 -43t28.5 -58.5t28 -64t31.5 -59t45 -43.5t64 -16.5q35 0 75.5 16.5t68.5 36.5t51.5 36.5t30.5 16.5z" />
    <glyph glyph-name="nt.liga" unicode="nt" horiz-adv-x="1620" 
d="M1657 768q17 0 24 -9.5t7 -20.5q0 -12 -7.5 -20.5t-20.5 -8.5h-1h-1q-16 0 -27.5 -1.5t-86.5 -20t-217 -57.5q-218 -398 -218 -525q0 -40 16.5 -57.5t49.5 -17.5q53 0 131.5 37.5t142 82.5t115.5 82.5t57 37.5q11 0 18.5 -9.5t7.5 -21.5q0 -9 -33 -38.5t-87.5 -67.5
t-115.5 -74.5t-125.5 -61t-109.5 -24.5q-32 0 -56 10t-36.5 24.5t-20.5 34t-10 34t-2 30.5q0 119 160 431q-180 -189 -341.5 -292t-290.5 -103q-59 0 -108.5 19.5t-80.5 47.5t-55.5 55.5t-44.5 47t-36 19.5q-27 0 -69 -40.5t-78.5 -89.5t-73 -89.5t-53.5 -40.5
q-12 0 -20.5 8.5t-8.5 20.5q0 9 100 257q9 21 31 21q13 0 20.5 -9.5t7.5 -21.5q0 -10 -6 -17q-12 -28 -30 -76q55 68 96 102t84 34q24 0 47 -14t41 -35.5t42.5 -46t49.5 -45.5t63.5 -35t83.5 -14q48 0 104.5 19.5t106.5 47.5t107 69.5t96.5 75t84.5 76.5t62.5 61t37.5 40
q-15 -4 -40.5 -11t-36 -10t-27.5 -7t-24.5 -6t-18 -4t-17.5 -2.5t-14 -0.5q-13 0 -20 8.5t-7 19.5q0 8 3 14.5t9.5 11t15.5 5.5q25 1 251 63q50 57 91 109q5 8 14 23.5t13.5 23t12.5 19.5t13 18.5t11.5 13.5t12 9.5t11.5 2.5q12 0 21 -9.5t9 -23.5q0 -8 -2.5 -16t-10 -19.5
t-13 -18.5t-20 -25t-21.5 -27q-14 -23 -28 -48q111 30 173 45t80.5 18t35.5 3z" />
    <glyph glyph-name="nz.liga" unicode="nz" horiz-adv-x="1812" 
d="M1808 265q8 0 14.5 -4.5t10 -11.5t3.5 -15q0 -13 -32 -37t-80.5 -48t-118 -41.5t-134.5 -17.5q-76 0 -217 35t-214 35q-14 0 -26 -1t-18.5 -1.5t-7.5 -0.5q-11 0 -19 9.5t-8 20.5q0 7 7 17t21 25.5t27.5 29.5t35.5 36l37 37q-69 -21 -121 -32q-29 -40 -65 -78t-82 -75
t-99.5 -60t-104.5 -23q-48 0 -92.5 19.5t-77 48.5t-63 63t-52.5 63t-43 48t-36 19q-28 0 -69.5 -40.5t-77.5 -89t-72 -89t-54 -40.5q-12 0 -20.5 8.5t-8.5 20.5q0 9 100 257q9 21 31 21q13 0 20.5 -9.5t7.5 -21.5q0 -10 -6 -17l-30 -75q19 23 34 39.5t40.5 41t52 38
t50.5 13.5q28 0 57 -19t52 -48t52 -62.5t57 -62.5t67 -48.5t82 -19.5q22 0 45 5.5t44.5 16.5t41 23t40 29.5t35.5 31t33 33.5t27.5 30.5t24 28t17.5 21.5q5 6 9 8.5t11 5t24.5 7t41 11t70 20t102.5 31.5q4 2 8 2q12 0 20 -9.5t8 -21.5v-1q0 -8 -6.5 -16.5t-45.5 -48.5
q-58 -59 -107 -111q71 -3 209.5 -37t212.5 -34q62 0 124 18.5t99.5 40.5t67 40.5t34.5 18.5z" />
    <glyph glyph-name="oo.liga" unicode="oo" horiz-adv-x="1524" 
d="M1530 277q8 0 15 -5t10.5 -12t3.5 -15q0 -12 -28.5 -30.5t-72 -36.5t-105 -31t-118.5 -13q-127 0 -237 59q-8 -56 -47 -81t-90 -25q-24 0 -50.5 5.5t-55 18t-47 38t-18.5 59.5q0 24 11 48q-102 -20 -194 -20q-147 0 -263 47q-9 -40 -36.5 -82t-70 -74t-84.5 -32
q-14 0 -27 3.5t-26.5 12.5t-21.5 28t-8 45q0 34 19.5 77.5t58 77.5t82.5 34q19 0 36 -7q7 24 38 24q38 0 45 -42q102 -54 258 -54q54 0 109.5 7t91 16t62.5 16t30 7q8 0 14.5 -4.5t9.5 -11t3 -14.5q0 -21 -20 -28q-23 -8 -42 -28.5t-19 -43.5q0 -33 34.5 -48.5t77.5 -15.5
q83 0 83 69q0 7 -1 15q-48 36 -79.5 75t-31.5 65q0 12 9.5 20t21.5 8q25 0 71 -41t62 -93q106 -71 244 -71q57 0 113 13t90 28.5t60 29t30 13.5zM52 153q36 0 69.5 35.5t55.5 79.5q-11 5 -14 19q-6 28 -34 28q-32 0 -66.5 -47.5t-34.5 -87.5q0 -27 24 -27z" />
    <glyph glyph-name="of.liga" unicode="of" horiz-adv-x="1281" 
d="M1288 274q11 0 19.5 -9.5t8.5 -22.5q0 -12 -27 -32t-66 -39t-89 -32.5t-91 -13.5q-59 0 -110 23q-3 -117 -28 -227.5t-57.5 -173.5t-60.5 -63q-45 0 -45 109q0 121 20 246t46.5 219t64 188.5t63 146.5t52.5 101q-76 -66 -175.5 -137.5t-202.5 -135t-198.5 -104.5
t-150.5 -41h-13q-6 -45 -34.5 -93t-72.5 -81.5t-88 -33.5q-14 0 -27 3.5t-26.5 12.5t-21.5 28t-8 45q0 25 12 57t32.5 62t51 50t64.5 20q19 0 36 -7q7 24 38 24t41 -28q7 -1 16 -1q46 0 149.5 48t227.5 125.5t262 188t238 220.5q8 10 19 10q12 0 20.5 -9.5t8.5 -22.5
q0 -5 -20.5 -35t-55.5 -83t-74.5 -121t-83.5 -169t-77 -209q7 4 14 4q2 0 5.5 -1t8 -3t9.5 -7t9 -12t7.5 -18t4.5 -25q44 -32 112 -32q42 0 86.5 14.5t74 31.5t53.5 31t29 14zM52 126q25 0 51 19.5t43.5 44t30.5 51.5q-11 5 -14 19q-6 28 -34 28q-21 0 -45 -22.5t-40 -54.5
t-16 -58q0 -27 24 -27zM801 -212q36 82 55 185.5t19 201.5v4.5v3.5v5q-13 14 -17 30q-55 -206 -57 -430z" />
    <glyph glyph-name="oh.liga" unicode="oh" horiz-adv-x="1885" 
d="M1894 277q11 0 18.5 -10t7.5 -22q0 -15 -12 -25q-64 -48 -123.5 -78t-118.5 -30q-38 0 -69.5 13t-52.5 34t-39 48t-29.5 55.5t-23.5 55.5t-22 48t-23.5 34t-29.5 13q-26 0 -99.5 -46t-167 -126t-157.5 -161q-8 -10 -19 -10q-12 0 -21.5 11t-9.5 24q0 17 13 74.5t37 145
t70.5 208t103.5 233.5q-546 -481 -846 -481q-17 0 -33 1q-6 -46 -34.5 -94t-72.5 -81.5t-88 -33.5q-11 0 -21.5 2t-22 8t-20 15.5t-14 26t-5.5 37.5q0 34 19.5 77.5t58 77.5t82.5 34q19 0 36 -7q7 24 38 24q30 0 41 -28q5 -1 6 -1h-1q0 -1 28 -1q43 0 98 13.5t142.5 53.5
t186.5 103t234.5 171t282.5 249q11 16 19 27t21.5 26.5t25 25t26 17t28.5 7.5q12 0 19.5 -9.5t7.5 -20.5q0 -12 -16 -28q-12 -13 -85 -82q-90 -134 -172 -338.5t-116 -357.5q22 23 65.5 62t105.5 89.5t124.5 85.5t100.5 35q32 0 56 -16.5t39 -43t28.5 -58.5t28 -64
t31.5 -58.5t45 -43.5t64 -17q35 0 75.5 17t68 36.5t51.5 36.5t31 17zM52 135q36 0 69.5 35.5t55.5 79.5q-11 5 -14 19q-6 28 -34 28q-21 0 -45 -22.5t-40 -54.5t-16 -58q0 -27 24 -27z" />
    <glyph glyph-name="ok.liga" unicode="ok" horiz-adv-x="1666" 
d="M1674 277q10 0 18 -10t8 -22q0 -13 -31.5 -38t-79.5 -51t-113.5 -45t-125.5 -19q-53 0 -105 14.5t-89.5 33.5t-95.5 45t-110 42q-10 -35 -18.5 -67.5t-13 -55t-9 -43t-6.5 -33t-4.5 -23t-4 -16t-4.5 -9t-7 -5t-10 -1.5q-8 0 -15.5 4t-12.5 11t-5 16q0 7 6 40t20.5 93
t31.5 116q-3 6 -3 13q0 16 13 22q83 266 240 567q-299 -291 -519 -437.5t-342 -146.5q-18 0 -40 4q-5 -27 -22 -60.5t-42 -65t-60 -52.5t-70 -21q-9 0 -17.5 1.5t-18.5 5t-18 10t-14.5 16t-10.5 24t-4 32.5q0 25 12 57t32.5 62t51 50t64.5 20q19 0 36 -7q7 24 38 24
q35 0 44 -37q4 -1 14 -4h4.5h7h8.5q72 0 176.5 52.5t207.5 131.5t209.5 171t187.5 171t137.5 131.5t63.5 52.5q12 0 19.5 -9.5t7.5 -22.5q0 -14 -31 -72.5t-74.5 -137t-102.5 -211.5t-104 -269q132 53 197.5 78t71.5 26.5t13 1.5q9 0 15 -3t9 -7t5 -9t2 -7.5v-4.5
q0 -12 -9.5 -21t-21.5 -9h-3q-46 -14 -247 -96q50 -18 117 -51t116 -49.5t106 -16.5q60 0 121.5 19.5t99.5 43t68 43.5t35 20zM52 135q36 0 69.5 35.5t55.5 79.5q-11 5 -14 19q-6 28 -34 28q-32 0 -66.5 -47.5t-34.5 -87.5q0 -27 24 -27z" />
    <glyph glyph-name="ot.liga" unicode="ot" horiz-adv-x="1438" 
d="M1476 771q11 0 18.5 -5.5t9.5 -11.5t2 -13q0 -12 -7.5 -20.5t-20.5 -8.5h-2q-15 0 -27 -1.5t-86.5 -20t-216.5 -57.5q-218 -398 -218 -525q0 -40 16.5 -57t48.5 -17q53 0 132 37.5t142.5 82.5t115 82.5t57.5 37.5q10 0 18 -10t8 -22q0 -9 -33.5 -38.5t-87.5 -67.5
t-115.5 -74t-126 -61t-108.5 -25q-23 0 -42.5 5.5t-32 13.5t-22 20t-15 24t-9 25.5t-4.5 23.5t-1 21q0 118 159 427q-37 -38 -74.5 -72t-84 -70.5t-96 -65.5t-102.5 -52.5t-110.5 -36.5t-113.5 -13q-115 0 -204 50q-18 -66 -74.5 -124t-115.5 -58q-14 0 -27 3.5t-26.5 12.5
t-21.5 28t-8 45q0 34 19.5 77.5t58 77.5t82.5 34q19 0 36 -7q7 24 38 24q40 0 46 -48q84 -56 195 -56q264 0 556 308l-37.5 -10t-33 -9t-26.5 -7t-23 -6t-18 -4.5t-17 -3t-13 -1.5t-13 -1t-11.5 2.5t-8.5 6.5t-5 9t-2 11q0 11 7.5 20t20.5 10q25 1 253 64q50 58 99 123
q3 6 10 17q19 31 27.5 44t19.5 24t21 11q13 0 22.5 -10t9.5 -22q0 -10 -8.5 -23t-51.5 -70q-24 -41 -37 -63q111 30 172.5 45t80.5 18t37 3zM52 152q36 0 69.5 35.5t55.5 79.5q-11 5 -14 19q-6 28 -34 28q-21 0 -45 -22.5t-40 -55t-16 -57.5q0 -27 24 -27z" />
    <glyph glyph-name="oz.liga" unicode="oz" horiz-adv-x="1767" 
d="M1764 264q11 0 19 -9.5t8 -21.5q0 -13 -31.5 -37t-80.5 -48t-118 -41.5t-134 -17.5q-77 0 -218 35t-214 35q-14 0 -25.5 -1t-18 -1.5t-7.5 -0.5q-8 0 -14 4.5t-10 11.5t-4 14t7 17t21 25.5t27.5 29t35.5 36t36 36.5q-31 -10 -62 -18t-45.5 -11t-16.5 -3
q-23 -19 -60 -42.5t-98 -56t-138.5 -54t-151.5 -21.5q-54 0 -102 14t-82 36.5t-60 51.5q-22 -43 -51 -75t-61 -49t-62 -17q-9 0 -17.5 1.5t-18.5 5t-18 10t-14.5 16t-10.5 24t-4 32.5q0 20 7.5 44.5t22 50t33.5 46.5t44.5 34.5t52.5 13.5q19 0 36 -7q7 24 38 24q46 0 46 -61
q0 -12 -2 -25q19 -28 42.5 -49t49 -32.5t45.5 -19t43 -10t30 -3t18 -0.5q68 0 142 22.5t134 57.5t87 53t45 32l1 1q7 5 11.5 7t10.5 3.5t22.5 5.5t39 10t68 19.5t102.5 31.5q4 2 8 2q8 0 14.5 -4.5t10 -11.5t3.5 -15v-1q0 -8 -6.5 -16t-45.5 -49q-58 -59 -107 -111
q71 -2 210 -36.5t212 -34.5q63 0 124.5 18.5t99 40.5t67 40.5t35.5 18.5zM52 143q25 0 51 19.5t43.5 44t30.5 51.5q-11 5 -14 19q-6 28 -34 28q-32 0 -66.5 -47.5t-34.5 -87.5q0 -27 24 -27z" />
    <glyph glyph-name="pp.liga" unicode="pp" horiz-adv-x="1472" 
d="M1473 264q13 0 23 -9t10 -20t-26 -32.5t-76 -47.5t-112 -50t-144.5 -40t-163.5 -16q-55 0 -96 5h-4q-51 0 -94 29q-44 -68 -79 -135q-25 -78 -60 -186q-39 -121 -50.5 -147t-27.5 -26q-7 0 -14.5 4t-12.5 11t-6 15v13q0 52 32.5 143t83.5 192q67 205 97 310
q-31 -25 -61.5 -47t-89.5 -58t-116 -60.5t-132.5 -43t-146.5 -18.5q-41 0 -57.5 6t-16.5 27q0 10 8 17t21.5 11.5t31 10.5t37 13t39.5 20.5t37.5 31t32 46.5t22.5 66q7 29 7 43q0 31 -19.5 43t-44.5 12q-31 0 -69 -28.5t-75 -76.5t-70.5 -96.5t-63.5 -102t-44 -79.5t-23 -43
q-25 -78 -61 -189q-45 -138 -56.5 -165.5t-27.5 -27.5q-12 0 -22.5 9t-10.5 21q-1 7 -1 14q0 44 26 122t49.5 131.5t48.5 104.5q97 297 108 364v8q0 14 8.5 21.5t20.5 7.5q2 0 3.5 -0.5t7 -2t9 -4.5t7 -10t3.5 -17q0 -12 -2 -24t-5.5 -25.5t-6.5 -24.5t-8.5 -28.5
t-8.5 -27.5q86 126 147 176.5t116 50.5q9 0 19.5 -1.5t30.5 -8t35 -18t26.5 -34.5t11.5 -54q0 -16 -3.5 -37.5t-13.5 -54t-33.5 -66.5t-57.5 -61q75 15 150.5 48.5t130 70t98 70.5t70 56t31.5 22q11 0 21.5 -8t10.5 -29q0 -9 -1 -17t-5 -22.5t-7.5 -26.5t-13.5 -44t-18 -59
q16 22 24.5 32.5t30.5 37.5t40.5 43t43.5 35t51 28.5t52 9.5q41 0 70.5 -23.5t29.5 -64.5t-28.5 -88.5t-71.5 -81.5q37 2 73.5 7.5t67 12.5t60.5 16.5t54 19t47.5 20.5t40 20t33 18.5t25 15.5l17 12l8.5 6q9 7 19 7zM886 113q42 0 86 28.5t71 66.5t27 65q0 37 -33 37
q-41 0 -97 -44t-118 -134q1 -1 2 -1q31 -18 62 -18z" />
    <glyph glyph-name="pf.liga" unicode="pf" horiz-adv-x="1301" 
d="M1308 267q11 0 19 -9.5t8 -21.5q0 -18 -43 -45.5t-109.5 -50t-119.5 -22.5q-58 0 -109 22q-1 -88 -16.5 -175.5t-38 -149t-47 -99.5t-43.5 -38q-47 0 -47 108q0 20 1 40t8 80.5t19.5 125.5t39 168.5t64.5 215.5q-55 -52 -114 -100.5t-139 -104t-156.5 -95.5t-164 -67
t-164.5 -27q-94 0 -133 39q-33 -57 -63 -117q-25 -78 -61 -189q-45 -138 -56.5 -165.5t-27.5 -27.5q-12 0 -22.5 9t-10.5 21q-1 7 -1 14q0 106 124 358q97 297 108 364v8q0 14 8.5 21.5t20.5 7.5h1l2.5 -0.5t4.5 -1t4.5 -1.5t5 -2.5t5 -4.5t4 -6t2.5 -8t1 -10
q0 -14 -3.5 -31.5t-6.5 -29.5t-10.5 -36t-10.5 -34q1 2 5 8q17 25 28.5 41t34 46t43 49.5t45 41t50.5 32t51 10.5q27 0 45 -17.5t25 -42t7 -56.5q0 -121 -94 -214q78 20 163 63t154.5 90.5t140 106t115.5 101.5t85 85q148 387 241 387q18 0 34.5 -13.5t16.5 -41.5
q0 -11 -2.5 -23.5t-15.5 -44t-36.5 -68.5t-72 -97.5t-115.5 -130.5q-41 -112 -78 -238q2 0 4.5 -1t9 -4.5t11.5 -10t9.5 -19.5t6.5 -31q44 -32 112 -32q42 0 87 14.5t74.5 31.5t53 31t29.5 14zM1171 866q-51 -44 -113 -188q97 120 113 188zM129 85q47 0 92 35.5t71.5 88
t26.5 100.5q0 20 -5 35.5t-9 21t-6 5.5q-5 0 -12.5 -2t-30.5 -16t-49 -38.5t-67.5 -77.5t-86.5 -126q1 0 9.5 -5.5t16 -9.5t21.5 -7.5t29 -3.5zM823 -215q23 55 39.5 121.5t24 132.5t7.5 129v3.5v2.5v2.5v4.5q-3 4 -7 9q-29 -110 -45.5 -208.5t-18.5 -128t-2 -47.5
q0 -4 2 -21z" />
    <glyph glyph-name="ph.liga" unicode="ph" horiz-adv-x="1762" 
d="M1771 274q11 0 18.5 -10t7.5 -22q0 -15 -12 -25q-64 -48 -123.5 -78t-118.5 -30q-37 0 -68.5 13t-52.5 34t-39 48t-30 55.5t-24 55.5t-22 48t-23.5 34t-29.5 13q-26 0 -99.5 -46t-167 -126t-157.5 -161q-8 -10 -19 -10q-7 0 -14.5 5t-11.5 13t-4 17q0 4 4 31t18 88.5
t34 126.5q-315 -372 -588 -372q-138 0 -226 98q-33 -57 -63 -117q-25 -78 -61 -189q-45 -138 -56.5 -165.5t-27.5 -27.5q-8 0 -15.5 4t-12.5 11t-5 15q-1 7 -1 14q0 106 124 358q97 298 108 364v8q0 14 8.5 21.5t20.5 7.5h1l2.5 -0.5t4.5 -1t4.5 -1.5t5 -2.5t5 -4.5t4 -6
t2.5 -8t1 -10q0 -14 -3.5 -31.5t-6.5 -29.5t-10.5 -36t-10.5 -34q1 2 5 8q21 31 35 50.5t43.5 55.5t54 57.5t57.5 39t62 17.5q27 0 45 -17.5t25 -42t7 -56.5q0 -58 -21.5 -109.5t-54 -85.5t-65.5 -55.5t-61 -29.5q36 -11 76 -11q57 0 119.5 21.5t116 53.5t110.5 79.5
t99 89.5t86.5 93.5t67.5 81t48 62.5q11 29 25.5 64t43 100t58.5 122t63.5 111.5t67 87t60.5 32.5q34 0 34 -30q0 -14 -16.5 -53.5t-49.5 -102.5t-96 -160.5t-144 -205.5q-56 -146 -85 -284q21 22 65 61.5t106 89.5t125 85.5t100 35.5q32 0 56 -16.5t39.5 -43t28.5 -58.5
t27.5 -64t31.5 -58.5t45 -43.5t64 -17q35 0 75.5 17t68.5 36.5t51.5 36.5t30.5 17zM53 124q1 0 9.5 -5.5t16 -9.5t21.5 -7.5t29 -3.5q36 0 71.5 21t61 54t41.5 73t16 76q0 10 -1 18t-2.5 14t-3.5 11t-4 8.5t-4 5.5l-3.5 3.5l-1.5 1.5q-3 0 -7 -1t-16 -6t-25.5 -14
t-35.5 -28.5t-45 -46t-53.5 -69t-63.5 -95.5z" />
    <glyph glyph-name="pk.liga" unicode="pk" horiz-adv-x="1612" 
d="M1619 279q11 0 19 -10t8 -22q0 -10 -20 -28.5t-55.5 -40t-78 -40.5t-95.5 -31.5t-101 -12.5q-53 0 -105.5 14.5t-90 33.5t-95.5 45t-110 42q-27 -98 -46 -195q-7 -39 -11.5 -48.5t-19.5 -9.5q-12 0 -22 9t-10 22q0 7 6 40.5t20 93.5t31 117q-2 5 -2 11q0 14 11 21
q37 123 90 256q-197 -233 -400 -369t-348 -136q-23 0 -49 3q-10 -1 -19 -1q-34 0 -62.5 12.5t-39.5 23.5q-34 -57 -64 -117q-25 -78 -61 -189q-45 -138 -56.5 -165.5t-27.5 -27.5q-8 0 -15.5 4t-12.5 11t-5 15q-1 7 -1 14q0 106 124 358q97 297 108 364v8q0 14 8.5 21.5
t20.5 7.5h1.5t4 -1t6.5 -2t6.5 -3.5t5.5 -6t4 -9t2 -12.5q0 -14 -3.5 -31.5t-6.5 -29.5t-10.5 -36t-10.5 -34q1 2 5 8q21 31 35 50.5t43.5 55.5t54 57.5t57.5 39t62 17.5q27 0 45 -17.5t25 -42t7 -56.5q0 -125 -100 -219q112 29 251.5 127.5t272 235.5t237.5 289
q49 103 86 176t57 108t35.5 53.5t20.5 21t11 1.5h2q13 0 19.5 -10.5t6.5 -21.5q0 -14 -20 -63t-67.5 -135.5t-107.5 -170.5q-97 -209 -158 -403q133 54 200 80t73 27t13 1q13 0 20.5 -8t9 -13.5t1.5 -9.5q0 -8 -4.5 -15t-12 -11t-14.5 -4h-4q-45 -14 -246 -96q43 -15 94 -39
t82.5 -39.5t75 -27t87.5 -11.5q60 0 121 19.5t99.5 43t68.5 43.5t34 20zM135 103q44 0 87.5 35.5t70 88t26.5 100.5q0 20 -5 35.5t-9 21t-6 5.5q-5 0 -12.5 -2t-30.5 -16t-49 -38.5t-67.5 -77.5t-86.5 -126q1 0 8 -5.5t14 -9.5t23.5 -7.5t36.5 -3.5z" />
    <glyph glyph-name="pl.liga" unicode="pl" horiz-adv-x="1434" 
d="M1442 278q11 0 19 -9.5t8 -21.5q0 -14 -57 -56t-135 -88t-171.5 -81.5t-155.5 -35.5q-44 0 -78.5 12.5t-55.5 29t-36.5 42.5t-22 45t-10 45t-4 33t-0.5 19q0 60 19 131q-116 -94 -215.5 -158t-172.5 -93.5t-123 -40.5t-95 -11q-92 0 -133 39q-33 -57 -63 -117l-110 -336
q-16 -42 -29 -45q-3 -1 -6 -1q-12 0 -22.5 9t-10.5 21q-1 7 -1 14q0 106 124 358q97 297 108 364v8q0 14 8.5 21.5t20.5 7.5q1 0 3 -0.5t7.5 -2t9 -4.5t7 -10t3.5 -17q0 -14 -3.5 -31.5t-6.5 -29.5t-10.5 -36t-10.5 -34q1 2 5 8q17 25 28.5 41t34 46t43 49.5t45.5 41
t50.5 32t50.5 10.5q40 0 58.5 -33t18.5 -83q0 -119 -92 -212q17 6 35.5 13t69.5 32t105 58.5t136.5 93.5t168.5 134q47 116 130.5 243t168.5 221.5t162 156t115 61.5q21 0 32 -13t11 -32q0 -51 -85 -166.5t-216 -251.5t-269 -255q-44 -117 -44 -207q0 -41 10.5 -71.5
t25.5 -46.5t36 -26.5t37 -13t33 -2.5q54 0 122.5 24t129.5 58t114.5 68t89.5 58t41 24zM1350 1064q-91 -54 -223.5 -207t-218.5 -311q168 156 293.5 303.5t148.5 214.5zM129 103q48 0 93 36t71 88t26 100q0 20 -5 35.5t-9 21t-6 5.5q-5 0 -12.5 -2t-30.5 -16t-49 -38.5
t-67.5 -77.5t-86.5 -126l8.5 -5.5t16.5 -9.5t22 -7.5t29 -3.5z" />
    <glyph glyph-name="pt.liga" unicode="pt" horiz-adv-x="1365" 
d="M1403 765q17 0 23.5 -9.5t6.5 -20.5q0 -12 -7 -20.5t-21 -8.5h-2q-15 0 -26.5 -1.5t-86.5 -20t-217 -57.5q-218 -398 -218 -525q0 -40 16.5 -57t48.5 -17q53 0 132 37.5t142.5 82.5t115 82.5t57.5 37.5q10 0 18 -10t8 -22q0 -11 -52 -53.5t-123.5 -90t-156 -85
t-139.5 -37.5q-32 0 -56 10t-37 24.5t-20.5 34t-10 34.5t-2.5 30q0 109 138 385q-98 -104 -196 -184t-177.5 -127t-156 -77t-131.5 -40.5t-104 -10.5q-104 0 -146 39q-33 -57 -63 -117q-25 -78 -61 -189q-45 -138 -56.5 -165.5t-27.5 -27.5q-8 0 -15.5 4t-12.5 11t-5 15
q-1 7 -1 14q0 106 124 358q97 297 108 364v8q0 14 8.5 21.5t20.5 7.5q1 0 3 -0.5t7.5 -2t9 -4.5t7 -10t3.5 -17q0 -14 -3.5 -31.5t-6.5 -29.5t-10.5 -36t-10.5 -34q1 2 5 8q21 31 35 50.5t43.5 55.5t54 57.5t57.5 39t62 17.5q40 0 58.5 -33t18.5 -83q0 -124 -98 -218
q316 70 672 472q-15 -4 -42 -12q-58 -16 -81 -22t-44 -10t-35 -4q-13 0 -20 8.5t-7 20.5q0 7 3 13.5t9.5 11.5t15.5 5q25 1 268 68q28 34 52 67q54 92 74 120t36 28q12 0 21.5 -10t9.5 -24q0 -7 -2 -13t-23.5 -40t-64.5 -91q-1 -1 -2 -3l-2 -4t-2 -3q111 30 173 45t80.5 18
t36.5 3zM129 112q48 0 93 36t71 88t26 100q0 20 -5 35.5t-9 21t-6 5.5q-5 0 -12.5 -2t-30.5 -16t-49 -38.5t-67.5 -77.5t-86.5 -126q1 0 9 -5.5t16 -9.5t22 -7.5t29 -3.5z" />
    <glyph glyph-name="pz.liga" unicode="pz" horiz-adv-x="1687" 
d="M1684 267q11 0 19 -9.5t8 -21.5q0 -13 -32 -37t-80.5 -48t-118 -41.5t-133.5 -17.5q-77 0 -218 35t-214 35q-14 0 -25.5 -1t-18.5 -1.5t-8 -0.5q-10 0 -18.5 9.5t-8.5 20.5q0 7 7 17t21 26t27.5 29.5l36.5 36.5l38 38q-60 -18 -127 -35q-17 -13 -46.5 -34.5t-97.5 -62.5
t-138.5 -73t-166 -57t-181.5 -25q-34 0 -66 4q-8 -1 -17 -1q-34 0 -62.5 12.5t-39.5 23.5q-34 -58 -64 -117q-25 -78 -61 -189q-45 -138 -56.5 -165.5t-27.5 -27.5q-12 0 -22.5 9t-10.5 21q-1 7 -1 14q0 106 124 358q31 96 53.5 167t36.5 122t18 75v8q0 14 8.5 21.5
t20.5 7.5h1.5t4 -1t6.5 -2t6.5 -3.5t5.5 -6t4 -9t2 -12.5q0 -14 -3.5 -32t-6.5 -29.5t-10.5 -35.5t-10.5 -34q1 2 5 8q21 31 35 50.5t43.5 55.5t54 57.5t57.5 39t62 17.5q27 0 45 -17.5t25 -42t7 -56.5q0 -72 -31.5 -130t-78.5 -99q57 6 116 21t110 36t96 43.5t84.5 47
t65 42t47 33.5t22.5 17q10 6 19 9t25.5 6.5t72.5 19.5t136 41q4 2 8 2q12 0 20 -9.5t8 -21.5v-1q0 -8 -6.5 -16t-45.5 -49q-58 -59 -107 -111q71 -2 209.5 -36.5t212.5 -34.5q62 0 124 18.5t99.5 40.5t67 40.5t35.5 18.5zM142 112q68 8 122.5 79.5t54.5 144.5q0 20 -5 35.5
t-9 21t-6 5.5q-5 0 -12.5 -2t-30.5 -16t-49 -38.5t-67.5 -77.5t-86.5 -126q2 -1 5 -3t6 -3.5t9.5 -4t14.5 -5t22 -5t32 -5.5z" />
    <glyph glyph-name="qq.liga" unicode="qq" horiz-adv-x="1303" 
d="M1330 237q0 -19 -81 -75t-204 -120.5t-225 -100.5q65 -45 65 -100q0 -46 -37 -96t-92 -82t-104 -32q-22 0 -39 9t-25 20.5t-13 27.5t-6 25.5t-1 18.5q0 15 1 23.5t11.5 46.5t31.5 86.5t66.5 141t110.5 211.5q-128 -121 -183 -121q-23 0 -31.5 17t-8.5 36q0 36 24 76
q-43 -18 -91 -39t-85 -38t-113 -53t-132 -61q-25 -49 -42 -83q164 -76 164 -220q0 -38 -12.5 -86.5t-36.5 -98.5t-55.5 -91.5t-74 -67.5t-87.5 -26q-9 0 -18.5 1t-29 9t-33.5 22t-25.5 42.5t-11.5 67.5q0 121 139 414q-16 5 -29.5 9t-23 6t-17 3.5t-12 2t-7.5 1t-4 1.5
q-11 3 -18 12.5t-7 19.5q0 11 13.5 19.5t95.5 45.5q53 25 90 42q34 65 73 136q-48 -43 -79.5 -67.5t-61 -39t-54.5 -14.5q-43 0 -43 50q0 40 27.5 85t70.5 82.5t101.5 62t115.5 24.5q49 0 71 -10t22 -33q0 -6 -2.5 -12t-7 -9.5t-10 -5.5t-11.5 -2q-3 0 -5 1
q-6 -10 -16 -25.5t-34.5 -58t-68.5 -124.5q14 7 41 19q136 63 198 90.5t142 60.5t126 44.5t82 11.5q15 0 23 -10q12 10 25.5 23.5l18.5 18.5t12 10.5t11.5 6.5t10.5 1q12 0 20 -8q9 -8 9 -21q0 -8 -48 -96t-105.5 -193.5t-105.5 -216.5t-48 -159q0 -38 33 -38
q18 0 40.5 10.5t44 27.5t40 36.5t29.5 40.5t11 37q0 25 -31 47.5t-60 33.5q-20 8 -20 31q0 12 22.5 22t72 27.5t113.5 44.5t163 84t203 134q7 5 15 5q11 0 19 -9.5t8 -21.5zM83 18q-5 -2 -10.5 -4.5t-12 -6t-10.5 -4.5q11 -4 22 -7q5 9 11 22zM231 -245q0 107 -131 166
q-73 -150 -104.5 -252t-31.5 -145q0 -23 6.5 -40t14 -24.5t18.5 -12t14.5 -4.5h7.5q42 0 82.5 35t66.5 85.5t41.5 102.5t15.5 89zM24 178q42 13 222 183q-72 -10 -134 -59t-82 -101q-2 -3 -3.5 -11.5t-2.5 -11.5zM628 189q42 23 138 112q-63 -18 -97 -48t-41 -64z" />
    <glyph glyph-name="qh.liga" unicode="qh" horiz-adv-x="1768" 
d="M1776 270q11 0 19 -10t8 -22q0 -15 -13 -25q-64 -48 -123 -78t-119 -30q-37 0 -68.5 13t-52.5 34t-39 48t-30 55.5t-24 55.5t-22 48t-23.5 34t-28.5 13q-27 0 -100.5 -46t-166.5 -126t-158 -161q-8 -10 -19 -10t-20.5 11t-9.5 24q0 18 13 80.5t51 185.5t92 248
q-495 -575 -727 -695q35 -42 35 -103q0 -53 -25 -104t-62 -88t-78 -65.5t-73.5 -43t-48.5 -14.5q-18 0 -30.5 11.5t-18.5 28t-6 36.5q0 18 2 33t16.5 65t42 112.5t85 176.5t137.5 255q-47 -42 -78 -66t-60 -38t-54 -14q-43 0 -43 50q0 40 27 85t70.5 82.5t102 62t115.5 24.5
q50 0 71.5 -10t21.5 -33q0 -8 -4.5 -15t-11.5 -10.5t-15 -3.5q-4 0 -8 1q-51 -80 -131.5 -227t-154 -310.5t-73.5 -222.5v-3q0 -12 -5 -12q8 0 32.5 12t58.5 35.5t65.5 54t53 73.5t21.5 87q0 25 -7 42t-17 24.5t-20 13t-17.5 13.5t-7.5 21q0 5 1.5 9.5t4.5 8.5t8 6t11 2h4
q12 3 23 7h1q9 4 21 10t50.5 31.5t82 60.5t117.5 103t156 152.5t198 215t243 284.5q111 205 180 205q8 0 14.5 -4.5t9.5 -10.5t3 -14v-2q0 -9 -21 -36.5t-139 -170.5q-58 -104 -126.5 -275.5t-102.5 -322.5q22 23 66 62t105.5 89.5t124.5 85.5t101 35q31 0 55 -16.5
t39.5 -43t28.5 -58.5t27.5 -64t31.5 -58.5t45 -43.5t64 -17q35 0 75.5 17t68.5 36.5t51.5 36.5t30.5 17zM17 159q43 13 223 183q-72 -10 -134 -59t-83 -101q-1 -3 -2.5 -11.5t-3.5 -11.5z" />
    <glyph glyph-name="qk.liga" unicode="qk" horiz-adv-x="1514" 
d="M1521 270q11 0 18.5 -10t8.5 -22q0 -10 -20 -28.5t-55.5 -40t-78.5 -40.5t-95.5 -31.5t-100.5 -12.5q-54 0 -106 14.5t-89.5 33.5t-95.5 45t-110 42q-10 -35 -18 -67.5t-13 -55t-9 -43t-6 -33t-4.5 -23t-4.5 -16t-5 -9t-7 -5t-10 -1.5q-12 0 -22.5 9t-10.5 22
q0 7 6.5 40.5t20.5 93.5t31 116q-2 6 -2 12q0 15 12 22q43 141 105 290q-101 -144 -192 -257.5t-156.5 -183t-124.5 -118.5t-96 -71.5t-69 -34.5q27 -39 27 -93q0 -53 -25 -104t-62 -88t-78 -65.5t-74 -43t-48 -14.5q-26 0 -40.5 22.5t-14.5 53.5q0 18 2 33.5t16.5 65
t42 112.5t85 176.5t137.5 254.5q-70 -63 -113 -90.5t-79 -27.5q-43 0 -43 50q0 40 27 85t70.5 82.5t102 62t115.5 24.5q33 0 53.5 -4.5t30 -14t9.5 -24.5q0 -9 -4.5 -15.5t-11.5 -10t-15 -3.5q-4 0 -8 1q-52 -81 -132 -228t-153.5 -310t-73.5 -222q0 -12 1 -14q14 3 38.5 16
t57.5 37.5t61.5 54t48 70.5t19.5 83q0 62 -49 82h1q-22 7 -22 26q0 12 8 22t20 10q4 0 11 -2v0v-1h10q5 0 13 2t14.5 4t12 4l5.5 2q79 40 169 121t170.5 177t160 203.5t145.5 207t118.5 180t87 129t44.5 48.5q12 0 21 -8t9 -20q0 -3 -11 -23.5t-30 -55.5t-44 -81t-55 -107
t-59.5 -126t-60.5 -144.5t-56 -157.5q133 54 199 79t72.5 26.5t13.5 1.5q13 0 20.5 -8t9 -13.5t1.5 -9.5q0 -8 -4.5 -15t-12 -11t-15.5 -4h-3q-45 -14 -246 -96q49 -18 116.5 -51t116.5 -49.5t106 -16.5q60 0 121 19.5t99.5 43t68 43.5t34.5 20zM16 159q43 13 223 183
q-72 -10 -134 -59t-83 -101q-1 -3 -2.5 -11.5t-3.5 -11.5zM161 -43h-1h1v0z" />
    <glyph glyph-name="qt.liga" unicode="qt" horiz-adv-x="1278" 
d="M1315 765q17 0 24 -9.5t7 -20.5q0 -12 -7.5 -20.5t-20.5 -8.5h-0.5h-1.5h-13.5t-23.5 -3.5t-51.5 -11t-92.5 -24t-150 -40.5q-218 -398 -218 -525q0 -40 16.5 -57t49.5 -17q53 0 131.5 37.5t142.5 82.5t115.5 82.5t56.5 37.5q11 0 19 -10t8 -22q0 -9 -33.5 -38.5
t-88 -67.5t-115.5 -74t-125.5 -61t-108.5 -25q-33 0 -57 10t-36.5 24.5t-20.5 34t-10 34.5t-2 30q0 102 124 358q-27 -33 -35 -42.5t-46 -54.5t-60 -68.5l-66 -70.5t-76 -76t-78 -69t-84 -66t-82 -50t-83 -37q28 -40 28 -95q0 -53 -25 -104t-62 -88t-78 -65.5t-74 -43
t-48 -14.5q-26 0 -40.5 22.5t-14.5 53.5q0 18 2 33t16.5 65t42 112.5t85 176.5t137.5 255q-70 -63 -113 -90.5t-79 -27.5q-43 0 -43 50q0 40 27 85t70.5 82.5t102 62t115.5 24.5q50 0 71.5 -10t21.5 -33q0 -9 -4.5 -15.5t-11.5 -10t-15 -3.5q-4 0 -8 1q-51 -80 -131.5 -227
t-154 -310.5t-73.5 -223.5v-2v-11q14 3 39 16t57.5 37.5t61 54t48.5 70.5t20 83q0 25 -7 42t-17 24.5t-20.5 13t-17.5 12.5t-7 18.5t7.5 20t20.5 8.5q4 0 10 0.5t13 0.5q16 3 30.5 7.5t50.5 21.5t73 41.5t95.5 72t120.5 108.5t145.5 156t173.5 209q-14 -4 -39 -11
q-47 -12 -66.5 -17.5t-42 -11t-34 -7t-22.5 -1.5q-13 0 -20 8.5t-7 20.5q0 7 3 13.5t9.5 11.5t15.5 5q25 1 263 67q40 53 85 116l12 18q14 25 21 36t17 23.5t17 17.5t15 5q4 0 8 -1.5t7.5 -4t6.5 -5.5t5 -6.5t3 -7.5t1 -7.5t-0.5 -6.5t-2.5 -7.5t-4 -8t-8 -11.5t-11 -15
t-15.5 -21t-20.5 -28q-15 -25 -34 -58q111 30 172.5 45t80.5 18t36 3zM18 177q43 13 223 183q-72 -10 -134 -59t-83 -101q-1 -3 -2 -7t-2 -8.5t-2 -7.5z" />
    <glyph glyph-name="qz.liga" unicode="qz" horiz-adv-x="1659" 
d="M1655 267q12 0 20 -9.5t8 -21.5q0 -13 -32 -37t-80.5 -48t-118 -41.5t-134.5 -17.5q-76 0 -217 35t-214 35q-14 0 -26 -1t-18.5 -1.5t-7.5 -0.5q-11 0 -19 9.5t-8 21.5q0 6 7 16t21 25.5t27.5 29.5t36.5 37l38 38q-121 -36 -127 -35q-13 -10 -58 -47t-72.5 -59t-83.5 -61
t-106.5 -67.5t-124 -64t-152.5 -64.5q37 -42 37 -106q0 -45 -18 -88.5t-46 -76.5t-61.5 -62t-66 -48t-57.5 -29.5t-38 -10.5q-18 0 -30.5 11.5t-18.5 28t-6 36.5q0 18 2 33t16.5 65t42 112.5t85 176.5t137.5 255q-70 -63 -113 -90.5t-79 -27.5q-43 0 -43 50q0 40 27 85
t70.5 82.5t102 62t115.5 24.5q50 0 71.5 -10t21.5 -33q0 -13 -9.5 -21t-21.5 -8q-4 0 -8 1q-51 -81 -131.5 -227.5t-154 -310t-73.5 -223.5q0 -5 2 -13q15 5 40 18t57.5 37.5t60 54t47 70t19.5 81.5q0 25 -7 42t-17.5 24.5t-20.5 13t-17 13t-7 19t13 20.5t41.5 20t66.5 24.5
t94 40t118 61.5t144 94t167 132q12 10 26.5 16t34 11t76 20.5t126.5 37.5q4 2 8 2q8 0 14.5 -4.5t10 -11.5t3.5 -15v-1q0 -8 -6.5 -16t-45.5 -49q-17 -17 -28 -28.5t-34 -35t-45 -47.5q71 -2 209.5 -36.5t212.5 -34.5q62 0 124 18.5t99.5 40.5t67 40.5t34.5 18.5zM18 177
q43 13 223 183q-72 -10 -134 -59t-83 -101q-1 -3 -2.5 -11.5t-3.5 -11.5z" />
    <glyph glyph-name="rr.liga" unicode="rr" horiz-adv-x="1768" 
d="M1794 223q0 -25 -116.5 -94t-253 -127.5t-187.5 -58.5q-26 0 -43 13.5t-17 36.5q0 17 12.5 53t12.5 51q0 21 -19.5 39t-50 33t-63.5 31t-65 40.5t-49 53.5q-147 -141 -313.5 -246t-230.5 -105q-27 0 -43 13.5t-16 39.5q0 22 11.5 54t11.5 45q0 22 -27.5 33.5t-69 18
t-83.5 16t-75.5 36t-41.5 70.5q-41 -36 -63 -52.5t-26 -18t-10 -1.5q-13 0 -23 9t-10 20q0 6 2.5 10.5t13 12.5t24 18.5t41.5 35t61 55.5q2 4 4.5 11t11 23t18 28t23.5 22t28 10q16 0 24.5 -11.5t8.5 -23.5q0 -13 -13 -32t-52 -59q-6 -20 -6 -35q0 -26 16.5 -43t43 -25
t58.5 -13t63.5 -11.5t58 -16.5t43 -30.5t16.5 -52.5q0 -24 -12.5 -59t-12.5 -39q1 1 3.5 1t2.5 1h1q13 3 31 9.5t73 33.5t111.5 62.5t140 101.5t164.5 146v7q0 26 12.5 53t31.5 47.5t40.5 37t39.5 25t28 8.5q3 0 8 -1t11.5 -3.5t11 -9t4.5 -15.5q0 -20 -22.5 -53
t-101.5 -114q11 -29 42.5 -52.5t67.5 -40t70.5 -35t57.5 -47t23 -65.5q0 -18 -11.5 -49.5t-11.5 -46.5h3h4t4 1q107 37 198.5 76.5t145 69.5t92 55t58 38t25.5 13q11 0 19 -9.5t8 -22.5z" />
    <glyph glyph-name="rh.liga" unicode="rh" horiz-adv-x="1971" 
d="M2006 252q0 -16 -13 -25q-64 -48 -123 -78t-119 -30q-37 0 -68.5 13t-52.5 34t-39 48t-30 55t-24 55t-22 48.5t-23.5 34.5t-28.5 13q-20 0 -69.5 -28.5t-110 -73t-128.5 -107.5t-117 -124q-8 -10 -18 -10q-12 0 -21.5 10.5t-9.5 23.5q0 10 7 50t36 145.5t73 222.5
q-122 -127 -265.5 -258t-268.5 -225t-166 -94q-53 0 -53 47q0 19 10.5 56.5t10.5 47.5q0 19 -20 30.5t-50.5 15.5t-67.5 12t-69.5 18.5t-57.5 35.5t-31 63q-41 -36 -63 -53t-26 -18.5t-10 -1.5q-13 0 -23 9t-10 20q0 6 3 10.5t13 13t24 19t42.5 35.5t61.5 56q8 23 22 44.5
t30.5 36t30.5 14.5q13 0 23 -12t10 -26q0 -7 -3.5 -16t-7.5 -15.5t-12.5 -16t-13.5 -14.5l-15 -15t-13 -12q-6 -21 -6 -37q0 -29 22 -47t55 -24.5t72 -14t72 -16t55 -31.5t22 -59q0 -23 -11 -58q-1 -3 -3.5 -16.5t-4.5 -20.5l3 1v0q84 35 328 251t427 421q0 1 2 4
q10 23 19.5 43.5t33 67t46.5 83.5t50 76t54.5 60.5t50.5 21.5q12 0 20 -9t8 -21q0 -49 -67 -147t-169 -212q-109 -250 -154 -446q22 23 66 62t105.5 89t124.5 85.5t101 35.5q31 0 55 -16.5t39.5 -43t28.5 -58.5t27.5 -64.5t32 -59t45 -43t63.5 -16.5t76 16.5t68 36.5
t52 36.5t30 16.5q11 0 19 -9.5t8 -21.5z" />
    <glyph glyph-name="rk.liga" unicode="rk" horiz-adv-x="1851" 
d="M1885 244q0 -11 -20 -29.5t-55.5 -39.5t-78 -40t-95.5 -31.5t-101 -12.5q-53 0 -105 14.5t-90 33.5t-95.5 45t-110.5 42q-10 -36 -18 -68.5t-13 -55t-9 -42.5t-6 -32.5t-4.5 -23.5t-4 -16t-5 -9t-7 -5t-10.5 -1q-12 0 -22 9t-10 22q0 6 6 40t20 94t31 117q-2 5 -2 10
q0 15 11 22q62 205 162 420q-68 -75 -161 -171.5t-201 -201t-204 -191.5t-174 -143t-108 -56q-23 0 -38.5 13.5t-15.5 38.5q0 18 11 51.5t11 45.5q0 21 -20 33t-51 16t-67.5 12t-69 18t-57 35t-30.5 63q-42 -36 -64 -53t-26 -18.5t-10 -1.5q-13 0 -23 9t-10 20q0 6 3 10.5
t13 13t24 19t42.5 35.5t61.5 56q13 34 34 63.5t45 29.5q7 0 15 -3t15 -11t7 -20q0 -13 -12.5 -32t-21 -27.5l-31.5 -31.5q-6 -20 -6 -37q0 -29 22 -47t55.5 -24.5t72 -14t71.5 -16t55 -31t22 -58.5q0 -13 -2.5 -26t-9.5 -35.5t-10 -35.5l1 1q14 10 33 24.5t72 55t108.5 87.5
t130 111t150.5 137.5t155 155t159 175.5t149 187q3 6 10 18q28 52 41 69t28 17q2 0 6 -1t9.5 -3.5t9.5 -9t4 -15.5q0 -35 -62 -113q-158 -290 -252 -582q133 54 198.5 79t72 26.5t13.5 1.5q8 0 14.5 -3t9.5 -7t4.5 -9t2 -8t0.5 -4q0 -8 -4.5 -15t-12 -11t-14.5 -4h-3
q-46 -14 -247 -96q50 -18 117 -51t116 -50t106 -17q60 0 121.5 20t99.5 43.5t68 43t34 19.5q8 0 14 -4.5t9.5 -11.5t3.5 -15z" />
    <glyph glyph-name="rt.liga" unicode="rt" horiz-adv-x="1642" 
d="M1682 697h-2q-15 0 -27 -1.5t-87 -20t-217 -58.5q-218 -397 -218 -524q0 -40 16.5 -57.5t49.5 -17.5q53 0 131.5 37.5t142.5 82.5t115.5 82.5t56.5 37.5q11 0 19 -9.5t8 -21.5t-52.5 -54.5t-123.5 -89.5t-155.5 -84.5t-139.5 -37.5q-32 0 -56.5 10t-37 24t-20.5 33.5
t-10 34.5t-2 31q0 122 169 448q-97 -103 -194.5 -191.5t-175 -148t-149.5 -107t-123.5 -74.5t-92 -45t-60 -24.5t-23.5 -6.5q-15 0 -26.5 8t-17 20.5t-5.5 25.5t13 47.5t13 49.5q0 24 -28 36t-69 18t-83.5 15.5t-76 36.5t-41.5 72q-42 -37 -64 -54t-26 -18.5t-10 -1.5
q-13 0 -23 9t-10 20q0 5 2.5 9.5t7.5 9t16 13t25.5 20t39 33.5t52.5 48q6 18 14.5 34.5t19 29.5t23 20.5t23.5 7.5q15 0 25.5 -10t10.5 -25q0 -31 -65 -90q-5 -18 -5 -33q0 -30 22 -49t55.5 -25.5t72 -14.5t71.5 -16.5t55 -31t22 -58.5v-5.5t-0.5 -6.5t-0.5 -6t-1.5 -7.5
t-2 -8.5t-2.5 -10.5t-3.5 -12.5t-4.5 -16t-5 -19q53 18 128 59t172 107.5t217 171t239 227.5q-15 -4 -37 -10t-32.5 -8.5t-26 -6.5t-23.5 -6t-18 -4t-17.5 -2.5t-14.5 -0.5q-13 0 -20 8.5t-7 19.5q0 8 3 14.5t9.5 11t15.5 5.5q25 0 243 61q64 70 107 124q4 6 11 18
q14 24 21 34.5t16.5 23t16.5 17t15 4.5q12 0 21.5 -9.5t9.5 -23.5q0 -12 -8 -27t-14.5 -23.5t-22 -26t-16.5 -18.5q-19 -31 -35 -60q111 31 172.5 46t80.5 18t37 3q16 0 23 -9.5t7 -20.5q0 -12 -7.5 -20.5t-20.5 -8.5z" />
    <glyph glyph-name="ss.liga" unicode="ss" horiz-adv-x="1075" 
d="M1111 235.5q0 -11.5 -41 -43t-100.5 -65.5t-136.5 -60.5t-139 -26.5q-34 0 -64 8t-47.5 20.5t-17.5 25.5q0 12 9.5 22t21.5 10q6 0 24.5 -10.5t31.5 -10.5q5 0 11 1t16.5 4t17 12.5t6.5 23.5q0 10 -3.5 24.5t-9.5 32t-12 37.5t-12 44.5t-10 47.5q-207 -127 -436 -214
q-5 -20 -18.5 -36t-35 -25.5t-47.5 -9.5q-32 0 -62.5 14t-30.5 34q0 10 3 15.5t13.5 10.5t23 8t40.5 11.5t55 18.5q-3 15 -19.5 59t-17.5 70q-53 -39 -81 -58t-32.5 -21t-9.5 -2q-12 0 -20 9.5t-8 21.5q0 5 1 8t2.5 6t6.5 7t11 8t17.5 12t24.5 17t34 24.5t44 32.5
q6 4 27 21.5t34 25.5t22 8q8 0 15.5 -3.5t12 -10.5t4.5 -14q0 -9 -11.5 -22.5t-23 -31.5t-11.5 -37q0 -18 14.5 -54.5t19.5 -55.5q228 88 436 219v1q0 8 1 15.5t5 25t11 30t22 23t34 10.5q26 0 54.5 -18t28.5 -36q0 -14 -14.5 -26t-84.5 -58q2 -51 26.5 -121t24.5 -103
q0 -21 -7 -37q56 11 116.5 38.5t100.5 54t71.5 47.5t36.5 21q13 0 22.5 -9t9.5 -20.5z" />
    <glyph glyph-name="sh.liga" unicode="sh" horiz-adv-x="1719" 
d="M1754 248q0 -16 -13 -25q-64 -48 -123 -78t-118 -30q-38 0 -69.5 13t-52.5 34t-39 48t-29.5 55t-24 55t-22.5 48.5t-23.5 34t-28.5 12.5q-27 0 -100.5 -45.5t-166.5 -126t-158 -160.5q-8 -10 -18 -10q-12 0 -21.5 10.5t-9.5 23.5q0 6 4.5 32.5t17.5 83t33 124t55.5 163
t80.5 190.5q-359 -358 -708 -563v-6q0 -42 -30 -67.5t-73 -25.5q-31 0 -62 14t-31 33q0 9 2.5 14.5t13 11.5t22.5 11.5t38.5 18t54.5 27.5q-4 12 -13.5 35.5t-14.5 41t-5 34.5q-53 -39 -81 -58t-32.5 -21t-9.5 -2q-12 0 -20 9.5t-8 21.5q0 5 1 8t2.5 6t6.5 7t11 8t17.5 12
t24.5 17t34 24.5t44 32.5q7 5 21 17t23.5 19t20.5 13t18 6q12 0 22 -8.5t10 -19.5q0 -9 -11.5 -22.5t-23 -31.5t-11.5 -37q0 -9 2.5 -19t5 -17.5t8.5 -22t9 -24.5q34 20 63 37.5t119 80.5t175.5 132.5t212 187t248.5 250.5q48 80 84.5 116t66.5 36q13 0 20 -8.5t7 -20.5
q0 -8 -4 -15t-31.5 -38.5t-95.5 -105.5q-84 -138 -156.5 -328.5t-100.5 -318.5q21 23 65 62t106 89t124.5 85.5t100.5 35.5q31 0 55 -16.5t39.5 -43t29 -58.5t27.5 -64.5t31.5 -59t45 -43t63.5 -16.5t76 16.5t68 36.5t52 36.5t30 16.5q11 0 19 -9.5t8 -21.5z" />
    <glyph glyph-name="sk.liga" unicode="sk" horiz-adv-x="1387" 
d="M1420 248q0 -13 -31.5 -38.5t-79 -51t-113.5 -44.5t-125 -19q-44 0 -84.5 9t-77 24.5t-70.5 32t-79.5 36t-89.5 33.5q-10 -36 -18 -68.5t-13 -55t-9 -42.5t-6 -32.5t-4.5 -23t-4.5 -16t-5 -9.5t-7 -5t-10 -1q-12 0 -22.5 9t-10.5 22q0 4 4 26t11 55t18.5 79t24.5 90
q-2 5 -2 11q0 15 12 22q54 176 138 364q-250 -309 -546 -508q1 -9 1 -16q0 -42 -30 -67.5t-73 -25.5q-28 0 -60.5 13t-32.5 36q0 8 2 12t5.5 7.5t13.5 9t22.5 11.5t36 18.5t49.5 28.5q-3 9 -12.5 32.5t-14 39.5t-4.5 33q-53 -39 -81 -58t-32.5 -21t-9.5 -2q-8 0 -14.5 4.5
t-10 11.5t-3.5 15q0 5 1 8t2.5 6t6.5 7t11 8t17.5 12t24.5 17t34 24.5t44 32.5q6 4 27 21.5t34 25.5t22 8q12 0 22 -8.5t10 -19.5q0 -9 -11.5 -22.5t-23 -31.5t-11.5 -37q0 -8 2 -18t4 -16t8 -20t8 -20q382 255 715 757q31 56 41 68.5t22 12.5t21 -8.5t9 -20.5
q0 -15 -40 -78q-182 -329 -275 -617q133 54 199 79.5t72.5 27t13.5 1.5q13 0 20.5 -8t9 -14t1.5 -9q0 -8 -4.5 -15t-12 -11t-15.5 -4h-3q-46 -15 -246 -96q43 -16 94 -39.5t82.5 -39t74.5 -27.5t88 -12q60 0 121 20t99.5 43.5t68 43t34.5 19.5q11 0 18.5 -9.5t7.5 -21.5z
" />
    <glyph glyph-name="tk.liga" unicode="tk" horiz-adv-x="1499" 
d="M1533 248q0 -13 -31.5 -38.5t-79.5 -51t-114 -44.5t-125 -19q-37 0 -72.5 6.5t-63.5 17t-61 25.5t-61.5 29t-67.5 30t-77 27q-25 -95 -43 -193q-8 -41 -12.5 -50.5t-18.5 -9.5q-13 0 -23 9t-10 22q0 3 5 33t19 94t31 130v4q0 11 6 17q52 188 130 375q-49 -57 -118.5 -135
t-172.5 -185.5t-194.5 -194t-176.5 -148t-126 -61.5q-49 0 -82.5 43.5t-33.5 123.5q0 30 3.5 53t19 77t58 145t109.5 218q-148 -41 -187 -50.5t-60 -9.5q-13 0 -20 8.5t-7 19.5q0 12 7.5 21t20.5 10q25 0 285 72q55 98 85.5 146t40 56t19.5 8q5 0 11 -1.5t13 -11t7 -25.5
t-6 -36.5t-12.5 -33.5t-19 -37.5t-15.5 -30.5q95 26 147.5 38t67.5 14t32 2q16 0 23 -9t7 -20q0 -12 -7.5 -20.5t-20.5 -8.5h-0.5h-1.5q-16 0 -33.5 -3t-77 -18t-172.5 -45q-39 -76 -97.5 -177.5t-97 -165.5t-41.5 -67q-20 -60 -20 -122q0 -29 5 -50t11.5 -30.5t15.5 -15
t13.5 -6.5t10.5 -1q37 0 126 70.5t194.5 176.5t217.5 227.5t200.5 225t139.5 167.5q89 178 147 178q23 0 23 -29q0 -25 -110 -167q-15 -29 -34 -68t-50 -109t-64.5 -162.5t-61.5 -188.5q270 110 290 110q8 0 14.5 -3t9.5 -7t4.5 -9t2 -8t0.5 -4q0 -8 -4.5 -15t-12 -11
t-14.5 -4h-3q-46 -14 -247 -96q44 -16 94.5 -39.5t82 -39t75 -27.5t87.5 -12q60 0 121.5 20t99.5 43.5t68 43t34 19.5q11 0 19 -9.5t8 -21.5z" />
    <glyph glyph-name="tz.liga" unicode="tz" horiz-adv-x="1504" 
d="M1528 228q0 -13 -32 -37t-80.5 -48t-118 -41.5t-134.5 -17.5q-76 0 -217 34.5t-215 34.5q-13 0 -25 -0.5t-18.5 -1t-7.5 -0.5q-11 0 -19 9.5t-8 20.5q0 5 5.5 14t13.5 19t22 24l26.5 26.5t30.5 31t32 32.5q-27 -8 -51.5 -15t-34 -9t-23.5 -7t-16.5 -5.5t-16 -9t-19 -13.5
t-28 -22t-41.5 -31q-2 -2 -29 -22.5t-38.5 -29t-43 -31t-50 -35t-51.5 -33t-56 -33t-54.5 -27.5t-56 -23.5t-51.5 -14.5t-50 -6q-26 0 -46.5 7.5t-33 17.5t-21 26t-12.5 26.5t-6 26.5t-2 18.5v10.5q0 132 197 503q-106 -30 -147 -40.5t-63 -15t-37 -4.5q-13 0 -20 8.5
t-7 19.5q0 12 7.5 21t20.5 10q25 0 285 72q32 58 54 95.5t37 61t25 35t16 15t13 3.5q5 0 11 -1.5t13 -11t7 -25.5t-6 -36.5t-12.5 -33.5t-19 -37.5t-15.5 -30.5q95 26 147.5 38t67.5 14t32 2q16 0 23 -9t7 -20q0 -12 -7.5 -20.5t-20.5 -8.5h-0.5h-1.5q-16 0 -33.5 -3
t-77 -18t-172.5 -45q-39 -76 -98 -178.5t-97 -165t-40 -65.5q-30 -84 -30 -129q0 -35 13.5 -55t52.5 -20q40 0 97.5 23.5t115 59t117.5 77.5t107 78.5t82.5 63t43.5 28.5q1 1 123 35.5l122 34.5q12 0 20 -9t8 -21v-1q0 -8 -6.5 -16.5t-45.5 -48.5q-17 -18 -28.5 -29.5
t-34 -34.5t-45.5 -47q72 -3 210.5 -37t212.5 -34q62 0 124 18.5t99.5 40.5t67 40.5t34.5 18.5q11 0 19.5 -9.5t8.5 -21.5z" />
    <glyph glyph-name="wh.liga" unicode="wh" horiz-adv-x="2116" 
d="M2151 248q0 -16 -13 -25q-64 -48 -123 -78t-118 -30q-38 0 -69.5 13t-52.5 34t-39 48t-30 55t-24 55t-22 48.5t-23.5 34t-28.5 12.5q-13 0 -40 -12.5t-62.5 -34.5t-78 -54t-84.5 -68t-84.5 -79t-75.5 -84q-8 -10 -18 -10q-12 0 -21.5 10.5t-9.5 23.5q0 6 4.5 32.5
t17.5 84t33 125.5t56.5 164t81.5 191q-442 -437 -680 -437q-121 0 -175 109q-93 -190 -141.5 -266t-87.5 -76q-23 0 -43 20.5t-33 58.5t-13 85q0 23 3 50q-30 -38 -60 -79t-45.5 -63.5t-30.5 -41.5t-25 -27t-19 -8q-5 0 -11 2t-13 11.5t-7 26.5q0 23 16.5 62t45.5 110
t50 150q6 21 27 21q12 0 21.5 -8t9.5 -20q0 -25 -54 -164q86 113 105 134t35 21q8 0 15.5 -5t11 -12.5t3.5 -16.5q0 -4 -9.5 -54t-9.5 -89q0 -67 30 -102q23 23 48.5 62.5t46.5 81t42.5 85.5t38.5 77.5t32 55.5t25 22q13 0 22 -11.5t14 -29t14 -37.5t21.5 -37t38 -28.5
t60.5 -11.5q37 0 84 14.5t118 53.5t153 99.5t191.5 161.5t228.5 231q48 81 84.5 116.5t66.5 35.5q13 0 20 -8.5t7 -20.5q0 -7 -1 -10t-13.5 -18.5t-37.5 -43.5t-77 -84q-85 -139 -158 -330.5t-101 -319.5q21 23 65 62t105.5 89t124.5 85.5t101 35.5q27 0 49.5 -13t36.5 -34
t27.5 -48t23.5 -55.5t24.5 -55.5t30.5 -48t41.5 -34t57.5 -13q29 0 61 11t57.5 26.5t48 31t38 26.5t21.5 11q11 0 19 -9.5t8 -21.5z" />
    <glyph glyph-name="wk.liga" unicode="wk" horiz-adv-x="1791" 
d="M1825 248q0 -10 -19.5 -28.5t-55 -39.5t-78.5 -40t-95.5 -31.5t-100.5 -12.5q-54 0 -106 14.5t-89.5 33t-95.5 44.5t-110 42q-10 -35 -18.5 -67.5t-13 -55t-9 -43t-6.5 -33t-4.5 -23t-4 -16t-4.5 -9t-7 -4.5t-10 -1q-13 0 -23 8.5t-10 22.5q0 6 6.5 40t20.5 94t30 117
q-1 5 -1 10q0 14 10 21q46 152 116 316q-126 -120 -262 -183.5t-247 -63.5q-94 0 -152 46l-32 -64q-46 -90 -67.5 -130.5t-51 -89.5t-50.5 -66.5t-41 -17.5q-35 0 -62 47t-27 117q0 23 3 50q-30 -38 -60 -79t-45.5 -63t-30.5 -41.5t-25 -27.5t-19 -8q-5 0 -11 2t-13 11.5
t-7 26.5q0 23 16.5 62t45.5 110t50 150q6 21 27 21q8 0 15 -3.5t11.5 -10t4.5 -14.5q0 -25 -54 -164q86 112 105 133.5t35 21.5q13 0 21.5 -10t8.5 -24q0 -4 -9.5 -54t-9.5 -89q0 -67 30 -102q27 28 58 78.5t55.5 101t47 97.5t41.5 76.5t32 29.5q9 0 21.5 -10t25 -22
t42.5 -22.5t72 -10.5q143 0 307.5 105t283.5 266q35 75 62.5 126t42.5 76.5t26.5 38.5t16 14.5t10.5 1.5q12 0 19.5 -10t7.5 -23q0 -14 -18 -55t-50.5 -96.5t-66.5 -101.5q-111 -229 -178 -439q133 54 199 79.5t72 27t14 1.5q14 0 22.5 -10t8.5 -21q0 -9 -5 -16t-12 -11
t-15 -4h-3q-46 -14 -247 -95q44 -16 95 -40t82.5 -39.5t74.5 -27t87 -11.5q61 0 122 19.5t99.5 43.5t68 43.5t34.5 19.5q7 0 13 -4.5t9.5 -12t3.5 -15.5z" />
    <glyph glyph-name="wt.liga" unicode="wt" horiz-adv-x="1796" 
d="M1837 707h-1.5h-1.5q-15 0 -26.5 -1.5t-86.5 -20t-217 -58.5q-218 -397 -218 -524q0 -40 16.5 -57.5t48.5 -17.5q53 0 132 37.5t142.5 82.5t115 82.5t57.5 37.5q11 0 18.5 -9.5t7.5 -21.5q0 -9 -33 -39t-87.5 -67.5t-115.5 -74t-125.5 -61t-109.5 -24.5q-32 0 -56 10
t-37 24t-20.5 33.5t-9.5 34.5t-2 31q0 124 175 459q-109 -103 -222.5 -175t-220.5 -107t-205 -35q-59 0 -111.5 15t-97.5 47.5t-71 79.5q-94 -192 -143 -268.5t-88 -76.5q-23 0 -43 20.5t-33 58.5t-13 85q0 23 3 50q-30 -38 -60 -79t-45.5 -63t-30.5 -41.5t-25 -27.5t-19 -8
q-5 0 -11 2t-13 11.5t-7 26.5q0 23 16.5 62t45.5 110t50 150q6 21 27 21q12 0 21.5 -8t9.5 -20q0 -25 -54 -164q103 135 119 148q9 7 21 7q13 0 21.5 -10t8.5 -24q0 -4 -9.5 -54t-9.5 -89q0 -67 30 -102q32 33 71 101t67 128.5t54.5 107.5t40.5 47t22 -10.5t14 -28.5
t15.5 -38t32 -42.5t57.5 -38.5q61 -28 137 -28q44 0 100 12t132 40t168 86.5t181 139.5q-14 -3 -35.5 -9t-32.5 -9t-26 -7t-24.5 -5.5t-20 -3t-19.5 -1.5q-12 0 -19.5 8.5t-7.5 19.5q0 12 7.5 21t21.5 10q24 0 242 61q59 63 112 131l3 6q30 50 44 67t29 17q8 0 15 -4.5
t11.5 -12t4.5 -15.5q0 -13 -8.5 -27t-27.5 -36t-21 -26q-33 -54 -40 -67q85 24 139 38t83.5 20t42 7.5t25.5 1.5q12 0 19 -6t9 -12t2 -12q0 -12 -7 -20.5t-20 -8.5z" />
    <glyph glyph-name="wz.liga" unicode="wz" horiz-adv-x="2121" 
d="M2145 232q0 -13 -31.5 -37t-80.5 -48t-118 -41.5t-134 -17.5q-77 0 -217.5 34.5t-214.5 34.5q-14 0 -25.5 -0.5t-18 -1t-7.5 -0.5q-11 0 -19.5 9.5t-8.5 20.5q0 6 7 16.5t21 26t28 29.5t36.5 37t37.5 38q-114 -34 -126 -34q-5 -4 -26.5 -18t-69.5 -40t-100.5 -48.5
t-122 -39t-131.5 -16.5q-244 0 -350 246q-94 -193 -142.5 -268.5t-87.5 -75.5q-35 0 -62 47t-27 117q0 23 3 50q-30 -38 -60 -79t-45.5 -63t-30.5 -41.5t-25 -27.5t-19 -8q-5 0 -11 2t-13 11.5t-7 26.5q0 23 16.5 62t45.5 110t50 150q6 21 27 21q12 0 21.5 -8t9.5 -20
q0 -25 -54 -164q86 112 105 133.5t35 21.5q13 0 21.5 -10t8.5 -24q0 -4 -9.5 -54t-9.5 -89q0 -67 30 -102q33 33 71.5 101t66.5 129t54.5 107.5t40.5 46.5q12 0 22.5 -16t21.5 -42t25 -57t37.5 -62t54 -56.5t80 -41.5t110.5 -16q70 0 148.5 24t130.5 52t97.5 55t51.5 29
q17 6 77.5 23t113.5 32t55 15q11 0 19 -9t8 -21v-1q0 -9 -6.5 -17t-45.5 -48q-17 -17 -28 -29t-33.5 -35t-45.5 -47q71 -3 210 -37t212 -34q51 0 101 12t86.5 29.5t66 35t48 29.5t24.5 12q7 0 13.5 -4.5t10 -11.5t3.5 -15z" />
    <glyph glyph-name="zz.liga" unicode="zz" horiz-adv-x="1747" 
d="M1771 233q0 -13 -32 -37t-80.5 -48t-118 -41.5t-134.5 -17.5q-76 0 -217 34.5t-215 34.5q-13 0 -25 -0.5t-18.5 -1t-7.5 -0.5q-11 0 -19 9.5t-8 20.5q0 6 7 16.5t21 26t27.5 29.5t36.5 37l38 38q-117 -35 -126 -35h-1q0 1 4 4q-1 0 -16 -12.5t-37 -30t-56 -40.5
t-71.5 -46t-84 -45.5t-92.5 -39.5t-98.5 -28t-101.5 -11q-36 0 -70 6.5t-60.5 16.5t-49.5 23.5t-39 27t-28 26t-17.5 22.5t-5.5 16t6.5 16t21 25.5t28 29.5t35.5 36t36 37q-110 -34 -135 -34q-14 0 -22.5 10t-8.5 22q0 21 21 25q29 5 64.5 14.5t65 19t55.5 18t43 13.5t21 5
q12 0 20 -9t8 -21q0 -9 -6.5 -17t-37.5 -40q-73 -74 -146 -151q83 -80 204 -80q53 0 108 12.5t102.5 34t92.5 47t84 52t71.5 49.5t60 39.5t44.5 20.5q49 13 102 29t81 25t32 9q12 0 20 -9t8 -21v-1q0 -8 -6.5 -16.5t-45.5 -48.5q-17 -18 -28.5 -29.5t-34 -34.5t-44.5 -47
q71 -3 209.5 -37t212.5 -34q62 0 124 18.5t99.5 40.5t67 40.5t34.5 18.5q12 0 20 -9.5t8 -21.5z" />
    <glyph glyph-name="Ab.liga" unicode="Ab" horiz-adv-x="2047" 
d="M2036 258q11 0 19.5 -9.5t8.5 -21.5q0 -17 -51.5 -49.5t-133.5 -60t-152 -27.5q-116 0 -224 67q-8 -54 -37 -115t-69 -104t-75 -43q-7 0 -15 2.5t-18.5 10t-18.5 20t-14 34.5t-6 50v1q0 16 0.5 36t11.5 80t31.5 122t65.5 155t108 186q-192 -100 -439 -168
q-47 -130 -81 -218t-52.5 -132.5t-31 -67t-16.5 -25t-10 -2.5q-1 1 -2 1q-12 0 -21.5 7.5t-9.5 19.5q0 7 3.5 17t15 36.5t27 63t45 112.5t64.5 169q-248 -62 -533 -96q-39 -64 -65.5 -120t-36 -85.5t-16.5 -52t-13.5 -29.5t-19.5 -7q-12 0 -21.5 7.5t-9.5 19.5q0 9 11 43
t37.5 95.5t59.5 120.5q-67 -7 -136 -11.5t-101 -6.5t-37 -2q-13 0 -20 8.5t-7 20.5q0 21 14 25.5t80 8.5q36 2 61 3.5t77.5 6t106.5 10.5q99 159 234 315.5t261 257.5t194 101q40 0 59 -29.5t19 -77.5q0 -22 -5 -61.5t-30.5 -146t-68.5 -231.5q297 89 497 215
q78 99 162.5 179.5t132.5 80.5q10 0 17.5 -5.5t11 -13t3.5 -15.5q0 -14 -31.5 -54t-101.5 -101.5t-156 -115.5q-214 -272 -268 -539q-13 -61 -13 -98q0 -24 4.5 -42t7.5 -23.5t6 -6.5q17 4 45.5 42.5t52.5 96.5t24 105q-51 44 -51 86q0 19 9 34t25 15q8 0 18 -4.5
t21.5 -15.5t21 -33t13.5 -52q31 -23 66 -40t58.5 -24t51.5 -10.5t33 -3.5h15q54 0 111 17t94.5 37.5t67.5 37.5t35 17zM983 473q113 317 113 468q0 6 -0.5 11t-1 9t-1.5 6.5t-1.5 4.5t-2.5 3.5t-3 2t-3 1t-3 0.5h-3.5h-2.5q-30 0 -95.5 -45.5t-148 -122t-181.5 -194
t-183 -244.5q279 35 517 100zM1326 -48l1 1h-2z" />
    <glyph glyph-name="Abb.liga" unicode="Abb" horiz-adv-x="2688" 
d="M2678 259q12 0 20 -9.5t8 -21.5q0 -17 -51.5 -49.5t-133.5 -60t-151 -27.5q-117 0 -225 67q-8 -53 -37 -114.5t-68.5 -105t-73.5 -43.5q-31 0 -52 31.5t-21 89.5q0 90 28.5 204.5t84.5 234.5q-354 -322 -515 -322q-22 0 -41 5q-4 -15 -13.5 -36.5t-25 -49.5t-33 -50.5
t-40 -38.5t-44.5 -16q-16 0 -31 9t-25.5 30t-10.5 48q0 7 3.5 35t17.5 90.5t35.5 131t64.5 159t99 172.5q-187 -94 -420 -159q-47 -130 -81 -218.5t-52.5 -132.5t-31 -66.5t-16.5 -25t-10 -2.5q-1 1 -2 1q-12 0 -21.5 7.5t-9.5 19.5q0 5 2 11.5t7 19t12.5 29t20 47
t27.5 67.5t38 96.5t48 127.5q-247 -62 -533 -96q-33 -54 -57 -102.5t-35 -78t-19 -54t-12 -36t-10.5 -17.5t-17.5 -6q-12 0 -21.5 7.5t-9.5 19.5q0 9 11 43t37.5 95.5t59.5 120.5q-67 -7 -136 -11.5t-101 -6.5t-37 -2q-13 0 -20 8.5t-7 20.5q0 21 14 25.5t80 8.5
q127 7 245 20q99 159 234 315.5t261 257.5t194 101q40 0 59 -29.5t19 -77.5q0 -22 -5 -61.5t-30.5 -146t-68.5 -231.5q286 86 481 205q57 67 128 130.5t121 97.5t65 34q12 0 21 -9q8 -8 8 -19q0 -26 -91.5 -115t-211.5 -163q-65 -78 -118 -168.5t-83.5 -165.5t-51 -146
t-28 -113.5t-7.5 -64.5q0 -5 1 -11t4 -11.5t8 -6.5q21 4 54 61t46 107q-16 19 -26 49t-11.5 45t-1.5 26q0 53 33 53q31 0 51.5 -38.5t20.5 -86.5q0 -12 -1 -25q11 -5 28 -5q166 0 604 429q59 97 120 175.5t107 123t87 75t64 41t34 10.5q8 0 14.5 -5t10 -12t3.5 -15
q0 -21 -126 -156t-273 -279q-37 -62 -67.5 -126t-49.5 -115.5t-33 -101.5t-21 -84.5t-11 -65t-4.5 -42t-0.5 -16.5q0 -56 19 -73q19 5 48 46.5t51 98t22 99.5q-51 44 -51 88q0 12 3.5 22.5t11.5 18t19 7.5q28 0 48.5 -32.5t25.5 -73.5q31 -23 66 -40t58.5 -24t52 -10.5
t33.5 -4t14 -0.5q44 0 90 11.5t81.5 27.5t64.5 32.5t48 27.5t24 11zM982 512q113 317 113 468q0 19 -6.5 28.5t-15.5 9.5q-31 0 -97 -46.5t-148.5 -123.5t-181 -193.5t-181.5 -242.5q279 35 517 100zM1299 5v0v0z" />
    <glyph glyph-name="Af.liga" unicode="Af" horiz-adv-x="1684" 
d="M1691 275q11 0 19.5 -9.5t8.5 -21.5q0 -18 -43.5 -45.5t-109.5 -50t-120 -22.5q-59 0 -110 23q-3 -110 -26.5 -219.5t-57 -177.5t-62.5 -68q-11 0 -19 9t-12.5 22.5t-7.5 30.5t-4 30.5t-1 25.5q0 125 78 363.5t188 499.5q-156 -111 -388 -199q-50 -141 -87 -238.5
t-57 -145t-33.5 -72t-18 -27.5t-9.5 -2l-2 1q-13 0 -22 7.5t-9 19.5q0 10 12 38t56 135t98 258q-205 -71 -556 -147q-35 -60 -59.5 -113t-33 -80.5t-15 -48.5t-13 -27.5t-19.5 -6.5q-12 0 -21 7.5t-9 19.5q0 8 9.5 38.5t32.5 85.5t51 108q-138 -29 -219 -47q-18 -4 -20 -4
h-1q-8 0 -15 5t-10.5 12t-3.5 15q0 17 19 23.5t128 29.5q28 6 46 9.5t50.5 10.5t63.5 14q97 160 235 322t268.5 268t200.5 106q40 0 58.5 -29.5t18.5 -77.5q0 -26 -6.5 -72t-28 -135t-54.5 -188q259 104 412 239q58 133 103 226t69.5 138t43 69t24 27t13.5 3h1q3 0 7 -1
t10.5 -4t10.5 -11.5t4 -20.5q0 -22 -5 -52.5t-20.5 -80.5t-39.5 -100.5t-69.5 -112t-103.5 -114.5q-120 -270 -191 -476q15 -16 18 -51q45 -32 112 -32q42 0 86.5 14.5t74 31.5t53.5 31t29 14zM1655 1053q-27 -52 -58 -117q36 57 58 117zM978 511q100 289 100 432
q0 6 -0.5 11t-1 9t-1.5 6.5t-2 4.5t-2.5 3.5t-2.5 2t-3 1t-3 0.5h-3.5h-3.5q-31 0 -100 -49t-154 -129.5t-183.5 -199t-178.5 -242.5q326 72 539 150zM1204 -212l8 18t16 45.5t21 74t17.5 96.5t10.5 119q-73 -241 -73 -353z" />
    <glyph glyph-name="Ah.liga" unicode="Ah" horiz-adv-x="2220" 
d="M2227 273q11 0 18.5 -10t7.5 -22q0 -15 -12 -25q-64 -48 -123.5 -78t-118.5 -30q-43 0 -77.5 17t-56.5 43.5t-40 58.5t-31 64t-24.5 58.5t-26.5 43t-33 16.5q-26 0 -99.5 -46t-167 -126t-157.5 -161q-8 -10 -19 -10t-20.5 11t-9.5 24q0 6 5 36.5t20.5 94.5t38 138.5
t64 178t91.5 204.5q-170 -124 -415 -222q-38 -113 -87 -239t-81.5 -203.5t-33.5 -82.5q-6 -20 -27 -20q-12 0 -21.5 7.5t-9.5 19.5q0 10 18 51t66.5 161.5t103.5 277.5q-179 -66 -519 -156q-22 -6 -34 -9q-43 -69 -72.5 -129t-40 -92t-18 -56t-14 -32t-19.5 -8
q-12 0 -21.5 7.5t-9.5 19.5q0 8 10.5 42t38.5 98.5t64 127.5q-64 -18 -111.5 -33t-70.5 -23.5t-37.5 -15t-18 -10t-7 -4.5t-9.5 -1q-13 0 -21.5 9.5t-8.5 21.5q0 25 72.5 52t255.5 77q99 154 230.5 305.5t255.5 250.5t192 99q40 0 58.5 -29.5t18.5 -77.5q0 -37 -16 -126
t-53 -207q289 122 465 283q88 144 145 144q12 0 20.5 -9.5t8.5 -21.5q0 -11 -33.5 -50t-58.5 -63.5t-35 -34.5q-80 -130 -155.5 -322t-107.5 -334q22 22 65.5 61t105.5 89.5t125 86t100 35.5q28 0 50 -13t36 -34.5t27.5 -48.5t24 -55t25 -55t30.5 -48.5t41.5 -34t57.5 -12.5
q35 0 75.5 16.5t68.5 36.5t51.5 36.5t30.5 16.5zM993 576q80 243 80 371q0 6 -0.5 11t-1 9t-1.5 6.5t-2 4.5t-2.5 3.5t-2.5 2t-3 1t-3 0.5h-3.5h-2.5q-30 0 -92 -42.5t-141 -115t-174 -183t-179 -232.5q348 94 528 164z" />
    <glyph glyph-name="Ahh.liga" unicode="Ahh" horiz-adv-x="3182" 
d="M3189 274q11 0 19 -10t8 -22q0 -15 -13 -25q-64 -48 -123 -78t-118 -30q-43 0 -77.5 17t-57 43.5t-40 58.5t-30.5 64t-25 58.5t-27 43t-32 16.5q-27 0 -100.5 -46t-166.5 -126t-158 -161q-7 -10 -18 -10q-12 0 -21.5 10t-9.5 23q0 6 12 59.5t44.5 164.5t74.5 220
q-150 -185 -253 -282t-170 -97q-28 0 -50 18t-35 45t-26 59t-23.5 59t-26.5 45t-36 18q-27 0 -99.5 -45.5t-165 -125.5t-158.5 -161q-7 -9 -18 -9q-12 0 -22 9t-10 21q0 8 37 128.5t103 305.5t125 310q-181 -136 -443 -253q-21 -67 -51 -150t-58.5 -155.5t-53.5 -135
t-41 -101.5t-16 -40q-6 -20 -27 -20q-12 0 -21.5 7.5t-9.5 19.5q0 9 26 70.5t79 195t101 277.5q-192 -80 -559 -200q-47 -72 -78.5 -135.5t-43 -97.5t-20 -59.5t-14.5 -34t-20 -8.5q-12 0 -21.5 7.5t-9.5 19.5q0 5 4 20t13.5 42t23 59t34.5 74.5t45 84.5q-64 -21 -113 -39
t-73 -27.5t-39.5 -17t-20 -10.5t-7.5 -4t-8 -1q-8 0 -15 4.5t-11 11.5t-4 15q0 14 19 27t92 40.5t228 77.5q101 154 230 301t250 242.5t187 95.5q40 0 58.5 -29.5t18.5 -77.5q0 -46 -16.5 -127t-34.5 -147q312 145 493 314q94 149 151 149q11 0 19 -9.5t8 -20.5
q0 -12 -42 -60.5t-85 -89.5q-141 -233 -294 -732q44 43 110.5 98t147 105t122.5 50q30 0 55 -17.5t42 -47t30 -59.5t26.5 -62.5t25.5 -48.5q8 -10 16 -10q11 0 24 4.5t53 33.5t91 80t141.5 158t201.5 253q6 13 12.5 26.5t30.5 59.5t46 84.5t54.5 87.5t61 83.5t60 58.5
t56.5 24q11 0 19.5 -9.5t8.5 -21.5q0 -10 -111 -165.5t-187 -256.5q-119 -256 -186 -519q21 22 64 59.5t104 87t122.5 84t98.5 34.5q27 0 49.5 -13t36.5 -34.5t27.5 -48.5t23.5 -55t24.5 -55t30.5 -48.5t41.5 -34t57.5 -12.5q36 0 76 16.5t68 36.5t52 36.5t30 16.5z
M1011 632q62 204 62 316q0 6 -0.5 11t-1 9t-1.5 6.5t-2 4.5t-2.5 3.5t-2.5 2t-3 1t-3 0.5h-3.5h-2.5q-15 0 -47.5 -16.5t-87.5 -58.5t-119 -101.5t-148 -157.5t-167 -215q338 111 529 195z" />
    <glyph glyph-name="Ak.liga" unicode="Ak" horiz-adv-x="2031" 
d="M2037 268q10 0 18 -10t8 -22q0 -13 -31.5 -38t-79 -51t-113.5 -45t-125 -19q-54 0 -106 14.5t-90 33.5t-96 45t-110 42q-27 -98 -45 -196q-7 -38 -12 -47.5t-19 -9.5q-13 0 -23 9t-10 23q0 6 6.5 40t20 94.5t30.5 117.5q-2 4 -2 9q0 13 10 20q56 192 149 397
q-160 -124 -405 -229q-49 -135 -84.5 -228.5t-55 -139.5t-32.5 -69.5t-17 -26.5t-10 -2q-1 1 -2 1q-12 0 -21.5 7.5t-9.5 19.5q0 7 4 17.5t15.5 37.5t27.5 64.5t46 115t65 173.5q-161 -64 -314.5 -104.5t-254.5 -58.5q-25 -45 -42.5 -84.5t-26 -63t-14.5 -43t-9.5 -28.5
t-9.5 -13.5t-16 -4.5q-12 0 -21.5 7.5t-9.5 19.5q0 7 8.5 33.5t26.5 73t41 91.5q-118 -17 -218 -17q-9 0 -15.5 4t-9.5 10.5t-3 14.5q0 9 1.5 13.5t6 8t10.5 5t18 2.5t26 1t36.5 1.5t47 4t60.5 7t75 11.5q92 162 235.5 334t280.5 285t208 113q40 0 58.5 -29.5t18.5 -77.5
q0 -46 -21.5 -153.5t-72.5 -256.5q301 138 447 296q29 59 48 95t34 61.5t25.5 37t18.5 16t18 4.5q11 0 18 -7.5t7 -24.5q0 -29 -36 -96.5t-87 -123.5q-119 -240 -192 -471q133 54 199.5 79t72.5 26.5t13 1.5q13 0 21 -8t9 -13.5t1 -9.5q0 -12 -9.5 -21t-21.5 -9h-3
q-46 -14 -247 -95q50 -18 117 -51.5t116.5 -50t105.5 -16.5q60 0 121.5 19.5t100 43t68 43.5t34.5 20zM965 490q107 304 107 452q0 6 -0.5 11t-1 9t-1.5 6.5t-2 4.5t-2.5 3.5t-2.5 2t-3 1t-3 0.5h-3.5h-2.5q-34 0 -109.5 -55t-165 -143t-190 -212t-177.5 -249
q300 60 557 169z" />
    <glyph glyph-name="Akk.liga" unicode="Akk" horiz-adv-x="2828" 
d="M2834 268q7 0 13.5 -4.5t10 -12t3.5 -15.5q0 -13 -31.5 -38t-79.5 -51t-114 -45t-125 -19q-54 0 -106 15t-90 34t-96 45t-111 42q-25 -97 -43 -194q-8 -41 -12.5 -50.5t-19.5 -9.5q-12 0 -22 9t-10 23q0 3 5 33t19 93.5t31 128.5v6q0 11 7 18q49 172 122 354
q-79 -108 -156.5 -194.5t-136.5 -140t-118.5 -92.5t-96.5 -57t-76.5 -28t-53.5 -11t-32 -1q-120 0 -216 88q-23 -84 -39 -172q-7 -39 -11.5 -48t-19.5 -9q-12 0 -22.5 9t-10.5 23q0 6 6.5 39.5t20.5 93.5t31 117q-2 6 -2 11q0 15 11 21q66 217 166 437q-166 -137 -409 -247
q-170 -481 -202 -489q1 1 -7 1q-12 0 -21.5 7.5t-9.5 19.5q0 10 12.5 37.5t55.5 134t98 257.5q-312 -130 -576 -182q-25 -45 -43 -85t-26 -64l-14.5 -43.5t-10 -28.5t-9.5 -13.5t-16 -4.5q-12 0 -21.5 7.5t-9.5 19.5q0 7 8.5 34t27 73.5t40.5 91.5q-116 -18 -218 -18
q-5 0 -10 1.5t-8 4.5t-5.5 6.5t-3.5 8t-1 8.5q0 19 10 23.5t49 6.5q110 5 224 27q91 160 233.5 330.5t279.5 284.5t209 114q40 0 58.5 -29.5t18.5 -77.5q0 -43 -19.5 -144.5t-65.5 -239.5q309 152 455 318q53 102 80.5 149t35 53t17.5 6q12 0 21 -8t9 -21q0 -10 -9 -37
t-35.5 -75.5t-64.5 -93.5q-143 -277 -224 -530q134 54 199 79t72 26.5t15 1.5t14 -3t9 -7t5 -9t2.5 -7.5t0.5 -4.5q0 -12 -10 -21t-22 -9h-3q-51 -16 -283 -110q81 -81 179 -81q22 0 43 3t68 20t94.5 46.5t119 90.5t145 144t169.5 214.5t195 294.5q82 164 149 263v-2
q1 3 2 5q12 17 27 17q12 0 21 -9.5t9 -21.5q0 -20 -150 -269q-175 -338 -269 -653q133 54 198.5 79.5t74 28t16.5 2.5q13 0 20.5 -8.5t9 -14t1.5 -9.5q0 -12 -9.5 -21t-21.5 -9h-4q-45 -14 -246 -95q50 -18 117 -51.5t116 -50t106 -16.5q60 0 121 19.5t99.5 43t68.5 43.5
t34 20zM973 513q99 286 99 429q0 6 -0.5 11t-1 9t-1.5 6.5t-2 4.5t-2.5 3.5t-2.5 2t-3 1t-3 0.5h-3.5h-2.5q-34 0 -109 -54.5t-164 -141.5t-189 -210.5t-177 -247.5q299 68 562 187zM2495 1244v-1l-1.5 -1.5t-0.5 -1.5q1 4 2 4z" />
    <glyph glyph-name="Ai.liga" unicode="Ai" horiz-adv-x="1964" 
d="M1402 596q-12 0 -20.5 9t-8.5 21q0 7 3.5 13.5t10.5 11t15 4.5h2q5 0 9.5 -2t8 -4.5t6 -6.5t4 -8.5t1.5 -9.5q0 -10 -8 -19t-21 -9h-2zM1971 273q11 0 19 -9.5t8 -21.5q0 -11 -28 -34.5t-80.5 -51.5t-117 -53t-147.5 -42.5t-161 -17.5q-194 0 -194 197q0 96 46 214
q-158 -18 -316 -38q-46 -126 -78.5 -211t-50.5 -128t-30 -64t-16 -24t-10 -3q-2 1 -3 1q-12 0 -21 7.5t-9 19.5q0 7 3.5 17t14.5 36t26.5 62t44.5 111t63 167q-318 -43 -527 -84q-34 -56 -58.5 -105.5t-36 -79.5t-19.5 -55t-12 -37t-10.5 -18t-18.5 -6t-21 7.5t-9 19.5
q0 9 10.5 42.5t37 94.5t59.5 120q-85 -19 -139.5 -35t-69.5 -24t-23.5 -12.5t-16.5 -4.5q-12 0 -20.5 9.5t-8.5 21.5v1q-3 9 5 18t86.5 36t227.5 59q100 161 235.5 316.5t260 254.5t191.5 99q40 0 58.5 -29.5t18.5 -77.5v-10t-2.5 -27.5t-6 -45.5t-12 -64t-19.5 -83.5
t-29.5 -103.5t-41.5 -125q69 9 153.5 18.5t135.5 14.5t53 5q12 0 18.5 -9t6.5 -21q0 -7 -5 -20q-57 -138 -57 -233q0 -39 10.5 -66t29.5 -40.5t39 -19t46 -5.5q91 0 175 17.5t141 42.5t100.5 50t69.5 42.5t32 17.5zM958 471q116 324 116 477q0 6 -0.5 11t-1 9t-1.5 6.5
t-2 4.5t-2.5 3.5t-2.5 2t-3.5 1t-3 0.5h-3h-3.5q-29 0 -92.5 -44t-144.5 -118.5t-179 -189.5t-184 -243q226 44 507 80z" />
    <glyph glyph-name="Aj.liga" unicode="Aj" horiz-adv-x="1747" 
d="M1385 587q-7 0 -14 3.5t-11.5 10t-4.5 14.5q0 18 15 26q2 2 5.5 4t5.5 3.5t5 3.5t5.5 3t6.5 1.5t8 0.5q14 0 22 -8.5t8 -19.5q0 -10 -5.5 -17t-10 -9t-7.5 -3q-2 -1 -8 -5.5t-10 -6t-10 -1.5zM1750 268q9 0 16 -5t11 -12.5t4 -15.5q0 -15 -12.5 -21t-48.5 -13t-85 -18
t-141 -44.5t-198 -84.5q-53 -114 -129 -222t-150.5 -185.5t-149 -140t-129.5 -97t-89 -45.5q-4 -2 -39.5 -15t-59.5 -18.5t-46 -5.5t-40 7t-31.5 24.5t-13.5 42.5q0 62 67.5 150t181 181.5t266 190t318.5 177.5q37 82 65.5 176.5t35.5 171.5q-184 -55 -379 -101
q-41 -109 -70 -181.5t-39 -93.5t-16 -35.5t-11 -31.5q-6 -20 -27 -20q-12 0 -21.5 7.5t-9.5 19.5q0 6 3.5 16t13 32.5t22 52t36.5 89t50 129.5q-321 -72 -547 -94q-25 -48 -42.5 -90.5t-24 -63.5t-12 -37t-11.5 -21t-17 -5q-12 0 -21.5 7.5t-9.5 19.5q0 6 7.5 31t24.5 68
t37 85q-70 -5 -135 -5q-39 0 -76 2q-13 0 -20.5 9t-7.5 21t7 20.5t20 8.5l3 -0.5t7 -0.5h10.5t13.5 -0.5t16.5 -0.5h19.5q81 0 174 8q44 80 115 180.5t156 200t170 182.5t163.5 135t129.5 52q40 0 58.5 -29.5t18.5 -77.5q0 -58 -30 -190.5t-105 -335.5q114 28 209 55.5
t134.5 40t44.5 12.5t10.5 -2.5t9.5 -6t6.5 -9t2.5 -11.5q0 -144 -83 -352q108 48 213.5 81t151 42.5t54.5 9.5zM929 392q143 387 143 552q0 9 -0.5 15.5t-2.5 10.5t-3 7t-4 3.5t-4 1t-4.5 0.5h-3.5q-34 0 -110.5 -56.5t-169.5 -147t-196.5 -220t-180.5 -260.5q253 29 536 94
zM503 -618q33 0 82.5 19.5t110 55t129 91t135 123t132.5 156t117 184.5q-172 -89 -315.5 -185.5t-231 -176.5t-135.5 -144.5t-48 -103.5q0 -19 24 -19z" />
    <glyph glyph-name="Ajj.liga" unicode="Ajj" horiz-adv-x="2144" 
d="M1740 356q-11 0 -20.5 8t-9.5 20q0 18 14 26q3 2 7 4.5t6.5 4.5t6 3.5t8 2.5t9.5 1q14 0 21.5 -9t7.5 -19q0 -11 -6.5 -19t-16.5 -10q-1 -1 -7 -5.5t-10.5 -6t-9.5 -1.5zM1385 634q-11 0 -20.5 8t-9.5 20q0 18 15 26q3 2 8 5.5t8 5.5t8.5 3.5t11.5 1.5q14 0 22 -8.5
t8 -19.5q0 -10 -5.5 -17t-10 -9t-7.5 -3q-2 -1 -8 -5.5t-10 -6t-10 -1.5zM2148 316q13 0 21.5 -10t8.5 -23q0 -15 -13 -21t-49.5 -14t-85.5 -22t-135.5 -56.5t-184.5 -106.5q-63 -135 -136.5 -246t-135 -175t-119 -108t-91.5 -59.5t-50 -15.5q-14 0 -24.5 5.5t-15 11
t-7 15.5t-2.5 12v6q0 23 11 57.5t46.5 93t91 122.5t156 149.5t230.5 171.5q12 27 23 53.5t17 42t12.5 32t7.5 21.5q-207 -52 -435 -161q-51 -87 -153 -210t-215 -236t-225 -192.5t-176 -79.5q-38 0 -61.5 23t-23.5 60q0 47 34.5 104t90.5 113t130 115t150.5 110t155.5 99
t141.5 82t110.5 57q31 56 53.5 114.5t32.5 97t16 77.5t6.5 49.5t0.5 20.5q-185 -56 -383 -103q-41 -108 -70 -180.5t-38.5 -94t-16 -36.5t-11.5 -31q-6 -20 -27 -20q-12 0 -21.5 7.5t-9.5 19.5q0 6 3.5 16t13 32.5t22 52t36.5 89t50 129.5q-321 -72 -547 -94
q-25 -48 -43 -90.5t-24 -63.5t-11.5 -37t-11.5 -21t-17 -5q-12 0 -21.5 7.5t-9.5 19.5q0 6 7.5 31t24.5 68t37 85q-70 -5 -135 -5q-39 0 -76 2q-9 0 -15.5 4.5t-9.5 11.5t-3 14q0 12 7 20.5t20 8.5l9 -0.5t26 -1t35 -0.5q81 0 174 8q44 80 115 180.5t156 200t170 182.5
t163.5 135t129.5 52q40 0 58.5 -29.5t18.5 -77.5q0 -58 -30 -190.5t-105 -335.5q109 27 204.5 54.5t137.5 40.5t46 13q7 0 11.5 -2t8 -5.5t5.5 -9t3 -10t1.5 -11.5t1 -10t0 -9t-0.5 -7q0 -147 -82 -323q86 38 167.5 67.5t135.5 44t87 21.5t43 7q14 0 21.5 -9t7.5 -21
q0 -4 -0.5 -8t-2 -9.5t-3 -10.5t-4.5 -13t-5 -14t-6 -16t-7 -17t-8 -19.5t-9 -21.5q97 58 193.5 97t142.5 50.5t62 11.5zM929 439q143 387 143 552q0 9 -0.5 15.5t-2.5 10.5t-3 7t-4 3.5t-4 1t-4.5 0.5h-3.5q-34 0 -110.5 -56.5t-169.5 -147t-196.5 -220t-180.5 -260.5
q253 29 536 94zM513 -569q34 0 114.5 52t176.5 134t202.5 197t183.5 227q-123 -64 -244 -142.5t-222 -159t-165 -158.5t-67 -134q2 -16 21 -16zM1188 -479q9 2 32 14.5t69 48.5t95 85.5t111.5 136t116.5 191.5q-77 -55 -142.5 -111.5t-107 -100t-75.5 -88t-50.5 -71.5
t-29.5 -55.5t-15 -35t-4 -14.5z" />
    <glyph glyph-name="Al.liga" unicode="Al" horiz-adv-x="1961" 
d="M1966 266q11 0 19 -9.5t8 -21.5q0 -14 -57 -55.5t-135.5 -87t-174.5 -81t-163 -35.5q-37 0 -68 9.5t-50.5 25t-34.5 37t-23 41t-12.5 42t-5.5 36.5t-1 26q0 214 226 505q-233 -158 -487 -266q-168 -437 -196 -452q-12 0 -21.5 7.5t-9.5 19.5q0 7 3.5 17t15 36.5t27 62.5
t44.5 111.5t64 167.5q-276 -108 -566 -152q-28 -52 -48 -97.5t-27 -68.5t-13 -40.5t-11.5 -23t-17.5 -5.5t-21.5 7.5t-9.5 19.5q0 7 8 33.5t26.5 73t41.5 91.5q-142 -17 -219 -17q-13 0 -20 8t-7 20q0 21 12.5 25.5t63.5 7.5q106 6 203 19q91 160 234 332.5t281.5 287.5
t210.5 115q27 0 45 -15t25 -38t7 -54q0 -21 -4.5 -60t-28.5 -141.5t-65 -221.5q336 151 643 397q57 57 101 98t68.5 61t43 31t25 12.5t13.5 1.5q22 0 22 -28v-1q1 -6 -4.5 -15.5t-62 -62t-163.5 -138.5q-55 -55 -104.5 -111t-104 -129.5t-94 -142t-65.5 -145.5t-26 -143
q0 -9 0.5 -17t3.5 -25t8 -31t15.5 -31t24.5 -28.5t37.5 -19t51.5 -7.5q54 0 123.5 24t130.5 58t114.5 68t89 58t41.5 24zM960 476q112 314 112 465q0 6 -0.5 11t-1 9t-1.5 6.5t-2 4.5t-2.5 3.5t-2.5 2t-3 1t-3 0.5h-3.5h-2.5q-35 0 -111.5 -56.5t-167 -145.5t-191 -213.5
t-175.5 -248.5q284 49 555 161z" />
    <glyph glyph-name="All.liga" unicode="All" horiz-adv-x="2748" 
d="M2754 272q11 0 19 -9.5t8 -21.5t-55 -53t-132 -87t-173.5 -81.5t-167.5 -35.5q-41 0 -74 11.5t-53 28t-34.5 40.5t-21.5 43.5t-10.5 42.5t-3.5 31.5v16.5q0 58 17 131q-442 -421 -636 -421q-142 0 -142 205q0 65 15 140.5t43 157t73.5 169t103.5 168.5
q-246 -161 -511 -277q-50 -141 -87.5 -238.5t-57 -145t-33.5 -72t-18.5 -27.5t-9.5 -2q-1 1 -2 1q-12 0 -21.5 7.5t-9.5 19.5q0 7 4 18.5t16.5 40t29 68t48 120t67.5 179.5q-296 -122 -573 -175q-19 -35 -34.5 -67t-24.5 -54.5t-16 -42t-10.5 -32t-7 -22.5t-7 -15t-8.5 -7.5
t-13 -2.5q-12 0 -21.5 7.5t-9.5 19.5q0 7 8.5 34t27.5 75t42 94q-140 -22 -221 -22q-13 0 -20 8t-7 20q0 20 11 24.5t55 8.5q110 7 218 27q93 163 236 333.5t279 282t206 111.5q40 0 58.5 -29.5t18.5 -77.5q0 -44 -20.5 -147.5t-67.5 -245.5q324 149 621 369
q72 78 153 146.5t131 101.5t62 33t21 -9.5t9 -21.5q0 -21 -128.5 -128t-210.5 -167q-39 -43 -79 -94.5t-90.5 -131t-88.5 -160.5t-64.5 -181.5t-26.5 -194.5q0 -140 81 -140q192 0 677 482q50 125 143 270t187 256t178 185.5t120 74.5q22 0 32.5 -14.5t10.5 -32.5
q0 -48 -112 -196.5t-249 -301t-259 -275.5q-48 -120 -48 -212v-17t2.5 -25t7.5 -32t15.5 -31.5t25 -29.5t38.5 -19.5t54 -8.5q56 0 125.5 24t130 58t113 68t87.5 58t41 24zM2713 1161q-34 -22 -89 -74.5t-121 -127.5t-138.5 -177t-126.5 -204q86 91 165 181t140 165.5
t105 137t65 99.5zM971 513q101 291 101 435q0 6 -0.5 11t-1 9t-1.5 6.5t-2 4.5t-2.5 3.5t-2.5 2t-3 1t-3 0.5h-3.5h-2.5q-34 0 -108.5 -54t-163.5 -141t-189 -210t-177 -247q283 60 559 179z" />
    <glyph glyph-name="Am.liga" unicode="Am" horiz-adv-x="2072" 
d="M2079 274q11 0 19 -9.5t8 -21.5q0 -17 -38.5 -43.5t-97.5 -47.5t-107 -21q-47 0 -90.5 17t-75.5 44t-57 54t-47.5 53.5t-33.5 34.5q-15 -7 -40.5 -37t-45 -58t-44.5 -66.5t-29 -43.5q-9 -14 -25 -14q-12 0 -21 8t-9 20q0 5 25 90q2 9 5 21t5.5 24t5.5 21
q-32 -33 -58.5 -70.5t-39 -61t-25.5 -39t-25 -15.5t-21.5 8.5t-9.5 20.5q0 8 4 15q7 12 13 26.5t11 29.5l19 57l27 81q-169 -42 -334 -72q-45 -116 -69 -176.5t-38 -85.5t-17 -27t-12 -2q-13 0 -22 7.5t-9 19.5q0 6 2.5 13.5t9.5 25t17 40t29.5 70t40.5 103.5
q-283 -47 -532 -48q-22 -44 -37.5 -82.5t-21 -57.5t-10.5 -33.5t-10.5 -18.5t-17.5 -4t-21 7.5t-9 19.5q0 6 7 29t22 62.5t33 77.5q-105 2 -204 12q-13 1 -20.5 10.5t-7.5 21.5q0 5 1.5 10t4.5 8.5t8 6t11 2.5l29.5 -3t85.5 -6t119 -3h2q65 122 169.5 260.5t211 249.5
t207 184.5t156.5 73.5q27 0 45 -15t25 -38t7 -54q0 -168 -162 -597q98 18 185 38.5t127 31.5t44 11q12 0 21 -8.5t9 -20.5q0 -4 -19 -61q38 39 67 39q6 0 12.5 -2t14 -8t12 -19.5t4.5 -33.5v-6q33 43 60 66t53 23q17 0 33.5 -11.5t32 -29t33 -39t38.5 -43t44 -39.5t55 -29
t67 -11q37 0 76.5 13t65 29t47 29t27.5 13zM903 330q2 4 6 15q163 425 163 604q0 7 -0.5 12.5t-1.5 9t-1.5 6.5t-2.5 5l-3 3t-3.5 1.5t-3 0.5h-3.5h-4q-38 0 -122.5 -64.5t-180.5 -163.5t-197.5 -229.5t-169.5 -250.5q254 7 524 51z" />
    <glyph glyph-name="Amm.liga" unicode="Amm" horiz-adv-x="2897" 
d="M2904 274q11 0 19 -9.5t8 -22.5q0 -16 -38.5 -42.5t-97.5 -47.5t-107 -21q-30 0 -59 7t-52.5 19t-45.5 28t-39.5 33t-34 35t-29 33t-24.5 28t-20 20q-15 -8 -40.5 -37.5t-45 -58t-44.5 -66.5t-29 -44q-9 -13 -25 -13q-12 0 -21 7.5t-9 20.5q0 5 25 89q3 10 7.5 32.5
t8.5 33.5q-32 -33 -58.5 -70.5t-39 -60.5t-25 -38.5t-25.5 -15.5q-12 0 -21.5 8.5t-9.5 20.5q0 7 4 14q4 6 6.5 11.5t6 13t5.5 14t6.5 19t8 23.5t10.5 32t14 40q-175 -142 -262 -194t-150 -52q-26 0 -46.5 8.5t-33.5 20.5t-22 32t-13 34.5t-6.5 37.5t-2.5 31.5v25.5
q0 10 0.5 28.5t0.5 26v14.5q-36 -38 -64.5 -74.5t-42 -58.5t-25 -40t-20 -26t-20.5 -8t-20.5 7.5t-8.5 20.5q0 5 24 89q3 10 8 32.5t8 33.5q-32 -33 -58.5 -70.5t-38.5 -60.5t-25 -38.5t-25 -15.5q-6 0 -11.5 2t-10 6t-7 9.5t-2.5 11.5q0 4 2 8q17 46 63 211
q-169 -43 -337 -73q-45 -116 -69 -176.5t-38 -85.5t-17 -27t-12 -2q-13 0 -22 7.5t-9 19.5q0 6 2.5 13.5t9.5 25t17 40t29.5 70t40.5 103.5q-283 -47 -532 -48q-22 -44 -37.5 -82.5t-21 -57.5t-10.5 -33.5t-10.5 -18.5t-17.5 -4t-21 7.5t-9 19.5q0 3 2 10.5t5.5 19t9 27.5
t12 33t15 38t18.5 41q-105 2 -204 12q-13 1 -20.5 10.5t-7.5 21.5q0 7 2.5 13t8.5 10t14 4l29.5 -3t85.5 -6t119 -3h2q65 122 169.5 260.5t211 249.5t207 184.5t156.5 73.5q27 0 45 -15t25 -38t7 -54q0 -167 -162 -597q99 18 185.5 38.5t126.5 31.5t44 11q8 0 15 -4t11 -11
t4 -15q0 -5 -24 -87q27 30 45.5 43.5t37.5 13.5q7 0 13.5 -2.5t14 -8t12 -19.5t4.5 -34v-7q32 43 59 68t52 25q49 0 49 -79q0 -13 -1.5 -34t-1.5 -29q0 -52 7.5 -81t20.5 -39t34 -10q38 0 97 31t118 75t114 87.5t95 74.5t49 31q6 0 11.5 -2t9.5 -5t6.5 -8t2.5 -11
q0 -7 -18 -61q37 38 66 38q6 0 12.5 -2.5t14 -8t12 -19.5t4.5 -34v-6q33 44 60 66.5t53 22.5q19 0 39 -15t37 -37.5t41 -48.5t48.5 -48.5t60.5 -37.5t77 -15q37 0 76.5 13.5t65 29t47 29t27.5 13.5zM903 339q2 4 6 15q163 425 163 604q0 7 -0.5 12.5t-1.5 9t-1.5 6.5t-2.5 5
l-3 3t-3.5 1.5t-3 0.5h-3.5h-4q-38 0 -122.5 -64.5t-180.5 -163.5t-197.5 -229.5t-169.5 -250.5q254 7 524 51z" />
    <glyph glyph-name="An.liga" unicode="An" horiz-adv-x="2012" 
d="M2017 273q11 0 19 -9.5t8 -21.5q0 -18 -34.5 -40t-91 -38.5t-111.5 -16.5q-58 0 -107.5 14t-81 34.5t-59.5 45t-45.5 45.5t-35.5 35t-33 14q-27 0 -69.5 -41t-78.5 -89.5t-72.5 -89t-53.5 -40.5q-13 0 -21 8t-8 20q0 7 5.5 20.5t27 66t46.5 120.5q-140 -28 -287 -44
q-27 -71 -47 -120t-27.5 -65t-12.5 -28t-9 -26q-6 -20 -27 -20q-12 0 -21.5 7.5t-9.5 19.5q0 9 6 24t30.5 72.5t52.5 128.5q-209 -20 -436 -20h-85q-22 -43 -37.5 -82t-21 -58t-11 -33.5t-11 -19t-16.5 -4.5q-12 0 -21.5 8t-9.5 20q0 5 7 28.5t22.5 63.5t33.5 79h-20
q-152 5 -182.5 10t-30.5 30q0 4 0.5 7t2 6.5t4 6t5 4.5t6.5 3t8 1q1 0 13 -1t34 -2t49.5 -2.5t65 -2.5t74.5 -2q52 98 130.5 207.5t164.5 207t171 177.5t158.5 127.5t118.5 47.5q40 0 58.5 -30t18.5 -78q0 -170 -174 -630q107 13 181.5 26t101 19.5t30.5 6.5q12 0 20.5 -9
t8.5 -21q0 -3 -0.5 -4.5t-1.5 -5t-2 -6.5t-4 -10t-6 -14.5t-9 -21.5t-12 -29q26 31 40.5 47t40 40t50 35.5t49.5 11.5q21 0 41.5 -10.5t38 -27t37 -36.5t43 -40t51 -36.5t66.5 -27t84 -10.5q44 0 84 10.5t62 23.5t40.5 23.5t24.5 10.5zM893 321q28 72 47.5 126t46.5 134.5
t44 142.5t29 128.5t12 115.5q0 7 -0.5 12.5t-1.5 9.5t-1.5 6.5t-2.5 4.5t-2.5 3t-3.5 1.5t-3.5 0.5h-3.5h-3q-39 0 -123.5 -64.5t-181 -163.5t-197.5 -229.5t-169 -250.5h39q246 0 475 23z" />
    <glyph glyph-name="Ap.liga" unicode="Ap" horiz-adv-x="1989" 
d="M1990 270q13 0 22.5 -9.5t9.5 -20.5q0 -10 -26 -32t-75.5 -48t-111.5 -50t-144.5 -40t-163.5 -16q-46 0 -86 4q-7 -1 -13 -1q-34 0 -63 13t-40 24q-34 -58 -63 -117q-26 -78 -62 -190q-44 -138 -56 -165.5t-28 -27.5q-12 0 -22 9t-11 21q-1 7 -1 14q0 106 124 358
q38 117 59.5 185t37.5 129.5t16 84.5q0 22 -14.5 39t-40 26t-48.5 15t-53.5 8t-40.5 2.5t-22 0.5q-27 0 -57 -2q-49 -139 -86 -235.5t-56.5 -143.5t-33 -71t-18 -26.5t-9.5 -2.5l-2 1q-12 0 -21.5 7.5t-9.5 19.5q0 10 13.5 40.5t58 141t100.5 264.5q-239 -22 -526 -103
q-46 -73 -78 -136t-43.5 -97t-19.5 -59.5t-14.5 -34t-19.5 -8.5q-12 0 -21.5 8t-9.5 20q0 4 4 19t14 42.5t23 60t34.5 75t45.5 84.5q-68 -21 -119 -39.5t-74 -29.5t-37.5 -18.5t-20 -10.5t-11.5 -3q-13 0 -21.5 9.5t-8.5 21.5q0 19 60 47.5t130.5 52t148.5 45.5
q100 153 229.5 300.5t250.5 243.5t187 96q40 0 58.5 -30t18.5 -78q0 -27 -7 -75t-29.5 -141t-58.5 -197h39q275 0 275 -145q0 -18 -3 -38.5t-8 -41t-9 -35t-9.5 -32t-6.5 -20.5l6 9q14 21 23 34t28.5 38.5t34.5 42.5t37 38.5t41.5 34.5t42.5 22t45 9q39 0 57.5 -33t18.5 -83
q0 -72 -32 -130.5t-79 -99.5q86 4 167.5 25.5t137.5 49t85 45.5t42 29q8 7 19 7zM974 540q99 285 99 427q0 7 -0.5 12.5t-1.5 9.5t-1.5 6.5t-2.5 4.5l-3 3t-3.5 1.5t-3 0.5h-3.5h-3q-12 0 -37.5 -12.5t-64.5 -38t-91.5 -71t-110.5 -104t-129 -144.5t-141 -186q288 74 497 91
zM1406 117q47 1 91.5 36.5t70.5 87.5t26 101q0 20 -4.5 35t-9 20.5t-6.5 5.5q-5 0 -12 -1.5t-30.5 -15.5t-49.5 -39t-67.5 -78t-85.5 -126q1 0 4.5 -2.5t6.5 -4.5t9.5 -5t14 -5.5t18.5 -4.5t24 -4z" />
    <glyph glyph-name="App.liga" unicode="App" horiz-adv-x="2751" 
d="M2751 270q12 0 22 -9.5t10 -20.5q0 -10 -26 -32t-76 -48t-112 -50t-144 -40t-163 -16q-56 0 -97 5h-3q-52 0 -95 29q-43 -68 -78 -135q-26 -77 -61 -186q-39 -121 -50 -147t-27 -26q-8 0 -15.5 4t-12.5 11t-5 15q-1 7 -1 14q0 51 32.5 142t83.5 193q67 204 97 309
q-25 -20 -49.5 -38t-68 -46.5t-89.5 -51.5t-100.5 -45t-116.5 -34t-122 -12q-41 0 -57.5 6t-16.5 28q0 12 14 20.5t35.5 14t48.5 17.5t52 28.5t47 51.5t33 83q6 30 6 44q0 30 -19.5 42t-44.5 12q-31 0 -71 -31.5t-79.5 -81.5t-81 -114t-75.5 -127t-62 -123q-24 -76 -55 -180
q-32 -108 -42 -128.5t-29 -20.5q-29 0 -29 43q0 93 99 305q39 123 86 274q52 164 52 186q0 33 -25 55.5t-70.5 33t-110.5 10.5q-32 0 -66 -2q-81 -230 -129.5 -349t-59.5 -133.5t-20 -13.5l-2 1q-12 0 -21.5 7.5t-9.5 19.5q0 10 15.5 46t62 150.5t100.5 267.5
q-113 -11 -235.5 -38t-290.5 -75q-36 -55 -63 -104.5t-41.5 -82.5t-25 -61.5t-15 -45t-9.5 -28.5t-11 -16.5t-16 -4.5q-12 0 -21.5 8t-9.5 20q0 6 9.5 38t40.5 104t76 147q-87 -28 -151 -55.5t-87.5 -40.5t-29.5 -13q-8 0 -14.5 4.5t-10.5 12t-4 14.5q0 15 41 37.5t105 46.5
t110 39.5t87 28.5q106 159 236 305.5t246.5 237t180.5 90.5q40 0 58.5 -30t18.5 -78q0 -26 -6.5 -72t-28 -135t-54.5 -188h22q37 0 68 -2.5t65 -8.5t60.5 -17.5t48.5 -28.5t33.5 -43t11.5 -59q0 -11 -1 -17t-5 -25.5t-14.5 -55.5t-28.5 -93q47 71 89.5 121.5t70 74.5t54 37
t37 14t24.5 1h2q7 0 15.5 -1t24 -4t29 -11.5t26.5 -20t20.5 -32.5t7.5 -47q0 -16 -3.5 -37.5t-13.5 -53.5t-33.5 -66.5t-57.5 -61.5q76 15 150.5 48.5t128 70t97 70.5t70.5 56.5t34 22.5q11 0 21.5 -8.5t10.5 -28.5q0 -10 -1 -18t-4.5 -22.5t-7.5 -26.5t-14 -43.5t-18 -59.5
q14 19 20.5 27.5t25.5 32t32 36.5t35 32.5t41 30.5t42.5 19t45.5 8q16 0 30.5 -3.5t27 -11t22 -17.5t15 -24.5t5.5 -30.5q0 -42 -28.5 -89t-71.5 -82q85 5 165 26t135 48.5t84 45t43 29.5q8 7 19 7zM981 559q92 271 92 408q0 7 -0.5 12.5t-1.5 9.5t-1.5 6.5t-2.5 4.5l-3 3
t-3.5 1.5t-3 0.5h-3.5h-4q-14 0 -46 -16.5t-87 -57.5t-118.5 -100.5t-147.5 -157t-167 -214.5q305 86 497 100zM2163 118q42 0 86 29t71 66.5t27 64.5q0 37 -33 37q-41 0 -97 -44t-118 -134l2 -1q22 -13 58 -18h4z" />
    <glyph glyph-name="At.liga" unicode="At" horiz-adv-x="1792" 
d="M1829 764q16 0 23 -9.5t7 -19.5q0 -12 -7.5 -20.5t-20.5 -8.5h-1h-1q-11 0 -18 -0.5t-34 -4.5t-79 -13t-148 -26q-26 -51 -61.5 -115t-67 -118.5t-59.5 -102t-44.5 -74t-17.5 -27.5q-31 -86 -31 -131q0 -39 16.5 -56.5t49.5 -17.5q53 0 131.5 37.5t142.5 82.5t115.5 82.5
t56.5 37.5q11 0 19 -9.5t8 -22.5q0 -11 -52.5 -53.5t-123.5 -90t-156 -84.5t-139 -37q-33 0 -57 10t-36.5 24t-20.5 33.5t-10 34.5t-2 30q0 140 221 545q-194 -36 -384 -82q-15 -47 -35 -102.5t-39.5 -106.5t-39 -101t-36 -91t-29.5 -73t-21 -51t-8 -20q-6 -20 -27 -20
q-12 0 -21.5 7.5t-9.5 19.5q0 10 22.5 61.5t73.5 179.5t103 281q-311 -77 -538 -158q-51 -76 -86 -143.5t-47.5 -103.5t-21 -63t-15 -36.5t-20.5 -9.5q-12 0 -21.5 8t-9.5 20q0 2 3.5 15t13 41t23 61.5t37.5 81.5t52 96q-87 -34 -152.5 -63.5t-88 -40t-28.5 -10.5
q-9 0 -16 4.5t-11.5 12t-4.5 14.5v1q-1 8 8.5 17t95.5 48t248 97q103 153 230 295.5t244 234t181 91.5q40 0 58.5 -30t18.5 -78q0 -35 -15 -121t-50 -199q190 44 400 83q35 61 57 97t35 52t18.5 19.5t13.5 3.5q5 0 10.5 -2t13 -11.5t7.5 -25.5q0 -35 -41 -113q218 37 246 37
zM1002 608q72 226 72 346q0 17 -4 26t-8 10.5t-10 1.5q-12 0 -36 -11.5t-61 -35t-86.5 -66.5t-105.5 -98.5t-125.5 -138t-139.5 -178.5q235 78 504 144z" />
    <glyph glyph-name="Ar.liga" unicode="Ar" horiz-adv-x="2229" 
d="M2227 271q11 0 19 -10t8 -22q0 -24 -112.5 -92t-249.5 -127t-196 -59q-58 0 -58 49q0 19 11.5 51t11.5 47q0 20 -22 32.5t-55 17.5t-71.5 14.5t-71.5 22.5t-55 42t-22 72q0 15 3 31q-177 -79 -446 -112q-23 -61 -40.5 -102.5t-23.5 -54.5t-10 -23t-8 -24q-6 -20 -27 -20
q-13 0 -22 7.5t-9 19.5q0 6 2 13t8.5 22t14 32.5t21.5 51t29 70.5q-127 -12 -263 -12q-122 0 -253 10q-20 -40 -33.5 -75.5t-18.5 -52.5t-10 -30.5t-10.5 -17t-16.5 -3.5q-12 0 -21 8t-9 20q0 5 6.5 26.5t20 58t29.5 72.5q-88 8 -131.5 12.5t-66.5 10.5t-26 10.5t-3 14.5
q0 12 9 22.5t23 10.5q2 0 28 -3.5t80 -10t114 -11.5q64 123 170 264.5t214 254.5t210 188.5t158 75.5q40 0 58.5 -30t18.5 -78q0 -177 -188 -666q158 22 272 58.5t177 71.5q28 50 63 50q15 0 24.5 -11t9.5 -25v-1.5v-0.5q0 -26 -50 -54q-20 -37 -20 -70q0 -26 16.5 -42.5
t43 -24.5t58 -13t63.5 -11.5t58.5 -17t42.5 -32t16 -53.5q0 -10 -1.5 -21t-3.5 -17t-6.5 -20t-5.5 -18q0 -1 -1.5 -8t-3.5 -11h1q26 0 69 14t91.5 36t100.5 49t99.5 54t85 49.5t60.5 36.5zM879 281q110 282 152 438t42 246q0 18 -3.5 27t-6.5 10t-10 1h-3q-39 0 -126 -67
t-185.5 -169t-201 -236.5t-168.5 -255.5q116 -8 225 -8q150 0 285 14z" />
    <glyph glyph-name="Arr.liga" unicode="Arr" horiz-adv-x="3083" 
d="M3082 270q11 0 19 -10t8 -22q0 -25 -117 -93t-254 -126t-187 -58q-27 0 -44 13.5t-17 37.5q0 16 13 52.5t13 51.5q0 22 -19.5 40t-50 33t-63 31t-64.5 40.5t-49 53.5q-132 -124 -301.5 -234.5t-242.5 -110.5q-27 0 -44 14t-17 41q0 18 12.5 49.5t12.5 46.5q0 20 -22 31.5
t-55.5 16t-72 14t-71.5 22t-55 42t-22 72.5q0 18 4 38q-173 -70 -476 -97q-1 -2 -3 -7q-64 -160 -78 -187.5t-28 -27.5h-1.5h-1.5q-12 0 -21 7.5t-9 19.5q0 5 2 12.5t8.5 22t14 32t22 51.5t30.5 72q-103 -7 -212 -7q-144 0 -303 12q-20 -40 -34.5 -76.5t-19.5 -54t-10.5 -31
t-10.5 -17.5t-16 -4q-12 0 -21.5 7.5t-9.5 19.5q0 6 6.5 27.5t21 59t31.5 74.5q-6 1 -17 2q-150 13 -180 20t-30 32q0 11 6.5 18.5t17.5 7.5q2 0 28.5 -3t83 -9t120.5 -11q65 122 171 261.5t214.5 251.5t210.5 185.5t158 73.5q21 0 36.5 -9t23 -21t12 -28.5t5 -25.5t0.5 -19
v-1v-1q0 -176 -193 -669q107 10 200 28t153 37.5t87.5 30.5t45.5 20q27 44 55 44q15 0 26 -10t11 -25q0 -27 -50 -53q-22 -38 -22 -73q0 -30 22 -48.5t55 -25t71.5 -14.5t71.5 -16t55 -31t22 -58q0 -24 -12.5 -58t-12.5 -36q0 -4 4 -4q7 0 33.5 9.5t78.5 35.5t112 63.5
t141.5 101.5t159.5 141v5q0 34 20 67.5t46.5 55t51 35t35.5 13.5q21 0 29 -11.5t8 -23.5q0 -5 -1 -9t-8 -16t-19 -27.5t-37.5 -44t-61.5 -64.5q11 -29 42.5 -52.5t67 -40.5t70 -35.5t57 -47t22.5 -65.5q0 -27 -11 -57.5t-11 -31.5q0 -5 6 -5q41 0 119.5 31t171 82t139 77.5
t89.5 52.5zM879 314q96 244 147 411.5t51 268.5q0 40 -20 40q-42 0 -130.5 -67.5t-188 -169.5t-201.5 -233t-167 -248q142 -10 274 -10q125 0 235 8z" />
    <glyph glyph-name="Att.liga" unicode="Att" horiz-adv-x="2200" 
d="M2239 297q10 0 18 -9.5t8 -22t-53 -55.5t-125 -90t-156 -84t-137 -37q-35 0 -62 13t-45 44.5t-18 78.5q0 32 6 62.5t42 121.5t105 231q-1 -1 -4 -5q-20 -27 -40 -52t-70.5 -87t-95.5 -112.5t-105.5 -113t-111 -105.5t-102 -72.5t-87.5 -29.5q-17 0 -32.5 6t-31 19.5
t-25 41t-9.5 65.5q0 163 232 584q-153 -29 -317 -68q-20 -66 -50.5 -150t-59 -157t-54 -136.5t-41.5 -103t-17 -40.5q-6 -20 -27 -20q-12 0 -21.5 7.5t-9.5 19.5q0 9 29.5 78.5t84 208t99.5 277.5q-272 -67 -514 -144q-62 -88 -105 -165.5t-58.5 -119.5t-25.5 -73.5
t-17 -42.5t-22 -11q-12 0 -21.5 8t-9.5 20q0 8 12 46.5t53.5 127t101.5 180.5q-62 -21 -113.5 -39t-77.5 -28l-45.5 -17.5t-27 -10t-11.5 -2.5q-11 0 -18 9t-7 20q0 14 11.5 23t89.5 38.5t253 85.5q172 238 349.5 400.5t264.5 162.5q28 0 45.5 -15.5t25 -38.5t7.5 -54
q0 -46 -17 -128.5t-36 -150.5q166 38 333 69q33 57 53.5 90.5t33 48.5t18.5 18.5t13 3.5q3 0 7 -1.5t10 -5t10 -12t4 -20.5q0 -35 -36 -103q258 42 469 52q27 36 48 67q3 6 9 16q38 66 53 86.5t31 20.5q11 0 20 -9.5t9 -22.5q0 -6 -5 -17t-14.5 -26t-16.5 -26t-19.5 -28.5
t-16.5 -23.5l-20 -34h64q131 0 151 -8q15 -6 15 -26q0 -12 -7 -20t-19 -8l-17.5 1t-49.5 2t-67 1q-51 0 -103 -2l-1 -1q-22 -40 -51.5 -95.5t-88.5 -172.5t-97 -217t-38 -148q0 -43 15.5 -60.5t47.5 -17.5q39 0 89 18t96 44.5t93 57.5t82 57.5t59.5 44.5t29.5 18zM977 670
q58 197 58 305v12.5t-1 9.5t-2 6.5t-3 4.5t-2.5 3t-3 1.5t-3.5 0.5h-4h-3q-10 0 -31.5 -10t-55 -30.5t-79 -58t-97.5 -87t-117.5 -124.5t-132.5 -163q241 74 477 130zM1203 31q32 0 84.5 35t106 85t122.5 126t120.5 137.5t114.5 140.5t89.5 114t59.5 79l12 16
q-212 -14 -455 -54q-43 -84 -107 -197t-105.5 -181t-43.5 -71q-34 -97 -34 -160q0 -70 36 -70z" />
    <glyph glyph-name="Az.liga" unicode="Az" horiz-adv-x="2155" 
d="M2150 268q8 0 14 -4.5t10 -12t4 -15.5q0 -10 -20 -27.5t-56 -37.5t-80 -37.5t-100 -29.5t-109 -12q-76 0 -217 35t-214 35q-14 0 -26 -0.5t-18.5 -1.5t-7.5 -1q-11 0 -19 9.5t-8 21.5q0 6 6 15.5t21.5 26t30 31.5t42.5 43.5t49 49.5q-280 -42 -506 -67
q-44 -115 -68 -174.5t-37.5 -84.5t-17 -27t-12.5 -2q-12 0 -21.5 7.5t-9.5 19.5q0 6 2.5 13.5t10 25t17.5 40.5t29 70.5t41 104.5q-280 -29 -526 -37q-24 -46 -41 -87t-23 -61.5t-11.5 -36t-11 -20t-16.5 -4.5q-12 0 -21.5 8t-9.5 20q0 5 7.5 29.5t24 67t35.5 83.5
q-54 -1 -105 -1h-35q-62 -1 -79.5 4t-17.5 27q0 12 7.5 20.5t20.5 8.5h2.5t7 -0.5t10.5 -0.5h13.5h16.5h20h22q71 0 148 2q88 162 234 340t288 297t215 119q27 0 45 -15.5t25 -38.5t7 -54q0 -168 -163 -601q91 9 182 20.5t155.5 21t116 17.5t79 12.5t29.5 4.5q13 0 22.5 -9
t9.5 -20v-1q0 -8 -6.5 -16t-46.5 -49q-58 -60 -107 -111q71 -3 209.5 -37.5t212.5 -34.5q62 0 124 18.5t99.5 41t67 41t34.5 18.5zM904 344l10 26.5t16.5 43.5t20 54t23 65.5t23 70.5t23 76t20.5 75.5t17.5 75.5t10.5 68.5t4 62.5q0 7 -0.5 12.5t-1.5 9.5t-1.5 6.5t-2.5 4.5
t-2.5 3t-3.5 1.5t-3.5 0.5h-3.5h-3q-37 0 -118 -61t-175.5 -156t-196 -224t-173.5 -253q242 10 517 38z" />
    <glyph glyph-name="Azz.liga" unicode="Azz" horiz-adv-x="2951" 
d="M2946 263q11 0 19 -9.5t8 -21.5q0 -13 -31.5 -37t-80.5 -48t-118 -41.5t-134 -17.5q-77 0 -217.5 35t-214.5 35q-14 0 -25.5 -1t-18 -1.5t-7.5 -0.5q-11 0 -19 9.5t-8 20.5q0 7 6.5 17t21 25.5t28 29.5t36 37t37.5 38q-119 -36 -127 -35q-19 -15 -30 -24t-51 -38
t-73 -49.5t-85.5 -48.5t-99 -45.5t-104 -30t-110.5 -12.5q-61 0 -115 17.5t-86 41.5t-50.5 45.5t-18.5 32.5q0 6 6.5 16t21 25.5t28 29.5t37.5 38l40 40q-232 -61 -476 -92q-17 -43 -31 -78t-22.5 -55.5t-15.5 -37t-11 -25.5t-7 -16.5t-5.5 -13.5t-4.5 -15q-6 -20 -27 -20
q-12 0 -21.5 7.5t-9.5 19.5q0 6 2.5 13.5t9.5 24.5t16 37.5t26 62t35 88.5q-220 -25 -444 -25q-40 0 -79 1q-21 -43 -36.5 -81.5t-21 -57t-10.5 -33t-10.5 -18.5t-16.5 -4q-12 0 -21.5 8t-9.5 20q0 5 7 28t22 62.5t32 77.5q-185 6 -212 16q-19 6 -19 28q0 11 6.5 19t18.5 8
q1 0 13 -1t33.5 -2.5t48.5 -3.5t65 -3.5t75 -2.5q65 122 169.5 260.5t211.5 250t207.5 185.5t156.5 74q27 0 45 -15.5t25 -38.5t7 -54q0 -92 -48 -260t-125 -366q97 13 188.5 30t153.5 31.5t110 27.5t72.5 20.5t26.5 7.5q7 0 13.5 -4.5t10 -11.5t3.5 -15q0 -9 -6 -17
t-38 -41l-25.5 -25.5t-29.5 -30t-42 -43.5t-48 -51q83 -80 204 -80q72 0 148.5 24t138 60t114 72t96 65t65.5 35q27 7 55.5 15t50 14.5t41.5 13t33.5 10.5t23 7t12.5 3q8 0 14.5 -4.5t10 -11.5t3.5 -15v-1q0 -8 -7 -16.5t-46 -48.5q-58 -59 -107 -111q61 -2 137.5 -20
t150.5 -34.5t134 -16.5q63 0 124.5 18.5t99.5 40.5t67 40.5t35 18.5zM894 298q35 93 59.5 162t55 165t47 177t16.5 141q0 6 -0.5 11t-1 9t-1.5 7t-2 4.5t-2.5 3t-2.5 2t-3 1t-3 0.5h-3.5h-3.5q-38 0 -122.5 -65t-181.5 -164t-198.5 -230.5t-169.5 -251.5h37q239 0 480 28z
" />
    <glyph glyph-name="hyphenhyphenhyphenhyphen.liga" unicode="&#x2d;&#x2d;&#x2d;&#x2d;" horiz-adv-x="1505" 
d="M1489 255q8 7 17.5 7.5t17 -4t12.5 -12t3.5 -17t-8.5 -16.5q-83 -77 -238 -138q-174 -68 -271 -15l-1 1h-1l-3 2q-2 1 -4 3q-1 0 -2 0.5l-1 0.5v1q-4 2 -6 4q-13 10 -9 25.5t17 21.5t27 -1q15 -10 34 -16q19 -3 36 3.5t23 20.5q2 6 2 14t-1.5 15t-4.5 16.5t-5.5 15.5
t-6.5 14.5t-5 12.5q-18 45 -18 70q-92 -66 -177 -121q-120 -77 -216 -126t-195 -70q-13 -3 -18 -4t-20 -3.5t-23 -3t-21.5 -0.5t-21.5 3.5t-16 8.5t-12 14t-3 21q0 13 12.5 46.5t12 56.5t-26.5 32q-30 10 -99 25.5t-104 29.5q-53 21 -64 82q-44 -38 -88 -66q-15 -10 -29 -1
t-14 24.5t14 26.5q50 33 117 97q1 2 2.5 3.5l3 3l2.5 2.5q4 10 8 18q41 92 86 78q14 -5 19.5 -15t3 -22t-7.5 -23t-13 -20q-21 -25 -45 -50q-2 -11 -3 -22q-3 -51 40 -65q32 -11 93 -25.5t87 -21.5q81 -25 76 -98q-1 -22 -17 -72q-1 -2 -3 -10q6 1 14 1.5t14.5 1t14 1.5
t14.5 2q33 7 71 21q72 25 162 73q134 71 293 184q50 35 99 72q3 3 8.5 7.5t9.5 8t9.5 7.5t10.5 6q18 10 36 -6t4 -34q-3 -4 -11.5 -14t-12.5 -16t-9 -15.5t-7 -17.5q-5 -22 9 -56q0 -1 4 -10.5t4.5 -11t4.5 -11.5t4 -11.5t3.5 -11t3.5 -11.5t2.5 -12t1.5 -11.5t1 -11.5
t0 -12q-1 -14 -6 -26q45 9 104 33q131 54 200 119zM166 425z" />
    <glyph glyph-name="ff.liga" unicode="ff" horiz-adv-x="947" 
d="M951 275q12 0 20.5 -9.5t8.5 -21.5q0 -17 -53.5 -49.5t-137 -59.5t-153.5 -27q-25 0 -49 3q2 -29 2 -59q0 -76 -14 -146t-34.5 -117t-44.5 -75t-44 -28q-46 0 -46 109q0 144 63 355t157 420q-84 -78 -158.5 -135t-142.5 -95t-114.5 -59.5t-113.5 -46.5q5 -19 5 -46
q0 -102 -22.5 -220t-58.5 -201t-70 -83q-42 0 -42 132q0 88 22.5 218.5t61 265.5t84.5 253t99 192.5t98 74.5q7 0 15.5 -2t23 -8.5t23.5 -24t9 -43.5q0 -132 -248 -445q89 32 175.5 80t164 108.5t139 116.5t127.5 125q21 38 38.5 68.5t39 62.5t40 53t38.5 34.5t37 13.5
q11 0 21.5 -7.5t10.5 -22.5q0 -18 -24.5 -56.5t-64.5 -85.5t-89 -96q-130 -249 -216 -523q8 8 19 8q3 0 14 -2.5t30 -5t40 -2.5q55 0 113 17t96.5 37.5t69 37.5t35.5 17zM-33 -208q3 5 8.5 19t17.5 52t22 81t17.5 108.5t7.5 132.5q0 3 -3 38q-3 -4 -7 -7
q-31 -120 -46.5 -228t-16.5 -145.5t0 -50.5zM68 354q63 80 108 148.5t65.5 107.5t32 71.5t12.5 41t1 14.5q0 24 -13 24q-6 0 -18.5 -11t-33.5 -40.5t-44.5 -72.5t-53 -117t-56.5 -166zM465 -229q4 6 8 13.5t16 35t20.5 57t15.5 76t7 95.5q0 45 -7 92q-60 -198 -60 -353v-16z
" />
    <glyph glyph-name="fi.liga" unicode="fi" horiz-adv-x="1141" 
d="M549 417q-13 0 -21.5 9t-8.5 21q0 11 8.5 20t21.5 9h1q13 0 21.5 -9t8.5 -22q0 -10 -8.5 -19t-21.5 -9h-1zM1147 276q11 0 19 -9.5t8 -22.5q0 -11 -28 -34t-78.5 -51t-111.5 -53t-136.5 -42.5t-142.5 -17.5q-214 0 -214 166q0 42 15 89q-232 -79 -348 -119
q44 -66 44 -146q0 -51 -20 -104t-49 -94.5t-60.5 -75t-55.5 -51t-33 -17.5t-16 3.5t-11.5 10t-8.5 14t-6 17.5t-3 18.5t-1.5 18.5t-0.5 16v13.5v7.5q0 91 22.5 223t61 267.5t84.5 254t99 193.5t98 75q29 0 50 -17t21 -59q0 -46 -30.5 -115t-73.5 -136t-89 -129t-79 -101.5
t-42 -46.5q-62 -254 -62 -405q0 -16 2 -43q5 4 15.5 13.5t34.5 37t43 56.5t34.5 71.5t15.5 83.5q0 39 -10 68.5t-21.5 43.5t-21 26.5t-9.5 20.5v2q0 16 28.5 28.5t199.5 70.5q25 9 39.5 13.5t42 14t49.5 17t51.5 17.5t58.5 20q5 1 9 1q12 0 19.5 -9.5t7.5 -21.5q0 -6 -9 -26
t-18 -49t-9 -60q0 -32 10.5 -53.5t30.5 -32.5t42.5 -15.5t52.5 -4.5q80 0 157.5 17.5t132.5 42t98.5 49.5t70 42.5t31.5 17.5zM276 767q-23 0 -56 -51t-64 -124.5t-53.5 -134t-33.5 -97.5q217 276 217 385v1q0 21 -10 21z" />
    <glyph glyph-name="st.liga" unicode="st" horiz-adv-x="1081" 
d="M1146 711h-2q-15 0 -26.5 -1.5t-86.5 -20t-217 -58.5q-218 -397 -218 -524q0 -27 8 -44t22 -24t35 -7q53 0 132 37.5t142.5 82.5t115 82.5t57.5 37.5q10 0 18 -9.5t8 -21.5t-52 -54.5t-123.5 -89.5t-156 -84.5t-139.5 -37.5q-23 0 -42 5t-32 13.5t-22.5 20.5t-15 23.5
t-9 25.5t-4.5 24t-1 21q0 117 157 423q-213 -224 -467 -378v-9q0 -42 -30 -67.5t-73 -25.5q-31 0 -62 14t-31 33q0 9 6 17.5t15 12.5l-2 -1l9 4t37 18t65 34q-3 10 -8 22.5t-8.5 22t-7.5 20.5t-6 22t-2 22q-53 -40 -81 -59t-32.5 -20.5t-9.5 -1.5q-8 0 -14.5 4.5t-10 11.5
t-3.5 15q0 4 0.5 6.5t1.5 5t3.5 5t6 5.5t9.5 7t13 9t18 13t23 16.5t29.5 21t36.5 26.5q7 5 21 17t23.5 19t20.5 13t18 6q12 0 22 -8.5t10 -19.5q0 -9 -11.5 -22.5t-23 -31.5t-11.5 -37q0 -9 2 -18.5t5 -16.5t8.5 -21.5t8.5 -23.5q244 148 459 379q-14 -4 -34 -9.5t-30.5 -8
t-25 -6.5t-22 -6t-18 -4.5t-16.5 -3.5t-13 -2t-12.5 -1.5t-11.5 -0.5q-13 0 -20 8.5t-7 19.5q0 8 3 14.5t9.5 11t16.5 5.5q24 0 253 64q51 59 95 119q4 6 10 17q16 25 23 36.5t16.5 24.5t17 17t14.5 4q13 0 22.5 -10t9.5 -22q0 -7 -2 -13t-8 -14.5t-11.5 -16t-18 -23.5
t-22.5 -30q-18 -29 -35 -59q85 24 139.5 38t84 20t41.5 7.5t25 1.5q11 0 18.5 -6t9.5 -12t2 -12q0 -8 -3 -14.5t-9.5 -10.5t-15.5 -4z" />
    <glyph glyph-name=".notdef" horiz-adv-x="527" 
d="M50 700h427v-700h-427v700zM78 680l185 -309l186 309h-371zM251 350l-180 300v-601zM264 329l-185 -308h370zM276 350l181 -303v605z" />
    <glyph glyph-name=".null" horiz-adv-x="0" 
 />
    <glyph glyph-name=".null" horiz-adv-x="0" 
 />
    <glyph glyph-name="nonmarkingreturn" horiz-adv-x="333" 
 />
    <glyph glyph-name="controlLF" unicode="&#xa;" horiz-adv-x="0" 
 />
    <glyph glyph-name="controlCR" unicode="&#xd;" horiz-adv-x="0" 
 />
    <glyph glyph-name="space" unicode=" " horiz-adv-x="537" 
 />
    <glyph glyph-name="exclam" unicode="!" horiz-adv-x="501" 
d="M148 140q12 0 21 -10t9 -19q-2 -8 -4.5 -16t-12 -17.5t-22.5 -9.5t-21 9.5t-8 21.5q0 16 13 28.5t25 12.5zM588 1199q11 0 20 -6.5t9 -17.5q0 -4 -86.5 -209t-173 -408.5t-87.5 -203.5l1 6q-2 -14 -11.5 -21t-21.5 -7q-11 0 -18.5 6t-7.5 17.5t83.5 220t177 416
t115.5 207.5z" />
    <glyph glyph-name="quotedbl" unicode="&#x22;" horiz-adv-x="348" 
d="M298 924q3 -57 -17 -113.5t-59 -90.5q-14 -11 -30.5 -5t-20 20t8.5 27q32 26 46.5 71t12.5 91q-1 24 22 28q24 4 33 -16zM177 924q2 -37 -5 -74t-25.5 -72t-45.5 -58q-13 -11 -29.5 -5t-20 20t8.5 27q32 26 46.5 71t12.5 91q-2 24 22 28q23 4 33 -16z" />
    <glyph glyph-name="numbersign" unicode="#" horiz-adv-x="1013" 
d="M1047 690q0 -14 -8 -19q-17 -9 -229 -54q-118 -25 -198 -42q-42 -105 -66 -164q97 20 210.5 37t173 23.5t64.5 6.5q14 0 23.5 -10.5t9.5 -23.5q0 -8 -3 -12.5t-11.5 -8t-20 -5t-33.5 -4t-48 -4.5t-66 -7.5t-85 -12t-108.5 -18.5t-132.5 -27q-17 -40 -64.5 -150
l-85.5 -198t-38 -91q-1 -13 -11 -20.5t-22 -7.5q-7 0 -12.5 3t-9.5 8.5t-4 13.5q0 14 15 44q5 10 18 50t53 124q40 85 91 209q-49 -11 -116 -27q-74 -147 -99 -206q1 -3 1 -7q0 -8 -13.5 -37.5t-24.5 -48.5q-8 -13 -25 -13q-12 0 -21.5 7.5t-9.5 18.5q0 8 12.5 39.5
t40.5 92.5t66 137q-173 -40 -180 -40q-9 0 -16 5t-10.5 12t-3.5 15q0 16 15 22t98 25q23 5 37.5 8t41 9t52.5 12q39 80 79 172q-78 -15 -150 -27.5t-105 -17.5t-36 -5q-14 0 -23 10.5t-9 22.5q0 15 10.5 19.5t73.5 14.5q134 22 267 48q44 105 84 213q18 49 24.5 59t22.5 10
q7 0 14 -3t11 -9t4 -13q0 -9 -33.5 -97t-57.5 -146q46 10 100 21q98 245 110 264q13 17 27 18q11 0 20 -7t9 -17v-1q0 -4 -12 -33q-9 -23 -17 -41t-27 -65.5t-42 -102.5q376 81 379 81q13 0 21.5 -10t8.5 -22zM477 396q26 64 66 165q-55 -12 -100 -21q-42 -98 -76 -169
q62 15 110 25z" />
    <glyph glyph-name="dollar" unicode="$" horiz-adv-x="557" 
d="M387 678q29 -5 57.5 -19.5t45.5 -30.5t17 -28q0 -11 -9.5 -20.5t-21.5 -9.5q-9 0 -21 11t-34 24t-53 18q-26 -77 -50 -154q121 -92 121 -193q0 -73 -57.5 -127.5t-131.5 -54.5q-21 0 -41 6q-40 -142 -69 -272q-11 -48 -15.5 -56.5t-18.5 -8.5q-6 0 -12 2.5t-10.5 6
t-7.5 9.5t-3 13q0 34 83 332q-24 18 -40 46t-22.5 55.5t-9 44t-2.5 26.5q0 12 8 18.5t19 6.5q18 0 25.5 -11.5t8 -28.5t8 -43.5t23.5 -48.5q35 124 75 255q-38 26 -74.5 42t-57.5 20.5t-37.5 8.5t-23 10.5t-6.5 21.5q0 16 14 25q156 100 261 108q36 105 57 155.5t27.5 57
t15.5 6.5q12 0 22 -9.5t10 -22.5q0 -4 -0.5 -6.5t-2.5 -7.5t-5 -11.5t-9 -20.5t-13 -31.5t-17.5 -47.5t-22.5 -66zM153 560q54 -17 114 -56q23 71 38 118q-65 -10 -152 -62zM379 280q0 66 -80 129q-33 -110 -74 -253q13 -4 27 -4q34 0 63.5 18t46.5 47.5t17 62.5z" />
    <glyph glyph-name="percent" unicode="%" horiz-adv-x="763" 
d="M518 398q32 -22 32 -66q0 -38 -26.5 -89t-65.5 -88t-72 -37q-20 0 -34.5 13.5t-14.5 34.5q0 9 4 22.5t9.5 26t14 28.5t14 25.5t12.5 21.5l7 12q-39 -38 -102 -99q-110 -107 -143 -134.5t-56 -27.5q-20 0 -33.5 14.5t-13.5 36.5q0 14 97.5 159.5t215 312.5t216.5 304
t103 137q8 0 15 -4t11.5 -10.5t4.5 -13.5q0 -12 -97 -153.5t-254 -365t-228 -327.5q68 61 158 150t137 132t64 43q7 0 13.5 -2.5t12 -10t5.5 -18.5q0 -12 -6 -27zM404 186q13 10 28.5 28.5t28.5 39.5t22 43t9 37q0 6 -2 10q-63 -102 -86 -158zM222 529q-34 0 -54 20t-20 55
q0 32 17 70t48.5 66.5t66.5 28.5q20 0 36.5 -21.5t16.5 -61.5q0 -36 -11.5 -70.5t-38 -60.5t-61.5 -26zM206 607q0 -20 18 -20q22 0 36.5 33t14.5 64q0 14 -4 27q-19 -2 -42 -40t-23 -64z" />
    <glyph glyph-name="ampersand" unicode="&#x26;" horiz-adv-x="724" 
d="M463 146q25 -33 57 -51t57.5 -23t48.5 -8t35.5 -10t12.5 -25q0 -11 -7 -19t-19 -8q-8 0 -19 0.5t-43 6.5t-60 17.5t-61.5 36t-56.5 57.5q-61 -24 -143 -39t-120 -18t-53 -3q-42 0 -42 31q0 17 25.5 39t63 45.5t98 69.5t114.5 98v1q0 65 16 147.5t39.5 151t51 116
t49.5 47.5q26 0 44.5 -53t18.5 -109q0 -161 -160 -325q2 -69 24 -122q31 16 57 35.5t43 39t30 38t20 38.5t12 33.5t6.5 29.5t1.5 21v13l-1 28q-1 6 -1 9q0 13 9.5 21.5t22.5 8.5q15 0 22.5 -14.5t7.5 -56.5q0 -19 -3.5 -41.5t-16 -57t-33 -66.5t-59 -67.5t-89.5 -62.5z
M501 716q-68 -137 -87 -306q98 119 98 232q0 37 -11 74zM169 125q120 13 211 48q-17 43 -24 95q-71 -63 -187 -143z" />
    <glyph glyph-name="quotesingle" unicode="'" horiz-adv-x="228" 
d="M177 924q2 -37 -5 -74t-25.5 -72t-45.5 -58q-13 -11 -29.5 -5t-20 20t8.5 27q32 26 46.5 71t12.5 91q-1 18 13 25t29 0t16 -25z" />
    <glyph glyph-name="parenleft" unicode="(" horiz-adv-x="275" 
d="M371 1028q0 -1 -14.5 -25t-37.5 -68.5t-51 -105t-56 -142.5t-51 -172.5t-37.5 -204t-14.5 -228.5q0 -60 3.5 -115t7.5 -86l4 -31q0 -11 -7.5 -17.5t-18.5 -6.5q-12 0 -21.5 7.5t-11.5 20.5q-15 113 -15 228q0 157 28.5 319t72 286t86 214.5t78.5 140.5q9 13 25 13
q12 0 21.5 -8t9.5 -19z" />
    <glyph glyph-name="parenright" unicode=")" horiz-adv-x="384" 
d="M323 1062q11 -111 11 -221q0 -140 -20.5 -285t-52 -257t-66.5 -202.5t-65.5 -139t-48.5 -48.5q-12 0 -21.5 8.5t-9.5 19.5q0 1 12.5 23.5t32.5 63.5t44 97t48 133.5t44 164.5t32.5 197.5t12.5 224.5q0 110 -12 221v3q0 12 7.5 18.5t18.5 6.5q12 0 21.5 -7.5t11.5 -20.5z
" />
    <glyph glyph-name="asterisk" unicode="*" horiz-adv-x="457" 
d="M406 760q0 -14 -14 -26t-106 -76q25 -18 47.5 -32.5t32 -20t17 -11.5t9 -9.5t1.5 -10.5q0 -8 -3.5 -15.5t-10.5 -12t-15 -4.5q-19 0 -122 76q-2 -9 -7 -27q-24 -99 -32.5 -118.5t-25.5 -19.5q-13 0 -22 7.5t-9 20.5v2.5t0.5 4t1.5 6t3 11t5 16.5t7 25.5t9 35.5
q-80 -51 -92 -51q-13 0 -21.5 10t-8.5 22q0 5 1 8t4.5 7t8.5 7t16 10t24 14t35 21t47 30q-10 8 -28 21q-61 45 -74 56.5t-13 23.5q0 11 9.5 19t21.5 8q6 0 10 -1t6 -2t4.5 -3l2.5 -2l81 -62q29 117 29 118q6 15 12 21t17 6q8 0 15.5 -4t11.5 -11t4 -15q0 -2 -3.5 -16
t-8 -31.5t-9.5 -38t-8 -32.5q15 11 28.5 20.5t22.5 16t17 12.5t13.5 10t10 7t7 4.5t4.5 3t4 2t3 0.5h3q11 0 19 -9.5t8 -21.5z" />
    <glyph glyph-name="plus" unicode="+" horiz-adv-x="728" 
d="M182 69zM651 430q13 0 19.5 -8t6.5 -20q0 -20 -14 -25q-25 -11 -223 -15q-24 -1 -74 -2q-114 -286 -128 -312q-15 -26 -30 -26q-11 0 -20 10t-9 22q0 11 7 19l-4 -4q9 11 121 290q-120 -3 -142 -3h-4q-37 0 -52 0.5t-30.5 3.5t-20 10t-4.5 20q0 11 7 19t19 8l10.5 -0.5
t30.5 -1.5t44 -1q33 0 94 2t72 2q39 99 77 204q19 54 25 63.5t22 9.5q7 0 14 -3t11.5 -9t4.5 -14q0 -21 -91 -249q42 0 79 1t62 2t45.5 2t33 2t21 1.5t13.5 1t7 0.5z" />
    <glyph glyph-name="comma" unicode="," horiz-adv-x="319" 
d="M123 261q32 0 32 -43q0 -76 -33.5 -136.5t-62.5 -60.5q-13 0 -22.5 9t-9.5 21q0 8 11 20.5t23.5 26.5t23.5 46.5t11 75.5v12v2q0 9 4 15t10 9t13 3z" />
    <glyph glyph-name="hyphen" unicode="-" horiz-adv-x="330" 
d="M253 424q13 0 20 -8t7 -20t-7.5 -21t-20.5 -9q-27 -1 -85 -7t-89 -7q-9 0 -15.5 4.5t-9.5 11t-3 13.5q0 12 7.5 21t20.5 9q31 1 95 7t80 6z" />
    <glyph glyph-name="period" unicode="." horiz-adv-x="248" 
d="M123.5 112q-30.5 0 -52 21.5t-21.5 52t21.5 52t52 21.5t52 -21.5t21.5 -52t-21.5 -52t-52 -21.5z" />
    <glyph glyph-name="slash" unicode="/" horiz-adv-x="466" 
d="M584 887q12 0 22 -9.5t10 -21.5q0 -6 -91.5 -175.5t-202 -370.5t-207 -368t-106.5 -167q-12 0 -21.5 9t-9.5 21q0 7 121.5 225.5t269.5 485t193 356.5q7 15 22 15z" />
    <glyph glyph-name="zero" unicode="0" horiz-adv-x="550" 
d="M537 1025q7 0 13 -0.5t21 -4.5t27 -11.5t27 -23t25 -37t17 -56t7 -77.5q0 -97 -30.5 -225.5t-82 -254t-113 -233.5t-131 -175t-127.5 -67q-7 0 -17 1.5t-33.5 12t-42 28.5t-33 57.5t-14.5 92.5q0 44 10 96.5t31 116t36 104.5t43.5 110.5t35.5 86.5q0 2 14 39.5t24 63
t31 73t39.5 81.5t46 75t53.5 66.5t58.5 43t64.5 17.5zM188 -82q44 0 102.5 62.5t114 164t103.5 218.5t77.5 238.5t29.5 212.5q0 152 -83 152q-23 0 -48 -17t-45.5 -41.5t-44 -64t-39.5 -71t-35.5 -77.5t-28 -68.5t-21.5 -56.5q-6 -14 -8 -19q-7 -19 -35 -88t-43 -109
t-35 -101.5t-29.5 -113.5t-9.5 -97q0 -34 8 -59.5t18.5 -37t23.5 -18.5t19 -8t9 -1z" />
    <glyph glyph-name="one" unicode="1" horiz-adv-x="340" 
d="M528 974q0 -10 -15.5 -35.5t-15.5 -29.5q-228 -544 -355 -935q-25 -78 -34.5 -96t-27.5 -18q-8 0 -14.5 3t-11 9t-4.5 14q0 9 48.5 144.5t135 365t174.5 448.5l-23 -23q-27 -27 -39.5 -39t-28.5 -26.5t-25 -19.5t-15 -5q-11 0 -19 9.5t-8 22.5q0 15 13 24q33 24 85 80.5
t92 96t57 39.5q12 0 21.5 -9t9.5 -20z" />
    <glyph glyph-name="two" unicode="2" horiz-adv-x="485" 
d="M440 84q31 0 48 -1t30 -5t18 -11.5t5 -19.5q0 -7 -2.5 -13t-8 -9.5t-13.5 -3.5q-1 0 -11 1t-27 2t-37 1q-75 0 -161.5 -17t-157 -41t-130 -48.5t-95.5 -41.5t-37 -17q-12 0 -21.5 8.5t-9.5 20.5q0 7 47.5 64t119 139.5t155 190.5t155 212.5t119 211t47.5 180.5
q0 54 -44 54q-25 0 -69.5 -29t-83.5 -67.5t-54 -65.5q-8 -15 -23 -15q-12 0 -21.5 9t-9.5 21q0 23 45.5 72t110 91t108.5 42q29 0 49.5 -11.5t30 -30.5t13 -36t3.5 -36q0 -81 -51 -198t-121.5 -224.5t-154 -216.5t-140 -174.5t-88.5 -96.5q95 39 225.5 74t241.5 35z" />
    <glyph glyph-name="three" unicode="3" horiz-adv-x="688" 
d="M279 510q25 -5 67.5 -9t76.5 -7t72.5 -11.5t64.5 -21.5t43 -38t17 -61q0 -59 -41 -129.5t-108.5 -135t-147.5 -118.5t-165.5 -86.5t-153.5 -32.5q-86 0 -130 48.5t-44 134.5q0 60 32 172q6 21 27 21q12 0 21.5 -8t9.5 -20q0 -4 -8.5 -31.5t-16.5 -66t-8 -71.5v-11t2 -18
t5.5 -24.5t12 -24t20 -23t31 -15t43.5 -6.5q42 0 94.5 16t105.5 43.5t105.5 63.5t98 77.5t81 83t55.5 83.5t20 75q0 29 -26 46.5t-65 23t-84.5 9.5t-84.5 7.5t-65 16.5t-26 35q0 12 18.5 42.5t52.5 78t72 99t89 121.5t91 129q-23 -11 -70.5 -34.5t-123.5 -57t-91 -33.5
q-31 0 -31 25q0 13 7 21.5t18 9.5q21 0 189 86.5t177 86.5t19.5 -7.5t10.5 -24.5q0 -19 -41.5 -83t-94.5 -135t-120.5 -163.5t-102.5 -147.5z" />
    <glyph glyph-name="four" unicode="4" horiz-adv-x="571" 
d="M760 1125q0 -5 -6 -26t-27 -64t-51 -80q-59 -128 -114.5 -261.5t-111 -281.5t-89 -278t-33.5 -208q0 -11 0.5 -20.5t1 -15t0.5 -6.5q0 -8 -3.5 -13.5t-9.5 -8t-13 -2.5q-12 0 -19.5 4.5t-10.5 16t-4 21t-1 27.5q0 23 2 47t16.5 96.5t40.5 159t80.5 234.5t130.5 324
q-67 -77 -132.5 -146t-117.5 -119t-98 -90.5t-78.5 -65.5t-53 -38t-27.5 -13q-35 0 -35 34q0 16 5 27t22 39.5t34 61.5q47 96 93.5 188.5t66.5 131.5t38.5 77.5t25.5 57t13 38.5q6 21 29 21q12 0 20.5 -7t8.5 -18q0 -13 -4 -21q-23 -72 -247 -511q253 211 523 548
q8 16 18 38.5t16 36.5t13.5 30.5t13.5 26t13.5 18t14.5 12.5t15 4t15 -3t11.5 -9.5t4.5 -13.5z" />
    <glyph glyph-name="five" unicode="5" horiz-adv-x="668" 
d="M761 1000q14 0 23 -7.5t9 -18.5q0 -12 -7 -20t-12 -10t-9 -3q-263 -61 -452 -119v-15q0 -59 -15.5 -156.5t-53.5 -218.5q39 30 54 41.5t50 35.5t56.5 34t52 19t57.5 9q36 0 63.5 -11.5t43 -29t25 -41t12.5 -42.5t3 -38q0 -70 -25.5 -134.5t-68 -113t-98 -90.5t-114 -70.5
t-117 -48.5t-106.5 -29.5t-83 -9.5q-169 0 -169 167q0 12 1 25.5t2 24.5t3.5 26t4.5 24.5t5 25t5 23t5.5 23t4.5 20.5q5 21 26 21q12 0 21.5 -8.5t9.5 -21.5q0 -3 -16 -68.5t-16 -106.5q0 -24 4 -42.5t15 -36t34.5 -27.5t58.5 -10q38 0 86 10t101 29.5t105.5 46t100 63.5
t84 79t58 94t21.5 106q0 113 -93 113q-35 0 -88 -27.5t-98 -63t-79.5 -68t-40.5 -45.5q-7 -15 -23 -15q-12 0 -22 8.5t-10 20.5q0 5 26 85.5t52 189t26 182.5q0 6 -1 19t-1 20v8q0 13 1.5 19.5t15.5 17.5t41.5 20.5t82 25.5t135 35.5t202.5 48.5q25 6 31 6z" />
    <glyph glyph-name="six" unicode="6" horiz-adv-x="553" 
d="M652 1040q12 0 21.5 -10t9.5 -22q0 -2 -15 -13.5t-42 -33t-61.5 -53t-76.5 -82.5t-84 -112t-88 -149.5t-84 -188.5q66 18 116 18q89 0 140.5 -56t51.5 -136q0 -60 -30 -123.5t-75.5 -111t-101.5 -77.5t-107 -30q-13 0 -28 2.5t-36.5 13t-37.5 28t-27.5 51.5t-11.5 78
q0 94 52 251q-49 -17 -58 -17q-13 0 -21 9.5t-8 22.5q0 6 1 9.5t5 7t8 6t14 5.5t19.5 6t27.5 8.5t36 11.5q46 130 108 246.5t119 194.5t112 135.5t94 84t58 26.5zM349 335q-53 0 -141 -27q-67 -197 -67 -277q0 -53 23.5 -83t62.5 -30q37 0 82.5 26t83.5 65.5t63.5 91.5
t25.5 99q0 16 -3 32.5t-11.5 35.5t-22.5 33.5t-39 24t-57 9.5z" />
    <glyph glyph-name="seven" unicode="7" horiz-adv-x="464" 
d="M615 1021q11 0 19 -5t12 -13t5.5 -15.5t1.5 -15.5q0 -37 -77 -201.5t-172 -349t-185 -374.5t-111 -265l-1.5 -6t-2.5 -8.5t-3.5 -7.5t-5.5 -7.5t-9 -4.5t-13 -2q-11 0 -18.5 6t-7.5 18q0 40 76 208t170 352.5t184 368.5t111 243q-66 -43 -141 -82t-132 -61.5t-97 -35.5
t-51 -13q-16 0 -25 8t-10.5 14t-1.5 11q0 11 6.5 18.5t18.5 7.5h3.5h4.5q3 0 25 6.5t64.5 22t91.5 37t113 57.5t123 77q18 12 35 12z" />
    <glyph glyph-name="eight" unicode="8" horiz-adv-x="638" 
d="M808 906q0 -44 -18.5 -93.5t-45.5 -94.5t-73 -101t-86 -99.5t-98 -102.5q12 -55 12 -107q0 -75 -29 -147t-73 -124.5t-94.5 -93.5t-96 -62t-75.5 -21q-24 0 -41.5 9t-25.5 23t-11 26.5t-3 25.5q0 48 24.5 103t60 102t82 96t85 82t75 64.5t44.5 40.5q-14 49 -40 110.5
t-47.5 105.5t-37.5 98.5t-16 100.5q0 50 24 91.5t61 67t82.5 43t86 25t74.5 7.5q90 0 145 -45t55 -130zM132 -81q19 0 54.5 17.5t79 52.5t83 80t66 108t26.5 129q0 26 -4 53q-20 -12 -56 -41.5t-83.5 -75.5t-89 -94.5t-70.5 -104t-29 -98.5q0 -26 23 -26zM338 851
q0 -36 15.5 -86.5t35 -94t44 -100t35.5 -90.5q138 142 211 244.5t73 179.5v1v7.5t-1 14t-5 19.5t-10 20.5t-16.5 21t-24.5 17.5t-35.5 13t-46.5 5q-37 0 -81.5 -10.5t-89 -29.5t-74.5 -54t-30 -78z" />
    <glyph glyph-name="nine" unicode="9" horiz-adv-x="605" 
d="M542 986q12 -95 12 -190q0 -173 -37 -328.5t-102.5 -271.5t-162.5 -184.5t-210 -68.5q-77 0 -153 32q-19 8 -19 30q0 11 6.5 20t17.5 9q5 0 26 -8.5t55.5 -17t72.5 -8.5q74 0 139 35t113 95t86 138t61.5 167.5t35.5 180t12 177.5q0 57 -4 115q-6 -12 -29.5 -57t-40 -73.5
t-43.5 -75t-50.5 -77t-50.5 -61.5t-54 -46.5t-51 -15.5q-10 0 -20.5 3.5t-23.5 11t-21.5 25t-8.5 41.5q0 36 22 92.5t61.5 119t88 118t110.5 91.5t120 36q29 0 40.5 -10t11.5 -23q0 -12 -10 -21zM172 561q23 0 60 40.5t75 102t70.5 119t57 105.5t25.5 48q-54 -14 -111.5 -66
t-98.5 -113.5t-67.5 -120.5t-26.5 -91q0 -24 16 -24z" />
    <glyph glyph-name="colon" unicode=":" horiz-adv-x="233" 
d="M123 395q-25 0 -37.5 18t-12.5 42q0 14 14 35t36 21t40.5 -14.5t18.5 -34.5q0 -19 -17 -43t-42 -24zM100 299q11 0 22 -4t19 -10.5t13.5 -15.5t5.5 -19q0 -18 -17 -42.5t-43 -24.5q-24 0 -37 18t-13 42q0 14 14.5 35t35.5 21z" />
    <glyph glyph-name="semicolon" unicode=";" horiz-adv-x="294" 
d="M184 511q22 0 40.5 -14.5t18.5 -34.5q0 -18 -16.5 -42.5t-42.5 -24.5q-17 0 -28.5 9t-16.5 22.5t-5 28.5q0 14 14 35t36 21zM146 254q32 0 32 -43q0 -76 -33.5 -136.5t-62.5 -60.5q-13 0 -22.5 9t-9.5 21q0 8 11 20.5t23.5 26.5t23.5 46.5t11 75.5v6.5v5v2.5q0 13 8 20
t19 7z" />
    <glyph glyph-name="less" unicode="&#x3c;" horiz-adv-x="282" 
d="M290 355q0 -3 -0.5 -5.5l-1 -5t-3 -5l-4.5 -4.5t-6.5 -5l-9 -6t-12.5 -7.5t-15 -9t-19 -11.5t-24 -13l-21 -14t-24 -16.5t-22 -13.5q11 -9 13 -10q70 -45 84.5 -56t14.5 -22.5t-10 -20.5t-23 -9q-10 0 -19 7q-21 16 -60 39.5t-58.5 39.5t-19.5 33q0 11 8.5 22t28.5 24
t40.5 25t56 32.5t63.5 38.5q7 4 15 4q12 0 20 -9.5t8 -21.5z" />
    <glyph glyph-name="equal" unicode="=" horiz-adv-x="426" 
d="M386 330q13 0 20.5 -9t7.5 -20.5t-7.5 -20.5t-20.5 -9h-1h-6q-27 0 -57.5 -1t-54 -2.5t-58.5 -4.5t-54 -5t-59 -6t-55 -5q-2 -1 -3 -1q-6 0 -11 2.5t-8 6t-4.5 8.5t-1.5 10q0 12 7.5 21.5t20.5 10.5q9 1 64.5 6.5t74 7.5t60.5 5.5t74.5 4.5t64.5 1h7zM425 580
q8 0 13.5 -4t8.5 -10t3 -13q0 -12 -7.5 -21.5t-20.5 -10.5q-35 -3 -150 -16t-179 -17h-2q-12 0 -19 8t-7 19q0 8 3 14.5t9.5 11.5t15.5 6q39 2 97.5 8t105 11t85 9.5t44.5 4.5z" />
    <glyph glyph-name="greater" unicode="&#x3e;" horiz-adv-x="301" 
d="M112 365q21 -16 60 -39t58.5 -39.5t19.5 -32.5q0 -11 -8.5 -22t-28.5 -24.5t-40 -25t-55.5 -32t-64.5 -38.5q-7 -5 -15 -5q-11 0 -19.5 9.5t-8.5 22t8.5 19.5t45.5 29q25 14 41 24q10 6 32.5 21.5t34.5 22.5q-10 8 -13 9q-70 46 -84 56.5t-14 22.5q0 7 4.5 14t12 11
t15.5 4q11 0 19 -7z" />
    <glyph glyph-name="question" unicode="?" horiz-adv-x="552" 
d="M106 58q11 0 19.5 -8.5t8.5 -19.5q0 -19 -8.5 -29t-22.5 -10q-11 0 -19.5 9t-8.5 19q0 13 4.5 22t11 13t15.5 4zM478 1119q47 0 84 -32t55.5 -77.5t18.5 -92.5q0 -41 -14 -82.5t-37.5 -78t-55 -75t-65.5 -73.5t-71 -75t-69 -77t-61.5 -81.5t-47.5 -87.5q-8 -19 -30 -19
q-11 0 -20 6.5t-9 17.5q0 31 23.5 72.5t60.5 84.5t82 90.5t90 96.5t82 96t60 95t23 88q0 30 -9.5 62t-34 57.5t-56.5 25.5q-44 0 -81.5 -26t-58 -60t-26.5 -68q-4 -21 -25 -21q-13 0 -23 8.5t-10 21.5q0 10 6 28t17.5 41t31 46.5t43 43.5t57 32.5t70.5 12.5z" />
    <glyph glyph-name="at" unicode="@" horiz-adv-x="688" 
d="M566 817q30 0 53.5 -10t37.5 -23.5t24.5 -35.5t15 -37t6.5 -37.5t2 -27.5v-16q0 -55 -15 -126t-41 -137t-66.5 -111t-85.5 -45q-41 0 -64 41.5t-23 110.5v10v5q-38 -47 -74.5 -106.5t-56.5 -81.5t-48 -22q-9 0 -17.5 6t-10.5 15q-1 6 -1 13q0 10 14.5 46t42 84t61 93
t77.5 76.5t86 31.5q19 0 36.5 -11t17.5 -28q0 -12 -9 -21.5t-21 -9.5q-11 0 -20 9q-1 2 -5 2q-10 0 -33 -11q20 -18 20 -61q0 -7 -0.5 -19t-0.5 -20q0 -91 33 -91q20 0 46 33.5t48 84t37 115t15 120.5q0 133 -79 133q-55 0 -121 -57.5t-124 -148t-107 -193.5t-78 -201.5
t-29 -164.5q0 -16 2 -27.5t8 -24t19 -18.5t32 -6q30 0 68.5 14t68 28t36.5 14q13 0 22 -9.5t9 -21.5q0 -15 -15 -22q-1 -1 -15.5 -7.5t-18 -8.5t-17.5 -8t-20 -8.5t-19.5 -8t-21.5 -7.5t-20.5 -5.5t-21.5 -5t-20 -3t-21 -1.5q-37 0 -63 17.5t-38.5 46.5t-12.5 67
q0 58 21.5 142t57.5 176t87.5 183.5t107 164t120 118t122.5 45.5z" />
    <glyph glyph-name="A" unicode="A" horiz-adv-x="1190" 
d="M1107 560h11q17 0 25.5 -0.5t19.5 -3t15.5 -9.5t4.5 -18.5t-7 -20t-20 -8.5q-1 0 -5 0.5t-9.5 0.5h-15h-18.5q-33 0 -67 -2q-38 -112 -87 -238.5t-81.5 -204t-33.5 -82.5q-6 -21 -27 -21q-12 0 -21.5 8t-9.5 20q0 10 21.5 59.5t71.5 175.5t103 278q-217 -25 -526 -134
q-53 -80 -90 -150t-50.5 -107.5t-22.5 -66t-15.5 -38t-20.5 -9.5q-12 0 -21.5 7.5t-9.5 19.5q0 7 10 41t44.5 111t83.5 157q-87 -34 -154 -67t-93 -47t-33 -14q-12 0 -20.5 9.5t-8.5 21.5q0 16 64 51t144 68.5t154 60.5q96 139 198 256.5t187 191.5t152.5 115t106.5 41
q40 0 58.5 -29.5t18.5 -77.5q0 -39 -17 -131t-56 -215q25 1 47 1zM997 555q76 235 76 360q0 14 -1.5 22.5t-6 11.5t-6.5 3.5t-9 0.5q-13 0 -42.5 -14.5t-81 -52.5t-112 -93t-142 -147.5t-163.5 -204.5q290 95 488 114z" />
    <glyph glyph-name="A" unicode="&#xc1;" horiz-adv-x="1190" 
d="M1107 560h11q17 0 25.5 -0.5t19.5 -3t15.5 -9.5t4.5 -18.5t-7 -20t-20 -8.5q-1 0 -5 0.5t-9.5 0.5h-15h-18.5q-33 0 -67 -2q-38 -112 -87 -238.5t-81.5 -204t-33.5 -82.5q-6 -21 -27 -21q-12 0 -21.5 8t-9.5 20q0 10 21.5 59.5t71.5 175.5t103 278q-217 -25 -526 -134
q-53 -80 -90 -150t-50.5 -107.5t-22.5 -66t-15.5 -38t-20.5 -9.5q-12 0 -21.5 7.5t-9.5 19.5q0 7 10 41t44.5 111t83.5 157q-87 -34 -154 -67t-93 -47t-33 -14q-12 0 -20.5 9.5t-8.5 21.5q0 16 64 51t144 68.5t154 60.5q96 139 198 256.5t187 191.5t152.5 115t106.5 41
q40 0 58.5 -29.5t18.5 -77.5q0 -39 -17 -131t-56 -215q25 1 47 1zM997 555q76 235 76 360q0 14 -1.5 22.5t-6 11.5t-6.5 3.5t-9 0.5q-13 0 -42.5 -14.5t-81 -52.5t-112 -93t-142 -147.5t-163.5 -204.5q290 95 488 114z" />
    <glyph glyph-name="B" unicode="B" horiz-adv-x="1242" 
d="M820 666q98 0 169.5 -7.5t114.5 -19.5t67.5 -32t33 -40.5t8.5 -47.5q0 -57 -49.5 -128.5t-131 -141t-188 -136.5t-216.5 -118t-222 -82.5t-200 -31.5h-2q-11 0 -20.5 0.5t-30 3.5t-36 11t-32.5 20t-26 34.5t-9 51.5q0 43 25 97.5t77 121t144.5 146t215.5 159.5
q111 274 122 293q16 20 29 20q7 0 14 -2.5t11 -8t4 -13.5v-1q0 -4 -16 -41q-36 -88 -79 -193l7.5 5t6.5 4l5 2.5t4.5 2.5t3.5 1.5l4 1t4 0.5q11 0 19.5 -10t8.5 -22q0 -11 -7.5 -18t-42.5 -29q-30 -18 -51 -31q-45 -113 -103 -260q-51 -128 -65 -156t-30 -28q-12 0 -22 9
t-10 22v1q-1 1 16 41q54 131 128 314q-30 -21 -69.5 -52t-93.5 -80t-97.5 -97t-74 -101.5t-30.5 -95.5q0 -64 92 -64q87 0 195.5 30.5t212.5 79.5t204.5 112t175.5 126.5t121 125.5t46 106q0 45 -75.5 66.5t-260.5 21.5q-49 0 -83 -4t-49 -8t-18 -4q-12 0 -21 8.5t-9 21.5
q0 17 34 39.5t81 44t110 58.5t107 76q6 5 14 14t14.5 17t8.5 12q-17 4 -49 4q-38 0 -88.5 -4t-97 -9.5t-86.5 -11.5t-65.5 -10l-25.5 -4q-13 0 -22 10t-9 23q0 16 55 29.5t127.5 20.5t129 11t74.5 4q60 0 88 -12.5t28 -47.5q0 -40 -55.5 -89.5t-204.5 -130.5h13z" />
    <glyph glyph-name="C" unicode="C" horiz-adv-x="1159" 
d="M1167 476q11 0 19 -9.5t8 -21.5q0 -13 -69.5 -65t-181.5 -120t-236.5 -133t-252 -109.5t-210.5 -44.5q-39 0 -72 9t-61 28.5t-44.5 55t-16.5 83.5q0 72 36.5 164t96.5 182.5t138.5 178.5t160 155t165 108t149.5 41q55 0 87 -24t32 -61q0 -16 -5 -30.5t-18 -29.5t-21 -23
t-27.5 -24t-23.5 -19q-8 -7 -19 -7q-12 0 -22 9t-10 20t10 20q2 1 18.5 14t26.5 22.5t20.5 23t10.5 23.5q0 14 -17 21t-39 7q-58 0 -134.5 -38.5t-151.5 -101.5t-149 -145.5t-130 -166.5t-90.5 -169t-34.5 -150q0 -118 137 -118q84 0 208 46t243.5 111.5t225.5 131t174 111
t70 45.5z" />
    <glyph glyph-name="D" unicode="D" horiz-adv-x="1243" 
d="M862 1027q27 0 50.5 -1t63.5 -7t72 -16.5t68.5 -32t61 -50.5t40.5 -74.5t16 -102.5q0 -86 -38.5 -173t-105 -162t-152.5 -143.5t-183.5 -121.5t-196 -92.5t-191.5 -60.5t-168 -21h-1q-3 -1 -15 0.5t-28.5 2.5t-35 10t-34 20.5t-25.5 35t-10 53.5q0 27 11.5 62.5t44 87.5
t82.5 108t135 126.5t193 140.5q27 66 65 159q45 111 55.5 129.5t26.5 18.5h1q12 0 20.5 -6.5t8.5 -17.5v-1q0 -4 -37 -96q-31 -75 -55 -132q23 14 30.5 14t14.5 -4.5t10.5 -11.5t3.5 -15q0 -4 -0.5 -6.5t-2 -5.5t-3 -5t-6 -5.5t-8.5 -6t-12.5 -8t-16.5 -10.5t-21.5 -13.5
t-27.5 -16.5q-46 -113 -105 -260q-54 -134 -67.5 -159.5t-28.5 -25.5q-12 0 -22 9t-10 21v2q0 2 19 47q55 132 128 309q-90 -62 -172.5 -138t-139 -155.5t-56.5 -132.5q0 -66 90 -66q87 0 195.5 28.5t216 77.5t210.5 118.5t182 147t127 167.5t48 175q0 12 -0.5 19t-3 26.5
t-7.5 33t-16 34t-26 35.5t-40 31.5t-55.5 26.5t-74.5 17t-96 7q-59 0 -121 -9t-101.5 -18t-41.5 -9q-6 0 -11.5 3t-9 7.5t-6 10t-2.5 11.5q0 21 21 26q146 34 276 34z" />
    <glyph glyph-name="E" unicode="E" horiz-adv-x="821" 
d="M823 265q12 0 22 -9t10 -21q0 -5 -30 -34t-86.5 -70t-125 -80t-158 -66.5t-173.5 -27.5q-60 0 -105 15.5t-68.5 37t-37.5 50t-17.5 47.5t-3.5 38q0 27 8 60t34.5 85t69.5 103.5t122.5 115t184.5 121.5q-43 4 -73 14.5t-43.5 20t-20.5 23t-7.5 17t-0.5 8.5q0 27 40 55.5
t111.5 48t150.5 19.5q53 0 93.5 -7.5t61.5 -19.5t31 -24.5t10 -25.5q0 -14 -10 -30.5t-28 -16.5q-12 0 -21.5 8t-9.5 19q0 4 1.5 8t3 6t2.5 2q-29 23 -138 23q-76 0 -140 -20.5t-96 -45.5q9 -3 31 -10t31.5 -9t31.5 -4.5t50 -2.5t72 3l44 3q13 0 19.5 -8t6.5 -19
q0 -12 -7.5 -21.5t-20.5 -10.5q-40 -3 -106 -33t-139.5 -81t-139.5 -111t-108.5 -130.5t-42.5 -132.5q0 -38 18 -67t57 -46.5t93 -17.5q79 0 161 26t145.5 62.5t115.5 73.5t85.5 63t39.5 26zM385 712l1 1q0 2 -3 2q-1 0 -1 -1t3 -2z" />
    <glyph glyph-name="F" unicode="F" horiz-adv-x="836" 
d="M985 569q0 -18 -8 -22q-19 -10 -197 -18l-422 -19q-71 -180 -123 -332.5t-72 -228t-34.5 -129.5t-23 -69t-24.5 -15q-8 0 -15 3.5t-11.5 9.5t-4.5 15q0 6 27 99.5t87.5 278t129.5 365.5q-193 -9 -194 -9q-12 0 -19 8t-7 20q0 23 20 28t115 8q15 1 24 1.5t24 1t29.5 1
t30.5 1.5q44 114 90 217t93 191t90 153t82.5 101.5t69.5 36.5q5 0 11 -1.5t16.5 -7.5t18.5 -17t13.5 -33t5.5 -52q0 -49 -13 -101q-5 -21 -26 -21q-12 0 -21.5 8t-9.5 20q0 3 2 13.5t4.5 27.5t2.5 37q0 32 -7 68h-1l-1 -1q-4 -2 -9.5 -6t-23 -21.5t-37 -43t-50.5 -75.5
t-64.5 -113.5t-78.5 -161.5t-92 -215q430 20 566 27h11q12 0 19 -8t7 -20zM739 1207l-1 3q0 -1 1 -3z" />
    <glyph glyph-name="G" unicode="G" horiz-adv-x="1007" 
d="M1016 270q11 0 18 -8.5t7 -20.5q0 -16 -12.5 -25t-48.5 -23t-85 -33.5t-139.5 -65.5t-194.5 -109q-79 -150 -157.5 -252t-146 -148.5t-126.5 -46.5q-22 0 -39.5 5.5t-29.5 19t-12 34.5q0 38 44 93.5t102 105t132 103.5t115.5 81t72.5 46q49 94 113 238
q-97 -104 -207 -177t-179 -73q-28 0 -48.5 10.5t-30.5 24t-15.5 32t-6.5 27.5t-1 16q0 58 30 135.5t79 156t116 155t137.5 136t146.5 96t141 36.5q34 0 59 -9.5t36.5 -21.5t19 -27t8.5 -22.5t1 -10.5q0 -12 -7.5 -18t-18.5 -6q-15 0 -21.5 6t-8.5 14t-6.5 16.5t-19.5 14
t-43 5.5q-49 0 -106.5 -25.5t-113.5 -69t-111 -99.5t-101.5 -118.5t-82 -123t-55.5 -117t-20 -98.5q0 -56 43 -56q31 0 86.5 29t121.5 79t139.5 128.5t131.5 165.5q10 14 25 14q7 0 14 -4t11 -11t4 -15q0 -4 -31 -77.5t-71.5 -164t-63.5 -136.5q95 53 195 100t153 68t58 21z
M128 -408q11 0 26 4t47.5 23.5t67.5 51.5t85.5 96.5t101.5 150.5q-63 -42 -116.5 -82.5t-89 -71.5t-62 -57t-42 -46t-23.5 -31.5t-11 -18.5l-0.5 -2t-1.5 -4t-0.5 -4.5t2 -4t5.5 -3t11 -1.5z" />
    <glyph glyph-name="H" unicode="H" horiz-adv-x="925" 
d="M1080 1229q12 0 21.5 -8.5t9.5 -20.5q0 -6 -5 -16.5t-31 -53.5q-160 -306 -270 -548q-176 -388 -219 -607q-5 -28 -9 -34t-19 -6q-8 0 -15 3.5t-12 10.5t-5 16q0 4 2 18t10.5 49.5t22 81.5t39 118.5t59 156t85 199.5t113.5 242q-105 -113 -237 -198.5t-279 -112.5
q-35 -101 -88.5 -219.5t-103 -200.5t-68.5 -82q-6 0 -12.5 2.5t-12.5 9t-6 14.5q0 3 29 78t58 179.5t29 177.5q0 34 -8 58q-20 12 -34 31.5t-14 31t10 19.5t22 8q10 0 28.5 -10.5t31.5 -35.5q25 -10 61 -10q17 0 37 2q131 318 131 454q0 57 -28 57q-12 0 -29.5 -10.5
t-34 -26t-28.5 -28t-20 -21.5q-8 -10 -18 -10q-12 0 -21 10t-9 22q0 14 26 43t66 54t72 25q35 0 58 -29.5t23 -95.5q0 -135 -120 -431q93 24 182 73.5t154.5 105.5t128 127t100.5 125t73 112q27 50 39 70t19 25.5t16 5.5zM213 376q33 71 61 136q-6 -1 -12 -1q-21 0 -40 3
q2 -15 2 -33q0 -43 -11 -105z" />
    <glyph glyph-name="I" unicode="I" horiz-adv-x="426" 
d="M457 1037q41 0 41 -50q0 -57 -99.5 -305t-202.5 -470t-114 -222q-8 0 -15 4t-12 11.5t-5 16.5q0 7 90.5 207t187.5 432.5t110 312.5q-49 -12 -141 -66.5t-127 -111.5q17 -8 43 -8q4 0 8 0.5t5 0.5q12 0 18.5 -8t6.5 -19q0 -33 -43 -33q-7 0 -16 1t-20.5 3.5t-22 7
t-19.5 11t-14 16.5t-5 23q0 41 47 87.5t108 80t116 56t75 22.5z" />
    <glyph glyph-name="J" unicode="J" horiz-adv-x="1483" 
d="M1496 283q21 -3 21 -24q0 -12 -9 -22.5t-23 -10.5l-35 5t-95 9.5t-120 4.5q-54 0 -106 -4q-1 -1 -2 -4q-12 -24 -24 -46.5t-46.5 -81.5t-69 -111t-88.5 -123t-107.5 -128.5t-123.5 -117.5t-139.5 -101t-152 -66.5t-165.5 -25.5q-40 0 -71.5 10t-51 28t-29 41.5t-9.5 50.5
q0 41 27 97.5t78.5 121t121.5 131t162 129.5t192.5 115t220.5 88.5t239 48.5q36 70 66.5 143t47 123t22.5 79q-86 -46 -155.5 -88t-105.5 -67.5t-61.5 -44.5t-37 -27t-19.5 -8q-13 0 -23 9t-10 20q0 15 65.5 62t145.5 96t151.5 87.5t83.5 38.5h1.5t4.5 -0.5t6.5 -1.5t6 -4
t6 -7t4 -10.5t1.5 -14.5q0 -46 -32.5 -139.5t-55.5 -146t-44 -94.5q35 2 70 2q123 0 267 -21zM211 -507l1 -1q11 0 23.5 0.5t48.5 6.5t71.5 17t89 36.5t105 60.5t116.5 92.5t126.5 129.5t131.5 174.5t135 224.5q-113 -15 -224.5 -52.5t-203.5 -87t-175.5 -108.5
t-145.5 -119.5t-108.5 -117.5t-70 -104.5t-23.5 -78.5q0 -73 103 -73z" />
    <glyph glyph-name="K" unicode="K" horiz-adv-x="1267" 
d="M1217 805q0 -9 -35.5 -29.5t-124.5 -62.5t-186.5 -86.5t-276 -126.5t-338.5 -157q27 1 54 1q114 0 237 -25.5t219 -62.5t175 -76.5t122 -69.5t43 -39q0 -8 -4 -15t-10.5 -12t-14.5 -5q-6 0 -49.5 25.5t-115 62t-160 72.5t-207 61.5t-234.5 25.5q-41 0 -80 -3
q-35 -91 -78 -208q-38 -104 -47 -121t-25 -17h-1q-12 0 -21 7t-9 18q0 8 116 314q-25 -4 -45 -8t-28 -6t-12 -2q-8 0 -14.5 4.5t-10 11t-3.5 14.5q0 16 14.5 26t85.5 43q34 16 54 26q224 589 229 601q30 50 41 51q12 0 20.5 -7t8.5 -18l1 -1q0 -4 -71 -188
q-81 -214 -153 -402q264 125 577.5 270t324.5 145q13 0 22.5 -10t9.5 -21zM99 265v1v-1z" />
    <glyph glyph-name="L" unicode="L" horiz-adv-x="1249" 
d="M1154 220q12 0 21 -9.5t9 -21.5q0 -16 -41.5 -37t-113.5 -37t-145 -16q-80 0 -158 16.5t-130 36.5t-118 39.5t-121 24.5q-165 -117 -260 -117q-47 0 -47 37q0 16 16.5 38.5t47 45.5t85.5 39t121 16h19q145 105 358 318q-59 28 -59 116q0 60 29.5 136t67 135t71.5 100
t45 41q7 0 14 -4.5t11 -12t4 -15.5q0 -6 -28.5 -46t-63 -90t-63 -120t-28.5 -127q0 -22 5.5 -36.5t14.5 -20t14.5 -7t11.5 -1.5h0.5h1.5q65 67 124.5 130t97.5 104.5t71 78.5t52.5 58.5t36 37.5t26.5 22.5t19 6.5q13 0 20 -13t7 -31q0 -30 -27.5 -83t-74 -112.5t-101 -114
t-115 -94t-109.5 -46.5q-197 -200 -349 -320q46 -9 106.5 -28.5t107 -36t113.5 -30t133 -13.5q58 0 110.5 10t82 22t51.5 21.5t27 9.5zM1061 892q-99 -108 -164 -178q90 76 164 178zM139 165q44 12 99 44q-60 -13 -99 -44z" />
    <glyph glyph-name="M" unicode="M" horiz-adv-x="1120" 
d="M1150 878q0 -37 -40 -132t-97.5 -210t-114.5 -231t-97 -216t-40 -143q0 -10 1.5 -18.5t1.5 -11.5q0 -8 -4.5 -15t-12 -10.5t-14.5 -3.5q-15 0 -22.5 12t-7.5 43q0 46 29.5 128t76.5 181t97 201t101.5 216t80.5 198q-62 -40 -175 -157t-247 -287q-87 -153 -138.5 -233
t-61.5 -89.5t-17 -7.5h-2q-12 0 -21.5 8t-9.5 20q0 6 15 42t65.5 119.5t121.5 174.5q195 344 201 424l1 1q-27 -14 -68 -52.5t-82 -83.5t-91 -106t-85.5 -106.5t-77 -100.5t-54.5 -73t-28 -38q-64 -103 -111 -175.5t-71.5 -108t-40.5 -53.5t-20 -20.5t-9 -1.5h-1q-8 0 -15 3
t-11.5 9.5t-4.5 13.5q0 14 8 31.5t62.5 99.5t163.5 232q47 77 87.5 147t63 113t40.5 81t22.5 49t7.5 18q-29 -32 -53.5 -59t-39.5 -44t-26 -31.5t-17 -22t-10.5 -13t-7.5 -7t-5.5 -2.5t-7.5 -1q-12 0 -21.5 8.5t-9.5 19.5t50.5 75t109.5 123.5t77 59.5q29 0 29 -53
q0 -43 -45 -143q45 54 72.5 86.5t65 73t63.5 63t53.5 38t48.5 15.5q11 0 20.5 -4.5t16 -13t10 -20t3.5 -24.5q0 -18 -6 -40t-22.5 -60t-50.5 -108q83 95 172.5 177t129.5 82q21 0 33.5 -16.5t12.5 -39.5zM108 -17v3v-3z" />
    <glyph glyph-name="N" unicode="N" horiz-adv-x="1145" 
d="M1227 1011q12 0 21 -6.5t9 -17.5q0 -1 -20 -53.5t-54.5 -138t-77.5 -188t-91.5 -205.5t-94.5 -188t-89.5 -138t-73.5 -53q-29 0 -49 20t-29 54.5t-13 66t-4 68.5q0 137 40 326q-98 -192 -178 -323.5t-144 -206t-113.5 -106t-97.5 -31.5q-41 0 -79.5 24t-38.5 42
q0 11 9.5 20t21.5 9q10 0 21 -9t28 -18t39 -9q33 0 72 25t76.5 68t78 100.5t78.5 122.5t75.5 133t70.5 132.5t63.5 122t54.5 100.5t42.5 68.5t27.5 25.5q12 0 21.5 -8.5t9.5 -19.5q0 -1 -12 -34.5t-30 -91.5t-35.5 -129t-30 -162t-12.5 -175q0 -34 3.5 -61.5t8.5 -42.5
t10.5 -25.5t9 -14t5.5 -3.5q4 0 11 5t24 26.5t38.5 56.5t57.5 104.5t78 162t103 236.5t130 320q8 19 29 19zM826 794z" />
    <glyph glyph-name="O" unicode="O" horiz-adv-x="725" 
d="M535 794q24 0 44.5 -8t34.5 -20.5t25 -29.5t17.5 -34.5t11 -37t6 -35t1.5 -28.5q0 -68 -29 -142t-75 -138.5t-103.5 -124t-115.5 -102t-110.5 -67.5t-86.5 -25q-54 0 -79.5 41.5t-25.5 100.5q0 45 16 103.5t44 119.5t65 123t82 116t91 96.5t95 67t92 24.5zM617 599
q0 7 -0.5 12.5t-2.5 24t-7 33t-13.5 31t-24 25.5t-36.5 9q-56 0 -131.5 -63.5t-139.5 -153.5t-109 -193.5t-45 -178.5q0 -85 48 -85q32 0 88.5 32.5t120 89t120.5 123.5t94.5 146.5t37.5 147.5z" />
    <glyph glyph-name="P" unicode="P" horiz-adv-x="965" 
d="M891 1131q200 0 200 -166q0 -58 -22 -120t-60.5 -118t-88 -110t-106.5 -97t-114 -76t-113 -51t-101 -18q-20 0 -38 3q-196 -431 -372 -431q-8 0 -14 4t-9 10.5t-3 13.5q0 16 7 21.5t22 9t35 9.5t50 29t63 61t77 113.5t90 177.5q-46 24 -46 44q0 11 9.5 20.5t22.5 9.5
q6 0 11 -2.5t12 -8.5t14 -10q29 69 53 131.5t39.5 106.5t28 82.5t19.5 63.5t13 45.5t9.5 31t8 18t9 10t13.5 2.5q12 0 21 -8t9 -20q0 -6 -20 -73.5t-61.5 -185.5t-85.5 -221h15q48 0 117.5 30t143 83.5t137.5 119.5t105 146.5t41 154.5q0 52 -31 80t-104 28
q-65 0 -129.5 -14t-110.5 -33t-91 -44.5t-67 -41.5t-40 -32l-0.5 -1t-1.5 -1q-7 -11 -19 -11q-8 0 -15 4t-12 11.5t-5 16t18 26.5t49 41t77.5 47t98 44t115.5 32.5t127 12.5z" />
    <glyph glyph-name="Q" unicode="Q" horiz-adv-x="923" 
d="M594 210q52 -9 105 -32.5t90 -49t60.5 -48t23.5 -32.5q0 -8 -4.5 -15t-12 -11t-15.5 -4t-24 13t-40.5 32.5t-56 39.5t-81 36t-106.5 20l-4 -4q-126 -100 -207 -100q-64 0 -90 63q-47 -15 -82 -30.5t-48.5 -22t-20.5 -6.5q-13 0 -22 10t-9 22q0 15 15 22q76 37 153 62
q-1 11 -1 22q0 52 21.5 122t57.5 141.5t85.5 141.5t102 124t110.5 87.5t109 33.5q27 0 51.5 -12t44.5 -35.5t31.5 -61t11.5 -84.5q0 -98 -63.5 -216t-184.5 -228zM324 113q36 0 109 46q-71 -6 -146 -25q12 -21 37 -21zM514 219q133 112 201.5 226.5t68.5 206.5q0 16 -2 32
t-7.5 35t-14 33.5t-24 24.5t-35.5 10q-57 0 -132.5 -63.5t-139.5 -153.5t-108.5 -193.5t-44.5 -178.5v-7q110 29 210 29q14 0 28 -1z" />
    <glyph glyph-name="R" unicode="R" horiz-adv-x="939" 
d="M234 303q81 -5 157 -21t132.5 -38.5t106.5 -49.5t83.5 -52.5t58 -48t35.5 -36.5t11 -18q0 -12 -9 -21.5t-21 -9.5q-7 0 -27 17t-48 42t-76.5 55t-106 56t-143 45t-181.5 22q-44 -90 -84 -181q-23 -51 -30 -55l-10 -1q-12 0 -22 9.5t-10 22.5q0 16 91 206q-10 -1 -17.5 -1
t-11 -0.5t-4.5 -0.5q-11 0 -19.5 10t-8.5 22q0 5 1 8.5t5 7.5t8.5 7t14.5 8t20 9.5t27.5 13.5t34.5 17q40 82 79.5 157.5t81.5 154.5t45 86q-38 -36 -72 -77q-9 -17 -31 -17q-12 0 -18.5 8.5t-6.5 20.5q0 16 33 52.5t76.5 73.5t80.5 61q8 16 15 31.5t11 25t8 18.5t6.5 13.5
t5 8.5t5 5.5t5 2.5t7.5 1q11 0 21 -10t10 -23q0 -6 -8 -25q104 47 189 47q67 0 111 -29t44 -79q0 -33 -18 -71.5t-64 -90t-118 -108.5t-188 -129.5t-266 -150.5zM504 825q-30 -62 -98.5 -190.5t-125.5 -239.5q128 69 228 134t159 113t97.5 90.5t52.5 70t14 48.5q0 52 -92 52
q-46 0 -103 -18.5t-83.5 -32.5t-48.5 -27z" />
    <glyph glyph-name="S" unicode="S" horiz-adv-x="767" 
d="M638 969q79 0 79 -101q0 -63 -27 -155.5t-60.5 -176.5t-33.5 -86q-6 -21 -27 -21q-12 0 -21.5 8t-9.5 20q0 9 9 33.5t22.5 56.5t29 74.5t29 84t22.5 87.5t9 84q0 33 -20 33q-36 0 -96.5 -46.5t-117 -112t-98 -144.5t-41.5 -137q0 -36 12 -70t31.5 -62.5t42.5 -55
t46.5 -50.5t42.5 -45.5t31 -44t12 -42.5q0 -22 -12.5 -38t-33.5 -24t-41.5 -12t-42.5 -4q-54 0 -128 19.5t-135 58t-61 82.5q0 6 2.5 11t7 8.5t10 5.5t11.5 2q8 0 13 -1.5t7 -4.5t4 -8t4 -10.5t8.5 -13t15.5 -15.5t26.5 -17.5t41.5 -18.5q92 -37 179 -37q30 0 48.5 6.5
t18.5 15.5q0 10 -22.5 34.5t-54.5 58.5t-64.5 74.5t-55 93.5t-22.5 105q0 73 46.5 164t111 163t135 121.5t117.5 49.5z" />
    </font>
</defs>
</svg>
